<?xml version="1.0" encoding="UTF-8" standalone="no"?>
<!-- Created with Inkscape (http://www.inkscape.org/) -->

<svg
   xmlns:ns0="http://www.iki.fi/pav/software/textext/"
   xmlns:dc="http://purl.org/dc/elements/1.1/"
   xmlns:cc="http://creativecommons.org/ns#"
   xmlns:rdf="http://www.w3.org/1999/02/22-rdf-syntax-ns#"
   xmlns:svg="http://www.w3.org/2000/svg"
   xmlns="http://www.w3.org/2000/svg"
   xmlns:sodipodi="http://sodipodi.sourceforge.net/DTD/sodipodi-0.dtd"
   xmlns:inkscape="http://www.inkscape.org/namespaces/inkscape"
   sodipodi:docname="information_bottleneck.pdf"
   inkscape:version="0.48.3.1 r9886"
   version="1.1"
   id="svg2"
   height="500"
   width="550">
  <sodipodi:namedview
     id="base"
     pagecolor="#ffffff"
     bordercolor="#666666"
     borderopacity="1.0"
     inkscape:pageopacity="0.0"
     inkscape:pageshadow="2"
     inkscape:zoom="0.7"
     inkscape:cx="208.65816"
     inkscape:cy="305.79961"
     inkscape:document-units="px"
     inkscape:current-layer="layer1"
     showgrid="false"
     inkscape:snap-global="false"
     inkscape:snap-bbox="true"
     inkscape:bbox-paths="true"
     inkscape:bbox-nodes="true"
     inkscape:snap-bbox-edge-midpoints="true"
     inkscape:snap-bbox-midpoints="true"
     inkscape:window-width="1920"
     inkscape:window-height="1056"
     inkscape:window-x="0"
     inkscape:window-y="24"
     inkscape:window-maximized="1" />
  <defs
     id="defs4">
    <marker
       style="overflow:visible"
       id="Arrow2Lend"
       refX="0"
       refY="0"
       orient="auto"
       inkscape:stockid="Arrow2Lend">
      <path
         transform="matrix(-1.1,0,0,-1.1,-1.1,0)"
         d="M 8.7185878,4.0337352 -2.2072895,0.01601326 8.7185884,-4.0017078 c -1.7454984,2.3720609 -1.7354408,5.6174519 -6e-7,8.035443 z"
         style="fill-rule:evenodd;stroke-width:0.625;stroke-linejoin:round"
         id="path4116"
         inkscape:connector-curvature="0" />
    </marker>
    <marker
       style="overflow:visible"
       id="Arrow1Lend"
       refX="0"
       refY="0"
       orient="auto"
       inkscape:stockid="Arrow1Lend">
      <path
         transform="matrix(-0.8,0,0,-0.8,-10,0)"
         style="fill-rule:evenodd;stroke:#000000;stroke-width:1pt"
         d="M 0,0 5,-5 -12.5,0 5,5 0,0 z"
         id="path4098"
         inkscape:connector-curvature="0" />
    </marker>
    <marker
       style="overflow:visible"
       id="Arrow1Lend-4"
       refX="0"
       refY="0"
       orient="auto"
       inkscape:stockid="Arrow1Lend">
      <path
         transform="matrix(-0.8,0,0,-0.8,-10,0)"
         style="fill-rule:evenodd;stroke:#000000;stroke-width:1pt"
         d="M 0,0 5,-5 -12.5,0 5,5 0,0 z"
         id="path4098-1"
         inkscape:connector-curvature="0" />
    </marker>
    <marker
       style="overflow:visible"
       id="Arrow1Lend-3"
       refX="0"
       refY="0"
       orient="auto"
       inkscape:stockid="Arrow1Lend">
      <path
         transform="matrix(-0.8,0,0,-0.8,-10,0)"
         style="fill-rule:evenodd;stroke:#000000;stroke-width:1pt"
         d="M 0,0 5,-5 -12.5,0 5,5 0,0 z"
         id="path4098-7"
         inkscape:connector-curvature="0" />
    </marker>
    <marker
       style="overflow:visible"
       id="Arrow1Lend-8"
       refX="0"
       refY="0"
       orient="auto"
       inkscape:stockid="Arrow1Lend">
      <path
         transform="matrix(-0.8,0,0,-0.8,-10,0)"
         style="fill-rule:evenodd;stroke:#000000;stroke-width:1pt"
         d="M 0,0 5,-5 -12.5,0 5,5 0,0 z"
         id="path4098-4"
         inkscape:connector-curvature="0" />
    </marker>
    <marker
       style="overflow:visible"
       id="Arrow1Lend-7"
       refX="0"
       refY="0"
       orient="auto"
       inkscape:stockid="Arrow1Lend">
      <path
         transform="matrix(-0.8,0,0,-0.8,-10,0)"
         style="fill-rule:evenodd;stroke:#000000;stroke-width:1pt"
         d="M 0,0 5,-5 -12.5,0 5,5 0,0 z"
         id="path4098-9"
         inkscape:connector-curvature="0" />
    </marker>
    <marker
       style="overflow:visible"
       id="Arrow1Lend-0"
       refX="0"
       refY="0"
       orient="auto"
       inkscape:stockid="Arrow1Lend">
      <path
         inkscape:connector-curvature="0"
         transform="matrix(-0.8,0,0,-0.8,-10,0)"
         style="fill-rule:evenodd;stroke:#000000;stroke-width:1pt"
         d="M 0,0 5,-5 -12.5,0 5,5 0,0 z"
         id="path4098-3" />
    </marker>
    <marker
       style="overflow:visible"
       id="Arrow1Lend-6"
       refX="0"
       refY="0"
       orient="auto"
       inkscape:stockid="Arrow1Lend">
      <path
         inkscape:connector-curvature="0"
         transform="matrix(-0.8,0,0,-0.8,-10,0)"
         style="fill-rule:evenodd;stroke:#000000;stroke-width:1pt"
         d="M 0,0 5,-5 -12.5,0 5,5 0,0 z"
         id="path4098-5" />
    </marker>
    <marker
       style="overflow:visible"
       id="marker7045"
       refX="0"
       refY="0"
       orient="auto"
       inkscape:stockid="Arrow1Lend">
      <path
         inkscape:connector-curvature="0"
         transform="matrix(-0.8,0,0,-0.8,-10,0)"
         style="fill-rule:evenodd;stroke:#000000;stroke-width:1pt"
         d="M 0,0 5,-5 -12.5,0 5,5 0,0 z"
         id="path7047" />
    </marker>
    <marker
       style="overflow:visible"
       id="Arrow1Lend-5"
       refX="0"
       refY="0"
       orient="auto"
       inkscape:stockid="Arrow1Lend">
      <path
         transform="matrix(-0.8,0,0,-0.8,-10,0)"
         style="fill-rule:evenodd;stroke:#000000;stroke-width:1pt"
         d="M 0,0 5,-5 -12.5,0 5,5 0,0 z"
         id="path4098-47"
         inkscape:connector-curvature="0" />
    </marker>
    <marker
       style="overflow:visible"
       id="Arrow1Lend-39"
       refX="0"
       refY="0"
       orient="auto"
       inkscape:stockid="Arrow1Lend">
      <path
         inkscape:connector-curvature="0"
         transform="matrix(-0.8,0,0,-0.8,-10,0)"
         style="fill-rule:evenodd;stroke:#000000;stroke-width:1pt"
         d="M 0,0 5,-5 -12.5,0 5,5 0,0 z"
         id="path4098-73" />
    </marker>
    <marker
       style="overflow:visible"
       id="Arrow1Lend-41"
       refX="0"
       refY="0"
       orient="auto"
       inkscape:stockid="Arrow1Lend">
      <path
         inkscape:connector-curvature="0"
         transform="matrix(-0.8,0,0,-0.8,-10,0)"
         style="fill-rule:evenodd;stroke:#000000;stroke-width:1pt"
         d="M 0,0 5,-5 -12.5,0 5,5 0,0 z"
         id="path4098-8" />
    </marker>
    <marker
       style="overflow:visible"
       id="Arrow1Lend-2"
       refX="0"
       refY="0"
       orient="auto"
       inkscape:stockid="Arrow1Lend">
      <path
         inkscape:connector-curvature="0"
         transform="matrix(-0.8,0,0,-0.8,-10,0)"
         style="fill-rule:evenodd;stroke:#000000;stroke-width:1pt"
         d="M 0,0 5,-5 -12.5,0 5,5 0,0 z"
         id="path4098-6" />
    </marker>
    <marker
       style="overflow:visible"
       id="Arrow1Lend-65"
       refX="0"
       refY="0"
       orient="auto"
       inkscape:stockid="Arrow1Lend">
      <path
         transform="matrix(-0.8,0,0,-0.8,-10,0)"
         style="fill-rule:evenodd;stroke:#000000;stroke-width:1pt"
         d="M 0,0 5,-5 -12.5,0 5,5 0,0 z"
         id="path4098-19"
         inkscape:connector-curvature="0" />
    </marker>
  </defs>
  <metadata
     id="metadata7">
    <rdf:RDF>
      <cc:Work
         rdf:about="">
        <dc:format>image/svg+xml</dc:format>
        <dc:type
           rdf:resource="http://purl.org/dc/dcmitype/StillImage" />
        <dc:title></dc:title>
      </cc:Work>
    </rdf:RDF>
  </metadata>
  <g
     inkscape:label="Layer 1"
     inkscape:groupmode="layer"
     id="layer1"
     transform="translate(0,-552.36218)">
    <path
       style="fill:none;stroke:#0000ff;stroke-width:3.03158283;stroke-linecap:butt;stroke-linejoin:miter;stroke-miterlimit:4;stroke-opacity:1;stroke-dasharray:6.06316587, 6.06316587;stroke-dashoffset:0"
       d="m 110.87293,577.80654 c 0,0 193.03341,11.05168 280.12078,87.13369 94.83255,82.84841 129.84764,212.83473 129.84764,212.83473"
       id="path5584"
       inkscape:connector-curvature="0"
       sodipodi:nodetypes="csc" />
    <rect
       style="fill:none;stroke:#000000;stroke-width:2.67419577;stroke-linecap:round;stroke-linejoin:round;stroke-miterlimit:4;stroke-opacity:1;stroke-dasharray:none;stroke-dashoffset:0"
       id="rect2989-7-2-2"
       width="157.21672"
       height="71.8881"
       x="233.66229"
       y="881.33105"
       ry="13.913826" />
    <path
       inkscape:connector-curvature="0"
       id="path4089-8-5"
       d="m 391.16404,920.30551 94.48876,0"
       style="fill:none;stroke:#000000;stroke-width:1.5;stroke-linecap:butt;stroke-linejoin:miter;stroke-miterlimit:4;stroke-opacity:1;stroke-dasharray:none;marker-end:url(#Arrow1Lend)" />
    <path
       inkscape:connector-curvature="0"
       id="path4089-8-5-4"
       d="m 121.59714,919.29535 111.06026,0"
       style="fill:none;stroke:#000000;stroke-width:1.5;stroke-linecap:butt;stroke-linejoin:miter;stroke-miterlimit:4;stroke-opacity:1;stroke-dasharray:none;marker-end:url(#Arrow1Lend)" />
    <path
       inkscape:connector-curvature="0"
       id="path4089-8-9-3"
       d="m 75.31661,886.76847 0.0967,-98.57564"
       style="fill:none;stroke:#000000;stroke-width:1.5;stroke-linecap:butt;stroke-linejoin:miter;stroke-miterlimit:4;stroke-opacity:1;stroke-dasharray:none;marker-end:url(#Arrow1Lend)" />
    <rect
       style="fill:none;stroke:#000000;stroke-width:2.44514585;stroke-linecap:round;stroke-linejoin:round;stroke-miterlimit:4;stroke-opacity:1;stroke-dasharray:none;stroke-dashoffset:0"
       id="rect2989-7-2-8"
       width="131.0208"
       height="72.117149"
       x="7.8608475"
       y="715.56171"
       ry="13.958158" />
    <path
       inkscape:connector-curvature="0"
       id="path4089-8-9-3-3"
       d="m 74.29201,715.62883 0.0967,-98.57564"
       style="fill:none;stroke:#000000;stroke-width:1.5;stroke-linecap:butt;stroke-linejoin:miter;stroke-miterlimit:4;stroke-opacity:1;stroke-dasharray:none;marker-end:url(#Arrow1Lend)" />
    <rect
       ry="3.6553826"
       y="1007.9336"
       x="727.00006"
       height="30"
       width="220"
       id="rect11095-5-4"
       style="fill:#ffffff;fill-opacity:1;fill-rule:evenodd;stroke:none" />
    <g
       id="content"
       transform="matrix(5,0,0,-5,-1056.5537,3886.6336)"
       xml:space="preserve"
       stroke-miterlimit="10.433"
       font-style="normal"
       font-variant="normal"
       font-weight="normal"
       font-stretch="normal"
       font-size-adjust="none"
       letter-spacing="normal"
       word-spacing="normal"
       ns0:text="$Y$"
       ns0:preamble="/home/erik/.config/inkscape/extensions/anyname.ini"
       style="font-style:normal;font-variant:normal;font-weight:normal;font-stretch:normal;letter-spacing:normal;word-spacing:normal;text-anchor:start;fill:none;stroke:#000000;stroke-linecap:butt;stroke-linejoin:miter;stroke-miterlimit:10.43299961;stroke-opacity:1;stroke-dasharray:none;stroke-dashoffset:0">
<path
   style="fill:#000000;stroke-width:0"
   inkscape:connector-curvature="0"
   d="m 229.37,662.89 0.14,0.14 c 0.3,0.29 0.63,0.63 1.3,0.68 0.11,0.01 0.2,0.01 0.2,0.19 0,0.08 -0.05,0.12 -0.13,0.12 -0.26,0 -0.54,-0.03 -0.81,-0.03 -0.33,0 -0.68,0.03 -1,0.03 -0.06,0 -0.19,0 -0.19,-0.19 0,-0.11 0.1,-0.12 0.15,-0.12 0.07,0 0.36,-0.02 0.36,-0.23 0,-0.16 -0.23,-0.42 -0.27,-0.47 l -2.3,-2.66 -1.1,2.95 c -0.06,0.14 -0.06,0.16 -0.06,0.17 0,0.24 0.49,0.24 0.59,0.24 0.14,0 0.24,0 0.24,0.2 0,0.11 -0.12,0.11 -0.15,0.11 -0.28,0 -0.98,-0.03 -1.26,-0.03 -0.24,0 -0.86,0.03 -1.11,0.03 -0.06,0 -0.19,0 -0.19,-0.2 0,-0.11 0.1,-0.11 0.23,-0.11 0.6,0 0.64,-0.09 0.73,-0.34 l 1.22,-3.26 c 0.01,-0.03 0.04,-0.14 0.04,-0.17 0,-0.03 -0.4,-1.63 -0.45,-1.81 -0.13,-0.55 -0.14,-0.58 -0.93,-0.59 -0.19,0 -0.27,0 -0.27,-0.2 0,-0.11 0.12,-0.11 0.14,-0.11 0.27,0 0.97,0.04 1.25,0.04 0.28,0 1,-0.04 1.27,-0.04 0.07,0 0.19,0 0.19,0.2 0,0.11 -0.09,0.11 -0.28,0.11 -0.02,0 -0.21,0 -0.37,0.02 -0.21,0.02 -0.27,0.04 -0.27,0.16 0,0.07 0.09,0.42 0.14,0.63 l 0.34,1.4 c 0.06,0.19 0.06,0.22 0.14,0.31 z"
   id="path3294" />
</g>    <g
       style="font-style:normal;font-variant:normal;font-weight:normal;font-stretch:normal;letter-spacing:normal;word-spacing:normal;text-anchor:start;fill:none;stroke:#000000;stroke-linecap:butt;stroke-linejoin:miter;stroke-miterlimit:10.43299961;stroke-opacity:1;stroke-dasharray:none;stroke-dashoffset:0"
       ns0:preamble="/home/erik/.config/inkscape/extensions/anyname.ini"
       ns0:text="$X$"
       word-spacing="normal"
       letter-spacing="normal"
       font-size-adjust="none"
       font-stretch="normal"
       font-weight="normal"
       font-variant="normal"
       font-style="normal"
       stroke-miterlimit="10.433"
       xml:space="preserve"
       transform="matrix(5,0,0,-5,-1065.9137,4221.9334)"
       id="g3607">
<path
   id="path3609"
   d="m 228.26,661.32 -0.84,1.97 c -0.03,0.08 -0.05,0.12 -0.05,0.13 0,0.06 0.17,0.25 0.59,0.29 0.1,0.01 0.2,0.02 0.2,0.19 0,0.12 -0.12,0.12 -0.15,0.12 -0.41,0 -0.84,-0.03 -1.25,-0.03 -0.25,0 -0.87,0.03 -1.12,0.03 -0.06,0 -0.18,0 -0.18,-0.2 0,-0.11 0.1,-0.11 0.23,-0.11 0.6,0 0.66,-0.1 0.75,-0.32 l 1.17,-2.77 -2.1,-2.25 -0.13,-0.11 c -0.48,-0.53 -0.95,-0.69 -1.46,-0.72 -0.13,-0.01 -0.22,-0.01 -0.22,-0.2 0,-0.01 0,-0.11 0.13,-0.11 0.3,0 0.63,0.04 0.93,0.04 0.37,0 0.76,-0.04 1.12,-0.04 0.06,0 0.18,0 0.18,0.2 0,0.1 -0.1,0.11 -0.12,0.11 -0.09,0.01 -0.4,0.03 -0.4,0.31 0,0.16 0.15,0.32 0.27,0.45 l 1.01,1.07 0.9,0.97 1.01,-2.37 c 0.03,-0.11 0.04,-0.12 0.04,-0.14 0,-0.08 -0.18,-0.25 -0.57,-0.29 -0.11,-0.01 -0.2,-0.02 -0.2,-0.19 0,-0.12 0.11,-0.12 0.15,-0.12 0.28,0 0.97,0.04 1.25,0.04 0.25,0 0.86,-0.04 1.11,-0.04 0.07,0 0.19,0 0.19,0.19 0,0.12 -0.1,0.12 -0.18,0.12 -0.67,0.01 -0.69,0.04 -0.86,0.44 -0.39,0.92 -1.05,2.47 -1.28,3.07 0.67,0.69 1.72,1.88 2.04,2.16 0.29,0.23 0.66,0.47 1.26,0.5 0.13,0.01 0.22,0.01 0.22,0.2 0,0.01 0,0.11 -0.13,0.11 -0.3,0 -0.63,-0.03 -0.94,-0.03 -0.36,0 -0.74,0.03 -1.1,0.03 -0.06,0 -0.19,0 -0.19,-0.2 0,-0.07 0.05,-0.1 0.12,-0.11 0.09,-0.01 0.4,-0.03 0.4,-0.31 0,-0.13 -0.11,-0.26 -0.19,-0.35 z"
   inkscape:connector-curvature="0"
   style="fill:#000000;stroke-width:0" />
</g>    <path
       style="fill:none;stroke:#0000ff;stroke-width:3;stroke-linecap:butt;stroke-linejoin:miter;stroke-opacity:1;stroke-miterlimit:4;stroke-dasharray:6,6;stroke-dashoffset:0"
       d="m 79.923381,946.57127 c 0,0 30.010419,21.50273 75.740569,39.93363 85.79774,34.5796 214.06978,49.5975 304.39134,1.02393 47.53756,-25.56498 61.4499,-35.83786 61.4499,-35.83786"
       id="path5588"
       inkscape:connector-curvature="0"
       sodipodi:nodetypes="cssc" />
    <rect
       style="fill:#ffffff;fill-opacity:1;fill-rule:evenodd;stroke:none"
       id="rect6390-3"
       width="161.42859"
       height="41.42857"
       x="225.85715"
       y="989.64789"
       ry="13.913826" />
    <rect
       ry="11.38404"
       y="646.93359"
       x="314.57141"
       height="77.142853"
       width="147.14285"
       id="rect7783"
       style="fill:#ffffff;fill-opacity:1;fill-rule:evenodd;stroke:none" />
    <g
       style="font-style:normal;font-variant:normal;font-weight:normal;font-stretch:normal;letter-spacing:normal;word-spacing:normal;text-anchor:start;fill:none;stroke:#000000;stroke-linecap:butt;stroke-linejoin:miter;stroke-miterlimit:10.43299961;stroke-opacity:1;stroke-dasharray:none;stroke-dashoffset:0"
       ns0:preamble="/home/erik/.config/inkscape/extensions/anyname.ini"
       ns0:text="$\\hat{X}$"
       word-spacing="normal"
       letter-spacing="normal"
       font-size-adjust="none"
       font-stretch="normal"
       font-weight="normal"
       font-variant="normal"
       font-style="normal"
       stroke-miterlimit="10.433"
       xml:space="preserve"
       transform="matrix(5,0,0,-5,-611.23572,4225.1189)"
       id="g7918">
<polygon
   style="fill:#000000;stroke-width:0"
   id="polygon7920"
   points="228.78,666.13 229.92,665.12 230.1,665.3 228.78,666.65 227.44,665.3 227.62,665.12 " />
<path
   style="fill:#000000;stroke-width:0"
   inkscape:connector-curvature="0"
   id="path7922"
   d="m 228.26,661.32 -0.84,1.97 c -0.03,0.08 -0.05,0.12 -0.05,0.13 0,0.06 0.17,0.25 0.59,0.29 0.1,0.01 0.2,0.02 0.2,0.19 0,0.12 -0.12,0.12 -0.15,0.12 -0.41,0 -0.84,-0.03 -1.25,-0.03 -0.25,0 -0.87,0.03 -1.12,0.03 -0.06,0 -0.18,0 -0.18,-0.2 0,-0.11 0.1,-0.11 0.23,-0.11 0.6,0 0.66,-0.1 0.75,-0.32 l 1.17,-2.77 -2.1,-2.25 -0.13,-0.11 c -0.48,-0.53 -0.95,-0.69 -1.46,-0.72 -0.13,-0.01 -0.22,-0.01 -0.22,-0.2 0,-0.01 0,-0.11 0.13,-0.11 0.3,0 0.63,0.04 0.93,0.04 0.37,0 0.76,-0.04 1.12,-0.04 0.06,0 0.18,0 0.18,0.2 0,0.1 -0.1,0.11 -0.12,0.11 -0.09,0.01 -0.4,0.03 -0.4,0.31 0,0.16 0.15,0.32 0.27,0.45 l 1.01,1.07 0.9,0.97 1.01,-2.37 c 0.03,-0.11 0.04,-0.12 0.04,-0.14 0,-0.08 -0.18,-0.25 -0.57,-0.29 -0.11,-0.01 -0.2,-0.02 -0.2,-0.19 0,-0.12 0.11,-0.12 0.15,-0.12 0.28,0 0.97,0.04 1.25,0.04 0.25,0 0.86,-0.04 1.11,-0.04 0.07,0 0.19,0 0.19,0.19 0,0.12 -0.1,0.12 -0.18,0.12 -0.67,0.01 -0.69,0.04 -0.86,0.44 -0.39,0.92 -1.05,2.47 -1.28,3.07 0.67,0.69 1.72,1.88 2.04,2.16 0.29,0.23 0.66,0.47 1.26,0.5 0.13,0.01 0.22,0.01 0.22,0.2 0,0.01 0,0.11 -0.13,0.11 -0.3,0 -0.63,-0.03 -0.94,-0.03 -0.36,0 -0.74,0.03 -1.1,0.03 -0.06,0 -0.19,0 -0.19,-0.2 0,-0.07 0.05,-0.1 0.12,-0.11 0.09,-0.01 0.4,-0.03 0.4,-0.31 0,-0.13 -0.11,-0.26 -0.19,-0.35 z" />
</g>    <g
       id="g8402"
       transform="matrix(5,0,0,-5,-854.15323,4217.1772)"
       xml:space="preserve"
       stroke-miterlimit="10.433"
       font-style="normal"
       font-variant="normal"
       font-weight="normal"
       font-stretch="normal"
       font-size-adjust="none"
       letter-spacing="normal"
       word-spacing="normal"
       ns0:text="$Q\\left(\\cdot\\right)$"
       ns0:preamble="/home/erik/.config/inkscape/extensions/anyname.ini"
       style="font-style:normal;font-variant:normal;font-weight:normal;font-stretch:normal;letter-spacing:normal;word-spacing:normal;text-anchor:start;fill:none;stroke:#000000;stroke-linecap:butt;stroke-linejoin:miter;stroke-miterlimit:10.43299961;stroke-opacity:1;stroke-dasharray:none;stroke-dashoffset:0">
<path
   style="fill:#000000;stroke-width:0"
   inkscape:connector-curvature="0"
   d="m 227.79,657.29 0.14,0.06 0.15,0.07 0.14,0.07 0.14,0.08 0.14,0.08 0.14,0.09 0.14,0.1 0.13,0.1 0.13,0.11 0.13,0.11 0.13,0.12 0.12,0.12 0.12,0.13 0.11,0.13 0.11,0.13 0.11,0.14 0.1,0.14 0.1,0.15 0.09,0.15 0.09,0.16 0.08,0.15 0.08,0.16 0.07,0.17 0.06,0.16 0.06,0.17 0.05,0.17 0.04,0.17 0.04,0.18 0.03,0.17 0.02,0.18 0.01,0.18 0,0.18 c 0,1.59 -1.05,2.67 -2.53,2.67 l -0.06,-0.25 c 0.99,0 1.72,-0.77 1.72,-2.11 0,-0.99 -0.51,-3.31 -2.18,-4.25 -0.05,0.35 -0.15,1.08 -0.88,1.08 -0.52,0 -1.01,-0.5 -1.01,-1.02 h 0.22 c 0,0.4 0.38,0.8 0.79,0.8 0.42,0 0.61,-0.24 0.61,-0.85 0,-0.15 -0.01,-0.16 -0.11,-0.2 -0.26,-0.11 -0.56,-0.17 -0.83,-0.17 h 0 c -0.14,0 -0.46,0 -0.46,0.42 h -0.22 c 0,-0.2 0.06,-0.31 0.06,-0.32 h 0 c -0.78,0.31 -1.12,1.09 -1.12,1.98 0,0.69 0.26,2.1 1.02,3.17 0.73,1.01 1.66,1.47 2.39,1.47 l 0.06,0.25 c -2.15,0 -4.34,-2.26 -4.34,-4.57 0,-1.65 1.11,-2.65 2.55,-2.65 0.24,0 0.58,0.04 0.97,0.14 -0.04,-0.61 -0.04,-0.63 -0.04,-0.76 0,-0.32 0,-1.09 0.83,-1.09 1.18,0 1.66,1.82 1.66,1.92 0,0.07 -0.07,0.1 -0.11,0.1 -0.08,0 -0.1,-0.05 -0.12,-0.11 -0.24,-0.7 -0.82,-0.95 -1.16,-0.95 -0.46,0 -0.61,0.27 -0.71,1.02 z"
   id="path8404" />
<path
   style="fill:#000000;stroke-width:0"
   inkscape:connector-curvature="0"
   d="m 236.26,654.85 0,0.01 0,0 0,0 0,0.01 0,0 0,0 0,0.01 0,0 0,0 -0.01,0.01 0,0 0,0.01 -0.01,0 0,0.01 0,0 -0.01,0.01 0,0.01 -0.01,0 0,0.01 -0.01,0 0,0.01 0,0 -0.01,0 0,0.01 0,0 -0.01,0.01 0,0 -0.01,0.01 0,0 -0.01,0.01 0,0 -0.01,0.01 -0.01,0.01 0,0 -0.01,0.01 0,0.01 -0.01,0 -0.01,0.01 0,0.01 -0.01,0 -0.01,0.01 -0.01,0.01 c -1.24,1.25 -1.56,3.13 -1.56,4.65 0,1.73 0.38,3.45 1.6,4.7 0.13,0.12 0.13,0.14 0.13,0.17 0,0.07 -0.04,0.09 -0.1,0.09 -0.1,0 -0.99,-0.67 -1.58,-1.93 -0.51,-1.09 -0.63,-2.2 -0.63,-3.03 0,-0.78 0.11,-1.98 0.66,-3.1 0.6,-1.22 1.45,-1.87 1.55,-1.87 0.06,0 0.1,0.03 0.1,0.1 z"
   id="path8406" />
<path
   style="fill:#000000;stroke-width:0"
   inkscape:connector-curvature="0"
   d="m 238.75,659.72 0,0.02 0,0.03 0,0.03 -0.01,0.02 0,0.03 -0.01,0.02 -0.01,0.03 -0.01,0.02 -0.01,0.03 -0.01,0.02 -0.01,0.02 -0.02,0.02 -0.01,0.02 -0.02,0.02 -0.01,0.02 -0.02,0.02 -0.02,0.02 -0.02,0.01 -0.02,0.02 -0.02,0.01 -0.02,0.02 -0.02,0.01 -0.03,0.01 -0.02,0.01 -0.02,0.01 -0.03,0.01 -0.02,0.01 -0.03,0 -0.02,0.01 -0.03,0 -0.03,0 -0.02,0 c -0.29,0 -0.53,-0.23 -0.53,-0.52 0,-0.29 0.24,-0.53 0.53,-0.53 0.28,0 0.52,0.24 0.52,0.53 z"
   id="path8408" />
<path
   style="fill:#000000;stroke-width:0"
   inkscape:connector-curvature="0"
   d="m 242.49,659.72 -0.01,0.07 0,0.08 0,0.08 0,0.08 -0.01,0.17 -0.01,0.17 -0.02,0.18 -0.02,0.19 -0.03,0.2 -0.03,0.2 -0.04,0.2 -0.04,0.21 -0.06,0.21 -0.06,0.21 -0.07,0.21 -0.08,0.21 -0.04,0.11 -0.04,0.11 -0.05,0.1 -0.05,0.11 c -0.6,1.22 -1.45,1.86 -1.55,1.86 -0.06,0 -0.1,-0.03 -0.1,-0.09 0,-0.03 0,-0.05 0.19,-0.23 0.97,-0.99 1.54,-2.57 1.54,-4.64 0,-1.7 -0.37,-3.45 -1.6,-4.7 -0.13,-0.12 -0.13,-0.14 -0.13,-0.17 0,-0.06 0.04,-0.1 0.1,-0.1 0.1,0 0.99,0.68 1.58,1.94 0.51,1.09 0.63,2.19 0.63,3.03 z"
   id="path8410" />
</g>    <g
       style="font-style:normal;font-variant:normal;font-weight:normal;font-stretch:normal;letter-spacing:normal;word-spacing:normal;text-anchor:start;fill:none;stroke:#000000;stroke-linecap:butt;stroke-linejoin:miter;stroke-miterlimit:10.43299961;stroke-opacity:1;stroke-dasharray:none;stroke-dashoffset:0"
       ns0:preamble="/home/erik/.config/inkscape/extensions/anyname.ini"
       ns0:text="$g\\left(\\cdot\\right)$"
       word-spacing="normal"
       letter-spacing="normal"
       font-size-adjust="none"
       font-stretch="normal"
       font-weight="normal"
       font-variant="normal"
       font-style="normal"
       stroke-miterlimit="10.433"
       xml:space="preserve"
       transform="matrix(5,0,0,-5,-1085.8524,4050.2359)"
       id="g8561">
<path
   id="path8563"
   d="m 228.12,660.98 0,0.01 0,0.01 0,0.01 0.01,0.01 0,0.02 0,0.02 0.01,0.01 0,0.01 0,0.01 0,0.01 0,0.01 0.01,0.01 0,0.01 0,0 0,0.01 0,0.01 0,0 0,0.01 c 0,0.17 -0.12,0.27 -0.29,0.27 -0.1,0 -0.37,-0.07 -0.41,-0.43 -0.18,0.37 -0.53,0.63 -0.92,0.63 l 0.01,-0.22 c 0.65,0 0.79,-0.81 0.79,-0.86 0,-0.05 -0.02,-0.11 -0.03,-0.15 l -0.48,-1.89 c -0.06,-0.26 -0.28,-0.51 -0.5,-0.7 -0.21,-0.18 -0.52,-0.36 -0.81,-0.36 -0.5,0 -0.64,0.52 -0.64,0.92 0,0.47 0.28,1.65 0.55,2.15 0.27,0.49 0.7,0.89 1.12,0.89 l -0.01,0.22 c -1.14,0 -2.37,-1.4 -2.37,-2.83 0,-0.98 0.6,-1.57 1.32,-1.57 0.59,0 1.06,0.47 1.16,0.58 l 0.01,-0.01 c -0.21,-0.88 -0.33,-1.29 -0.33,-1.31 -0.04,-0.09 -0.38,-1.07 -1.44,-1.07 -0.18,0 -0.51,0.01 -0.79,0.1 0.3,0.09 0.41,0.34 0.41,0.51 0,0.16 -0.11,0.35 -0.38,0.35 -0.22,0 -0.54,-0.18 -0.54,-0.58 0,-0.4 0.37,-0.6 1.32,-0.6 1.25,0 1.96,0.77 2.11,1.37 z"
   inkscape:connector-curvature="0"
   style="fill:#000000;stroke-width:0" />
<path
   id="path8565"
   d="m 233.49,654.85 0,0.01 0,0 0,0 0,0.01 0,0 0,0 0,0.01 0,0 0,0 0,0.01 -0.01,0 0,0.01 0,0 -0.01,0.01 0,0 -0.01,0.01 0,0.01 -0.01,0 0,0.01 0,0 -0.01,0.01 0,0 0,0 -0.01,0.01 0,0 -0.01,0.01 0,0 -0.01,0.01 0,0 -0.01,0.01 0,0 -0.01,0.01 0,0.01 -0.01,0 0,0.01 -0.01,0.01 -0.01,0 0,0.01 -0.01,0.01 -0.01,0 -0.01,0.01 0,0.01 c -1.25,1.25 -1.57,3.13 -1.57,4.65 0,1.73 0.38,3.45 1.61,4.7 0.12,0.12 0.12,0.14 0.12,0.17 0,0.07 -0.03,0.09 -0.09,0.09 -0.1,0 -1,-0.67 -1.59,-1.93 -0.5,-1.09 -0.62,-2.2 -0.62,-3.03 0,-0.78 0.11,-1.98 0.65,-3.1 0.6,-1.22 1.46,-1.87 1.56,-1.87 0.06,0 0.09,0.03 0.09,0.1 z"
   inkscape:connector-curvature="0"
   style="fill:#000000;stroke-width:0" />
<path
   id="path8567"
   d="m 235.99,659.72 0,0.02 -0.01,0.03 0,0.03 0,0.02 -0.01,0.03 -0.01,0.02 -0.01,0.03 -0.01,0.02 -0.01,0.03 -0.01,0.02 -0.01,0.02 -0.01,0.02 -0.02,0.02 -0.02,0.02 -0.01,0.02 -0.02,0.02 -0.02,0.02 -0.02,0.01 -0.02,0.02 -0.02,0.01 -0.02,0.02 -0.02,0.01 -0.02,0.01 -0.03,0.01 -0.02,0.01 -0.03,0.01 -0.02,0.01 -0.03,0 -0.02,0.01 -0.03,0 -0.02,0 -0.03,0 c -0.29,0 -0.53,-0.23 -0.53,-0.52 0,-0.29 0.24,-0.53 0.53,-0.53 0.29,0 0.53,0.24 0.53,0.53 z"
   inkscape:connector-curvature="0"
   style="fill:#000000;stroke-width:0" />
<path
   id="path8569"
   d="m 239.72,659.72 0,0.07 0,0.08 0,0.08 -0.01,0.08 0,0.17 -0.02,0.17 -0.01,0.18 -0.02,0.19 -0.03,0.2 -0.03,0.2 -0.04,0.2 -0.05,0.21 -0.05,0.21 -0.06,0.21 -0.07,0.21 -0.08,0.21 -0.04,0.11 -0.05,0.11 -0.05,0.1 -0.05,0.11 c -0.59,1.22 -1.45,1.86 -1.55,1.86 -0.06,0 -0.1,-0.03 -0.1,-0.09 0,-0.03 0,-0.05 0.19,-0.23 0.97,-0.99 1.54,-2.57 1.54,-4.64 0,-1.7 -0.37,-3.45 -1.6,-4.7 -0.13,-0.12 -0.13,-0.14 -0.13,-0.17 0,-0.06 0.04,-0.1 0.1,-0.1 0.1,0 1,0.68 1.58,1.94 0.51,1.09 0.63,2.19 0.63,3.03 z"
   inkscape:connector-curvature="0"
   style="fill:#000000;stroke-width:0" />
</g>    <g
       id="g3126"
       transform="matrix(3.8226995,0,0,-3.7225171,-529.63751,3134.6677)"
       xml:space="preserve"
       stroke="black"
       stroke-linecap="butt"
       stroke-linejoin="miter"
       stroke-miterlimit="10.433"
       stroke-dasharray="none"
       stroke-dashoffset="0"
       stroke-opacity="1"
       fill="none"
       fill-rule="evenodd"
       fill-opacity="1"
       font-style="normal"
       font-variant="normal"
       font-weight="normal"
       font-stretch="normal"
       font-size-adjust="none"
       letter-spacing="normal"
       word-spacing="normal"
       text-anchor="start"
       ns0:text="I$\\left(\\hat{X}; Y\\right)$"
       ns0:preamble="/home/erik/.config/inkscape/extensions/anyname.ini"
       style="font-style:normal;font-variant:normal;font-weight:normal;font-stretch:normal;letter-spacing:normal;word-spacing:normal;text-anchor:start;fill:#000000;fill-opacity:1;fill-rule:evenodd;stroke:#000000;stroke-linecap:butt;stroke-linejoin:miter;stroke-miterlimit:10.43299961;stroke-opacity:1;stroke-dasharray:none;stroke-dashoffset:0">
<path
   d="M225.67,661.75 L225.67,661.78 L225.67,661.82 L225.67,661.85 L225.67,661.87 L225.68,661.9 L225.68,661.93 L225.68,661.95 L225.69,661.97 L225.69,662 L225.7,662.02 L225.71,662.04 L225.72,662.06 L225.73,662.07 L225.75,662.09 L225.77,662.1 L225.78,662.12 L225.8,662.13 L225.83,662.14 L225.84,662.15 L225.85,662.15 L225.87,662.16 L225.88,662.16 L225.9,662.17 L225.91,662.17 L225.93,662.18 L225.95,662.18 L225.97,662.19 L225.99,662.19 L226.01,662.19 L226.03,662.2 L226.05,662.2 L226.07,662.2 L226.09,662.2 L226.12,662.21 L226.14,662.21 L226.17,662.21 L226.2,662.21 L226.23,662.21 L226.25,662.21 L226.28,662.22 L226.32,662.22 L226.35,662.22 L226.38,662.22 L226.41,662.22 L226.45,662.22 L226.49,662.22 H226.74 V662.53 C226.4,662.5,225.61,662.5,225.23,662.5 C224.85,662.5,224.06,662.5,223.71,662.53 V662.22 H223.97 C224.76,662.22,224.79,662.11,224.79,661.75 V656.52 C224.79,656.16,224.76,656.05,223.97,656.05 H223.71 V655.74 C224.06,655.77,224.85,655.77,225.22,655.77 C225.61,655.77,226.4,655.77,226.74,655.74 V656.05 H226.49 C225.7,656.05,225.67,656.16,225.67,656.52 Z "
   stroke-width="0"
   fill="black"
   id="path3128" />
<path
   d="M232.15,649.44 L232.15,649.44 L232.16,649.43 L232.16,649.43 L232.16,649.43 L232.16,649.43 L232.16,649.43 L232.16,649.43 L232.16,649.43 L232.17,649.43 L232.17,649.43 L232.17,649.42 L232.18,649.42 L232.18,649.41 L232.18,649.41 L232.19,649.41 L232.19,649.4 L232.2,649.4 L232.2,649.39 L232.21,649.39 L232.22,649.38 L232.22,649.37 L232.23,649.37 L232.23,649.36 L232.24,649.36 L232.24,649.35 L232.24,649.35 L232.25,649.35 L232.25,649.34 L232.26,649.34 L232.26,649.34 L232.26,649.33 L232.26,649.33 L232.26,649.33 L232.27,649.33 L232.27,649.33 L232.27,649.33 L232.27,649.33 L232.27,649.33 L232.27,649.33 L232.27,649.33 L232.27,649.33 L232.27,649.33 H232.49 C232.52,649.33,232.6,649.34,232.6,649.43 C232.6,649.47,232.58,649.48,232.56,649.52 C232.2,649.87,231.67,650.42,231.05,651.51 C229.98,653.42,229.58,655.87,229.58,658.26 C229.58,662.67,230.83,665.26,232.57,667.02 C232.6,667.05,232.6,667.08,232.6,667.1 C232.6,667.2,232.53,667.2,232.41,667.2 C232.28,667.2,232.26,667.2,232.17,667.12 C231.23,666.3,230.16,664.92,229.48,662.83 C229.05,661.52,228.82,659.92,228.82,658.27 C228.82,655.91,229.25,653.25,230.81,650.95 C231.08,650.56,231.45,650.15,231.45,650.14 C231.55,650.02,231.69,649.86,231.77,649.79 Z "
   stroke-width="0"
   fill="black"
   id="path3130" />
<polygon
   points="238.32,665.15 236.99,663.8 237.17,663.62 238.32,664.64 239.47,663.62 239.65,663.8 "
   stroke-width="0"
   fill="black"
   id="polygon3132" />
<path
   d="M237.8,659.82 L236.97,661.8 C236.94,661.88,236.92,661.92,236.92,661.93 C236.92,661.99,237.09,662.18,237.51,662.22 C237.61,662.23,237.71,662.24,237.71,662.41 C237.71,662.53,237.59,662.53,237.56,662.53 C237.15,662.53,236.72,662.5,236.3,662.5 C236.05,662.5,235.44,662.53,235.19,662.53 C235.13,662.53,235.01,662.53,235.01,662.33 C235.01,662.22,235.11,662.22,235.24,662.22 C235.84,662.22,235.9,662.12,235.99,661.9 L237.16,659.13 L235.06,656.87 L234.93,656.76 C234.44,656.24,233.98,656.08,233.47,656.05 C233.34,656.04,233.25,656.04,233.25,655.85 C233.25,655.84,233.25,655.74,233.38,655.74 C233.68,655.74,234.01,655.77,234.31,655.77 C234.68,655.77,235.07,655.74,235.43,655.74 C235.49,655.74,235.61,655.74,235.61,655.94 C235.61,656.04,235.51,656.05,235.49,656.05 C235.4,656.06,235.09,656.08,235.09,656.36 C235.09,656.52,235.24,656.67,235.36,656.8 L236.37,657.88 L237.27,658.85 L238.27,656.48 C238.31,656.37,238.32,656.36,238.32,656.34 C238.32,656.26,238.13,656.09,237.75,656.05 C237.64,656.04,237.55,656.03,237.55,655.86 C237.55,655.74,237.66,655.74,237.7,655.74 C237.98,655.74,238.67,655.77,238.95,655.77 C239.2,655.77,239.8,655.74,240.05,655.74 C240.12,655.74,240.24,655.74,240.24,655.93 C240.24,656.05,240.14,656.05,240.06,656.05 C239.4,656.06,239.38,656.09,239.21,656.49 C238.82,657.41,238.15,658.96,237.93,659.56 C238.6,660.25,239.65,661.43,239.96,661.71 C240.25,661.95,240.63,662.19,241.23,662.22 C241.36,662.23,241.45,662.23,241.45,662.42 C241.45,662.43,241.45,662.53,241.32,662.53 C241.02,662.53,240.69,662.5,240.38,662.5 C240.01,662.5,239.64,662.53,239.28,662.53 C239.22,662.53,239.09,662.53,239.09,662.33 C239.09,662.26,239.14,662.23,239.21,662.22 C239.3,662.21,239.61,662.19,239.61,661.91 C239.61,661.77,239.5,661.64,239.42,661.55 Z "
   stroke-width="0"
   fill="black"
   id="path3134" />
<path
   d="M243.93,659.5 L243.92,659.52 L243.92,659.55 L243.92,659.58 L243.91,659.6 L243.91,659.63 L243.9,659.65 L243.89,659.68 L243.88,659.7 L243.87,659.72 L243.86,659.75 L243.85,659.77 L243.83,659.79 L243.82,659.81 L243.8,659.83 L243.79,659.85 L243.77,659.87 L243.75,659.88 L243.73,659.9 L243.71,659.92 L243.69,659.93 L243.67,659.95 L243.65,659.96 L243.63,659.97 L243.6,659.98 L243.58,659.99 L243.55,660 L243.53,660.01 L243.5,660.01 L243.48,660.02 L243.45,660.02 L243.42,660.02 L243.4,660.02 C243.11,660.02,242.87,659.78,242.87,659.5 C242.87,659.21,243.11,658.97,243.4,658.97 C243.69,658.97,243.93,659.21,243.93,659.5 Z "
   stroke-width="0"
   fill="black"
   id="path3136" />
<path
   d="M243.74,655.85 L243.74,655.82 L243.74,655.79 L243.74,655.76 L243.73,655.72 L243.73,655.69 L243.73,655.64 L243.73,655.6 L243.73,655.56 L243.72,655.51 L243.72,655.46 L243.71,655.41 L243.7,655.36 L243.69,655.3 L243.68,655.24 L243.67,655.19 L243.66,655.13 L243.64,655.07 L243.62,655 L243.6,654.94 L243.58,654.88 L243.56,654.81 L243.53,654.75 L243.5,654.68 L243.47,654.61 L243.43,654.54 L243.39,654.48 L243.35,654.41 L243.31,654.34 L243.26,654.27 L243.21,654.2 L243.16,654.13 L243.1,654.06 C243.03,653.98,243.03,653.96,243.03,653.93 C243.03,653.86,243.08,653.82,243.13,653.82 C243.24,653.82,243.96,654.62,243.96,655.77 C243.96,656.06,243.93,656.79,243.4,656.79 C243.05,656.79,242.87,656.53,242.87,656.27 C242.87,656.01,243.04,655.74,243.4,655.74 C243.45,655.74,243.47,655.74,243.48,655.75 C243.55,655.76,243.66,655.78,243.74,655.85 Z "
   stroke-width="0"
   fill="black"
   id="path3138" />
<path
   d="M252.38,661.39 L252.52,661.53 C252.82,661.83,253.15,662.17,253.82,662.22 C253.93,662.23,254.02,662.23,254.02,662.41 C254.02,662.49,253.98,662.53,253.9,662.53 C253.64,662.53,253.35,662.5,253.08,662.5 C252.75,662.5,252.4,662.53,252.08,662.53 C252.02,662.53,251.9,662.53,251.9,662.34 C251.9,662.23,251.99,662.22,252.04,662.22 C252.11,662.22,252.4,662.2,252.4,661.99 C252.4,661.82,252.17,661.56,252.13,661.51 L249.83,658.86 L248.73,661.81 C248.67,661.95,248.67,661.97,248.67,661.98 C248.67,662.22,249.16,662.22,249.26,662.22 C249.4,662.22,249.5,662.22,249.5,662.42 C249.5,662.53,249.38,662.53,249.35,662.53 C249.07,662.53,248.37,662.5,248.1,662.5 C247.85,662.5,247.23,662.53,246.98,662.53 C246.92,662.53,246.79,662.53,246.79,662.33 C246.79,662.22,246.89,662.22,247.02,662.22 C247.62,662.22,247.66,662.13,247.75,661.88 L248.97,658.61 C248.98,658.58,249.01,658.47,249.01,658.44 C249.01,658.41,248.61,656.81,248.56,656.64 C248.43,656.09,248.42,656.06,247.63,656.05 C247.44,656.05,247.36,656.05,247.36,655.85 C247.36,655.74,247.48,655.74,247.5,655.74 C247.78,655.74,248.47,655.77,248.75,655.77 C249.03,655.77,249.75,655.74,250.02,655.74 C250.09,655.74,250.21,655.74,250.21,655.94 C250.21,656.05,250.12,656.05,249.93,656.05 C249.91,656.05,249.73,656.05,249.56,656.07 C249.35,656.09,249.29,656.11,249.29,656.23 C249.29,656.3,249.38,656.65,249.43,656.85 L249.78,658.25 C249.83,658.44,249.84,658.47,249.91,658.56 Z "
   stroke-width="0"
   fill="black"
   id="path3140" />
<path
   d="M258.58,658.27 L258.57,658.8 L258.55,659.34 L258.51,659.88 L258.45,660.42 L258.37,660.96 L258.27,661.5 L258.14,662.03 L258,662.56 L257.84,663.07 L257.74,663.33 L257.65,663.58 L257.54,663.84 L257.43,664.08 L257.31,664.33 L257.19,664.57 L257.06,664.81 L256.92,665.05 L256.78,665.28 L256.63,665.51 L256.47,665.73 L256.31,665.95 L256.13,666.17 L255.95,666.38 C255.81,666.54,255.45,666.93,255.21,667.14 C255.14,667.2,255.12,667.2,254.99,667.2 C254.89,667.2,254.8,667.2,254.8,667.1 C254.8,667.06,254.84,667.02,254.86,667 C255.2,666.65,255.73,666.1,256.35,665.01 C257.43,663.1,257.82,660.65,257.82,658.27 C257.82,653.96,256.63,651.32,254.84,649.51 C254.82,649.48,254.8,649.46,254.8,649.43 C254.8,649.33,254.89,649.33,254.99,649.33 C255.12,649.33,255.14,649.33,255.23,649.41 C256.17,650.22,257.24,651.6,257.92,653.7 C258.36,655.06,258.58,656.67,258.58,658.27 Z "
   stroke-width="0"
   fill="black"
   id="path3142" />
</g>    <g
       style="font-style:normal;font-variant:normal;font-weight:normal;font-stretch:normal;letter-spacing:normal;word-spacing:normal;text-anchor:start;fill:#000000;fill-opacity:1;fill-rule:evenodd;stroke:#000000;stroke-linecap:butt;stroke-linejoin:miter;stroke-miterlimit:10.43299961;stroke-opacity:1;stroke-dasharray:none;stroke-dashoffset:0"
       ns0:preamble="/home/erik/.config/inkscape/extensions/anyname.ini"
       ns0:text="I$\\left(X; \\hat{X}\\right)$"
       text-anchor="start"
       word-spacing="normal"
       letter-spacing="normal"
       font-size-adjust="none"
       font-stretch="normal"
       font-weight="normal"
       font-variant="normal"
       font-style="normal"
       fill-opacity="1"
       fill-rule="evenodd"
       fill="none"
       stroke-opacity="1"
       stroke-dashoffset="0"
       stroke-dasharray="none"
       stroke-miterlimit="10.433"
       stroke-linejoin="miter"
       stroke-linecap="butt"
       stroke="black"
       xml:space="preserve"
       transform="matrix(3.8226995,0,0,-3.7225171,-611.57739,3461.6219)"
       id="g3291">
<path
   id="path3293"
   fill="black"
   stroke-width="0"
   d="M225.67,661.75 L225.67,661.78 L225.67,661.82 L225.67,661.85 L225.67,661.87 L225.68,661.9 L225.68,661.93 L225.68,661.95 L225.69,661.97 L225.69,662 L225.7,662.02 L225.71,662.04 L225.72,662.06 L225.73,662.07 L225.75,662.09 L225.77,662.1 L225.78,662.12 L225.8,662.13 L225.83,662.14 L225.84,662.15 L225.85,662.15 L225.87,662.16 L225.88,662.16 L225.9,662.17 L225.91,662.17 L225.93,662.18 L225.95,662.18 L225.97,662.19 L225.99,662.19 L226.01,662.19 L226.03,662.2 L226.05,662.2 L226.07,662.2 L226.09,662.2 L226.12,662.21 L226.14,662.21 L226.17,662.21 L226.2,662.21 L226.23,662.21 L226.25,662.21 L226.28,662.22 L226.32,662.22 L226.35,662.22 L226.38,662.22 L226.41,662.22 L226.45,662.22 L226.49,662.22 H226.74 V662.53 C226.4,662.5,225.61,662.5,225.23,662.5 C224.85,662.5,224.06,662.5,223.71,662.53 V662.22 H223.97 C224.76,662.22,224.79,662.11,224.79,661.75 V656.52 C224.79,656.16,224.76,656.05,223.97,656.05 H223.71 V655.74 C224.06,655.77,224.85,655.77,225.22,655.77 C225.61,655.77,226.4,655.77,226.74,655.74 V656.05 H226.49 C225.7,656.05,225.67,656.16,225.67,656.52 Z " />
<path
   id="path3295"
   fill="black"
   stroke-width="0"
   d="M232.15,649.44 L232.15,649.44 L232.16,649.43 L232.16,649.43 L232.16,649.43 L232.16,649.43 L232.16,649.43 L232.16,649.43 L232.16,649.43 L232.17,649.43 L232.17,649.43 L232.17,649.42 L232.18,649.42 L232.18,649.41 L232.18,649.41 L232.19,649.41 L232.19,649.4 L232.2,649.4 L232.2,649.39 L232.21,649.39 L232.22,649.38 L232.22,649.37 L232.23,649.37 L232.23,649.36 L232.24,649.36 L232.24,649.35 L232.24,649.35 L232.25,649.35 L232.25,649.34 L232.26,649.34 L232.26,649.34 L232.26,649.33 L232.26,649.33 L232.26,649.33 L232.27,649.33 L232.27,649.33 L232.27,649.33 L232.27,649.33 L232.27,649.33 L232.27,649.33 L232.27,649.33 L232.27,649.33 L232.27,649.33 H232.49 C232.52,649.33,232.6,649.34,232.6,649.43 C232.6,649.47,232.58,649.48,232.56,649.52 C232.2,649.87,231.67,650.42,231.05,651.51 C229.98,653.42,229.58,655.87,229.58,658.26 C229.58,662.67,230.83,665.26,232.57,667.02 C232.6,667.05,232.6,667.08,232.6,667.1 C232.6,667.2,232.53,667.2,232.41,667.2 C232.28,667.2,232.26,667.2,232.17,667.12 C231.23,666.3,230.16,664.92,229.48,662.83 C229.05,661.52,228.82,659.92,228.82,658.27 C228.82,655.91,229.25,653.25,230.81,650.95 C231.08,650.56,231.45,650.15,231.45,650.14 C231.55,650.02,231.69,649.86,231.77,649.79 Z " />
<path
   id="path3297"
   fill="black"
   stroke-width="0"
   d="M237.8,659.82 L236.97,661.8 C236.94,661.88,236.92,661.92,236.92,661.93 C236.92,661.99,237.09,662.18,237.51,662.22 C237.61,662.23,237.71,662.24,237.71,662.41 C237.71,662.53,237.59,662.53,237.56,662.53 C237.15,662.53,236.72,662.5,236.3,662.5 C236.05,662.5,235.44,662.53,235.19,662.53 C235.13,662.53,235.01,662.53,235.01,662.33 C235.01,662.22,235.11,662.22,235.24,662.22 C235.84,662.22,235.9,662.12,235.99,661.9 L237.16,659.13 L235.06,656.87 L234.93,656.76 C234.44,656.24,233.98,656.08,233.47,656.05 C233.34,656.04,233.25,656.04,233.25,655.85 C233.25,655.84,233.25,655.74,233.38,655.74 C233.68,655.74,234.01,655.77,234.31,655.77 C234.68,655.77,235.07,655.74,235.43,655.74 C235.49,655.74,235.61,655.74,235.61,655.94 C235.61,656.04,235.51,656.05,235.49,656.05 C235.4,656.06,235.09,656.08,235.09,656.36 C235.09,656.52,235.24,656.67,235.36,656.8 L236.37,657.88 L237.27,658.85 L238.27,656.48 C238.31,656.37,238.32,656.36,238.32,656.34 C238.32,656.26,238.13,656.09,237.75,656.05 C237.64,656.04,237.55,656.03,237.55,655.86 C237.55,655.74,237.66,655.74,237.7,655.74 C237.98,655.74,238.67,655.77,238.95,655.77 C239.2,655.77,239.8,655.74,240.05,655.74 C240.12,655.74,240.24,655.74,240.24,655.93 C240.24,656.05,240.14,656.05,240.06,656.05 C239.4,656.06,239.38,656.09,239.21,656.49 C238.82,657.41,238.15,658.96,237.93,659.56 C238.6,660.25,239.65,661.43,239.96,661.71 C240.25,661.95,240.63,662.19,241.23,662.22 C241.36,662.23,241.45,662.23,241.45,662.42 C241.45,662.43,241.45,662.53,241.32,662.53 C241.02,662.53,240.69,662.5,240.38,662.5 C240.01,662.5,239.64,662.53,239.28,662.53 C239.22,662.53,239.09,662.53,239.09,662.33 C239.09,662.26,239.14,662.23,239.21,662.22 C239.3,662.21,239.61,662.19,239.61,661.91 C239.61,661.77,239.5,661.64,239.42,661.55 Z " />
<path
   id="path3299"
   fill="black"
   stroke-width="0"
   d="M243.93,659.5 L243.92,659.52 L243.92,659.55 L243.92,659.58 L243.91,659.6 L243.91,659.63 L243.9,659.65 L243.89,659.68 L243.88,659.7 L243.87,659.72 L243.86,659.75 L243.85,659.77 L243.83,659.79 L243.82,659.81 L243.8,659.83 L243.79,659.85 L243.77,659.87 L243.75,659.88 L243.73,659.9 L243.71,659.92 L243.69,659.93 L243.67,659.95 L243.65,659.96 L243.63,659.97 L243.6,659.98 L243.58,659.99 L243.55,660 L243.53,660.01 L243.5,660.01 L243.48,660.02 L243.45,660.02 L243.42,660.02 L243.4,660.02 C243.11,660.02,242.87,659.78,242.87,659.5 C242.87,659.21,243.11,658.97,243.4,658.97 C243.69,658.97,243.93,659.21,243.93,659.5 Z " />
<path
   id="path3301"
   fill="black"
   stroke-width="0"
   d="M243.74,655.85 L243.74,655.82 L243.74,655.79 L243.74,655.76 L243.73,655.72 L243.73,655.69 L243.73,655.64 L243.73,655.6 L243.73,655.56 L243.72,655.51 L243.72,655.46 L243.71,655.41 L243.7,655.36 L243.69,655.3 L243.68,655.24 L243.67,655.19 L243.66,655.13 L243.64,655.07 L243.62,655 L243.6,654.94 L243.58,654.88 L243.56,654.81 L243.53,654.75 L243.5,654.68 L243.47,654.61 L243.43,654.54 L243.39,654.48 L243.35,654.41 L243.31,654.34 L243.26,654.27 L243.21,654.2 L243.16,654.13 L243.1,654.06 C243.03,653.98,243.03,653.96,243.03,653.93 C243.03,653.86,243.08,653.82,243.13,653.82 C243.24,653.82,243.96,654.62,243.96,655.77 C243.96,656.06,243.93,656.79,243.4,656.79 C243.05,656.79,242.87,656.53,242.87,656.27 C242.87,656.01,243.04,655.74,243.4,655.74 C243.45,655.74,243.47,655.74,243.48,655.75 C243.55,655.76,243.66,655.78,243.74,655.85 Z " />
<polygon
   id="polygon3303"
   fill="black"
   stroke-width="0"
   points="251.79,665.15 250.45,663.8 250.63,663.62 251.79,664.64 252.93,663.62 253.11,663.8 " />
<path
   id="path3305"
   fill="black"
   stroke-width="0"
   d="M251.27,659.82 L250.43,661.8 C250.4,661.88,250.38,661.92,250.38,661.93 C250.38,661.99,250.55,662.18,250.97,662.22 C251.07,662.23,251.17,662.24,251.17,662.41 C251.17,662.53,251.05,662.53,251.02,662.53 C250.61,662.53,250.18,662.5,249.77,662.5 C249.52,662.5,248.9,662.53,248.65,662.53 C248.59,662.53,248.47,662.53,248.47,662.33 C248.47,662.22,248.57,662.22,248.7,662.22 C249.3,662.22,249.36,662.12,249.45,661.9 L250.62,659.13 L248.52,656.87 L248.39,656.76 C247.91,656.24,247.44,656.08,246.93,656.05 C246.8,656.04,246.71,656.04,246.71,655.85 C246.71,655.84,246.71,655.74,246.84,655.74 C247.14,655.74,247.47,655.77,247.78,655.77 C248.14,655.77,248.53,655.74,248.89,655.74 C248.95,655.74,249.07,655.74,249.07,655.94 C249.07,656.04,248.97,656.05,248.95,656.05 C248.86,656.06,248.55,656.08,248.55,656.36 C248.55,656.52,248.7,656.67,248.82,656.8 L249.84,657.88 L250.73,658.85 L251.74,656.48 C251.78,656.37,251.79,656.36,251.79,656.34 C251.79,656.26,251.6,656.09,251.21,656.05 C251.1,656.04,251.01,656.03,251.01,655.86 C251.01,655.74,251.12,655.74,251.16,655.74 C251.44,655.74,252.13,655.77,252.41,655.77 C252.66,655.77,253.27,655.74,253.52,655.74 C253.59,655.74,253.71,655.74,253.71,655.93 C253.71,656.05,253.61,656.05,253.53,656.05 C252.86,656.06,252.84,656.09,252.67,656.49 C252.28,657.41,251.62,658.96,251.39,659.56 C252.06,660.25,253.11,661.43,253.43,661.71 C253.72,661.95,254.09,662.19,254.69,662.22 C254.82,662.23,254.91,662.23,254.91,662.42 C254.91,662.43,254.91,662.53,254.78,662.53 C254.48,662.53,254.15,662.5,253.85,662.5 C253.48,662.5,253.1,662.53,252.74,662.53 C252.68,662.53,252.55,662.53,252.55,662.33 C252.55,662.26,252.6,662.23,252.67,662.22 C252.76,662.21,253.07,662.19,253.07,661.91 C253.07,661.77,252.96,661.64,252.88,661.55 Z " />
<path
   id="path3307"
   fill="black"
   stroke-width="0"
   d="M259.62,658.27 L259.61,658.8 L259.59,659.34 L259.54,659.88 L259.48,660.42 L259.4,660.96 L259.3,661.5 L259.18,662.03 L259.04,662.56 L258.87,663.07 L258.78,663.33 L258.68,663.58 L258.58,663.84 L258.47,664.08 L258.35,664.33 L258.23,664.57 L258.1,664.81 L257.96,665.05 L257.82,665.28 L257.67,665.51 L257.51,665.73 L257.34,665.95 L257.17,666.17 L256.99,666.38 C256.85,666.54,256.48,666.93,256.24,667.14 C256.17,667.2,256.16,667.2,256.03,667.2 C255.93,667.2,255.84,667.2,255.84,667.1 C255.84,667.06,255.88,667.02,255.9,667 C256.23,666.65,256.77,666.1,257.39,665.01 C258.46,663.1,258.86,660.65,258.86,658.27 C258.86,653.96,257.67,651.32,255.88,649.51 C255.86,649.48,255.84,649.46,255.84,649.43 C255.84,649.33,255.93,649.33,256.03,649.33 C256.16,649.33,256.17,649.33,256.27,649.41 C257.21,650.22,258.27,651.6,258.96,653.7 C259.4,655.06,259.62,656.67,259.62,658.27 Z " />
</g>  </g>
</svg>
