<?xml version="1.0" encoding="UTF-8" standalone="no"?>
<!-- Created with Inkscape (http://www.inkscape.org/) -->

<svg
   xmlns:ns0="http://www.iki.fi/pav/software/textext/"
   xmlns:dc="http://purl.org/dc/elements/1.1/"
   xmlns:cc="http://creativecommons.org/ns#"
   xmlns:rdf="http://www.w3.org/1999/02/22-rdf-syntax-ns#"
   xmlns:svg="http://www.w3.org/2000/svg"
   xmlns="http://www.w3.org/2000/svg"
   xmlns:sodipodi="http://sodipodi.sourceforge.net/DTD/sodipodi-0.dtd"
   xmlns:inkscape="http://www.inkscape.org/namespaces/inkscape"
   sodipodi:docname="information_bottleneck_specific2.svg"
   inkscape:version="0.48.3.1 r9886"
   version="1.1"
   id="svg2"
   height="530"
   width="690">
  <sodipodi:namedview
     id="base"
     pagecolor="#ffffff"
     bordercolor="#666666"
     borderopacity="1.0"
     inkscape:pageopacity="0.0"
     inkscape:pageshadow="2"
     inkscape:zoom="0.7"
     inkscape:cx="208.65816"
     inkscape:cy="248.65675"
     inkscape:document-units="px"
     inkscape:current-layer="layer1"
     showgrid="false"
     inkscape:snap-global="false"
     inkscape:snap-bbox="true"
     inkscape:bbox-paths="true"
     inkscape:bbox-nodes="true"
     inkscape:snap-bbox-edge-midpoints="true"
     inkscape:snap-bbox-midpoints="true"
     inkscape:window-width="1920"
     inkscape:window-height="1056"
     inkscape:window-x="0"
     inkscape:window-y="24"
     inkscape:window-maximized="1" />
  <defs
     id="defs4">
    <marker
       style="overflow:visible"
       id="Arrow2Lend"
       refX="0"
       refY="0"
       orient="auto"
       inkscape:stockid="Arrow2Lend">
      <path
         transform="matrix(-1.1,0,0,-1.1,-1.1,0)"
         d="M 8.7185878,4.0337352 -2.2072895,0.01601326 8.7185884,-4.0017078 c -1.7454984,2.3720609 -1.7354408,5.6174519 -6e-7,8.035443 z"
         style="fill-rule:evenodd;stroke-width:0.625;stroke-linejoin:round"
         id="path4116"
         inkscape:connector-curvature="0" />
    </marker>
    <marker
       style="overflow:visible"
       id="Arrow1Lend"
       refX="0"
       refY="0"
       orient="auto"
       inkscape:stockid="Arrow1Lend">
      <path
         transform="matrix(-0.8,0,0,-0.8,-10,0)"
         style="fill-rule:evenodd;stroke:#000000;stroke-width:1pt"
         d="M 0,0 5,-5 -12.5,0 5,5 0,0 z"
         id="path4098"
         inkscape:connector-curvature="0" />
    </marker>
    <marker
       style="overflow:visible"
       id="Arrow1Lend-4"
       refX="0"
       refY="0"
       orient="auto"
       inkscape:stockid="Arrow1Lend">
      <path
         transform="matrix(-0.8,0,0,-0.8,-10,0)"
         style="fill-rule:evenodd;stroke:#000000;stroke-width:1pt"
         d="M 0,0 5,-5 -12.5,0 5,5 0,0 z"
         id="path4098-1"
         inkscape:connector-curvature="0" />
    </marker>
    <marker
       style="overflow:visible"
       id="Arrow1Lend-3"
       refX="0"
       refY="0"
       orient="auto"
       inkscape:stockid="Arrow1Lend">
      <path
         transform="matrix(-0.8,0,0,-0.8,-10,0)"
         style="fill-rule:evenodd;stroke:#000000;stroke-width:1pt"
         d="M 0,0 5,-5 -12.5,0 5,5 0,0 z"
         id="path4098-7"
         inkscape:connector-curvature="0" />
    </marker>
    <marker
       style="overflow:visible"
       id="Arrow1Lend-8"
       refX="0"
       refY="0"
       orient="auto"
       inkscape:stockid="Arrow1Lend">
      <path
         transform="matrix(-0.8,0,0,-0.8,-10,0)"
         style="fill-rule:evenodd;stroke:#000000;stroke-width:1pt"
         d="M 0,0 5,-5 -12.5,0 5,5 0,0 z"
         id="path4098-4"
         inkscape:connector-curvature="0" />
    </marker>
    <marker
       style="overflow:visible"
       id="Arrow1Lend-7"
       refX="0"
       refY="0"
       orient="auto"
       inkscape:stockid="Arrow1Lend">
      <path
         transform="matrix(-0.8,0,0,-0.8,-10,0)"
         style="fill-rule:evenodd;stroke:#000000;stroke-width:1pt"
         d="M 0,0 5,-5 -12.5,0 5,5 0,0 z"
         id="path4098-9"
         inkscape:connector-curvature="0" />
    </marker>
    <marker
       style="overflow:visible"
       id="Arrow1Lend-0"
       refX="0"
       refY="0"
       orient="auto"
       inkscape:stockid="Arrow1Lend">
      <path
         inkscape:connector-curvature="0"
         transform="matrix(-0.8,0,0,-0.8,-10,0)"
         style="fill-rule:evenodd;stroke:#000000;stroke-width:1pt"
         d="M 0,0 5,-5 -12.5,0 5,5 0,0 z"
         id="path4098-3" />
    </marker>
    <marker
       style="overflow:visible"
       id="Arrow1Lend-6"
       refX="0"
       refY="0"
       orient="auto"
       inkscape:stockid="Arrow1Lend">
      <path
         inkscape:connector-curvature="0"
         transform="matrix(-0.8,0,0,-0.8,-10,0)"
         style="fill-rule:evenodd;stroke:#000000;stroke-width:1pt"
         d="M 0,0 5,-5 -12.5,0 5,5 0,0 z"
         id="path4098-5" />
    </marker>
    <marker
       style="overflow:visible"
       id="marker7045"
       refX="0"
       refY="0"
       orient="auto"
       inkscape:stockid="Arrow1Lend">
      <path
         inkscape:connector-curvature="0"
         transform="matrix(-0.8,0,0,-0.8,-10,0)"
         style="fill-rule:evenodd;stroke:#000000;stroke-width:1pt"
         d="M 0,0 5,-5 -12.5,0 5,5 0,0 z"
         id="path7047" />
    </marker>
    <marker
       style="overflow:visible"
       id="Arrow1Lend-5"
       refX="0"
       refY="0"
       orient="auto"
       inkscape:stockid="Arrow1Lend">
      <path
         transform="matrix(-0.8,0,0,-0.8,-10,0)"
         style="fill-rule:evenodd;stroke:#000000;stroke-width:1pt"
         d="M 0,0 5,-5 -12.5,0 5,5 0,0 z"
         id="path4098-47"
         inkscape:connector-curvature="0" />
    </marker>
    <marker
       style="overflow:visible"
       id="Arrow1Lend-39"
       refX="0"
       refY="0"
       orient="auto"
       inkscape:stockid="Arrow1Lend">
      <path
         inkscape:connector-curvature="0"
         transform="matrix(-0.8,0,0,-0.8,-10,0)"
         style="fill-rule:evenodd;stroke:#000000;stroke-width:1pt"
         d="M 0,0 5,-5 -12.5,0 5,5 0,0 z"
         id="path4098-73" />
    </marker>
    <marker
       style="overflow:visible"
       id="Arrow1Lend-41"
       refX="0"
       refY="0"
       orient="auto"
       inkscape:stockid="Arrow1Lend">
      <path
         inkscape:connector-curvature="0"
         transform="matrix(-0.8,0,0,-0.8,-10,0)"
         style="fill-rule:evenodd;stroke:#000000;stroke-width:1pt"
         d="M 0,0 5,-5 -12.5,0 5,5 0,0 z"
         id="path4098-8" />
    </marker>
    <marker
       style="overflow:visible"
       id="Arrow1Lend-2"
       refX="0"
       refY="0"
       orient="auto"
       inkscape:stockid="Arrow1Lend">
      <path
         inkscape:connector-curvature="0"
         transform="matrix(-0.8,0,0,-0.8,-10,0)"
         style="fill-rule:evenodd;stroke:#000000;stroke-width:1pt"
         d="M 0,0 5,-5 -12.5,0 5,5 0,0 z"
         id="path4098-6" />
    </marker>
    <marker
       style="overflow:visible"
       id="Arrow1Lend-65"
       refX="0"
       refY="0"
       orient="auto"
       inkscape:stockid="Arrow1Lend">
      <path
         transform="matrix(-0.8,0,0,-0.8,-10,0)"
         style="fill-rule:evenodd;stroke:#000000;stroke-width:1pt"
         d="M 0,0 5,-5 -12.5,0 5,5 0,0 z"
         id="path4098-19"
         inkscape:connector-curvature="0" />
    </marker>
  </defs>
  <metadata
     id="metadata7">
    <rdf:RDF>
      <cc:Work
         rdf:about="">
        <dc:format>image/svg+xml</dc:format>
        <dc:type
           rdf:resource="http://purl.org/dc/dcmitype/StillImage" />
        <dc:title></dc:title>
      </cc:Work>
    </rdf:RDF>
  </metadata>
  <g
     inkscape:label="Layer 1"
     inkscape:groupmode="layer"
     id="layer1"
     transform="translate(0,-522.36218)">
    <g
       id="g6013"
       transform="matrix(5,0,0,-5,-825.23572,4201.1189)"
       xml:space="preserve"
       stroke-miterlimit="10.433"
       font-style="normal"
       font-variant="normal"
       font-weight="normal"
       font-stretch="normal"
       font-size-adjust="none"
       letter-spacing="normal"
       word-spacing="normal"
       ns0:text="$m^{\\Delta}$"
       ns0:preamble="/home/erik/.config/inkscape/extensions/anyname.ini"
       style="font-style:normal;font-variant:normal;font-weight:normal;font-stretch:normal;letter-spacing:normal;word-spacing:normal;text-anchor:start;fill:none;stroke:#000000;stroke-linecap:butt;stroke-linejoin:miter;stroke-miterlimit:10.43299961;stroke-opacity:1;stroke-dasharray:none;stroke-dashoffset:0">
<path
   d="m 224.31,657.82 0,-0.01 -0.01,-0.02 0,-0.01 0,-0.02 -0.01,-0.03 -0.01,-0.03 -0.01,-0.03 0,-0.04 -0.01,-0.03 -0.01,-0.03 0,-0.01 -0.01,-0.02 0,-0.01 0,-0.02 0,-0.01 -0.01,-0.01 0,-0.02 0,-0.01 0,-0.01 -0.01,-0.01 0,-0.01 0,-0.01 0,-0.01 0,0 0,-0.01 0,-0.01 c 0,-0.17 0.14,-0.26 0.29,-0.26 0.12,0 0.29,0.08 0.37,0.27 0,0.02 0.12,0.49 0.18,0.74 l 0.22,0.89 c 0.06,0.22 0.12,0.44 0.17,0.67 0.04,0.17 0.12,0.46 0.13,0.5 0.15,0.3 0.68,1.21 1.62,1.21 0.45,0 0.54,-0.37 0.54,-0.7 0,-0.25 -0.07,-0.53 -0.15,-0.82 l -0.28,-1.16 -0.2,-0.75 c -0.04,-0.2 -0.13,-0.54 -0.13,-0.59 0,-0.17 0.14,-0.26 0.29,-0.26 0.31,0 0.37,0.24 0.45,0.56 0.14,0.56 0.51,2.01 0.6,2.4 0.03,0.13 0.55,1.32 1.64,1.32 0.43,0 0.54,-0.34 0.54,-0.7 0,-0.56 -0.42,-1.7 -0.62,-2.22 -0.09,-0.24 -0.13,-0.35 -0.13,-0.55 0,-0.47 0.35,-0.81 0.82,-0.81 0.93,0 1.3,1.45 1.3,1.53 0,0.1 -0.09,0.1 -0.12,0.1 -0.1,0 -0.1,-0.04 -0.15,-0.18 -0.15,-0.53 -0.47,-1.24 -1.01,-1.24 -0.17,0 -0.24,0.1 -0.24,0.33 0,0.25 0.09,0.49 0.18,0.71 0.18,0.51 0.6,1.62 0.6,2.18 0,0.65 -0.39,1.07 -1.14,1.07 -0.75,0 -1.25,-0.44 -1.62,-0.97 -0.01,0.13 -0.04,0.47 -0.32,0.71 -0.25,0.21 -0.57,0.26 -0.82,0.26 -0.89,0 -1.38,-0.64 -1.55,-0.87 -0.05,0.57 -0.47,0.87 -0.92,0.87 -0.45,0 -0.64,-0.39 -0.73,-0.57 -0.18,-0.35 -0.31,-0.93 -0.31,-0.96 0,-0.1 0.1,-0.1 0.12,-0.1 0.1,0 0.11,0.01 0.17,0.22 0.17,0.71 0.37,1.19 0.73,1.19 0.16,0 0.3,-0.08 0.3,-0.46 0,-0.21 -0.03,-0.32 -0.16,-0.83 z"
   id="path6015"
   inkscape:connector-curvature="0"
   style="fill:#000000;stroke-width:0" />
<path
   d="m 235.67,665.65 -0.01,0.01 0,0.01 -0.01,0.01 -0.01,0.01 0,0.01 -0.01,0.01 0,0.01 -0.01,0.01 0,0 -0.01,0.01 0,0.01 -0.01,0 0,0.01 -0.01,0.01 0,0 -0.01,0.01 -0.01,0 0,0 -0.01,0.01 -0.01,0 0,0 -0.01,0.01 -0.01,0 -0.01,0 -0.01,0 0,0 -0.01,0.01 -0.01,0 -0.02,0 -0.01,0 -0.01,0 -0.01,0 c -0.09,0 -0.15,-0.02 -0.22,-0.13 l -0.01,-0.55 2.05,-3.71 h -4.1 l 2.05,3.71 0.01,0.55 -2.57,-4.66 c -0.05,-0.08 -0.05,-0.09 -0.05,-0.1 0,-0.07 0.06,-0.07 0.17,-0.07 h 5.34 c 0.11,0 0.17,0 0.17,0.07 0,0.01 0,0.02 -0.05,0.1 z"
   id="path6017"
   inkscape:connector-curvature="0"
   style="fill:#000000;stroke-width:0" />
</g>    <rect
       style="fill:none;stroke:#000000;stroke-width:2.49014211;stroke-linecap:round;stroke-linejoin:round;stroke-miterlimit:4;stroke-opacity:1;stroke-dasharray:none;stroke-dashoffset:0"
       id="rect2989-7-2-2"
       width="135.9722"
       height="72.072151"
       x="112.42741"
       y="863.23901"
       ry="13.949449" />
    <path
       inkscape:connector-curvature="0"
       id="path4089-8-5"
       d="m 254.76101,902.30551 32.43767,0"
       style="fill:none;stroke:#000000;stroke-width:1.5;stroke-linecap:butt;stroke-linejoin:miter;stroke-miterlimit:4;stroke-opacity:1;stroke-dasharray:none;marker-end:url(#Arrow1Lend)" />
    <path
       inkscape:connector-curvature="0"
       id="path4089-8-5-4"
       d="m 66.929345,903.29535 43.252995,0"
       style="fill:none;stroke:#000000;stroke-width:1.69211006;stroke-linecap:butt;stroke-linejoin:miter;stroke-miterlimit:4;stroke-opacity:1;stroke-dasharray:none;marker-end:url(#Arrow1Lend)" />
    <path
       style="fill:none;stroke:#0000ff;stroke-width:2.6937542;stroke-linecap:butt;stroke-linejoin:miter;stroke-miterlimit:4;stroke-opacity:1;stroke-dasharray:5.38750851, 5.38750851;stroke-dashoffset:0"
       d="m 318.98974,937.92334 c 0,0 4.01213,44.29212 29.42226,62.74716 25.41015,18.455 104.31532,17.2247 199.269,11.073 94.95368,-6.1517 80.24255,-73.82016 80.24255,-73.82016"
       id="path5176"
       inkscape:connector-curvature="0"
       sodipodi:nodetypes="cssc" />
    <rect
       style="fill:none;stroke:#000000;stroke-width:2.35838532;stroke-linecap:round;stroke-linejoin:round;stroke-miterlimit:4;stroke-opacity:1;stroke-dasharray:none;stroke-dashoffset:0"
       id="rect2989-7-2-2-4"
       width="121.74135"
       height="72.203911"
       x="409.47223"
       y="864.94971"
       ry="13.974951" />
    <path
       inkscape:connector-curvature="0"
       id="path4089-8-5-3"
       d="m 537.32137,902.08212 34.93578,0"
       style="fill:none;stroke:#000000;stroke-width:1.5;stroke-linecap:butt;stroke-linejoin:miter;stroke-miterlimit:4;stroke-opacity:1;stroke-dasharray:none;marker-end:url(#Arrow1Lend)" />
    <path
       inkscape:connector-curvature="0"
       id="path4089-8-5-4-9"
       d="m 372.38979,903.07196 33.59486,0"
       style="fill:none;stroke:#000000;stroke-width:1.5;stroke-linecap:butt;stroke-linejoin:miter;stroke-miterlimit:4;stroke-opacity:1;stroke-dasharray:none;marker-end:url(#Arrow1Lend)" />
    <path
       inkscape:connector-curvature="0"
       id="path4089-8-9-3"
       d="M 53.31723,873.0053 53.41314,760.24172"
       style="fill:none;stroke:#000000;stroke-width:1.5;stroke-linecap:butt;stroke-linejoin:miter;stroke-miterlimit:4;stroke-opacity:1;stroke-dasharray:none;marker-end:url(#Arrow1Lend)" />
    <path
       style="fill:none;stroke:#0000ff;stroke-width:3.08986282;stroke-linecap:butt;stroke-linejoin:miter;stroke-miterlimit:4;stroke-opacity:1;stroke-dasharray:6.17972563, 6.17972563;stroke-dashoffset:0"
       d="m 71.759217,555.26374 c 0,0 347.133283,-15.70983 424.442453,45.70135 77.30916,61.41119 119.7534,269.92359 119.7534,269.92359"
       id="path5198"
       inkscape:connector-curvature="0" />
    <rect
       style="fill:none;stroke:#000000;stroke-width:2.1395905;stroke-linecap:round;stroke-linejoin:round;stroke-miterlimit:4;stroke-opacity:1;stroke-dasharray:none;stroke-dashoffset:0"
       id="rect2989-7-2-8"
       width="99.897781"
       height="72.422707"
       x="9.7080698"
       y="687.40894"
       ry="14.017299" />
    <path
       inkscape:connector-curvature="0"
       id="path4089-8-9-3-3"
       d="m 52.29201,687.62883 0.0967,-98.57564"
       style="fill:none;stroke:#000000;stroke-width:1.5;stroke-linecap:butt;stroke-linejoin:miter;stroke-miterlimit:4;stroke-opacity:1;stroke-dasharray:none;marker-end:url(#Arrow1Lend)" />
    <g
       style="font-style:normal;font-variant:normal;font-weight:normal;font-stretch:normal;letter-spacing:normal;word-spacing:normal;text-anchor:start;fill:none;stroke:#000000;stroke-linecap:butt;stroke-linejoin:miter;stroke-miterlimit:10.43299961;stroke-opacity:1;stroke-dasharray:none;stroke-dashoffset:0"
       ns0:preamble="/home/erik/.config/inkscape/extensions/anyname.ini"
       ns0:text="$z$"
       word-spacing="normal"
       letter-spacing="normal"
       font-size-adjust="none"
       font-stretch="normal"
       font-weight="normal"
       font-variant="normal"
       font-style="normal"
       stroke-miterlimit="10.433"
       xml:space="preserve"
       transform="matrix(5,0,0,-5,-1078.5537,3858.6336)"
       id="g8053">
<path
   id="path8055"
   d="m 224.76,658.06 0.04,0.05 0.05,0.05 0.05,0.05 0.05,0.05 0.04,0.05 0.04,0.04 0.05,0.04 0.04,0.05 0.04,0.04 0.04,0.04 0.03,0.03 0.04,0.04 0.04,0.04 0.03,0.03 0.07,0.07 0.07,0.06 0.07,0.06 0.06,0.06 0.07,0.06 0.13,0.11 0.06,0.05 0.07,0.06 c 0,0.01 0.62,0.54 0.97,0.9 0.95,0.92 1.17,1.4 1.17,1.44 0,0.1 -0.09,0.1 -0.11,0.1 -0.07,0 -0.1,-0.02 -0.15,-0.11 -0.3,-0.48 -0.51,-0.64 -0.75,-0.64 -0.23,0 -0.36,0.15 -0.5,0.32 -0.19,0.23 -0.36,0.43 -0.69,0.43 -0.75,0 -1.2,-0.93 -1.2,-1.14 0,-0.05 0.03,-0.11 0.11,-0.11 0.09,0 0.11,0.05 0.13,0.11 0.19,0.46 0.77,0.47 0.85,0.47 0.21,0 0.4,-0.07 0.63,-0.15 0.39,-0.15 0.5,-0.15 0.76,-0.15 -0.36,-0.43 -1.19,-1.14 -1.38,-1.3 l -0.9,-0.83 c -0.67,-0.67 -1.02,-1.24 -1.02,-1.31 0,-0.09 0.1,-0.09 0.12,-0.09 0.08,0 0.1,0.02 0.16,0.13 0.23,0.34 0.53,0.61 0.84,0.61 0.23,0 0.33,-0.09 0.58,-0.38 0.17,-0.21 0.35,-0.36 0.64,-0.36 0.98,0 1.56,1.26 1.56,1.53 0,0.05 -0.04,0.1 -0.12,0.1 -0.09,0 -0.11,-0.06 -0.14,-0.13 -0.23,-0.65 -0.86,-0.84 -1.19,-0.84 -0.2,0 -0.38,0.06 -0.59,0.13 -0.34,0.13 -0.49,0.17 -0.7,0.17 -0.02,0 -0.17,0 -0.26,-0.03 z"
   inkscape:connector-curvature="0"
   style="fill:#000000;stroke-width:0" />
</g>    <rect
       ry="3.6553826"
       y="987.36218"
       x="371.85718"
       height="30"
       width="227.14285"
       id="rect11095-5"
       style="fill:#ffffff;fill-opacity:1;fill-rule:evenodd;stroke:none" />
    <rect
       ry="8.8773575"
       y="688.07648"
       x="478.14288"
       height="72.857147"
       width="131.42857"
       id="rect11095-5-2-5"
       style="fill:#ffffff;fill-opacity:1;fill-rule:evenodd;stroke:none" />
    <g
       style="font-style:normal;font-variant:normal;font-weight:normal;font-stretch:normal;letter-spacing:normal;word-spacing:normal;text-anchor:start;fill:none;stroke:#000000;stroke-linecap:butt;stroke-linejoin:miter;stroke-miterlimit:10.43299961;stroke-opacity:1;stroke-dasharray:none;stroke-dashoffset:0"
       ns0:preamble="/home/erik/.config/inkscape/extensions/anyname.ini"
       ns0:text="$\\mathcal{E}$"
       text-anchor="start"
       word-spacing="normal"
       letter-spacing="normal"
       font-size-adjust="none"
       font-stretch="normal"
       font-weight="normal"
       font-variant="normal"
       font-style="normal"
       fill-opacity="1"
       fill-rule="evenodd"
       fill="none"
       stroke-opacity="1"
       stroke-dashoffset="0"
       stroke-dasharray="none"
       stroke-miterlimit="10.433"
       stroke-linejoin="miter"
       stroke-linecap="butt"
       stroke="black"
       xml:space="preserve"
       transform="matrix(5,0,0,-5,-1087.9137,4203.9334)"
       id="content">
<path
   id="path3428"
   fill="black"
   stroke-width="0"
   d="M225.81,660.84 L225.72,660.79 L225.63,660.74 L225.54,660.69 L225.46,660.64 L225.38,660.59 L225.3,660.53 L225.22,660.48 L225.15,660.43 L225.01,660.33 L224.88,660.22 L224.76,660.12 L224.64,660.02 L224.54,659.91 L224.44,659.81 L224.35,659.71 L224.27,659.61 L224.2,659.51 L224.13,659.42 L224.07,659.32 L224.01,659.23 L223.97,659.14 L223.92,659.06 L223.88,658.97 L223.85,658.89 L223.82,658.81 L223.8,658.74 L223.78,658.67 L223.76,658.6 L223.75,658.54 L223.73,658.48 L223.73,658.43 L223.72,658.38 L223.72,658.34 L223.71,658.3 L223.71,658.27 L223.71,658.25 C223.71,657.49,224.45,657.02,225.39,657.02 C227.05,657.02,228.39,658.59,228.39,658.79 C228.39,658.85,228.34,658.86,228.29,658.86 C228.17,658.86,227.79,658.73,227.56,658.43 C227.35,658.14,226.93,657.56,226.05,657.56 C225.34,657.56,224.56,657.93,224.56,658.67 C224.56,659.16,225.11,660.63,226.68,660.69 C227.15,660.71,227.5,661.06,227.5,661.17 C227.5,661.23,227.45,661.24,227.4,661.24 C226,661.3,225.72,661.98,225.72,662.38 C225.72,662.61,225.87,663.69,227.26,663.69 C227.45,663.69,228.21,663.66,228.21,663.15 C228.21,662.99,228.13,662.85,228.09,662.79 C228.07,662.76,228.04,662.71,228.04,662.68 C228.04,662.61,228.11,662.61,228.14,662.61 C228.44,662.61,229.05,663,229.05,663.56 C229.05,664.15,228.37,664.24,227.92,664.24 C226.57,664.24,224.88,663.16,224.88,661.95 C224.88,661.37,225.32,661.01,225.81,660.84 Z " />
</g>    <g
       id="g3647"
       transform="matrix(5,0,0,-5,-1000.7247,4202.0343)"
       xml:space="preserve"
       stroke-miterlimit="10.433"
       font-style="normal"
       font-variant="normal"
       font-weight="normal"
       font-stretch="normal"
       font-size-adjust="none"
       letter-spacing="normal"
       word-spacing="normal"
       ns0:text="OG$\\left(\\cdot\\right)$"
       ns0:preamble="/home/erik/.config/inkscape/extensions/anyname.ini"
       style="font-style:normal;font-variant:normal;font-weight:normal;font-stretch:normal;letter-spacing:normal;word-spacing:normal;text-anchor:start;fill:none;stroke:#000000;stroke-linecap:butt;stroke-linejoin:miter;stroke-miterlimit:10.43299961;stroke-opacity:1;stroke-dasharray:none;stroke-dashoffset:0">
<path
   style="fill:#000000;stroke-width:0"
   inkscape:connector-curvature="0"
   d="m 230.6,660.6 0,0.19 -0.01,0.19 -0.02,0.18 -0.03,0.18 -0.04,0.18 -0.05,0.17 -0.05,0.17 -0.06,0.17 -0.06,0.16 -0.08,0.15 -0.08,0.16 -0.09,0.14 -0.09,0.15 -0.1,0.13 -0.1,0.13 -0.11,0.13 -0.12,0.12 -0.12,0.11 -0.12,0.11 -0.13,0.1 -0.14,0.1 -0.14,0.08 -0.14,0.08 -0.15,0.07 -0.15,0.07 -0.15,0.06 -0.16,0.04 -0.16,0.04 -0.16,0.04 -0.16,0.02 -0.17,0.01 -0.17,0.01 v -0.25 c 0.87,0 2.29,-0.71 2.29,-3.25 0,-2.63 -1.36,-3.46 -2.28,-3.46 h 0 c -0.95,0 -2.29,0.87 -2.29,3.46 0,2.58 1.46,3.25 2.28,3.25 v 0.25 c -1.78,0 -3.3,-1.59 -3.3,-3.64 0,-2.03 1.53,-3.58 3.3,-3.58 1.81,0 3.31,1.58 3.31,3.58 z"
   id="path3649" />
<path
   style="fill:#000000;stroke-width:0"
   inkscape:connector-curvature="0"
   d="m 237.08,657.86 0.01,-0.02 0.02,-0.02 0.01,-0.02 0.02,-0.03 0.02,-0.02 0.02,-0.03 0.02,-0.02 0.02,-0.03 0.02,-0.02 0.02,-0.03 0.05,-0.05 0.05,-0.05 0.05,-0.05 0.02,-0.02 0.02,-0.03 0.03,-0.02 0.02,-0.02 0.03,-0.02 0.02,-0.02 0.02,-0.01 0.02,-0.02 0.02,-0.01 0.02,-0.02 0.02,-0.01 0.01,-0.01 0.02,-0.01 0.01,0 0.01,0 0.01,0 0,0 0.01,-0.01 c 0.09,0 0.09,0.08 0.09,0.23 v 1.73 c 0,0.39 0.04,0.44 0.68,0.44 v 0.31 c -0.37,-0.01 -0.91,-0.03 -1.21,-0.03 -0.4,0 -1.24,0 -1.6,0.03 v -0.31 H 236 c 0.89,0 0.92,-0.11 0.92,-0.48 v -0.63 c 0,-1.12 -1.26,-1.21 -1.54,-1.21 -0.65,0 -2.62,0.35 -2.62,3.31 0,2.97 1.96,3.3 2.56,3.3 1.06,0 1.97,-0.89 2.17,-2.35 0.02,-0.14 0.02,-0.17 0.16,-0.17 0.16,0 0.16,0.03 0.16,0.24 V 664 c 0,0.17 0,0.24 -0.11,0.24 -0.04,0 -0.08,0 -0.16,-0.12 l -0.5,-0.74 c -0.32,0.32 -0.86,0.86 -1.84,0.86 -1.85,0 -3.46,-1.57 -3.46,-3.61 0,-2.03 1.59,-3.61 3.48,-3.61 0.73,0 1.52,0.26 1.86,0.84 z"
   id="path3651" />
<path
   style="fill:#000000;stroke-width:0"
   inkscape:connector-curvature="0"
   d="m 242.29,654.85 0,0.01 0,0 0,0 0,0.01 0,0 0,0 0,0.01 0,0 0,0 -0.01,0.01 0,0 0,0.01 -0.01,0 0,0.01 0,0 -0.01,0.01 0,0.01 -0.01,0 0,0.01 -0.01,0 0,0.01 0,0 -0.01,0 0,0.01 0,0 -0.01,0.01 0,0 -0.01,0.01 0,0 -0.01,0.01 0,0 -0.01,0.01 -0.01,0.01 0,0 -0.01,0.01 0,0.01 -0.01,0 -0.01,0.01 0,0.01 -0.01,0 -0.01,0.01 -0.01,0.01 c -1.24,1.25 -1.56,3.13 -1.56,4.65 0,1.73 0.38,3.45 1.6,4.7 0.13,0.12 0.13,0.14 0.13,0.17 0,0.07 -0.04,0.09 -0.1,0.09 -0.1,0 -0.99,-0.67 -1.58,-1.93 -0.51,-1.09 -0.63,-2.2 -0.63,-3.03 0,-0.78 0.11,-1.98 0.66,-3.1 0.6,-1.22 1.45,-1.87 1.55,-1.87 0.06,0 0.1,0.03 0.1,0.1 z"
   id="path3653" />
<path
   style="fill:#000000;stroke-width:0"
   inkscape:connector-curvature="0"
   d="m 244.78,659.72 0,0.02 0,0.03 0,0.03 -0.01,0.02 0,0.03 -0.01,0.02 -0.01,0.03 -0.01,0.02 -0.01,0.03 -0.01,0.02 -0.01,0.02 -0.02,0.02 -0.01,0.02 -0.02,0.02 -0.01,0.02 -0.02,0.02 -0.02,0.02 -0.02,0.01 -0.02,0.02 -0.02,0.01 -0.02,0.02 -0.02,0.01 -0.03,0.01 -0.02,0.01 -0.02,0.01 -0.03,0.01 -0.02,0.01 -0.03,0 -0.02,0.01 -0.03,0 -0.03,0 -0.02,0 c -0.29,0 -0.53,-0.23 -0.53,-0.52 0,-0.29 0.24,-0.53 0.53,-0.53 0.28,0 0.52,0.24 0.52,0.53 z"
   id="path3655" />
<path
   style="fill:#000000;stroke-width:0"
   inkscape:connector-curvature="0"
   d="m 248.52,659.72 0,0.07 -0.01,0.08 0,0.08 0,0.08 -0.01,0.17 -0.01,0.17 -0.02,0.18 -0.02,0.19 -0.02,0.2 -0.04,0.2 -0.04,0.2 -0.04,0.21 -0.06,0.21 -0.06,0.21 -0.07,0.21 -0.07,0.21 -0.05,0.11 -0.04,0.11 -0.05,0.1 -0.05,0.11 c -0.6,1.22 -1.45,1.86 -1.55,1.86 -0.06,0 -0.1,-0.03 -0.1,-0.09 0,-0.03 0,-0.05 0.19,-0.23 0.97,-0.99 1.54,-2.57 1.54,-4.64 0,-1.7 -0.37,-3.45 -1.6,-4.7 -0.13,-0.12 -0.13,-0.14 -0.13,-0.17 0,-0.06 0.04,-0.1 0.1,-0.1 0.1,0 0.99,0.68 1.58,1.94 0.51,1.09 0.63,2.19 0.63,3.03 z"
   id="path3657" />
</g>    <g
       style="font-style:normal;font-variant:normal;font-weight:normal;font-stretch:normal;letter-spacing:normal;word-spacing:normal;text-anchor:start;fill:none;stroke:#000000;stroke-linecap:butt;stroke-linejoin:miter;stroke-miterlimit:10.43299961;stroke-opacity:1;stroke-dasharray:none;stroke-dashoffset:0"
       ns0:preamble="/home/erik/.config/inkscape/extensions/anyname.ini"
       ns0:text="$\\pi_{n}\\left(\\cdot\\right)$"
       word-spacing="normal"
       letter-spacing="normal"
       font-size-adjust="none"
       font-stretch="normal"
       font-weight="normal"
       font-variant="normal"
       font-style="normal"
       stroke-miterlimit="10.433"
       xml:space="preserve"
       transform="matrix(5,0,0,-5,-704.1854,4199.5252)"
       id="g3882">
<path
   style="fill:#000000;stroke-width:0"
   inkscape:connector-curvature="0"
   id="path3885"
   d="m 226.07,660.94 h 1.12 c -0.33,-1.47 -0.42,-1.9 -0.42,-2.56 0,-0.15 0,-0.42 0.08,-0.76 0.1,-0.44 0.21,-0.49 0.36,-0.49 0.2,0 0.41,0.17 0.41,0.37 0,0.06 0,0.08 -0.06,0.22 -0.29,0.72 -0.29,1.36 -0.29,1.64 0,0.53 0.07,1.06 0.18,1.58 h 1.14 c 0.12,0 0.48,0 0.48,0.34 0,0.24 -0.21,0.24 -0.39,0.24 h -3.34 c -0.22,0 -0.6,0 -1.03,-0.47 -0.35,-0.39 -0.61,-0.84 -0.61,-0.89 0,-0.01 0,-0.1 0.12,-0.1 0.08,0 0.1,0.04 0.16,0.11 0.49,0.77 1.06,0.77 1.26,0.77 h 0.57 c -0.32,-1.2 -0.86,-2.4 -1.27,-3.31 -0.08,-0.15 -0.08,-0.17 -0.08,-0.24 0,-0.18 0.16,-0.26 0.28,-0.26 0.3,0 0.38,0.27 0.5,0.64 0.14,0.46 0.14,0.48 0.27,0.97 z" />
<path
   style="fill:#000000;stroke-width:0"
   inkscape:connector-curvature="0"
   id="path3887"
   d="m 229.96,656.18 0,-0.01 0,-0.01 -0.01,-0.01 0,-0.01 0,-0.01 -0.01,-0.01 0,-0.01 0,-0.01 -0.01,-0.02 0,-0.03 -0.01,-0.02 0,-0.02 -0.01,-0.01 0,-0.01 0,-0.01 0,-0.01 -0.01,-0.01 0,-0.01 0,-0.01 0,-0.01 0,0 0,-0.01 -0.01,-0.01 0,0 0,-0.01 0,0 0,0 0,0 0,0 0,-0.01 c 0,-0.15 0.13,-0.22 0.24,-0.22 0.12,0 0.24,0.09 0.27,0.15 0.03,0.07 0.09,0.29 0.12,0.44 0.04,0.13 0.12,0.45 0.16,0.62 0.04,0.15 0.08,0.31 0.12,0.47 0.07,0.28 0.09,0.34 0.29,0.62 0.19,0.28 0.52,0.64 1.04,0.64 0.41,0 0.41,-0.35 0.41,-0.48 0,-0.42 -0.3,-1.19 -0.41,-1.48 -0.07,-0.2 -0.1,-0.26 -0.1,-0.38 0,-0.37 0.31,-0.6 0.66,-0.6 0.7,0 1,0.96 1,1.06 0,0.1 -0.09,0.1 -0.11,0.1 -0.09,0 -0.1,-0.05 -0.13,-0.12 -0.16,-0.56 -0.46,-0.84 -0.74,-0.84 -0.14,0 -0.17,0.09 -0.17,0.24 0,0.16 0.03,0.25 0.16,0.56 0.08,0.22 0.37,0.95 0.37,1.35 0,0.67 -0.54,0.79 -0.91,0.79 -0.58,0 -0.97,-0.36 -1.18,-0.64 -0.04,0.49 -0.46,0.64 -0.74,0.64 -0.3,0 -0.46,-0.22 -0.55,-0.38 -0.15,-0.26 -0.25,-0.65 -0.25,-0.69 0,-0.09 0.1,-0.09 0.12,-0.09 0.09,0 0.1,0.02 0.15,0.21 0.1,0.41 0.24,0.75 0.51,0.75 0.18,0 0.23,-0.15 0.23,-0.34 0,-0.13 -0.06,-0.39 -0.11,-0.57 -0.05,-0.19 -0.12,-0.48 -0.16,-0.63 z" />
<path
   style="fill:#000000;stroke-width:0"
   inkscape:connector-curvature="0"
   id="path3889"
   d="m 239.49,654.85 0,0.01 0,0 0,0 0,0.01 0,0 -0.01,0 0,0.01 0,0 0,0 0,0.01 0,0 -0.01,0.01 0,0 0,0.01 -0.01,0 0,0.01 -0.01,0.01 0,0 -0.01,0.01 0,0 0,0.01 -0.01,0 0,0 -0.01,0.01 0,0 0,0.01 -0.01,0 0,0.01 -0.01,0 0,0.01 -0.01,0 0,0.01 -0.01,0.01 -0.01,0 0,0.01 -0.01,0.01 -0.01,0 0,0.01 -0.01,0.01 -0.01,0 0,0.01 -0.01,0.01 c -1.25,1.25 -1.56,3.13 -1.56,4.65 0,1.73 0.37,3.45 1.6,4.7 0.13,0.12 0.13,0.14 0.13,0.17 0,0.07 -0.04,0.09 -0.1,0.09 -0.1,0 -1,-0.67 -1.58,-1.93 -0.51,-1.09 -0.63,-2.2 -0.63,-3.03 0,-0.78 0.11,-1.98 0.66,-3.1 0.59,-1.22 1.45,-1.87 1.55,-1.87 0.06,0 0.1,0.03 0.1,0.1 z" />
<path
   style="fill:#000000;stroke-width:0"
   inkscape:connector-curvature="0"
   id="path3891"
   d="m 241.98,659.72 0,0.02 0,0.03 -0.01,0.03 0,0.02 -0.01,0.03 0,0.02 -0.01,0.03 -0.01,0.02 -0.01,0.03 -0.02,0.02 -0.01,0.02 -0.01,0.02 -0.02,0.02 -0.01,0.02 -0.02,0.02 -0.02,0.02 -0.01,0.02 -0.02,0.01 -0.02,0.02 -0.02,0.01 -0.03,0.02 -0.02,0.01 -0.02,0.01 -0.02,0.01 -0.03,0.01 -0.02,0.01 -0.03,0.01 -0.02,0 -0.03,0.01 -0.02,0 -0.03,0 -0.03,0 c -0.29,0 -0.52,-0.23 -0.52,-0.52 0,-0.29 0.23,-0.53 0.52,-0.53 0.29,0 0.53,0.24 0.53,0.53 z" />
<path
   style="fill:#000000;stroke-width:0"
   inkscape:connector-curvature="0"
   id="path3893"
   d="m 245.71,659.72 0,0.07 0,0.08 0,0.08 0,0.08 -0.01,0.17 -0.01,0.17 -0.02,0.18 -0.02,0.19 -0.03,0.2 -0.03,0.2 -0.04,0.2 -0.05,0.21 -0.05,0.21 -0.06,0.21 -0.07,0.21 -0.08,0.21 -0.04,0.11 -0.05,0.11 -0.04,0.1 -0.06,0.11 c -0.59,1.22 -1.45,1.86 -1.55,1.86 -0.06,0 -0.1,-0.03 -0.1,-0.09 0,-0.03 0,-0.05 0.19,-0.23 0.98,-0.99 1.54,-2.57 1.54,-4.64 0,-1.7 -0.36,-3.45 -1.6,-4.7 -0.13,-0.12 -0.13,-0.14 -0.13,-0.17 0,-0.06 0.04,-0.1 0.1,-0.1 0.1,0 1,0.68 1.58,1.94 0.51,1.09 0.63,2.19 0.63,3.03 z" />
</g>    <g
       id="g4125"
       transform="matrix(5,0,0,-5,-1101.8524,4026.2359)"
       xml:space="preserve"
       stroke-miterlimit="10.433"
       font-style="normal"
       font-variant="normal"
       font-weight="normal"
       font-stretch="normal"
       font-size-adjust="none"
       letter-spacing="normal"
       word-spacing="normal"
       ns0:text="$h\\left(\\cdot\\right)$"
       ns0:preamble="/home/erik/.config/inkscape/extensions/anyname.ini"
       style="font-style:normal;font-variant:normal;font-weight:normal;font-stretch:normal;letter-spacing:normal;word-spacing:normal;text-anchor:start;fill:none;stroke:#000000;stroke-linecap:butt;stroke-linejoin:miter;stroke-miterlimit:10.43299961;stroke-opacity:1;stroke-dasharray:none;stroke-dashoffset:0">
<path
   style="fill:#000000;stroke-width:0"
   inkscape:connector-curvature="0"
   d="m 226.29,664.02 0,0 0,0 0,0 0,0.01 0,0 0,0 0,0 0,0.01 -0.01,0 0,0.01 0,0 0,0 0,0.01 0,0 0,0.01 -0.01,0 0,0.01 0,0 -0.01,0.01 0,0 0,0.01 -0.01,0 0,0 0,0 0,0.01 -0.01,0 0,0 0,0 -0.01,0 0,0.01 0,0 -0.01,0 0,0 -0.01,0 0,0 0,0 -0.01,0 0,0.01 -0.01,0 0,0 -0.01,0 0,0 -0.01,0 -0.01,0 0,0 c -0.23,0 -0.96,-0.08 -1.22,-0.1 -0.07,-0.01 -0.18,-0.02 -0.18,-0.2 0,-0.12 0.09,-0.12 0.23,-0.12 0.48,0 0.5,-0.07 0.5,-0.17 l -0.03,-0.2 -1.44,-5.72 c -0.04,-0.14 -0.04,-0.16 -0.04,-0.22 0,-0.23 0.2,-0.27 0.29,-0.27 0.16,0 0.32,0.11 0.37,0.25 l 0.18,0.76 0.22,0.89 c 0.06,0.22 0.12,0.44 0.17,0.67 0.02,0.06 0.1,0.39 0.11,0.45 0.03,0.08 0.34,0.64 0.68,0.91 0.22,0.16 0.53,0.35 0.95,0.35 0.43,0 0.54,-0.34 0.54,-0.7 0,-0.54 -0.38,-1.62 -0.62,-2.22 -0.08,-0.23 -0.13,-0.35 -0.13,-0.55 0,-0.47 0.35,-0.81 0.82,-0.81 0.94,0 1.3,1.45 1.3,1.53 0,0.1 -0.09,0.1 -0.12,0.1 -0.09,0 -0.09,-0.04 -0.14,-0.18 -0.15,-0.53 -0.47,-1.24 -1.02,-1.24 -0.17,0 -0.24,0.1 -0.24,0.33 0,0.25 0.09,0.49 0.18,0.71 0.16,0.42 0.61,1.61 0.61,2.18 0,0.65 -0.4,1.07 -1.15,1.07 -0.62,0 -1.1,-0.31 -1.47,-0.77 z"
   id="path4127" />
<path
   style="fill:#000000;stroke-width:0"
   inkscape:connector-curvature="0"
   d="m 234.13,654.85 0,0.01 0,0 0,0 -0.01,0.01 0,0 0,0 0,0.01 0,0 0,0 0,0.01 -0.01,0 0,0.01 0,0 -0.01,0.01 0,0 0,0.01 -0.01,0.01 -0.01,0 0,0.01 0,0 -0.01,0.01 0,0 0,0 -0.01,0.01 0,0 -0.01,0.01 0,0 0,0.01 -0.01,0 0,0.01 -0.01,0 -0.01,0.01 0,0.01 -0.01,0 0,0.01 -0.01,0.01 -0.01,0 0,0.01 -0.01,0.01 -0.01,0 -0.01,0.01 0,0.01 c -1.25,1.25 -1.56,3.13 -1.56,4.65 0,1.73 0.37,3.45 1.6,4.7 0.13,0.12 0.13,0.14 0.13,0.17 0,0.07 -0.04,0.09 -0.1,0.09 -0.1,0 -1,-0.67 -1.58,-1.93 -0.51,-1.09 -0.63,-2.2 -0.63,-3.03 0,-0.78 0.11,-1.98 0.66,-3.1 0.59,-1.22 1.45,-1.87 1.55,-1.87 0.06,0 0.1,0.03 0.1,0.1 z"
   id="path4129" />
<path
   style="fill:#000000;stroke-width:0"
   inkscape:connector-curvature="0"
   d="m 236.62,659.72 0,0.02 -0.01,0.03 0,0.03 0,0.02 -0.01,0.03 -0.01,0.02 -0.01,0.03 0,0.02 -0.02,0.03 -0.01,0.02 -0.01,0.02 -0.01,0.02 -0.02,0.02 -0.01,0.02 -0.02,0.02 -0.02,0.02 -0.02,0.02 -0.02,0.01 -0.02,0.02 -0.02,0.01 -0.02,0.02 -0.02,0.01 -0.02,0.01 -0.03,0.01 -0.02,0.01 -0.02,0.01 -0.03,0.01 -0.02,0 -0.03,0.01 -0.03,0 -0.02,0 -0.03,0 c -0.29,0 -0.53,-0.23 -0.53,-0.52 0,-0.29 0.24,-0.53 0.53,-0.53 0.29,0 0.53,0.24 0.53,0.53 z"
   id="path4131" />
<path
   style="fill:#000000;stroke-width:0"
   inkscape:connector-curvature="0"
   d="m 240.35,659.72 0,0.07 0,0.08 0,0.08 -0.01,0.08 0,0.17 -0.02,0.17 -0.01,0.18 -0.02,0.19 -0.03,0.2 -0.03,0.2 -0.04,0.2 -0.05,0.21 -0.05,0.21 -0.06,0.21 -0.07,0.21 -0.08,0.21 -0.04,0.11 -0.05,0.11 -0.05,0.1 -0.05,0.11 c -0.59,1.22 -1.45,1.86 -1.55,1.86 -0.06,0 -0.1,-0.03 -0.1,-0.09 0,-0.03 0,-0.05 0.19,-0.23 0.98,-0.99 1.54,-2.57 1.54,-4.64 0,-1.7 -0.37,-3.45 -1.6,-4.7 -0.13,-0.12 -0.13,-0.14 -0.13,-0.17 0,-0.06 0.04,-0.1 0.1,-0.1 0.1,0 0.99,0.68 1.58,1.94 0.51,1.09 0.63,2.19 0.63,3.03 z"
   id="path4133" />
</g>    <g
       style="font-style:normal;font-variant:normal;font-weight:normal;font-stretch:normal;letter-spacing:normal;word-spacing:normal;text-anchor:start;fill:none;stroke:#000000;stroke-linecap:butt;stroke-linejoin:miter;stroke-miterlimit:10.43299961;stroke-opacity:1;stroke-dasharray:none;stroke-dashoffset:0"
       ns0:preamble="/home/erik/.config/inkscape/extensions/anyname.ini"
       ns0:text="$m^{\\alpha\\Delta}$"
       word-spacing="normal"
       letter-spacing="normal"
       font-size-adjust="none"
       font-stretch="normal"
       font-weight="normal"
       font-variant="normal"
       font-style="normal"
       stroke-miterlimit="10.433"
       xml:space="preserve"
       transform="matrix(5,0,0,-5,-538.73195,4206.6454)"
       id="g3212">
<path
   id="path3215"
   d="m 224.31,657.82 0,-0.01 -0.01,-0.02 0,-0.01 0,-0.02 -0.01,-0.03 -0.01,-0.03 -0.01,-0.03 0,-0.04 -0.01,-0.03 -0.01,-0.03 0,-0.01 -0.01,-0.02 0,-0.01 0,-0.02 0,-0.01 -0.01,-0.01 0,-0.02 0,-0.01 0,-0.01 -0.01,-0.01 0,-0.01 0,-0.01 0,-0.01 0,0 0,-0.01 0,-0.01 c 0,-0.17 0.14,-0.26 0.29,-0.26 0.12,0 0.29,0.08 0.37,0.27 0,0.02 0.12,0.49 0.18,0.74 l 0.22,0.89 c 0.06,0.22 0.12,0.44 0.17,0.67 0.04,0.17 0.12,0.46 0.13,0.5 0.15,0.3 0.68,1.21 1.62,1.21 0.45,0 0.54,-0.37 0.54,-0.7 0,-0.25 -0.07,-0.53 -0.15,-0.82 l -0.28,-1.16 -0.2,-0.75 c -0.04,-0.2 -0.13,-0.54 -0.13,-0.59 0,-0.17 0.14,-0.26 0.29,-0.26 0.31,0 0.37,0.24 0.45,0.56 0.14,0.56 0.51,2.01 0.6,2.4 0.03,0.13 0.55,1.32 1.64,1.32 0.43,0 0.54,-0.34 0.54,-0.7 0,-0.56 -0.42,-1.7 -0.62,-2.22 -0.09,-0.24 -0.13,-0.35 -0.13,-0.55 0,-0.47 0.35,-0.81 0.82,-0.81 0.93,0 1.3,1.45 1.3,1.53 0,0.1 -0.09,0.1 -0.12,0.1 -0.1,0 -0.1,-0.04 -0.15,-0.18 -0.15,-0.53 -0.47,-1.24 -1.01,-1.24 -0.17,0 -0.24,0.1 -0.24,0.33 0,0.25 0.09,0.49 0.18,0.71 0.18,0.51 0.6,1.62 0.6,2.18 0,0.65 -0.39,1.07 -1.14,1.07 -0.75,0 -1.25,-0.44 -1.62,-0.97 -0.01,0.13 -0.04,0.47 -0.32,0.71 -0.25,0.21 -0.57,0.26 -0.82,0.26 -0.89,0 -1.38,-0.64 -1.55,-0.87 -0.05,0.57 -0.47,0.87 -0.92,0.87 -0.45,0 -0.64,-0.39 -0.73,-0.57 -0.18,-0.35 -0.31,-0.93 -0.31,-0.96 0,-0.1 0.1,-0.1 0.12,-0.1 0.1,0 0.11,0.01 0.17,0.22 0.17,0.71 0.37,1.19 0.73,1.19 0.16,0 0.3,-0.08 0.3,-0.46 0,-0.21 -0.03,-0.32 -0.16,-0.83 z"
   inkscape:connector-curvature="0"
   style="fill:#000000;stroke-width:0" />
<path
   id="path3217"
   d="m 235.99,661.83 0.06,0.06 0.05,0.07 0.06,0.06 0.05,0.07 0.05,0.07 0.05,0.06 0.05,0.07 0.04,0.07 0.04,0.07 0.04,0.06 0.04,0.07 0.03,0.07 0.04,0.06 0.03,0.07 0.03,0.06 0.03,0.06 0.02,0.06 0.03,0.06 0.02,0.05 0.02,0.06 0.02,0.05 0.02,0.05 0.01,0.04 0.02,0.04 0.01,0.04 0.01,0.04 0.01,0.03 0,0.03 0.01,0.02 0,0.02 0.01,0.01 0,0.01 c 0,0.09 -0.09,0.09 -0.12,0.09 -0.1,0 -0.1,-0.02 -0.15,-0.17 -0.12,-0.46 -0.35,-0.88 -0.64,-1.26 -0.01,0.11 -0.03,0.57 -0.04,0.63 -0.1,0.69 -0.63,1.14 -1.32,1.14 l -0.01,-0.2 c 0.56,0 0.72,-0.53 0.77,-0.96 0.04,-0.3 0.03,-0.8 0.07,-1.17 h 0 c -0.69,-0.55 -1.28,-0.61 -1.54,-0.61 -0.46,0 -0.72,0.3 -0.72,0.77 0,0.2 0.1,0.96 0.46,1.44 0.32,0.41 0.72,0.53 0.96,0.53 l 0.01,0.2 c -1.03,0 -2.01,-0.95 -2.01,-1.93 0,-0.64 0.47,-1.21 1.27,-1.21 0.65,0 1.22,0.29 1.61,0.59 0.16,-0.51 0.52,-0.59 0.73,-0.59 0.4,0 0.65,0.34 0.65,0.49 0,0.08 -0.08,0.08 -0.11,0.08 -0.1,0 -0.11,-0.03 -0.12,-0.07 -0.1,-0.26 -0.32,-0.3 -0.4,-0.3 -0.1,0 -0.22,0 -0.25,0.85 z"
   inkscape:connector-curvature="0"
   style="fill:#000000;stroke-width:0" />
<path
   id="path3219"
   d="m 240.85,665.65 -0.01,0.01 0,0.01 -0.01,0.01 -0.01,0.01 0,0.01 -0.01,0.01 0,0.01 -0.01,0.01 0,0 -0.01,0.01 0,0.01 -0.01,0 0,0.01 -0.01,0.01 0,0 -0.01,0.01 -0.01,0 0,0 -0.01,0.01 -0.01,0 0,0 -0.01,0.01 -0.01,0 -0.01,0 -0.01,0 0,0 -0.01,0.01 -0.01,0 -0.02,0 -0.01,0 -0.01,0 -0.01,0 c -0.08,0 -0.16,-0.02 -0.22,-0.13 l -0.01,-0.55 2.05,-3.71 h -4.1 l 2.05,3.71 0.01,0.55 -2.57,-4.66 c -0.05,-0.08 -0.05,-0.09 -0.05,-0.1 0,-0.07 0.06,-0.07 0.17,-0.07 h 5.34 c 0.11,0 0.17,0 0.17,0.07 0,0.01 0,0.02 -0.05,0.1 z"
   inkscape:connector-curvature="0"
   style="fill:#000000;stroke-width:0" />
</g>    <g
       id="g3446"
       transform="matrix(3.8226995,0,0,-3.7225171,-359.04115,3184.6783)"
       xml:space="preserve"
       stroke="black"
       stroke-linecap="butt"
       stroke-linejoin="miter"
       stroke-miterlimit="10.433"
       stroke-dasharray="none"
       stroke-dashoffset="0"
       stroke-opacity="1"
       fill="none"
       fill-rule="evenodd"
       fill-opacity="1"
       font-style="normal"
       font-variant="normal"
       font-weight="normal"
       font-stretch="normal"
       font-size-adjust="none"
       letter-spacing="normal"
       word-spacing="normal"
       text-anchor="start"
       ns0:text="I$\\left(m^{\\alpha\\Delta}; z\\right)$"
       ns0:preamble="/home/erik/.config/inkscape/extensions/anyname.ini"
       style="font-style:normal;font-variant:normal;font-weight:normal;font-stretch:normal;letter-spacing:normal;word-spacing:normal;text-anchor:start;fill:#0000ff;fill-opacity:1;stroke:#000000;stroke-linecap:butt;stroke-linejoin:miter;stroke-miterlimit:10.43299961;stroke-opacity:1;stroke-dasharray:none;stroke-dashoffset:0">
<path
   d="M225.67,663.24 L225.67,663.28 L225.67,663.31 L225.67,663.34 L225.67,663.37 L225.68,663.4 L225.68,663.42 L225.68,663.45 L225.69,663.47 L225.69,663.49 L225.7,663.51 L225.71,663.53 L225.72,663.55 L225.73,663.57 L225.75,663.58 L225.77,663.6 L225.78,663.61 L225.8,663.63 L225.83,663.64 L225.84,663.64 L225.85,663.65 L225.87,663.65 L225.88,663.66 L225.9,663.66 L225.91,663.67 L225.93,663.67 L225.95,663.68 L225.97,663.68 L225.99,663.68 L226.01,663.69 L226.03,663.69 L226.05,663.69 L226.07,663.69 L226.09,663.7 L226.12,663.7 L226.14,663.7 L226.17,663.7 L226.2,663.71 L226.23,663.71 L226.25,663.71 L226.28,663.71 L226.32,663.71 L226.35,663.71 L226.38,663.71 L226.41,663.71 L226.45,663.71 L226.49,663.71 H226.74 V664.02 C226.4,663.99,225.61,663.99,225.23,663.99 C224.85,663.99,224.06,663.99,223.71,664.02 V663.71 H223.97 C224.76,663.71,224.79,663.6,224.79,663.24 V658.01 C224.79,657.65,224.76,657.54,223.97,657.54 H223.71 V657.23 C224.06,657.27,224.85,657.27,225.22,657.27 C225.61,657.27,226.4,657.27,226.74,657.23 V657.54 H226.49 C225.7,657.54,225.67,657.65,225.67,658.01 Z "
   stroke-width="0"
   fill="black"
   id="path3448" />
<path
   d="M231.14,653.89 L231.14,653.89 L231.14,653.9 L231.14,653.9 L231.14,653.91 L231.14,653.91 L231.14,653.91 L231.14,653.91 L231.14,653.92 L231.13,653.92 L231.13,653.92 L231.13,653.93 L231.13,653.93 L231.13,653.93 L231.13,653.93 L231.13,653.94 L231.13,653.94 L231.12,653.94 L231.12,653.95 L231.12,653.95 L231.11,653.96 L231.11,653.96 L231.11,653.97 L231.1,653.97 L231.1,653.98 C230.64,654.47,229.96,655.27,229.55,656.89 C229.32,657.79,229.23,658.82,229.23,659.74 C229.23,662.35,229.86,664.18,231.05,665.47 C231.14,665.56,231.14,665.58,231.14,665.6 C231.14,665.7,231.06,665.7,231.02,665.7 C230.87,665.7,230.33,665.11,230.2,664.96 C229.19,663.76,228.54,661.97,228.54,659.75 C228.54,658.34,228.79,656.34,230.09,654.67 C230.19,654.55,230.84,653.79,231.02,653.79 C231.06,653.79,231.14,653.79,231.14,653.89 Z "
   stroke-width="0"
   fill="black"
   id="path3450" />
<path
   d="M232.47,657.82 L232.47,657.81 L232.47,657.79 L232.46,657.78 L232.46,657.76 L232.45,657.73 L232.45,657.7 L232.44,657.67 L232.43,657.63 L232.42,657.6 L232.42,657.57 L232.41,657.56 L232.41,657.54 L232.41,657.53 L232.4,657.51 L232.4,657.5 L232.4,657.49 L232.39,657.47 L232.39,657.46 L232.39,657.45 L232.39,657.44 L232.39,657.43 L232.38,657.42 L232.38,657.41 L232.38,657.41 L232.38,657.4 L232.38,657.39 C232.38,657.22,232.52,657.13,232.67,657.13 C232.79,657.13,232.97,657.21,233.04,657.4 C233.05,657.42,233.17,657.89,233.23,658.14 L233.45,659.03 C233.51,659.25,233.57,659.47,233.62,659.7 C233.65,659.87,233.74,660.16,233.74,660.2 C233.89,660.5,234.42,661.41,235.37,661.41 C235.82,661.41,235.9,661.04,235.9,660.71 C235.9,660.46,235.83,660.18,235.76,659.89 L235.48,658.73 L235.28,657.98 C235.24,657.78,235.15,657.44,235.15,657.39 C235.15,657.22,235.29,657.13,235.44,657.13 C235.74,657.13,235.8,657.37,235.88,657.69 C236.02,658.25,236.39,659.7,236.48,660.09 C236.51,660.22,237.04,661.41,238.12,661.41 C238.55,661.41,238.66,661.07,238.66,660.71 C238.66,660.15,238.24,659.01,238.04,658.49 C237.95,658.25,237.91,658.14,237.91,657.94 C237.91,657.47,238.26,657.13,238.73,657.13 C239.66,657.13,240.03,658.58,240.03,658.66 C240.03,658.76,239.94,658.76,239.91,658.76 C239.81,658.76,239.81,658.72,239.76,658.58 C239.62,658.05,239.3,657.34,238.75,657.34 C238.58,657.34,238.51,657.44,238.51,657.67 C238.51,657.92,238.6,658.16,238.69,658.38 C238.88,658.89,239.3,660,239.3,660.56 C239.3,661.21,238.9,661.63,238.15,661.63 C237.41,661.63,236.9,661.19,236.53,660.66 C236.52,660.79,236.49,661.13,236.21,661.37 C235.96,661.58,235.65,661.63,235.4,661.63 C234.5,661.63,234.01,660.99,233.84,660.76 C233.79,661.33,233.38,661.63,232.93,661.63 C232.47,661.63,232.28,661.24,232.19,661.06 C232.01,660.71,231.88,660.13,231.88,660.1 C231.88,660,231.98,660,232,660 C232.1,660,232.11,660.01,232.17,660.22 C232.34,660.93,232.54,661.41,232.9,661.41 C233.06,661.41,233.21,661.33,233.21,660.95 C233.21,660.74,233.18,660.63,233.05,660.12 Z "
   stroke-width="0"
   fill="black"
   id="path3452" />
<path
   d="M244.15,661.83 L244.21,661.89 L244.27,661.96 L244.32,662.02 L244.38,662.09 L244.43,662.16 L244.47,662.22 L244.52,662.29 L244.56,662.36 L244.61,662.43 L244.64,662.49 L244.68,662.56 L244.72,662.63 L244.75,662.69 L244.78,662.76 L244.81,662.82 L244.84,662.88 L244.87,662.94 L244.89,663 L244.91,663.05 L244.94,663.11 L244.95,663.16 L244.97,663.21 L244.99,663.25 L245,663.29 L245.01,663.33 L245.02,663.37 L245.03,663.4 L245.04,663.43 L245.04,663.45 L245.05,663.47 L245.05,663.48 L245.05,663.49 C245.05,663.58,244.97,663.58,244.93,663.58 C244.84,663.58,244.84,663.56,244.79,663.41 C244.66,662.95,244.43,662.53,244.14,662.15 C244.13,662.26,244.12,662.72,244.1,662.78 C244,663.47,243.48,663.92,242.78,663.92 L242.77,663.72 C243.33,663.72,243.49,663.19,243.55,662.76 C243.59,662.46,243.57,661.96,243.61,661.59 H243.61 C242.93,661.04,242.34,660.98,242.07,660.98 C241.61,660.98,241.35,661.28,241.35,661.75 C241.35,661.95,241.45,662.71,241.81,663.19 C242.13,663.6,242.53,663.72,242.77,663.72 L242.78,663.92 C241.76,663.92,240.77,662.97,240.77,661.99 C240.77,661.35,241.24,660.78,242.05,660.78 C242.69,660.78,243.27,661.07,243.66,661.37 C243.82,660.86,244.17,660.78,244.38,660.78 C244.79,660.78,245.04,661.12,245.04,661.27 C245.04,661.35,244.95,661.35,244.92,661.35 C244.83,661.35,244.81,661.32,244.8,661.28 C244.7,661.02,244.49,660.98,244.4,660.98 C244.31,660.98,244.19,660.98,244.15,661.83 Z "
   stroke-width="0"
   fill="black"
   id="path3455" />
<path
   d="M249.01,665.65 L249.01,665.66 L249,665.67 L248.99,665.68 L248.99,665.69 L248.98,665.7 L248.98,665.71 L248.97,665.72 L248.97,665.73 L248.96,665.73 L248.96,665.74 L248.95,665.75 L248.95,665.75 L248.94,665.76 L248.94,665.77 L248.93,665.77 L248.92,665.78 L248.92,665.78 L248.91,665.78 L248.9,665.79 L248.9,665.79 L248.89,665.79 L248.88,665.8 L248.88,665.8 L248.87,665.8 L248.86,665.8 L248.85,665.8 L248.84,665.81 L248.83,665.81 L248.82,665.81 L248.81,665.81 L248.79,665.81 L248.78,665.81 C248.7,665.81,248.63,665.79,248.57,665.68 L248.55,665.13 L250.6,661.42 H246.51 L248.55,665.13 L248.57,665.68 L246,661.02 C245.95,660.94,245.95,660.93,245.95,660.92 C245.95,660.85,246,660.85,246.12,660.85 H251.46 C251.57,660.85,251.62,660.85,251.62,660.92 C251.62,660.93,251.62,660.94,251.57,661.02 Z "
   stroke-width="0"
   fill="black"
   id="path3457" />
<path
   d="M254.48,660.99 L254.48,661.02 L254.47,661.04 L254.47,661.07 L254.47,661.1 L254.46,661.12 L254.45,661.15 L254.44,661.17 L254.43,661.19 L254.42,661.22 L254.41,661.24 L254.4,661.26 L254.39,661.28 L254.37,661.3 L254.35,661.32 L254.34,661.34 L254.32,661.36 L254.3,661.38 L254.28,661.4 L254.26,661.41 L254.24,661.43 L254.22,661.44 L254.2,661.45 L254.18,661.46 L254.15,661.47 L254.13,661.48 L254.1,661.49 L254.08,661.5 L254.05,661.51 L254.03,661.51 L254,661.51 L253.98,661.52 L253.95,661.52 C253.66,661.52,253.42,661.28,253.42,660.99 C253.42,660.7,253.66,660.46,253.95,660.46 C254.24,660.46,254.48,660.7,254.48,660.99 Z "
   stroke-width="0"
   fill="black"
   id="path3459" />
<path
   d="M254.29,657.34 L254.29,657.32 L254.29,657.29 L254.29,657.25 L254.29,657.22 L254.28,657.18 L254.28,657.14 L254.28,657.1 L254.28,657.05 L254.27,657 L254.27,656.95 L254.26,656.9 L254.25,656.85 L254.24,656.8 L254.23,656.74 L254.22,656.68 L254.21,656.62 L254.19,656.56 L254.17,656.5 L254.15,656.44 L254.13,656.37 L254.11,656.31 L254.08,656.24 L254.05,656.17 L254.02,656.11 L253.98,656.04 L253.95,655.97 L253.9,655.9 L253.86,655.83 L253.81,655.76 L253.76,655.69 L253.71,655.63 L253.65,655.56 C253.58,655.48,253.58,655.46,253.58,655.43 C253.58,655.36,253.63,655.32,253.68,655.32 C253.79,655.32,254.51,656.11,254.51,657.27 C254.51,657.55,254.49,658.29,253.95,658.29 C253.6,658.29,253.42,658.02,253.42,657.76 C253.42,657.5,253.59,657.23,253.95,657.23 C254,657.23,254.02,657.23,254.03,657.24 C254.1,657.26,254.21,657.28,254.29,657.34 Z "
   stroke-width="0"
   fill="black"
   id="path3461" />
<path
   d="M258.32,658.06 L258.37,658.11 L258.41,658.16 L258.46,658.21 L258.51,658.26 L258.55,658.31 L258.59,658.35 L258.64,658.39 L258.68,658.44 L258.72,658.48 L258.76,658.52 L258.8,658.55 L258.83,658.59 L258.87,658.63 L258.91,658.66 L258.98,658.73 L259.04,658.79 L259.11,658.85 L259.18,658.91 L259.24,658.97 L259.37,659.08 L259.43,659.13 L259.5,659.19 C259.5,659.2,260.12,659.73,260.48,660.09 C261.42,661.01,261.64,661.49,261.64,661.53 C261.64,661.63,261.55,661.63,261.53,661.63 C261.46,661.63,261.43,661.61,261.38,661.52 C261.08,661.04,260.87,660.88,260.64,660.88 C260.4,660.88,260.28,661.03,260.13,661.2 C259.94,661.43,259.77,661.63,259.44,661.63 C258.7,661.63,258.24,660.7,258.24,660.49 C258.24,660.44,258.27,660.38,258.36,660.38 C258.45,660.38,258.47,660.43,258.49,660.49 C258.67,660.95,259.25,660.96,259.33,660.96 C259.54,660.96,259.73,660.89,259.96,660.81 C260.36,660.66,260.47,660.66,260.73,660.66 C260.37,660.23,259.53,659.52,259.34,659.36 L258.45,658.53 C257.77,657.86,257.42,657.29,257.42,657.22 C257.42,657.13,257.52,657.13,257.54,657.13 C257.62,657.13,257.64,657.15,257.7,657.26 C257.93,657.6,258.23,657.87,258.55,657.87 C258.77,657.87,258.87,657.78,259.12,657.49 C259.29,657.28,259.47,657.13,259.76,657.13 C260.74,657.13,261.32,658.39,261.32,658.66 C261.32,658.71,261.28,658.76,261.2,658.76 C261.11,658.76,261.09,658.7,261.06,658.63 C260.83,657.98,260.2,657.79,259.87,657.79 C259.67,657.79,259.49,657.85,259.28,657.92 C258.94,658.05,258.8,658.09,258.59,658.09 C258.57,658.09,258.41,658.09,258.32,658.06 Z "
   stroke-width="0"
   fill="black"
   id="path3463" />
<path
   d="M265.1,659.74 L265.1,660.01 L265.09,660.3 L265.07,660.59 L265.04,660.9 L265,661.21 L264.95,661.53 L264.89,661.85 L264.81,662.18 L264.77,662.35 L264.72,662.52 L264.67,662.69 L264.61,662.85 L264.55,663.02 L264.48,663.19 L264.41,663.36 L264.34,663.52 L264.26,663.69 L264.17,663.86 L264.08,664.02 L263.99,664.19 L263.89,664.35 L263.78,664.51 L263.67,664.67 L263.55,664.83 C263.45,664.95,262.8,665.7,262.62,665.7 C262.57,665.7,262.5,665.68,262.5,665.6 C262.5,665.56,262.52,665.53,262.56,665.5 C263.04,664.99,263.69,664.18,264.1,662.6 C264.32,661.7,264.41,660.68,264.41,659.75 C264.41,658.75,264.32,657.73,264.07,656.76 C263.69,655.37,263.1,654.58,262.59,654.02 C262.5,653.93,262.5,653.91,262.5,653.89 C262.5,653.81,262.57,653.79,262.62,653.79 C262.77,653.79,263.32,654.4,263.44,654.54 C264.45,655.74,265.1,657.53,265.1,659.74 Z "
   stroke-width="0"
   fill="black"
   id="path3465" />
</g>    <g
       style="font-style:normal;font-variant:normal;font-weight:normal;font-stretch:normal;letter-spacing:normal;word-spacing:normal;text-anchor:start;fill:#0000ff;fill-opacity:1;fill-rule:evenodd;stroke:#000000;stroke-linecap:butt;stroke-linejoin:miter;stroke-miterlimit:10.43299961;stroke-opacity:1;stroke-dasharray:none;stroke-dashoffset:0"
       ns0:preamble="/home/erik/.config/inkscape/extensions/anyname.ini"
       ns0:text="I$\\left(m^{\\Delta}; m^{\\alpha\\Delta}\\right)$"
       word-spacing="normal"
       letter-spacing="normal"
       font-size-adjust="none"
       font-stretch="normal"
       font-weight="normal"
       font-variant="normal"
       font-style="normal"
       stroke-miterlimit="10.433"
       xml:space="preserve"
       transform="matrix(3.8226995,0,0,-3.7225171,-472.22654,3460.7646)"
       id="g3689">
<path
   id="path3691"
   d="m 225.67,663.24 0,0.04 0,0.03 0,0.03 0,0.03 0.01,0.03 0,0.02 0,0.03 0.01,0.02 0,0.02 0.01,0.02 0.01,0.02 0.01,0.02 0.01,0.02 0.02,0.01 0.02,0.02 0.01,0.01 0.02,0.02 0.03,0.01 0.01,0 0.01,0.01 0.02,0 0.01,0.01 0.02,0 0.01,0.01 0.02,0 0.02,0.01 0.02,0 0.02,0 0.02,0.01 0.02,0 0.02,0 0.02,0 0.02,0.01 0.03,0 0.02,0 0.03,0 0.03,0.01 0.03,0 0.02,0 0.03,0 0.04,0 0.03,0 0.03,0 0.03,0 0.04,0 0.04,0 h 0.25 v 0.31 c -0.34,-0.03 -1.13,-0.03 -1.51,-0.03 -0.38,0 -1.17,0 -1.52,0.03 v -0.31 h 0.26 c 0.79,0 0.82,-0.11 0.82,-0.47 v -5.23 c 0,-0.36 -0.03,-0.47 -0.82,-0.47 h -0.26 v -0.31 c 0.35,0.04 1.14,0.04 1.51,0.04 0.39,0 1.18,0 1.52,-0.04 v 0.31 h -0.25 c -0.79,0 -0.82,0.11 -0.82,0.47 z"
   inkscape:connector-curvature="0"
   style="fill:#000000;stroke-width:0" />
<path
   id="path3693"
   d="m 231.14,653.89 0,0 0,0.01 0,0 0,0.01 0,0 0,0 0,0 0,0.01 -0.01,0 0,0 0,0.01 0,0 0,0 0,0 0,0.01 0,0 -0.01,0 0,0.01 0,0 -0.01,0.01 0,0 0,0.01 -0.01,0 0,0.01 c -0.46,0.49 -1.14,1.29 -1.55,2.91 -0.23,0.9 -0.32,1.93 -0.32,2.85 0,2.61 0.63,4.44 1.82,5.73 0.09,0.09 0.09,0.11 0.09,0.13 0,0.1 -0.08,0.1 -0.12,0.1 -0.15,0 -0.69,-0.59 -0.82,-0.74 -1.01,-1.2 -1.66,-2.99 -1.66,-5.21 0,-1.41 0.25,-3.41 1.55,-5.08 0.1,-0.12 0.75,-0.88 0.93,-0.88 0.04,0 0.12,0 0.12,0.1 z"
   inkscape:connector-curvature="0"
   style="fill:#000000;stroke-width:0" />
<path
   id="path3695"
   d="m 232.47,657.82 0,-0.01 0,-0.02 -0.01,-0.01 0,-0.02 -0.01,-0.03 0,-0.03 -0.01,-0.03 -0.01,-0.04 -0.01,-0.03 0,-0.03 -0.01,-0.01 0,-0.02 0,-0.01 -0.01,-0.02 0,-0.01 0,-0.01 -0.01,-0.02 0,-0.01 0,-0.01 0,-0.01 0,-0.01 -0.01,-0.01 0,-0.01 0,0 0,-0.01 0,-0.01 c 0,-0.17 0.14,-0.26 0.29,-0.26 0.12,0 0.3,0.08 0.37,0.27 0.01,0.02 0.13,0.49 0.19,0.74 l 0.22,0.89 c 0.06,0.22 0.12,0.44 0.17,0.67 0.03,0.17 0.12,0.46 0.12,0.5 0.15,0.3 0.68,1.21 1.63,1.21 0.45,0 0.53,-0.37 0.53,-0.7 0,-0.25 -0.07,-0.53 -0.14,-0.82 l -0.28,-1.16 -0.2,-0.75 c -0.04,-0.2 -0.13,-0.54 -0.13,-0.59 0,-0.17 0.14,-0.26 0.29,-0.26 0.3,0 0.36,0.24 0.44,0.56 0.14,0.56 0.51,2.01 0.6,2.4 0.03,0.13 0.56,1.32 1.64,1.32 0.43,0 0.54,-0.34 0.54,-0.7 0,-0.56 -0.42,-1.7 -0.62,-2.22 -0.09,-0.24 -0.13,-0.35 -0.13,-0.55 0,-0.47 0.35,-0.81 0.82,-0.81 0.93,0 1.3,1.45 1.3,1.53 0,0.1 -0.09,0.1 -0.12,0.1 -0.1,0 -0.1,-0.04 -0.15,-0.18 -0.14,-0.53 -0.46,-1.24 -1.01,-1.24 -0.17,0 -0.24,0.1 -0.24,0.33 0,0.25 0.09,0.49 0.18,0.71 0.19,0.51 0.61,1.62 0.61,2.18 0,0.65 -0.4,1.07 -1.15,1.07 -0.74,0 -1.25,-0.44 -1.62,-0.97 -0.01,0.13 -0.04,0.47 -0.32,0.71 -0.25,0.21 -0.56,0.26 -0.81,0.26 -0.9,0 -1.39,-0.64 -1.56,-0.87 -0.05,0.57 -0.46,0.87 -0.91,0.87 -0.46,0 -0.65,-0.39 -0.74,-0.57 -0.18,-0.35 -0.31,-0.93 -0.31,-0.96 0,-0.1 0.1,-0.1 0.12,-0.1 0.1,0 0.11,0.01 0.17,0.22 0.17,0.71 0.37,1.19 0.73,1.19 0.16,0 0.31,-0.08 0.31,-0.46 0,-0.21 -0.03,-0.32 -0.16,-0.83 z"
   inkscape:connector-curvature="0"
   style="fill:#000000;stroke-width:0" />
<path
   id="path3697"
   d="m 243.83,665.65 0,0.01 -0.01,0.01 -0.01,0.01 0,0.01 -0.01,0.01 0,0.01 -0.01,0.01 0,0.01 -0.01,0 0,0.01 -0.01,0.01 0,0 -0.01,0.01 0,0.01 -0.01,0 -0.01,0.01 0,0 -0.01,0 -0.01,0.01 0,0 -0.01,0 -0.01,0.01 0,0 -0.01,0 -0.01,0 -0.01,0 -0.01,0.01 -0.01,0 -0.01,0 -0.01,0 -0.02,0 -0.01,0 c -0.08,0 -0.15,-0.02 -0.21,-0.13 l -0.02,-0.55 2.05,-3.71 h -4.1 l 2.05,3.71 0.02,0.55 -2.57,-4.66 c -0.05,-0.08 -0.05,-0.09 -0.05,-0.1 0,-0.07 0.05,-0.07 0.16,-0.07 h 5.35 c 0.11,0 0.16,0 0.16,0.07 0,0.01 0,0.02 -0.04,0.1 z"
   inkscape:connector-curvature="0"
   style="fill:#000000;stroke-width:0" />
<path
   id="path3699"
   d="m 249.3,660.99 0,0.03 -0.01,0.02 0,0.03 0,0.03 -0.01,0.02 -0.01,0.03 -0.01,0.02 -0.01,0.02 -0.01,0.03 -0.01,0.02 -0.01,0.02 -0.01,0.02 -0.02,0.02 -0.02,0.02 -0.01,0.02 -0.02,0.02 -0.02,0.02 -0.02,0.02 -0.02,0.01 -0.02,0.02 -0.02,0.01 -0.02,0.01 -0.02,0.01 -0.03,0.01 -0.02,0.01 -0.03,0.01 -0.02,0.01 -0.03,0.01 -0.02,0 -0.03,0 -0.02,0.01 -0.03,0 c -0.29,0 -0.53,-0.24 -0.53,-0.53 0,-0.29 0.24,-0.53 0.53,-0.53 0.29,0 0.53,0.24 0.53,0.53 z"
   inkscape:connector-curvature="0"
   style="fill:#000000;stroke-width:0" />
<path
   id="path3701"
   d="m 249.11,657.34 0,-0.02 0,-0.03 0,-0.04 0,-0.03 -0.01,-0.04 0,-0.04 0,-0.04 0,-0.05 -0.01,-0.05 0,-0.05 -0.01,-0.05 -0.01,-0.05 -0.01,-0.05 -0.01,-0.06 -0.01,-0.06 -0.01,-0.06 -0.02,-0.06 -0.02,-0.06 -0.02,-0.06 -0.02,-0.07 -0.02,-0.06 -0.03,-0.07 -0.03,-0.07 -0.03,-0.06 -0.04,-0.07 -0.03,-0.07 -0.05,-0.07 -0.04,-0.07 -0.05,-0.07 -0.05,-0.07 -0.05,-0.06 -0.06,-0.07 c -0.07,-0.08 -0.07,-0.1 -0.07,-0.13 0,-0.07 0.05,-0.11 0.1,-0.11 0.11,0 0.83,0.79 0.83,1.95 0,0.28 -0.02,1.02 -0.56,1.02 -0.35,0 -0.53,-0.27 -0.53,-0.53 0,-0.26 0.17,-0.53 0.53,-0.53 0.05,0 0.07,0 0.08,0.01 0.07,0.02 0.18,0.04 0.26,0.1 z"
   inkscape:connector-curvature="0"
   style="fill:#000000;stroke-width:0" />
<path
   id="path3703"
   d="m 252.69,657.82 0,-0.01 -0.01,-0.02 0,-0.01 0,-0.02 -0.01,-0.03 -0.01,-0.03 0,-0.03 -0.01,-0.04 -0.01,-0.03 -0.01,-0.03 0,-0.01 0,-0.02 -0.01,-0.01 0,-0.02 0,-0.01 -0.01,-0.01 0,-0.02 0,-0.01 0,-0.01 0,-0.01 -0.01,-0.01 0,-0.01 0,-0.01 0,0 0,-0.01 0,-0.01 c 0,-0.17 0.14,-0.26 0.29,-0.26 0.12,0 0.3,0.08 0.37,0.27 0.01,0.02 0.13,0.49 0.19,0.74 l 0.21,0.89 c 0.06,0.22 0.12,0.44 0.17,0.67 0.04,0.17 0.12,0.46 0.13,0.5 0.15,0.3 0.68,1.21 1.63,1.21 0.44,0 0.53,-0.37 0.53,-0.7 0,-0.25 -0.07,-0.53 -0.15,-0.82 l -0.28,-1.16 -0.2,-0.75 c -0.03,-0.2 -0.12,-0.54 -0.12,-0.59 0,-0.17 0.14,-0.26 0.28,-0.26 0.31,0 0.37,0.24 0.45,0.56 0.14,0.56 0.51,2.01 0.6,2.4 0.03,0.13 0.56,1.32 1.64,1.32 0.43,0 0.54,-0.34 0.54,-0.7 0,-0.56 -0.42,-1.7 -0.62,-2.22 -0.09,-0.24 -0.13,-0.35 -0.13,-0.55 0,-0.47 0.35,-0.81 0.82,-0.81 0.93,0 1.3,1.45 1.3,1.53 0,0.1 -0.09,0.1 -0.12,0.1 -0.1,0 -0.1,-0.04 -0.15,-0.18 -0.15,-0.53 -0.46,-1.24 -1.01,-1.24 -0.17,0 -0.24,0.1 -0.24,0.33 0,0.25 0.09,0.49 0.18,0.71 0.19,0.51 0.61,1.62 0.61,2.18 0,0.65 -0.4,1.07 -1.15,1.07 -0.75,0 -1.25,-0.44 -1.62,-0.97 -0.01,0.13 -0.04,0.47 -0.32,0.71 -0.25,0.21 -0.57,0.26 -0.81,0.26 -0.9,0 -1.39,-0.64 -1.56,-0.87 -0.05,0.57 -0.46,0.87 -0.91,0.87 -0.46,0 -0.65,-0.39 -0.74,-0.57 -0.18,-0.35 -0.31,-0.93 -0.31,-0.96 0,-0.1 0.1,-0.1 0.12,-0.1 0.1,0 0.11,0.01 0.17,0.22 0.17,0.71 0.37,1.19 0.73,1.19 0.16,0 0.31,-0.08 0.31,-0.46 0,-0.21 -0.03,-0.32 -0.16,-0.83 z"
   inkscape:connector-curvature="0"
   style="fill:#000000;stroke-width:0" />
<path
   id="path3705"
   d="m 264.37,661.83 0.06,0.06 0.06,0.07 0.05,0.06 0.05,0.07 0.05,0.07 0.05,0.06 0.05,0.07 0.04,0.07 0.04,0.07 0.04,0.06 0.04,0.07 0.04,0.07 0.03,0.06 0.03,0.07 0.03,0.06 0.03,0.06 0.03,0.06 0.02,0.06 0.02,0.05 0.02,0.06 0.02,0.05 0.02,0.05 0.02,0.04 0.01,0.04 0.01,0.04 0.01,0.04 0.01,0.03 0.01,0.03 0,0.02 0.01,0.02 0,0.01 0,0.01 c 0,0.09 -0.08,0.09 -0.12,0.09 -0.1,0 -0.1,-0.02 -0.14,-0.17 -0.13,-0.46 -0.36,-0.88 -0.65,-1.26 -0.01,0.11 -0.02,0.57 -0.04,0.63 -0.1,0.69 -0.62,1.14 -1.32,1.14 l -0.01,-0.2 c 0.56,0 0.72,-0.53 0.78,-0.96 0.04,-0.3 0.02,-0.8 0.06,-1.17 h 0 c -0.68,-0.55 -1.28,-0.61 -1.54,-0.61 -0.46,0 -0.72,0.3 -0.72,0.77 0,0.2 0.1,0.96 0.46,1.44 0.32,0.41 0.72,0.53 0.96,0.53 l 0.01,0.2 c -1.02,0 -2.01,-0.95 -2.01,-1.93 0,-0.64 0.47,-1.21 1.28,-1.21 0.64,0 1.22,0.29 1.61,0.59 0.16,-0.51 0.51,-0.59 0.72,-0.59 0.41,0 0.66,0.34 0.66,0.49 0,0.08 -0.09,0.08 -0.12,0.08 -0.09,0 -0.11,-0.03 -0.12,-0.07 -0.1,-0.26 -0.31,-0.3 -0.4,-0.3 -0.1,0 -0.21,0 -0.25,0.85 z"
   inkscape:connector-curvature="0"
   style="fill:#000000;stroke-width:0" />
<path
   id="path3707"
   d="m 269.23,665.65 -0.01,0.01 0,0.01 -0.01,0.01 0,0.01 -0.01,0.01 0,0.01 -0.01,0.01 -0.01,0.01 0,0 -0.01,0.01 0,0.01 -0.01,0 0,0.01 -0.01,0.01 0,0 -0.01,0.01 0,0 -0.01,0 -0.01,0.01 0,0 -0.01,0 -0.01,0.01 -0.01,0 0,0 -0.01,0 -0.01,0 -0.01,0.01 -0.01,0 -0.01,0 -0.02,0 -0.01,0 -0.01,0 c -0.08,0 -0.15,-0.02 -0.22,-0.13 l -0.01,-0.55 2.05,-3.71 h -4.1 l 2.05,3.71 0.01,0.55 -2.57,-4.66 c -0.04,-0.08 -0.04,-0.09 -0.04,-0.1 0,-0.07 0.05,-0.07 0.16,-0.07 h 5.34 c 0.12,0 0.17,0 0.17,0.07 0,0.01 0,0.02 -0.05,0.1 z"
   inkscape:connector-curvature="0"
   style="fill:#000000;stroke-width:0" />
<path
   id="path3709"
   d="m 275.82,659.74 -0.01,0.27 -0.01,0.29 -0.01,0.29 -0.03,0.31 -0.04,0.31 -0.05,0.32 -0.06,0.32 -0.08,0.33 -0.04,0.17 -0.05,0.17 -0.05,0.17 -0.06,0.16 -0.06,0.17 -0.07,0.17 -0.07,0.17 -0.07,0.16 -0.08,0.17 -0.09,0.17 -0.09,0.16 -0.09,0.17 -0.1,0.16 -0.11,0.16 -0.11,0.16 -0.12,0.16 c -0.1,0.12 -0.75,0.87 -0.93,0.87 -0.05,0 -0.12,-0.02 -0.12,-0.1 0,-0.04 0.02,-0.07 0.06,-0.1 0.48,-0.51 1.13,-1.32 1.53,-2.9 0.23,-0.9 0.32,-1.92 0.32,-2.85 0,-1 -0.09,-2.02 -0.35,-2.99 -0.37,-1.39 -0.96,-2.18 -1.47,-2.74 -0.09,-0.09 -0.09,-0.11 -0.09,-0.13 0,-0.08 0.07,-0.1 0.12,-0.1 0.15,0 0.7,0.61 0.82,0.75 1.01,1.2 1.66,2.99 1.66,5.2 z"
   inkscape:connector-curvature="0"
   style="fill:#000000;stroke-width:0" />
</g>  </g>
</svg>
