<?xml version="1.0" encoding="UTF-8" standalone="no"?>
<!-- Created with Inkscape (http://www.inkscape.org/) -->

<svg
   xmlns:ns0="http://www.iki.fi/pav/software/textext/"
   xmlns:dc="http://purl.org/dc/elements/1.1/"
   xmlns:cc="http://creativecommons.org/ns#"
   xmlns:rdf="http://www.w3.org/1999/02/22-rdf-syntax-ns#"
   xmlns:svg="http://www.w3.org/2000/svg"
   xmlns="http://www.w3.org/2000/svg"
   xmlns:sodipodi="http://sodipodi.sourceforge.net/DTD/sodipodi-0.dtd"
   xmlns:inkscape="http://www.inkscape.org/namespaces/inkscape"
   width="640"
   height="640"
   id="svg2"
   version="1.1"
   inkscape:version="0.48.3.1 r9886"
   sodipodi:docname="map_compression.pdf">
  <sodipodi:namedview
     id="base"
     pagecolor="#ffffff"
     bordercolor="#666666"
     borderopacity="1.0"
     inkscape:pageopacity="0.0"
     inkscape:pageshadow="2"
     inkscape:zoom="1"
     inkscape:cx="203.47938"
     inkscape:cy="310.41737"
     inkscape:document-units="px"
     inkscape:current-layer="layer1"
     showgrid="false"
     inkscape:snap-bbox="true"
     inkscape:bbox-paths="true"
     inkscape:bbox-nodes="true"
     inkscape:snap-bbox-edge-midpoints="true"
     inkscape:snap-bbox-midpoints="true"
     inkscape:window-width="1920"
     inkscape:window-height="1056"
     inkscape:window-x="0"
     inkscape:window-y="219"
     inkscape:window-maximized="1"
     inkscape:snap-global="false" />
  <defs
     id="defs4">
    <marker
       inkscape:stockid="Arrow1Mend"
       orient="auto"
       refY="0"
       refX="0"
       id="Arrow1Mend"
       style="overflow:visible">
      <path
         id="path4704"
         d="M 0,0 5,-5 -12.5,0 5,5 0,0 z"
         style="fill-rule:evenodd;stroke:#000000;stroke-width:1pt"
         transform="matrix(-0.4,0,0,-0.4,-4,0)"
         inkscape:connector-curvature="0" />
    </marker>
    <marker
       inkscape:stockid="Arrow1Mend"
       orient="auto"
       refY="0"
       refX="0"
       id="Arrow1Mend-3"
       style="overflow:visible">
      <path
         inkscape:connector-curvature="0"
         id="path4704-5"
         d="M 0,0 5,-5 -12.5,0 5,5 0,0 z"
         style="fill-rule:evenodd;stroke:#000000;stroke-width:1pt"
         transform="matrix(-0.4,0,0,-0.4,-4,0)" />
    </marker>
    <marker
       inkscape:stockid="Arrow1Mend"
       orient="auto"
       refY="0"
       refX="0"
       id="marker5745"
       style="overflow:visible">
      <path
         inkscape:connector-curvature="0"
         id="path5747"
         d="M 0,0 5,-5 -12.5,0 5,5 0,0 z"
         style="fill-rule:evenodd;stroke:#000000;stroke-width:1pt"
         transform="matrix(-0.4,0,0,-0.4,-4,0)" />
    </marker>
    <marker
       inkscape:stockid="Arrow1Mend"
       orient="auto"
       refY="0"
       refX="0"
       id="marker5749"
       style="overflow:visible">
      <path
         inkscape:connector-curvature="0"
         id="path5751"
         d="M 0,0 5,-5 -12.5,0 5,5 0,0 z"
         style="fill-rule:evenodd;stroke:#000000;stroke-width:1pt"
         transform="matrix(-0.4,0,0,-0.4,-4,0)" />
    </marker>
    <marker
       inkscape:stockid="Arrow1Mend"
       orient="auto"
       refY="0"
       refX="0"
       id="marker5753"
       style="overflow:visible">
      <path
         inkscape:connector-curvature="0"
         id="path5755"
         d="M 0,0 5,-5 -12.5,0 5,5 0,0 z"
         style="fill-rule:evenodd;stroke:#000000;stroke-width:1pt"
         transform="matrix(-0.4,0,0,-0.4,-4,0)" />
    </marker>
  </defs>
  <metadata
     id="metadata7">
    <rdf:RDF>
      <cc:Work
         rdf:about="">
        <dc:format>image/svg+xml</dc:format>
        <dc:type
           rdf:resource="http://purl.org/dc/dcmitype/StillImage" />
        <dc:title></dc:title>
      </cc:Work>
    </rdf:RDF>
  </metadata>
  <g
     id="layer1"
     inkscape:groupmode="layer"
     inkscape:label="Layer 1"
     transform="translate(0,-412.36218)">
    <rect
       ry="0"
       y="471.29321"
       x="8.9631815"
       height="72.305443"
       width="69.456093"
       id="rect3004"
       style="fill:#aaaaaa;fill-opacity:1;stroke:#000000;stroke-width:1.33400381;stroke-linecap:round;stroke-linejoin:round;stroke-miterlimit:4;stroke-opacity:1;stroke-dasharray:none;stroke-dashoffset:0" />
    <rect
       ry="0"
       y="471.29321"
       x="78.419273"
       height="72.305443"
       width="69.456093"
       id="rect3004-1"
       style="fill:#aaaaaa;fill-opacity:1;stroke:#000000;stroke-width:1.33400381;stroke-linecap:round;stroke-linejoin:round;stroke-miterlimit:4;stroke-opacity:1;stroke-dasharray:none;stroke-dashoffset:0" />
    <rect
       ry="0"
       y="543.59869"
       x="8.9631815"
       height="72.305443"
       width="69.456093"
       id="rect3004-7"
       style="fill:#aaaaaa;stroke:#000000;stroke-width:1.33400381000000001;stroke-linecap:round;stroke-linejoin:round;stroke-miterlimit:4;stroke-opacity:1;stroke-dasharray:none;stroke-dashoffset:0;fill-opacity:1" />
    <rect
       ry="0"
       y="543.59869"
       x="78.419273"
       height="72.305443"
       width="69.456093"
       id="rect3004-1-3"
       style="fill:#aaaaaa;fill-opacity:1;stroke:#000000;stroke-width:1.33400381;stroke-linecap:round;stroke-linejoin:round;stroke-miterlimit:4;stroke-opacity:1;stroke-dasharray:none;stroke-dashoffset:0" />
    <rect
       ry="0"
       y="471.29321"
       x="147.87538"
       height="72.305443"
       width="69.456093"
       id="rect3004-6"
       style="fill:#252525;fill-opacity:1;stroke:#000000;stroke-width:1.33400381;stroke-linecap:round;stroke-linejoin:round;stroke-miterlimit:4;stroke-opacity:1;stroke-dasharray:none;stroke-dashoffset:0" />
    <rect
       ry="0"
       y="471.29321"
       x="217.33151"
       height="72.305443"
       width="69.456093"
       id="rect3004-1-5"
       style="fill:#aaaaaa;fill-opacity:1;stroke:#000000;stroke-width:1.33400381;stroke-linecap:round;stroke-linejoin:round;stroke-miterlimit:4;stroke-opacity:1;stroke-dasharray:none;stroke-dashoffset:0" />
    <rect
       ry="0"
       y="543.59869"
       x="147.87538"
       height="72.305443"
       width="69.456093"
       id="rect3004-7-2"
       style="fill:#252525;fill-opacity:1;stroke:#000000;stroke-width:1.33400381;stroke-linecap:round;stroke-linejoin:round;stroke-miterlimit:4;stroke-opacity:1;stroke-dasharray:none;stroke-dashoffset:0" />
    <rect
       ry="0"
       y="543.59869"
       x="217.33151"
       height="72.305443"
       width="69.456093"
       id="rect3004-1-3-0"
       style="fill:#aaaaaa;fill-opacity:1;stroke:#000000;stroke-width:1.33400381;stroke-linecap:round;stroke-linejoin:round;stroke-miterlimit:4;stroke-opacity:1;stroke-dasharray:none;stroke-dashoffset:0" />
    <rect
       ry="0"
       y="615.90411"
       x="8.9631815"
       height="72.305443"
       width="69.456093"
       id="rect3004-3"
       style="fill:none;stroke:#000000;stroke-width:1.33400381;stroke-linecap:round;stroke-linejoin:round;stroke-miterlimit:4;stroke-opacity:1;stroke-dasharray:none;stroke-dashoffset:0" />
    <rect
       ry="0"
       y="615.90411"
       x="78.419258"
       height="72.305443"
       width="69.456093"
       id="rect3004-1-8"
       style="fill:#252525;fill-opacity:1;stroke:#000000;stroke-width:1.33400381;stroke-linecap:round;stroke-linejoin:round;stroke-miterlimit:4;stroke-opacity:1;stroke-dasharray:none;stroke-dashoffset:0" />
    <rect
       ry="0"
       y="688.20959"
       x="8.9631815"
       height="72.305443"
       width="69.456093"
       id="rect3004-7-9"
       style="fill:none;stroke:#000000;stroke-width:1.33400381;stroke-linecap:round;stroke-linejoin:round;stroke-miterlimit:4;stroke-opacity:1;stroke-dasharray:none;stroke-dashoffset:0" />
    <rect
       ry="0"
       y="688.20959"
       x="78.419258"
       height="72.305443"
       width="69.456093"
       id="rect3004-1-3-4"
       style="fill:#252525;fill-opacity:1;stroke:#000000;stroke-width:1.33400381;stroke-linecap:round;stroke-linejoin:round;stroke-miterlimit:4;stroke-opacity:1;stroke-dasharray:none;stroke-dashoffset:0" />
    <rect
       ry="0"
       y="615.90411"
       x="147.87538"
       height="72.305443"
       width="69.456093"
       id="rect3004-6-3"
       style="fill:none;stroke:#000000;stroke-width:1.33400381;stroke-linecap:round;stroke-linejoin:round;stroke-miterlimit:4;stroke-opacity:1;stroke-dasharray:none;stroke-dashoffset:0" />
    <rect
       ry="0"
       y="615.90411"
       x="217.33151"
       height="72.305443"
       width="69.456093"
       id="rect3004-1-5-0"
       style="fill:none;stroke:#000000;stroke-width:1.33400381;stroke-linecap:round;stroke-linejoin:round;stroke-miterlimit:4;stroke-opacity:1;stroke-dasharray:none;stroke-dashoffset:0" />
    <rect
       ry="0"
       y="688.20959"
       x="147.87538"
       height="72.305443"
       width="69.456093"
       id="rect3004-7-2-1"
       style="fill:#ffffff;fill-opacity:1;stroke:#000000;stroke-width:1.33400381;stroke-linecap:round;stroke-linejoin:round;stroke-miterlimit:4;stroke-opacity:1;stroke-dasharray:none;stroke-dashoffset:0" />
    <rect
       ry="0"
       y="688.20959"
       x="217.33151"
       height="72.305443"
       width="69.456093"
       id="rect3004-1-3-0-8"
       style="fill:#ffffff;fill-opacity:1;stroke:#000000;stroke-width:1.33400381;stroke-linecap:round;stroke-linejoin:round;stroke-miterlimit:4;stroke-opacity:1;stroke-dasharray:none;stroke-dashoffset:0" />
    <rect
       ry="0"
       y="760.8573"
       x="359.21286"
       height="72.305443"
       width="69.456093"
       id="rect3004-6-3-8"
       style="fill:#aaaaaa;fill-opacity:1;stroke:#000000;stroke-width:1.33400381000000001;stroke-linecap:round;stroke-linejoin:round;stroke-miterlimit:4;stroke-opacity:1;stroke-dasharray:none;stroke-dashoffset:0" />
    <rect
       ry="0"
       y="760.8573"
       x="428.66901"
       height="72.305443"
       width="69.456093"
       id="rect3004-1-5-0-4"
       style="fill:#aaaaaa;fill-opacity:1;stroke:#000000;stroke-width:1.33400381000000001;stroke-linecap:round;stroke-linejoin:round;stroke-miterlimit:4;stroke-opacity:1;stroke-dasharray:none;stroke-dashoffset:0" />
    <rect
       ry="0"
       y="833.16284"
       x="359.21286"
       height="72.305443"
       width="69.456093"
       id="rect3004-7-2-1-7"
       style="fill:#aaaaaa;fill-opacity:1;stroke:#000000;stroke-width:1.33400381000000001;stroke-linecap:round;stroke-linejoin:round;stroke-miterlimit:4;stroke-opacity:1;stroke-dasharray:none;stroke-dashoffset:0" />
    <rect
       ry="0"
       y="833.16284"
       x="428.66901"
       height="72.305443"
       width="69.456093"
       id="rect3004-1-3-0-8-8"
       style="fill:#aaaaaa;fill-opacity:1;stroke:#000000;stroke-width:1.33400381000000001;stroke-linecap:round;stroke-linejoin:round;stroke-miterlimit:4;stroke-opacity:1;stroke-dasharray:none;stroke-dashoffset:0" />
    <rect
       ry="0"
       y="760.03711"
       x="554.14734"
       height="72.305443"
       width="69.456093"
       id="rect3004-6-3-8-3"
       style="fill:#aaaaaa;fill-opacity:1;stroke:#000000;stroke-width:1.33400381000000001;stroke-linecap:round;stroke-linejoin:round;stroke-miterlimit:4;stroke-opacity:1;stroke-dasharray:none;stroke-dashoffset:0" />
    <rect
       ry="0"
       y="475.88434"
       x="431.41925"
       height="72.305443"
       width="69.456093"
       id="rect3004-6-3-8-6"
       style="fill:#aaaaaa;fill-opacity:1;stroke:#000000;stroke-width:1.33400381000000001;stroke-linecap:round;stroke-linejoin:round;stroke-miterlimit:4;stroke-opacity:1;stroke-dasharray:none;stroke-dashoffset:0" />
    <rect
       ry="0"
       y="475.88434"
       x="500.87537"
       height="72.305443"
       width="69.456093"
       id="rect3004-1-5-0-4-4"
       style="fill:#323232;fill-opacity:1;stroke:#000000;stroke-width:1.33400381;stroke-linecap:round;stroke-linejoin:round;stroke-miterlimit:4;stroke-opacity:1;stroke-dasharray:none;stroke-dashoffset:0" />
    <rect
       ry="0"
       y="548.18988"
       x="431.41925"
       height="72.305443"
       width="69.456093"
       id="rect3004-7-2-1-7-5"
       style="fill:#aaaaaa;stroke:#000000;stroke-width:1.33400381000000001;stroke-linecap:round;stroke-linejoin:round;stroke-miterlimit:4;stroke-opacity:1;stroke-dasharray:none;stroke-dashoffset:0;fill-opacity:1" />
    <rect
       y="759.66821"
       x="357.37582"
       height="145.96704"
       width="140.91628"
       id="rect4012-3"
       style="fill:none;stroke:#002cff;stroke-width:10;stroke-linecap:round;stroke-linejoin:round;stroke-miterlimit:4;stroke-opacity:1;stroke-dasharray:20,20;stroke-dashoffset:0" />
    <rect
       y="760.60474"
       x="554.71497"
       height="71.170158"
       width="70.488869"
       id="rect4012-3-0"
       style="fill:none;stroke:#00c500;stroke-width:10;stroke-linecap:round;stroke-linejoin:round;stroke-miterlimit:4;stroke-opacity:1;stroke-dasharray:20,20;stroke-dashoffset:0" />
    <path
       style="fill:none;stroke:#000000;stroke-width:3;stroke-linecap:butt;stroke-linejoin:miter;stroke-miterlimit:4;stroke-opacity:1;stroke-dasharray:none;marker-end:url(#Arrow1Mend)"
       d="m 295.28195,831.37764 54.80967,-0.34983"
       id="path4683"
       inkscape:connector-curvature="0" />
    <path
       style="fill:none;stroke:#000000;stroke-width:3;stroke-linecap:butt;stroke-linejoin:miter;stroke-miterlimit:4;stroke-opacity:1;stroke-dasharray:none;marker-end:url(#Arrow1Mend)"
       d="m 506.79711,831.26806 35.48773,-28.63192"
       id="path4685"
       inkscape:connector-curvature="0" />
    <path
       style="fill:none;stroke:#000000;stroke-width:3;stroke-linecap:butt;stroke-linejoin:miter;stroke-miterlimit:4;stroke-opacity:1;stroke-dasharray:none;marker-end:url(#Arrow1Mend)"
       d="M 571.68962,750.00407 549.99128,709.0202"
       id="path4687"
       inkscape:connector-curvature="0" />
    <rect
       ry="0"
       y="759.84906"
       x="8.9631815"
       height="72.305443"
       width="69.456093"
       id="rect3004-3-3"
       style="fill:none;stroke:#000000;stroke-width:1.33400381;stroke-linecap:round;stroke-linejoin:round;stroke-miterlimit:4;stroke-opacity:1;stroke-dasharray:none;stroke-dashoffset:0" />
    <rect
       ry="0"
       y="759.84906"
       x="78.41925"
       height="72.305443"
       width="69.456093"
       id="rect3004-1-8-2"
       style="fill:#252525;fill-opacity:1;stroke:#000000;stroke-width:1.33400381;stroke-linecap:round;stroke-linejoin:round;stroke-miterlimit:4;stroke-opacity:1;stroke-dasharray:none;stroke-dashoffset:0" />
    <rect
       ry="0"
       y="832.15454"
       x="8.9631815"
       height="72.305443"
       width="69.456093"
       id="rect3004-7-9-8"
       style="fill:none;stroke:#000000;stroke-width:1.33400381;stroke-linecap:round;stroke-linejoin:round;stroke-miterlimit:4;stroke-opacity:1;stroke-dasharray:none;stroke-dashoffset:0" />
    <rect
       ry="0"
       y="832.15454"
       x="78.41925"
       height="72.305443"
       width="69.456093"
       id="rect3004-1-3-4-1"
       style="fill:none;stroke:#000000;stroke-width:1.33400381;stroke-linecap:round;stroke-linejoin:round;stroke-miterlimit:4;stroke-opacity:1;stroke-dasharray:none;stroke-dashoffset:0" />
    <rect
       ry="0"
       y="759.84906"
       x="147.8754"
       height="72.305443"
       width="69.456093"
       id="rect3004-6-3-7"
       style="fill:#252525;fill-opacity:1;stroke:#000000;stroke-width:1.33400381;stroke-linecap:round;stroke-linejoin:round;stroke-miterlimit:4;stroke-opacity:1;stroke-dasharray:none;stroke-dashoffset:0" />
    <rect
       ry="0"
       y="759.84906"
       x="217.33151"
       height="72.305443"
       width="69.456093"
       id="rect3004-1-5-0-7"
       style="fill:#aaaaaa;fill-opacity:1;stroke:#000000;stroke-width:1.33400381000000001;stroke-linecap:round;stroke-linejoin:round;stroke-miterlimit:4;stroke-opacity:1;stroke-dasharray:none;stroke-dashoffset:0" />
    <rect
       ry="0"
       y="832.15454"
       x="147.8754"
       height="72.305443"
       width="69.456093"
       id="rect3004-7-2-1-8"
       style="fill:#ffffff;fill-opacity:1;stroke:#000000;stroke-width:1.33400381;stroke-linecap:round;stroke-linejoin:round;stroke-miterlimit:4;stroke-opacity:1;stroke-dasharray:none;stroke-dashoffset:0" />
    <rect
       ry="0"
       y="832.15454"
       x="217.33151"
       height="72.305443"
       width="69.456093"
       id="rect3004-1-3-0-8-88"
       style="fill:#aaaaaa;fill-opacity:1;stroke:#000000;stroke-width:1.33400381000000001;stroke-linecap:round;stroke-linejoin:round;stroke-miterlimit:4;stroke-opacity:1;stroke-dasharray:none;stroke-dashoffset:0" />
    <rect
       y="757.68207"
       x="147.54036"
       height="145.96704"
       width="140.91628"
       id="rect4012"
       style="fill:none;stroke:#ff0000;stroke-width:10;stroke-linecap:round;stroke-linejoin:round;stroke-miterlimit:4;stroke-opacity:1;stroke-dasharray:20,20;stroke-dashoffset:0" />
    <rect
       ry="0"
       y="619.82935"
       x="431.41925"
       height="72.305443"
       width="69.456093"
       id="rect3004-7-2-1-7-5-2"
       style="fill:none;stroke:#000000;stroke-width:1.33400381000000001;stroke-linecap:round;stroke-linejoin:round;stroke-miterlimit:4;stroke-opacity:1;stroke-dasharray:none;stroke-dashoffset:0;fill-opacity:1" />
    <rect
       ry="0"
       y="619.82935"
       x="500.87537"
       height="72.305443"
       width="69.456093"
       id="rect3004-1-3-0-8-8-5-6"
       style="fill:#aaaaaa;fill-opacity:1;stroke:#000000;stroke-width:1.33400381000000001;stroke-linecap:round;stroke-linejoin:round;stroke-miterlimit:4;stroke-opacity:1;stroke-dasharray:none;stroke-dashoffset:0" />
    <rect
       ry="0"
       y="548.18988"
       x="500.87537"
       height="72.305443"
       width="69.456093"
       id="rect3004-1-3-0-8-8-5"
       style="fill:none;fill-opacity:1;stroke:#000000;stroke-width:1.33400381000000001;stroke-linecap:round;stroke-linejoin:round;stroke-miterlimit:4;stroke-opacity:1;stroke-dasharray:none;stroke-dashoffset:0" />
    <rect
       y="621.66235"
       x="500.35898"
       height="71.170158"
       width="70.488869"
       id="rect4012-3-0-5"
       style="fill:none;stroke:#00c500;stroke-width:10;stroke-linecap:round;stroke-linejoin:round;stroke-miterlimit:4;stroke-opacity:1;stroke-dasharray:20,20;stroke-dashoffset:0" />
    <path
       inkscape:connector-curvature="0"
       id="path4098"
       d="M 298.92902,610.43316 423.07098,579.2912"
       style="fill:none;stroke:#000000;stroke-width:3;stroke-linecap:butt;stroke-linejoin:miter;stroke-opacity:1;stroke-miterlimit:4;stroke-dasharray:none;marker-end:url(#marker5753)" />
    <g
       id="g4524"
       transform="matrix(5.0479208,0,0,-5.5588043,-1122.2205,4683.9664)"
       xml:space="preserve"
       stroke-miterlimit="10.433"
       font-style="normal"
       font-variant="normal"
       font-weight="normal"
       font-stretch="normal"
       font-size-adjust="none"
       letter-spacing="normal"
       word-spacing="normal"
       ns0:text="$K=24$, $R=4$, $d=2$, $n=1$"
       ns0:preamble="/home/erik/.config/inkscape/extensions/anyname.ini"
       style="font-style:normal;font-variant:normal;font-weight:normal;font-stretch:normal;letter-spacing:normal;word-spacing:normal;text-anchor:start;fill:none;stroke:#000000;stroke-linecap:butt;stroke-linejoin:miter;stroke-miterlimit:10.43299961;stroke-opacity:1;stroke-dasharray:none;stroke-dashoffset:0">
<path
   style="fill:#000000;stroke-width:0"
   inkscape:connector-curvature="0"
   d="m 228.5,661.25 -0.01,0 0,0 0,0.01 0,0 0,0.01 0,0 0,0 -0.01,0.01 0,0 0,0.01 0,0 0,0.01 -0.01,0.01 0,0.01 -0.01,0.01 0,0 0,0.01 0,0 0,0.01 -0.01,0 0,0.01 0,0 0,0.01 0,0 0,0 0,0.01 0,0 0,0 0,0.01 c 0,0.01 0.18,0.15 0.29,0.23 l 1.74,1.34 c 0.93,0.68 1.32,0.72 1.62,0.75 0.08,0.01 0.18,0.02 0.18,0.2 0,0.04 -0.03,0.11 -0.11,0.11 -0.22,0 -0.47,-0.03 -0.71,-0.03 -0.36,0 -0.75,0.03 -1.1,0.03 -0.07,0 -0.19,0 -0.19,-0.2 0,-0.07 0.05,-0.1 0.12,-0.11 0.22,-0.02 0.31,-0.07 0.31,-0.21 0,-0.18 -0.3,-0.4 -0.36,-0.45 l -3.88,-2.98 0.79,3.19 c 0.09,0.35 0.11,0.45 0.84,0.45 0.25,0 0.34,0 0.34,0.2 0,0.09 -0.08,0.11 -0.14,0.11 -0.28,0 -1,-0.03 -1.28,-0.03 -0.28,0 -0.99,0.03 -1.28,0.03 -0.07,0 -0.2,0 -0.2,-0.19 0,-0.12 0.09,-0.12 0.29,-0.12 0.13,0 0.31,-0.01 0.43,-0.02 0.16,-0.02 0.22,-0.05 0.22,-0.16 0,-0.04 -0.01,-0.07 -0.04,-0.19 l -1.34,-5.33 c -0.09,-0.39 -0.11,-0.47 -0.9,-0.47 -0.17,0 -0.28,0 -0.28,-0.19 0,-0.12 0.12,-0.12 0.15,-0.12 0.28,0 0.98,0.04 1.26,0.04 0.21,0 0.43,-0.01 0.64,-0.01 0.22,0 0.44,-0.03 0.65,-0.03 0.07,0 0.2,0 0.2,0.2 0,0.11 -0.09,0.11 -0.28,0.11 -0.37,0 -0.65,0 -0.65,0.18 0,0.07 0.06,0.29 0.09,0.44 0.14,0.51 0.27,1.04 0.4,1.56 l 1.48,1.15 1.15,-2.67 c 0.12,-0.27 0.12,-0.29 0.12,-0.35 0,-0.3 -0.42,-0.31 -0.51,-0.31 -0.11,0 -0.22,0 -0.22,-0.2 0,-0.11 0.12,-0.11 0.14,-0.11 0.39,0 0.81,0.04 1.21,0.04 0.22,0 0.76,-0.04 0.98,-0.04 0.04,0 0.17,0 0.17,0.2 0,0.11 -0.11,0.11 -0.19,0.11 -0.41,0.01 -0.54,0.1 -0.69,0.45 z"
   id="path4526" />
<path
   style="fill:#000000;stroke-width:0"
   inkscape:connector-curvature="0"
   d="m 242.21,660.48 0.03,0 0.03,0 0.02,0 0.02,0.01 0.01,0 0.02,0 0.01,0 0.02,0 0.01,0 0.01,0.01 0.02,0 0.01,0 0.01,0.01 0.02,0 0.01,0.01 0.01,0 0.01,0.01 0.01,0.01 0.01,0.01 0.01,0.01 0,0.01 0.01,0 0,0.01 0,0 0.01,0.01 0,0.01 0,0 0.01,0.01 0,0.01 0,0 0,0.01 0,0.01 0,0.01 0,0.01 0.01,0 0,0.01 0,0.01 c 0,0.2 -0.19,0.2 -0.33,0.2 h -5.96 c -0.14,0 -0.33,0 -0.33,-0.2 0,-0.2 0.19,-0.2 0.34,-0.2 z"
   id="path4528" />
<path
   style="fill:#000000;stroke-width:0"
   inkscape:connector-curvature="0"
   d="m 242.22,658.56 0.01,0 0.01,0 0.03,0 0.03,0 0.01,0 0.02,0 0.01,0 0.02,0 0.01,0 0.01,0.01 0.02,0 0.01,0 0.01,0.01 0.01,0 0.02,0.01 0.01,0 0.01,0.01 0.01,0 0.01,0.01 0.01,0.01 0.01,0.01 0,0 0,0.01 0.01,0.01 0,0 0,0.01 0.01,0 0,0.01 0,0.01 0.01,0 0,0.01 0,0.01 0,0 0,0.01 0,0.01 0,0.01 0.01,0.01 0,0.01 0,0.01 c 0,0.19 -0.19,0.19 -0.34,0.19 h -5.94 c -0.15,0 -0.34,0 -0.34,-0.19 0,-0.2 0.19,-0.2 0.33,-0.2 z"
   id="path4530" />
<path
   style="fill:#000000;stroke-width:0"
   inkscape:connector-curvature="0"
   d="m 247.15,658 1.06,1.02 c 1.55,1.37 2.15,1.91 2.15,2.9 0,1.14 -0.9,1.93 -2.11,1.93 -1.13,0 -1.86,-0.91 -1.86,-1.8 0,-0.55 0.5,-0.55 0.53,-0.55 0.17,0 0.51,0.12 0.51,0.52 0,0.26 -0.17,0.52 -0.52,0.52 -0.08,0 -0.1,0 -0.13,-0.01 0.23,0.64 0.76,1.01 1.34,1.01 0.9,0 1.33,-0.8 1.33,-1.62 0,-0.79 -0.49,-1.58 -1.04,-2.19 l -1.91,-2.13 c -0.11,-0.11 -0.11,-0.13 -0.11,-0.37 h 3.69 l 0.28,1.73 h -0.25 c -0.05,-0.3 -0.12,-0.73 -0.22,-0.88 C 249.82,658 249.16,658 248.95,658 z"
   id="path4532" />
<path
   style="fill:#000000;stroke-width:0"
   inkscape:connector-curvature="0"
   d="m 253.8,658.87 v -0.86 c 0,-0.36 -0.02,-0.47 -0.76,-0.47 h -0.21 v -0.31 c 0.41,0.04 0.93,0.04 1.35,0.04 0.41,0 0.94,0 1.35,-0.04 v 0.31 h -0.21 c -0.74,0 -0.76,0.11 -0.76,0.47 v 0.86 h 1 v 0.31 h -1 v 4.52 c 0,0.2 0,0.26 -0.16,0.26 -0.08,0 -0.11,0 -0.19,-0.12 l -3.06,-4.66 h 0.28 l 2.43,3.71 v -3.71 h -2.43 -0.28 v -0.31 z"
   id="path4534" />
<path
   style="fill:#000000;stroke-width:0"
   inkscape:connector-curvature="0"
   d="m 257.87,657.24 0,0.06 0,0.06 0,0.06 -0.01,0.05 0,0.06 -0.01,0.05 -0.01,0.05 -0.01,0.05 -0.01,0.04 -0.01,0.05 -0.02,0.04 -0.01,0.04 -0.02,0.04 -0.02,0.04 -0.02,0.04 -0.02,0.04 -0.02,0.03 -0.02,0.03 -0.02,0.03 -0.03,0.03 -0.02,0.02 -0.03,0.02 -0.03,0.03 -0.03,0.01 -0.03,0.02 -0.03,0.02 -0.03,0.01 -0.03,0.01 -0.04,0.01 -0.03,0 -0.04,0.01 -0.03,0 c -0.35,0 -0.53,-0.27 -0.53,-0.53 0,-0.26 0.17,-0.53 0.53,-0.53 0.16,0 0.28,0.06 0.37,0.14 l 0.03,0.02 c 0,0 0.01,-0.01 0.01,-0.15 0,-0.63 -0.27,-1.24 -0.71,-1.7 -0.06,-0.06 -0.07,-0.07 -0.07,-0.11 0,-0.07 0.05,-0.11 0.1,-0.11 0.12,0 0.9,0.78 0.9,1.92 z"
   id="path4536" />
<path
   style="fill:#000000;stroke-width:0"
   inkscape:connector-curvature="0"
   d="m 267.1,660.61 0.1,0.02 0.09,0.03 0.1,0.03 0.1,0.03 0.09,0.03 0.1,0.03 0.09,0.04 0.1,0.04 0.09,0.05 0.1,0.04 0.09,0.05 0.09,0.05 0.09,0.05 0.08,0.06 0.08,0.06 0.08,0.06 0.08,0.06 0.08,0.06 0.07,0.07 0.06,0.07 0.07,0.07 0.06,0.07 0.05,0.08 0.05,0.08 0.05,0.08 0.04,0.08 0.03,0.08 0.03,0.09 0.02,0.09 0.02,0.09 0.01,0.09 0,0.09 c 0,0.85 -0.89,1.49 -2.2,1.49 h -2.83 c -0.2,0 -0.29,0 -0.29,-0.2 0,-0.11 0.09,-0.11 0.28,-0.11 0.02,0 0.21,0 0.38,-0.02 0.17,-0.02 0.26,-0.03 0.26,-0.16 0,-0.04 0,-0.07 -0.03,-0.19 l -1.34,-5.33 c -0.1,-0.39 -0.12,-0.47 -0.9,-0.47 -0.18,0 -0.27,0 -0.27,-0.2 0,-0.11 0.12,-0.11 0.14,-0.11 0.28,0 0.97,0.04 1.25,0.04 0.28,0 0.99,-0.04 1.26,-0.04 0.08,0 0.2,0 0.2,0.2 0,0.11 -0.09,0.11 -0.28,0.11 -0.36,0 -0.64,0 -0.64,0.18 0,0.06 0.02,0.11 0.03,0.17 l 0.65,2.63 h 1.19 l -0.01,0.22 h -1.12 l 0.65,2.59 c 0.06,0.24 0.09,0.34 0.28,0.37 0.09,0.01 0.41,0.01 0.61,0.01 0.7,0 1.81,0 1.81,-0.98 0,-0.34 -0.16,-1.02 -0.55,-1.41 -0.26,-0.26 -0.79,-0.58 -1.68,-0.58 l 0.01,-0.22 c 0.9,0 1.08,-0.55 1.08,-0.9 0,-0.15 -0.08,-0.46 -0.14,-0.69 -0.07,-0.27 -0.16,-0.64 -0.16,-0.84 0,-1.07 1.2,-1.07 1.33,-1.07 0.84,0 1.19,1 1.19,1.14 0,0.12 -0.11,0.12 -0.12,0.12 -0.09,0 -0.11,-0.07 -0.13,-0.14 -0.25,-0.74 -0.67,-0.91 -0.9,-0.91 -0.33,0 -0.4,0.22 -0.4,0.61 0,0.31 0.06,0.82 0.1,1.13 0.02,0.14 0.04,0.33 0.04,0.47 0,0.77 -0.67,1.07 -0.94,1.17 z"
   id="path4538" />
<path
   style="fill:#000000;stroke-width:0"
   inkscape:connector-curvature="0"
   d="m 279.18,660.48 0.03,0 0.03,0 0.03,0 0.02,0.01 0.01,0 0.01,0 0.02,0 0.01,0 0.02,0 0.01,0.01 0.01,0 0.02,0 0.01,0.01 0.01,0 0.01,0.01 0.01,0 0.01,0.01 0.01,0.01 0.01,0.01 0.01,0.01 0.01,0.01 0,0 0.01,0.01 0,0 0,0.01 0.01,0.01 0,0 0,0.01 0,0.01 0.01,0 0,0.01 0,0.01 0,0.01 0,0.01 0,0 0,0.01 0,0.01 c 0,0.2 -0.19,0.2 -0.33,0.2 h -5.96 c -0.13,0 -0.32,0 -0.32,-0.2 0,-0.2 0.19,-0.2 0.33,-0.2 z"
   id="path4540" />
<path
   style="fill:#000000;stroke-width:0"
   inkscape:connector-curvature="0"
   d="m 279.19,658.56 0.02,0 0.01,0 0.03,0 0.03,0 0.01,0 0.01,0 0.02,0 0.01,0 0.02,0 0.01,0.01 0.01,0 0.02,0 0.01,0.01 0.01,0 0.01,0.01 0.01,0 0.01,0.01 0.01,0 0.01,0.01 0.01,0.01 0.01,0.01 0.01,0 0,0.01 0,0.01 0.01,0 0,0.01 0,0 0.01,0.01 0,0.01 0,0 0,0.01 0.01,0.01 0,0 0,0.01 0,0.01 0,0.01 0,0.01 0,0.01 0,0.01 c 0,0.19 -0.19,0.19 -0.34,0.19 h -5.94 c -0.14,0 -0.33,0 -0.33,-0.19 0,-0.2 0.19,-0.2 0.32,-0.2 z"
   id="path4542" />
<path
   style="fill:#000000;stroke-width:0"
   inkscape:connector-curvature="0"
   d="m 285.79,658.87 v -0.86 c 0,-0.36 -0.02,-0.47 -0.75,-0.47 h -0.21 v -0.31 c 0.4,0.04 0.92,0.04 1.34,0.04 0.42,0 0.95,0 1.35,-0.04 v 0.31 h -0.2 c -0.74,0 -0.76,0.11 -0.76,0.47 v 0.86 h 0.99 v 0.31 h -0.99 v 4.52 c 0,0.2 0,0.26 -0.16,0.26 -0.09,0 -0.12,0 -0.2,-0.12 l -3.05,-4.66 h 0.27 l 2.43,3.71 v -3.71 h -2.43 -0.27 v -0.31 z"
   id="path4544" />
<path
   style="fill:#000000;stroke-width:0"
   inkscape:connector-curvature="0"
   d="m 289.87,657.24 0,0.06 0,0.06 -0.01,0.06 0,0.05 -0.01,0.06 -0.01,0.05 0,0.05 -0.01,0.05 -0.02,0.04 -0.01,0.05 -0.01,0.04 -0.02,0.04 -0.01,0.04 -0.02,0.04 -0.02,0.04 -0.02,0.04 -0.02,0.03 -0.02,0.03 -0.03,0.03 -0.02,0.03 -0.03,0.02 -0.02,0.02 -0.03,0.03 -0.03,0.01 -0.03,0.02 -0.03,0.02 -0.03,0.01 -0.04,0.01 -0.03,0.01 -0.04,0 -0.03,0.01 -0.04,0 c -0.35,0 -0.53,-0.27 -0.53,-0.53 0,-0.26 0.17,-0.53 0.53,-0.53 0.16,0 0.28,0.06 0.38,0.14 l 0.02,0.02 c 0.01,0 0.02,-0.01 0.02,-0.15 0,-0.63 -0.28,-1.24 -0.72,-1.7 -0.06,-0.06 -0.07,-0.07 -0.07,-0.11 0,-0.07 0.05,-0.11 0.1,-0.11 0.12,0 0.91,0.78 0.91,1.92 z"
   id="path4546" />
<path
   style="fill:#000000;stroke-width:0"
   inkscape:connector-curvature="0"
   d="m 299.07,664.02 0,0 0,0 0,0 0,0.01 0,0 0,0 0,0 0,0.01 0,0 0,0.01 0,0 -0.01,0 0,0.01 0,0 0,0.01 0,0 -0.01,0.01 0,0 0,0.01 -0.01,0 0,0.01 -0.01,0 0,0 0,0 0,0.01 -0.01,0 0,0 0,0 -0.01,0 0,0.01 0,0 -0.01,0 0,0 0,0 -0.01,0 0,0 -0.01,0 0,0.01 -0.01,0 0,0 -0.01,0 0,0 -0.01,0 -0.01,0 0,0 c -0.15,0 -1.09,-0.09 -1.26,-0.11 -0.08,-0.01 -0.14,-0.06 -0.14,-0.19 0,-0.12 0.09,-0.12 0.23,-0.12 0.48,0 0.5,-0.07 0.5,-0.17 l -0.03,-0.2 -0.59,-2.35 c -0.18,0.37 -0.47,0.64 -0.92,0.64 -1.16,0 -2.4,-1.47 -2.4,-2.91 0,-0.94 0.55,-1.59 1.33,-1.59 l 0.02,0.21 c -0.5,0 -0.64,0.55 -0.64,0.94 0,0.5 0.32,1.72 0.55,2.17 0.3,0.59 0.75,0.96 1.15,0.96 0.65,0 0.79,-0.82 0.79,-0.88 0,-0.06 -0.02,-0.12 -0.03,-0.17 l -0.5,-1.94 c -0.05,-0.18 -0.05,-0.2 -0.2,-0.37 -0.44,-0.55 -0.85,-0.71 -1.12,-0.71 l -0.02,-0.21 c 0.2,0 0.69,0.03 1.29,0.74 0.08,-0.42 0.43,-0.74 0.91,-0.74 0.34,0 0.57,0.22 0.73,0.54 0.17,0.36 0.3,0.97 0.3,0.99 0,0.1 -0.09,0.1 -0.12,0.1 -0.1,0 -0.11,-0.04 -0.14,-0.18 -0.17,-0.65 -0.35,-1.24 -0.75,-1.24 -0.27,0 -0.3,0.26 -0.3,0.46 0,0.24 0.02,0.31 0.06,0.48 z"
   id="path4548" />
<path
   style="fill:#000000;stroke-width:0"
   inkscape:connector-curvature="0"
   d="m 308.72,660.48 0.03,0 0.03,0 0.03,0 0.01,0.01 0.02,0 0.01,0 0.02,0 0.01,0 0.02,0 0.01,0.01 0.01,0 0.02,0 0.01,0.01 0.01,0 0.01,0.01 0.01,0 0.01,0.01 0.01,0.01 0.01,0.01 0.01,0.01 0.01,0.01 0,0 0.01,0.01 0,0 0,0.01 0.01,0.01 0,0 0,0.01 0,0.01 0,0 0.01,0.01 0,0.01 0,0.01 0,0.01 0,0 0,0.01 0,0.01 c 0,0.2 -0.19,0.2 -0.33,0.2 h -5.96 c -0.14,0 -0.32,0 -0.32,-0.2 0,-0.2 0.18,-0.2 0.33,-0.2 z"
   id="path4550" />
<path
   style="fill:#000000;stroke-width:0"
   inkscape:connector-curvature="0"
   d="m 308.73,658.56 0.02,0 0.01,0 0.03,0 0.02,0 0.02,0 0.01,0 0.02,0 0.01,0 0.01,0 0.02,0.01 0.01,0 0.01,0 0.02,0.01 0.01,0 0.01,0.01 0.01,0 0.01,0.01 0.01,0 0.01,0.01 0.01,0.01 0.01,0.01 0.01,0 0,0.01 0,0.01 0.01,0 0,0.01 0,0 0.01,0.01 0,0.01 0,0 0,0.01 0,0.01 0.01,0 0,0.01 0,0.01 0,0.01 0,0.01 0,0.01 0,0.01 c 0,0.19 -0.19,0.19 -0.34,0.19 h -5.94 c -0.15,0 -0.33,0 -0.33,-0.19 0,-0.2 0.18,-0.2 0.32,-0.2 z"
   id="path4552" />
<path
   style="fill:#000000;stroke-width:0"
   inkscape:connector-curvature="0"
   d="m 313.67,658 1.06,1.02 c 1.55,1.37 2.14,1.91 2.14,2.9 0,1.14 -0.89,1.93 -2.11,1.93 -1.12,0 -1.86,-0.91 -1.86,-1.8 0,-0.55 0.5,-0.55 0.53,-0.55 0.17,0 0.52,0.12 0.52,0.52 0,0.26 -0.18,0.52 -0.53,0.52 -0.08,0 -0.1,0 -0.13,-0.01 0.23,0.64 0.77,1.01 1.35,1.01 0.9,0 1.33,-0.8 1.33,-1.62 0,-0.79 -0.5,-1.58 -1.05,-2.19 l -1.91,-2.13 c -0.11,-0.11 -0.11,-0.13 -0.11,-0.37 h 3.7 l 0.27,1.73 h -0.25 c -0.04,-0.3 -0.11,-0.73 -0.21,-0.88 C 316.34,658 315.68,658 315.46,658 z"
   id="path4554" />
<path
   style="fill:#000000;stroke-width:0"
   inkscape:connector-curvature="0"
   d="m 319.41,657.24 0,0.06 0,0.06 -0.01,0.06 0,0.05 -0.01,0.06 -0.01,0.05 -0.01,0.05 -0.01,0.05 -0.01,0.04 -0.01,0.05 -0.01,0.04 -0.02,0.04 -0.01,0.04 -0.02,0.04 -0.02,0.04 -0.02,0.04 -0.02,0.03 -0.02,0.03 -0.03,0.03 -0.02,0.03 -0.03,0.02 -0.02,0.02 -0.03,0.03 -0.03,0.01 -0.03,0.02 -0.03,0.02 -0.03,0.01 -0.04,0.01 -0.03,0.01 -0.04,0 -0.03,0.01 -0.04,0 c -0.35,0 -0.53,-0.27 -0.53,-0.53 0,-0.26 0.17,-0.53 0.53,-0.53 0.16,0 0.28,0.06 0.38,0.14 l 0.02,0.02 c 0.01,0 0.02,-0.01 0.02,-0.15 0,-0.63 -0.28,-1.24 -0.72,-1.7 -0.06,-0.06 -0.07,-0.07 -0.07,-0.11 0,-0.07 0.05,-0.11 0.1,-0.11 0.12,0 0.91,0.78 0.91,1.92 z"
   id="path4556" />
<path
   style="fill:#000000;stroke-width:0"
   inkscape:connector-curvature="0"
   d="m 324.35,657.82 0,-0.01 -0.01,-0.02 0,-0.01 0,-0.02 -0.01,-0.03 -0.01,-0.03 -0.01,-0.03 0,-0.04 -0.01,-0.03 -0.01,-0.03 0,-0.01 0,-0.02 -0.01,-0.01 0,-0.02 0,-0.01 -0.01,-0.01 0,-0.02 0,-0.01 0,-0.01 -0.01,-0.01 0,-0.01 0,-0.01 0,-0.01 0,0 0,-0.01 0,-0.01 c 0,-0.17 0.14,-0.26 0.29,-0.26 0.12,0 0.3,0.08 0.37,0.27 0.01,0.02 0.13,0.49 0.19,0.74 l 0.21,0.89 c 0.06,0.22 0.12,0.44 0.17,0.67 0.04,0.17 0.12,0.46 0.13,0.5 0.15,0.3 0.68,1.21 1.62,1.21 0.45,0 0.54,-0.37 0.54,-0.7 0,-0.61 -0.49,-1.89 -0.65,-2.31 -0.08,-0.23 -0.09,-0.35 -0.09,-0.46 0,-0.47 0.34,-0.81 0.81,-0.81 0.94,0 1.3,1.45 1.3,1.53 0,0.1 -0.09,0.1 -0.11,0.1 -0.11,0 -0.11,-0.04 -0.15,-0.18 -0.2,-0.68 -0.53,-1.24 -1.02,-1.24 -0.17,0 -0.24,0.1 -0.24,0.33 0,0.25 0.09,0.49 0.18,0.71 0.19,0.52 0.61,1.62 0.61,2.18 0,0.67 -0.43,1.07 -1.15,1.07 -0.89,0 -1.38,-0.64 -1.55,-0.87 -0.05,0.56 -0.46,0.87 -0.91,0.87 -0.46,0 -0.65,-0.39 -0.75,-0.57 -0.16,-0.34 -0.3,-0.92 -0.3,-0.96 0,-0.1 0.1,-0.1 0.12,-0.1 0.1,0 0.11,0.01 0.17,0.22 0.17,0.71 0.37,1.19 0.73,1.19 0.2,0 0.3,-0.13 0.3,-0.46 0,-0.21 -0.03,-0.32 -0.15,-0.83 z"
   id="path4558" />
<path
   style="fill:#000000;stroke-width:0"
   inkscape:connector-curvature="0"
   d="m 339.06,660.48 0.02,0 0.03,0 0.03,0 0.02,0.01 0.01,0 0.02,0 0.01,0 0.01,0 0.02,0 0.01,0.01 0.02,0 0.01,0 0.01,0.01 0.01,0 0.01,0.01 0.02,0 0.01,0.01 0.01,0.01 0.01,0.01 0,0.01 0.01,0.01 0.01,0 0,0.01 0,0 0.01,0.01 0,0.01 0,0 0,0.01 0.01,0.01 0,0 0,0.01 0,0.01 0,0.01 0,0.01 0,0 0,0.01 0,0.01 c 0,0.2 -0.19,0.2 -0.32,0.2 h -5.96 c -0.14,0 -0.33,0 -0.33,-0.2 0,-0.2 0.19,-0.2 0.34,-0.2 z"
   id="path4560" />
<path
   style="fill:#000000;stroke-width:0"
   inkscape:connector-curvature="0"
   d="m 339.07,658.56 0.01,0 0.01,0 0.03,0 0.03,0 0.01,0 0.02,0 0.01,0 0.01,0 0.02,0 0.01,0.01 0.01,0 0.02,0 0.01,0.01 0.01,0 0.01,0.01 0.02,0 0.01,0.01 0.01,0 0.01,0.01 0.01,0.01 0,0.01 0.01,0 0,0.01 0.01,0.01 0,0 0,0.01 0.01,0 0,0.01 0,0.01 0,0 0.01,0.01 0,0.01 0,0 0,0.01 0,0.01 0,0.01 0,0.01 0,0.01 0,0.01 c 0,0.19 -0.19,0.19 -0.33,0.19 h -5.94 c -0.15,0 -0.34,0 -0.34,-0.19 0,-0.2 0.19,-0.2 0.33,-0.2 z"
   id="path4562" />
<path
   style="fill:#000000;stroke-width:0"
   inkscape:connector-curvature="0"
   d="m 345.67,663.59 0,0.01 0,0.01 -0.01,0.02 0,0.01 0,0 0,0.01 0,0.01 0,0.01 0,0.01 0,0.01 0,0.01 0,0.01 0,0 0,0.01 0,0.01 0,0 0,0.01 0,0.01 0,0.01 0,0.01 -0.01,0.01 0,0.01 0,0.01 -0.01,0 0,0.01 -0.01,0.01 -0.01,0 0,0.01 -0.01,0 -0.01,0.01 0,0 -0.01,0 0,0 -0.01,0 -0.01,0 0,0 -0.01,0.01 0,0 -0.01,0 -0.01,0 -0.01,0 0,0 -0.01,0 -0.01,0 -0.01,0 -0.01,0 0,0 -0.01,0 -0.01,0 -0.01,0 -0.01,0 -0.01,0 c -0.62,-0.63 -1.5,-0.63 -1.82,-0.63 v -0.31 c 0.2,0 0.79,0 1.31,0.25 v -5.14 c 0,-0.36 -0.03,-0.48 -0.93,-0.48 h -0.32 v -0.31 c 0.35,0.04 1.22,0.04 1.62,0.04 0.39,0 1.26,0 1.61,-0.04 v 0.31 h -0.32 c -0.9,0 -0.92,0.11 -0.92,0.48 z"
   id="path4564" />
</g>    <g
       style="font-style:normal;font-variant:normal;font-weight:normal;font-stretch:normal;letter-spacing:normal;word-spacing:normal;text-anchor:start;fill:none;stroke:#000000;stroke-linecap:butt;stroke-linejoin:miter;stroke-miterlimit:10.43299961;stroke-opacity:1;stroke-dasharray:none;stroke-dashoffset:0"
       ns0:preamble="/home/erik/.config/inkscape/extensions/anyname.ini"
       ns0:text="$\\mathbf{m}^{K}$"
       text-anchor="start"
       word-spacing="normal"
       letter-spacing="normal"
       font-size-adjust="none"
       font-stretch="normal"
       font-weight="normal"
       font-variant="normal"
       font-style="normal"
       fill-opacity="1"
       fill-rule="evenodd"
       fill="none"
       stroke-opacity="1"
       stroke-dashoffset="0"
       stroke-dasharray="none"
       stroke-miterlimit="10.433"
       stroke-linejoin="miter"
       stroke-linecap="butt"
       stroke="black"
       xml:space="preserve"
       transform="matrix(5,0,0,-5,-999.12464,3746.2762)"
       id="content">
<path
   id="path3175"
   fill="black"
   stroke-width="0"
   d="M224.57,660.77 V657.7 H223.88 V657.23 C224.16,657.24,224.76,657.27,225.13,657.27 C225.52,657.27,226.11,657.24,226.39,657.23 V657.7 H225.7 V659.78 C225.7,660.86,226.57,661.35,227.18,661.35 C227.52,661.35,227.74,661.15,227.74,660.38 V657.7 H227.05 V657.23 C227.33,657.24,227.93,657.27,228.31,657.27 C228.7,657.27,229.28,657.24,229.56,657.23 V657.7 H228.87 V659.78 C228.87,660.86,229.74,661.35,230.36,661.35 C230.7,661.35,230.91,661.15,230.91,660.38 V657.7 H230.23 V657.23 C230.51,657.24,231.1,657.27,231.48,657.27 C231.87,657.27,232.46,657.24,232.73,657.23 V657.7 H232.05 V660.28 C232.05,661.3,231.54,661.71,230.52,661.71 C229.61,661.71,229.09,661.21,228.83,660.75 C228.63,661.67,227.72,661.71,227.34,661.71 C226.48,661.71,225.91,661.26,225.59,660.63 V661.71 L223.88,661.63 V661.16 C224.5,661.16,224.57,661.16,224.57,660.77 Z " />
<path
   id="path3177"
   fill="black"
   stroke-width="0"
   d="M236.96,663.65 L236.96,663.65 L236.96,663.66 L236.96,663.66 L236.95,663.67 L236.95,663.67 L236.95,663.67 L236.95,663.68 L236.95,663.68 L236.94,663.69 L236.94,663.69 L236.94,663.69 L236.94,663.7 L236.94,663.7 L236.94,663.7 L236.93,663.7 L236.93,663.71 L236.93,663.71 L236.93,663.71 L236.93,663.71 L236.93,663.72 L236.93,663.72 L236.93,663.72 L236.93,663.72 L236.92,663.72 L236.92,663.72 L236.92,663.72 L236.92,663.73 L236.92,663.73 L236.92,663.73 L236.92,663.73 L236.92,663.73 L236.92,663.73 C236.92,663.74,236.93,663.75,237.09,663.86 L237.79,664.36 C238.71,665,239.14,665.31,239.64,665.35 C239.71,665.36,239.8,665.36,239.8,665.5 C239.8,665.56,239.75,665.59,239.71,665.59 C239.56,665.59,239.38,665.57,239.23,665.57 C239.04,665.57,238.57,665.6,238.38,665.6 C238.34,665.6,238.24,665.6,238.24,665.45 C238.24,665.44,238.24,665.36,238.34,665.35 C238.43,665.34,238.52,665.33,238.52,665.25 C238.52,665.13,238.3,664.97,238.21,664.91 L235.31,662.87 L235.86,665.06 C235.92,665.29,235.93,665.35,236.47,665.35 C236.58,665.35,236.68,665.35,236.68,665.5 C236.68,665.56,236.64,665.6,236.57,665.6 C236.37,665.6,235.86,665.57,235.65,665.57 C235.54,665.57,235.29,665.57,235.17,665.58 C235.04,665.59,234.87,665.6,234.74,665.6 C234.69,665.6,234.59,665.6,234.59,665.45 C234.59,665.35,234.66,665.35,234.82,665.35 C234.93,665.35,234.96,665.35,235.08,665.34 C235.22,665.32,235.24,665.31,235.24,665.24 C235.24,665.22,235.24,665.19,235.21,665.09 L234.28,661.39 C234.23,661.16,234.21,661.1,233.67,661.1 C233.54,661.1,233.46,661.1,233.46,660.95 C233.46,660.94,233.46,660.85,233.57,660.85 C233.77,660.85,234.27,660.88,234.48,660.88 C234.6,660.88,234.84,660.88,234.96,660.87 C235.1,660.86,235.27,660.85,235.4,660.85 C235.45,660.85,235.55,660.85,235.55,661 C235.55,661.1,235.47,661.1,235.33,661.1 C235.32,661.1,235.19,661.1,235.06,661.11 C234.9,661.13,234.9,661.15,234.9,661.22 C234.9,661.28,234.97,661.53,235.23,662.55 L236.39,663.37 L237.4,661.41 C237.44,661.32,237.44,661.32,237.44,661.28 C237.44,661.12,237.25,661.1,237.12,661.1 C237.04,661.1,236.94,661.1,236.94,660.95 C236.94,660.94,236.95,660.85,237.06,660.85 C237.26,660.85,237.76,660.88,237.95,660.88 C238.16,660.88,238.44,660.85,238.63,660.85 C238.73,660.85,238.77,660.9,238.77,661 C238.77,661.1,238.68,661.1,238.61,661.1 C238.49,661.1,238.27,661.11,238.15,661.33 Z " />
</g>    <g
       id="g3370"
       transform="matrix(5,0,0,-5,-711.92464,3742.0148)"
       xml:space="preserve"
       stroke="black"
       stroke-linecap="butt"
       stroke-linejoin="miter"
       stroke-miterlimit="10.433"
       stroke-dasharray="none"
       stroke-dashoffset="0"
       stroke-opacity="1"
       fill="none"
       fill-rule="evenodd"
       fill-opacity="1"
       font-style="normal"
       font-variant="normal"
       font-weight="normal"
       font-stretch="normal"
       font-size-adjust="none"
       letter-spacing="normal"
       word-spacing="normal"
       text-anchor="start"
       ns0:text="$C_{n}\\left(\\mathbf{m}^{K}\\right)$"
       ns0:preamble="/home/erik/.config/inkscape/extensions/anyname.ini"
       style="font-style:normal;font-variant:normal;font-weight:normal;font-stretch:normal;letter-spacing:normal;word-spacing:normal;text-anchor:start;fill:none;stroke:#000000;stroke-linecap:butt;stroke-linejoin:miter;stroke-miterlimit:10.43299961;stroke-opacity:1;stroke-dasharray:none;stroke-dashoffset:0">
<path
   d="M230.99,664.14 L230.99,664.14 L230.99,664.15 L230.99,664.15 L230.99,664.15 L230.99,664.16 L230.99,664.16 L230.99,664.16 L230.99,664.17 L230.99,664.17 L230.99,664.18 L230.98,664.18 L230.98,664.18 L230.98,664.19 L230.98,664.19 L230.97,664.2 L230.97,664.2 L230.97,664.2 L230.97,664.21 L230.96,664.21 L230.96,664.21 L230.95,664.22 L230.95,664.22 L230.94,664.22 L230.94,664.23 L230.93,664.23 L230.93,664.23 L230.93,664.23 L230.92,664.23 L230.92,664.23 L230.92,664.23 L230.91,664.23 L230.91,664.24 L230.91,664.24 L230.9,664.24 L230.9,664.24 L230.9,664.24 L230.89,664.24 L230.89,664.24 L230.88,664.24 C230.85,664.24,230.84,664.23,230.74,664.12 L230.04,663.35 C229.95,663.49,229.49,664.24,228.39,664.24 C226.17,664.24,223.93,662.04,223.93,659.74 C223.93,658.1,225.1,657.02,226.63,657.02 C227.49,657.02,228.25,657.41,228.77,657.87 C229.7,658.68,229.87,659.59,229.87,659.62 C229.87,659.72,229.77,659.72,229.75,659.72 C229.69,659.72,229.64,659.7,229.62,659.62 C229.53,659.33,229.3,658.63,228.62,658.05 C227.93,657.49,227.3,657.32,226.79,657.32 C225.89,657.32,224.84,657.84,224.84,659.39 C224.84,659.96,225.04,661.57,226.04,662.73 C226.65,663.43,227.58,663.93,228.47,663.93 C229.48,663.93,230.07,663.16,230.07,662.01 C230.07,661.62,230.04,661.61,230.04,661.51 C230.04,661.41,230.15,661.41,230.19,661.41 C230.32,661.41,230.32,661.43,230.37,661.61 Z "
   stroke-width="0"
   fill="black"
   id="path3372" />
<path
   d="M231.4,656.18 L231.4,656.17 L231.4,656.16 L231.39,656.15 L231.39,656.14 L231.39,656.13 L231.39,656.12 L231.38,656.11 L231.38,656.1 L231.37,656.08 L231.37,656.05 L231.36,656.03 L231.36,656.01 L231.35,656 L231.35,655.99 L231.35,655.98 L231.35,655.97 L231.35,655.96 L231.34,655.95 L231.34,655.94 L231.34,655.93 L231.34,655.93 L231.34,655.92 L231.34,655.91 L231.33,655.91 L231.33,655.9 L231.33,655.9 L231.33,655.9 L231.33,655.9 L231.33,655.9 L231.33,655.89 C231.33,655.74,231.46,655.67,231.57,655.67 C231.7,655.67,231.81,655.76,231.84,655.82 C231.88,655.89,231.93,656.11,231.97,656.26 C232,656.39,232.08,656.71,232.12,656.88 C232.16,657.03,232.2,657.19,232.24,657.35 C232.32,657.63,232.33,657.69,232.53,657.97 C232.73,658.25,233.05,658.61,233.58,658.61 C233.98,658.61,233.99,658.26,233.99,658.13 C233.99,657.71,233.69,656.94,233.58,656.65 C233.5,656.45,233.47,656.39,233.47,656.27 C233.47,655.9,233.78,655.67,234.13,655.67 C234.83,655.67,235.14,656.63,235.14,656.73 C235.14,656.83,235.04,656.83,235.02,656.83 C234.93,656.83,234.92,656.78,234.89,656.71 C234.73,656.15,234.43,655.87,234.15,655.87 C234.01,655.87,233.98,655.96,233.98,656.11 C233.98,656.27,234.01,656.36,234.14,656.67 C234.22,656.89,234.51,657.62,234.51,658.02 C234.51,658.69,233.97,658.81,233.6,658.81 C233.02,658.81,232.63,658.45,232.43,658.17 C232.38,658.66,231.97,658.81,231.68,658.81 C231.38,658.81,231.22,658.59,231.13,658.43 C230.98,658.17,230.88,657.78,230.88,657.74 C230.88,657.65,230.98,657.65,231,657.65 C231.1,657.65,231.1,657.67,231.15,657.86 C231.26,658.27,231.39,658.61,231.66,658.61 C231.84,658.61,231.89,658.46,231.89,658.27 C231.89,658.14,231.83,657.88,231.78,657.7 C231.73,657.51,231.66,657.22,231.63,657.07 Z "
   stroke-width="0"
   fill="black"
   id="path3374" />
<path
   d="M241.74,653.89 L241.74,653.89 L241.74,653.9 L241.74,653.9 L241.74,653.91 L241.74,653.91 L241.74,653.91 L241.74,653.91 L241.74,653.92 L241.74,653.92 L241.74,653.92 L241.74,653.93 L241.74,653.93 L241.74,653.93 L241.74,653.93 L241.73,653.94 L241.73,653.94 L241.73,653.94 L241.73,653.95 L241.72,653.95 L241.72,653.96 L241.72,653.96 L241.71,653.97 L241.71,653.97 L241.71,653.98 C241.25,654.47,240.57,655.27,240.15,656.89 C239.92,657.79,239.84,658.82,239.84,659.74 C239.84,662.35,240.46,664.18,241.66,665.47 C241.74,665.56,241.74,665.58,241.74,665.6 C241.74,665.7,241.66,665.7,241.63,665.7 C241.48,665.7,240.94,665.11,240.81,664.96 C239.79,663.76,239.15,661.97,239.15,659.75 C239.15,658.34,239.4,656.34,240.7,654.67 C240.8,654.55,241.45,653.79,241.63,653.79 C241.66,653.79,241.74,653.79,241.74,653.89 Z "
   stroke-width="0"
   fill="black"
   id="path3376" />
<path
   d="M243.34,660.77 V657.7 H242.65 V657.23 C242.93,657.24,243.52,657.27,243.9,657.27 C244.29,657.27,244.88,657.24,245.16,657.23 V657.7 H244.47 V659.78 C244.47,660.86,245.34,661.35,245.95,661.35 C246.29,661.35,246.51,661.15,246.51,660.38 V657.7 H245.82 V657.23 C246.1,657.24,246.7,657.27,247.08,657.27 C247.46,657.27,248.05,657.24,248.33,657.23 V657.7 H247.64 V659.78 C247.64,660.86,248.51,661.35,249.13,661.35 C249.46,661.35,249.68,661.15,249.68,660.38 V657.7 H249 V657.23 C249.28,657.24,249.87,657.27,250.25,657.27 C250.64,657.27,251.23,657.24,251.5,657.23 V657.7 H250.82 V660.28 C250.82,661.3,250.31,661.71,249.29,661.71 C248.38,661.71,247.86,661.21,247.6,660.75 C247.41,661.67,246.49,661.71,246.11,661.71 C245.25,661.71,244.68,661.26,244.36,660.63 V661.71 L242.65,661.63 V661.16 C243.27,661.16,243.34,661.16,243.34,660.77 Z "
   stroke-width="0"
   fill="black"
   id="path3378" />
<path
   d="M255.73,663.65 L255.73,663.65 L255.73,663.66 L255.73,663.66 L255.72,663.67 L255.72,663.67 L255.72,663.67 L255.72,663.68 L255.72,663.68 L255.71,663.69 L255.71,663.69 L255.71,663.69 L255.71,663.7 L255.71,663.7 L255.71,663.7 L255.7,663.7 L255.7,663.71 L255.7,663.71 L255.7,663.71 L255.7,663.71 L255.7,663.72 L255.7,663.72 L255.7,663.72 L255.7,663.72 L255.69,663.72 L255.69,663.72 L255.69,663.72 L255.69,663.73 L255.69,663.73 L255.69,663.73 L255.69,663.73 L255.69,663.73 L255.69,663.73 C255.69,663.74,255.7,663.75,255.86,663.86 L256.56,664.36 C257.48,665,257.91,665.31,258.41,665.35 C258.48,665.36,258.57,665.36,258.57,665.5 C258.57,665.56,258.52,665.59,258.48,665.59 C258.33,665.59,258.15,665.57,258,665.57 C257.81,665.57,257.34,665.6,257.15,665.6 C257.11,665.6,257.01,665.6,257.01,665.45 C257.01,665.44,257.01,665.36,257.11,665.35 C257.2,665.34,257.29,665.33,257.29,665.25 C257.29,665.13,257.07,664.97,256.98,664.91 L254.08,662.87 L254.63,665.06 C254.69,665.29,254.7,665.35,255.24,665.35 C255.35,665.35,255.45,665.35,255.45,665.5 C255.45,665.56,255.41,665.6,255.34,665.6 C255.13,665.6,254.63,665.57,254.42,665.57 C254.31,665.57,254.06,665.57,253.94,665.58 C253.8,665.59,253.64,665.6,253.51,665.6 C253.46,665.6,253.36,665.6,253.36,665.45 C253.36,665.35,253.43,665.35,253.59,665.35 C253.7,665.35,253.73,665.35,253.85,665.34 C253.99,665.32,254.01,665.31,254.01,665.24 C254.01,665.22,254.01,665.19,253.98,665.09 L253.05,661.39 C253,661.16,252.98,661.1,252.44,661.1 C252.31,661.1,252.23,661.1,252.23,660.95 C252.23,660.94,252.23,660.85,252.34,660.85 C252.54,660.85,253.04,660.88,253.25,660.88 C253.37,660.88,253.61,660.88,253.73,660.87 C253.87,660.86,254.04,660.85,254.17,660.85 C254.21,660.85,254.32,660.85,254.32,661 C254.32,661.1,254.24,661.1,254.1,661.1 C254.09,661.1,253.96,661.1,253.83,661.11 C253.67,661.13,253.67,661.15,253.67,661.22 C253.67,661.28,253.74,661.53,254,662.55 L255.16,663.37 L256.17,661.41 C256.21,661.32,256.21,661.32,256.21,661.28 C256.21,661.12,256.02,661.1,255.89,661.1 C255.81,661.1,255.71,661.1,255.71,660.95 C255.71,660.94,255.72,660.85,255.83,660.85 C256.03,660.85,256.53,660.88,256.72,660.88 C256.93,660.88,257.21,660.85,257.4,660.85 C257.5,660.85,257.54,660.9,257.54,661 C257.54,661.1,257.45,661.1,257.38,661.1 C257.26,661.1,257.04,661.11,256.92,661.33 Z "
   stroke-width="0"
   fill="black"
   id="path3380" />
<path
   d="M262.46,659.74 L262.46,660.01 L262.45,660.3 L262.43,660.59 L262.41,660.9 L262.37,661.21 L262.32,661.53 L262.25,661.85 L262.18,662.18 L262.13,662.35 L262.09,662.52 L262.03,662.69 L261.98,662.85 L261.92,663.02 L261.85,663.19 L261.78,663.36 L261.71,663.52 L261.63,663.69 L261.54,663.86 L261.45,664.02 L261.35,664.19 L261.25,664.35 L261.15,664.51 L261.03,664.67 L260.91,664.83 C260.81,664.95,260.17,665.7,259.99,665.7 C259.94,665.7,259.87,665.68,259.87,665.6 C259.87,665.56,259.89,665.53,259.93,665.5 C260.41,664.99,261.05,664.18,261.46,662.6 C261.69,661.7,261.78,660.68,261.78,659.75 C261.78,658.75,261.69,657.73,261.43,656.76 C261.05,655.37,260.47,654.58,259.96,654.02 C259.87,653.93,259.87,653.91,259.87,653.89 C259.87,653.81,259.94,653.79,259.99,653.79 C260.14,653.79,260.68,654.4,260.8,654.54 C261.82,655.74,262.46,657.53,262.46,659.74 Z "
   stroke-width="0"
   fill="black"
   id="path3382" />
</g>    <g
       style="font-style:normal;font-variant:normal;font-weight:normal;font-stretch:normal;letter-spacing:normal;word-spacing:normal;text-anchor:start;fill:none;stroke:#000000;stroke-linecap:butt;stroke-linejoin:miter;stroke-miterlimit:10.43299961;stroke-opacity:1;stroke-dasharray:none;stroke-dashoffset:0"
       ns0:preamble="/home/erik/.config/inkscape/extensions/anyname.ini"
       ns0:text="$\\tilde{\\mathbf{m}}^{1}$"
       text-anchor="start"
       word-spacing="normal"
       letter-spacing="normal"
       font-size-adjust="none"
       font-stretch="normal"
       font-weight="normal"
       font-variant="normal"
       font-style="normal"
       fill-opacity="1"
       fill-rule="evenodd"
       fill="none"
       stroke-opacity="1"
       stroke-dashoffset="0"
       stroke-dasharray="none"
       stroke-miterlimit="10.433"
       stroke-linejoin="miter"
       stroke-linecap="butt"
       stroke="black"
       xml:space="preserve"
       transform="matrix(5,0,0,-5,-559.64962,4175.0095)"
       id="g3578">
<path
   id="path3580"
   fill="black"
   stroke-width="0"
   d="M229.85,663.86 L229.7,664.01 C229.7,664,229.32,663.53,228.88,663.53 C228.65,663.53,228.4,663.68,228.23,663.78 C227.96,663.94,227.78,664.01,227.62,664.01 C227.24,664.01,227.05,663.79,226.54,663.23 L226.7,663.09 C226.7,663.1,227.08,663.56,227.52,663.56 C227.74,663.56,227.99,663.41,228.16,663.32 C228.43,663.16,228.61,663.09,228.78,663.09 C229.16,663.09,229.35,663.3,229.85,663.86 Z " />
<path
   id="path3582"
   fill="black"
   stroke-width="0"
   d="M224.57,660.77 V657.7 H223.88 V657.23 C224.16,657.24,224.76,657.27,225.13,657.27 C225.52,657.27,226.11,657.24,226.39,657.23 V657.7 H225.7 V659.78 C225.7,660.86,226.57,661.35,227.18,661.35 C227.52,661.35,227.74,661.15,227.74,660.38 V657.7 H227.05 V657.23 C227.33,657.24,227.93,657.27,228.31,657.27 C228.7,657.27,229.28,657.24,229.56,657.23 V657.7 H228.87 V659.78 C228.87,660.86,229.74,661.35,230.36,661.35 C230.7,661.35,230.91,661.15,230.91,660.38 V657.7 H230.23 V657.23 C230.51,657.24,231.1,657.27,231.48,657.27 C231.87,657.27,232.46,657.24,232.73,657.23 V657.7 H232.05 V660.28 C232.05,661.3,231.54,661.71,230.52,661.71 C229.61,661.71,229.09,661.21,228.83,660.75 C228.63,661.68,227.72,661.71,227.34,661.71 C226.48,661.71,225.91,661.26,225.59,660.63 V661.71 L223.88,661.63 V661.16 C224.5,661.16,224.57,661.16,224.57,660.77 Z " />
<path
   id="path3584"
   fill="black"
   stroke-width="0"
   d="M235.31,665.27 L235.31,665.28 L235.31,665.29 L235.31,665.3 L235.31,665.31 L235.31,665.31 L235.31,665.32 L235.31,665.33 L235.31,665.34 L235.31,665.34 L235.31,665.35 L235.31,665.36 L235.31,665.36 L235.31,665.37 L235.31,665.37 L235.31,665.38 L235.31,665.38 L235.31,665.39 L235.31,665.39 L235.3,665.4 L235.3,665.41 L235.3,665.42 L235.29,665.42 L235.29,665.43 L235.29,665.44 L235.28,665.44 L235.28,665.45 L235.27,665.45 L235.26,665.45 L235.26,665.46 L235.25,665.46 L235.24,665.46 L235.23,665.46 L235.22,665.46 L235.22,665.46 L235.21,665.46 L235.21,665.47 L235.2,665.47 L235.2,665.47 L235.19,665.47 L235.18,665.47 L235.18,665.47 L235.17,665.47 L235.16,665.47 L235.15,665.47 L235.15,665.47 L235.14,665.47 L235.13,665.47 L235.12,665.47 L235.11,665.47 L235.1,665.47 C234.66,665.03,234.02,665.02,233.74,665.02 V664.77 C233.91,664.77,234.37,664.77,234.75,664.97 V661.42 C234.75,661.19,234.75,661.1,234.05,661.1 H233.79 V660.85 C233.91,660.86,234.77,660.88,235.03,660.88 C235.24,660.88,236.12,660.86,236.27,660.85 V661.1 H236.01 C235.31,661.1,235.31,661.19,235.31,661.42 Z " />
</g>    <g
       id="g3781"
       transform="matrix(5,0,0,-5,-934.46544,4245.127)"
       xml:space="preserve"
       stroke="black"
       stroke-linecap="butt"
       stroke-linejoin="miter"
       stroke-miterlimit="10.433"
       stroke-dasharray="none"
       stroke-dashoffset="0"
       stroke-opacity="1"
       fill="none"
       fill-rule="evenodd"
       fill-opacity="1"
       font-style="normal"
       font-variant="normal"
       font-weight="normal"
       font-stretch="normal"
       font-size-adjust="none"
       letter-spacing="normal"
       word-spacing="normal"
       text-anchor="start"
       ns0:text="$\\mathbf{m}^{R}$"
       ns0:preamble="/home/erik/.config/inkscape/extensions/anyname.ini"
       style="font-style:normal;font-variant:normal;font-weight:normal;font-stretch:normal;letter-spacing:normal;word-spacing:normal;text-anchor:start;fill:none;stroke:#000000;stroke-linecap:butt;stroke-linejoin:miter;stroke-miterlimit:10.43299961;stroke-opacity:1;stroke-dasharray:none;stroke-dashoffset:0">
<path
   d="M224.57,660.77 V657.7 H223.88 V657.23 C224.16,657.24,224.76,657.27,225.13,657.27 C225.52,657.27,226.11,657.24,226.39,657.23 V657.7 H225.7 V659.78 C225.7,660.86,226.57,661.35,227.18,661.35 C227.52,661.35,227.74,661.15,227.74,660.38 V657.7 H227.05 V657.23 C227.33,657.24,227.93,657.27,228.31,657.27 C228.7,657.27,229.28,657.24,229.56,657.23 V657.7 H228.87 V659.78 C228.87,660.86,229.74,661.35,230.36,661.35 C230.7,661.35,230.91,661.15,230.91,660.38 V657.7 H230.23 V657.23 C230.51,657.24,231.1,657.27,231.48,657.27 C231.87,657.27,232.46,657.24,232.73,657.23 V657.7 H232.05 V660.28 C232.05,661.3,231.54,661.71,230.52,661.71 C229.61,661.71,229.09,661.21,228.83,660.75 C228.63,661.67,227.72,661.71,227.34,661.71 C226.48,661.71,225.91,661.26,225.59,660.63 V661.71 L223.88,661.63 V661.16 C224.5,661.16,224.57,661.16,224.57,660.77 Z "
   stroke-width="0"
   fill="black"
   id="path3783" />
<path
   d="M237.12,663.22 L237.19,663.23 L237.27,663.26 L237.35,663.28 L237.42,663.3 L237.5,663.33 L237.57,663.36 L237.64,663.38 L237.71,663.42 L237.78,663.45 L237.85,663.48 L237.91,663.52 L237.98,663.55 L238.04,663.59 L238.1,663.63 L238.16,663.67 L238.21,663.71 L238.26,663.76 L238.31,663.8 L238.36,663.85 L238.41,663.89 L238.45,663.94 L238.49,663.99 L238.52,664.04 L238.56,664.09 L238.58,664.14 L238.61,664.2 L238.63,664.25 L238.65,664.3 L238.67,664.36 L238.68,664.42 L238.68,664.47 L238.68,664.53 C238.68,665.13,237.97,665.6,236.96,665.6 H234.83 C234.69,665.6,234.6,665.6,234.6,665.45 C234.6,665.35,234.69,665.35,234.83,665.35 C234.83,665.35,234.96,665.35,235.09,665.34 C235.24,665.32,235.25,665.31,235.25,665.24 C235.25,665.22,235.25,665.19,235.22,665.09 L234.3,661.39 C234.24,661.16,234.23,661.1,233.68,661.1 C233.57,661.1,233.48,661.1,233.48,660.96 C233.48,660.89,233.52,660.85,233.59,660.85 C233.72,660.85,233.88,660.87,234.02,660.87 C234.15,660.87,234.35,660.88,234.48,660.88 C234.62,660.88,234.78,660.87,234.92,660.87 C235.07,660.87,235.24,660.85,235.39,660.85 C235.43,660.85,235.54,660.85,235.54,661 C235.54,661.1,235.47,661.1,235.31,661.1 C235.2,661.1,235.17,661.1,235.04,661.11 C234.89,661.14,234.89,661.15,234.89,661.22 C234.89,661.23,234.89,661.27,234.92,661.37 L235.35,663.13 H236.3 L236.31,663.33 H235.41 L235.86,665.11 C235.9,665.31,235.92,665.33,236.07,665.35 H236.52 C237.17,665.35,237.97,665.35,237.97,664.63 C237.97,664.35,237.83,663.91,237.51,663.66 C237.22,663.44,236.79,663.33,236.31,663.33 L236.3,663.13 C236.9,663.13,237.16,662.83,237.16,662.51 C237.16,662.42,237.1,662.18,237.06,662.02 C236.98,661.7,236.95,661.59,236.95,661.48 C236.95,660.93,237.46,660.71,237.97,660.71 C238.61,660.71,238.89,661.39,238.89,661.52 C238.89,661.54,238.88,661.62,238.77,661.62 C238.68,661.62,238.67,661.57,238.65,661.5 C238.55,661.19,238.29,660.91,238,660.91 C237.82,660.91,237.69,660.98,237.69,661.36 C237.69,661.53,237.73,661.89,237.76,662.08 C237.79,662.27,237.79,662.34,237.79,662.41 C237.79,662.49,237.79,662.72,237.59,662.92 C237.46,663.07,237.27,663.16,237.12,663.22 Z "
   stroke-width="0"
   fill="black"
   id="path3785" />
</g>    <g
       style="font-style:normal;font-variant:normal;font-weight:normal;font-stretch:normal;letter-spacing:normal;word-spacing:normal;text-anchor:start;fill:none;stroke:#000000;stroke-linecap:butt;stroke-linejoin:miter;stroke-miterlimit:10.43299961;stroke-opacity:1;stroke-dasharray:none;stroke-dashoffset:0"
       ns0:preamble="/home/erik/.config/inkscape/extensions/anyname.ini"
       ns0:text="$\\tilde{\\mathbf{m}}^{R}$"
       text-anchor="start"
       word-spacing="normal"
       letter-spacing="normal"
       font-size-adjust="none"
       font-stretch="normal"
       font-weight="normal"
       font-variant="normal"
       font-style="normal"
       fill-opacity="1"
       fill-rule="evenodd"
       fill="none"
       stroke-opacity="1"
       stroke-dashoffset="0"
       stroke-dasharray="none"
       stroke-miterlimit="10.433"
       stroke-linejoin="miter"
       stroke-linecap="butt"
       stroke="black"
       xml:space="preserve"
       transform="matrix(5,0,0,-5,-725.18905,4248.1352)"
       id="g3981">
<path
   id="path3983"
   fill="black"
   stroke-width="0"
   d="M229.85,663.86 L229.7,664.01 C229.7,664,229.32,663.53,228.88,663.53 C228.65,663.53,228.4,663.68,228.23,663.78 C227.96,663.94,227.78,664.01,227.62,664.01 C227.24,664.01,227.05,663.79,226.54,663.23 L226.7,663.09 C226.7,663.1,227.08,663.56,227.52,663.56 C227.74,663.56,227.99,663.41,228.16,663.32 C228.43,663.16,228.61,663.09,228.78,663.09 C229.16,663.09,229.35,663.3,229.85,663.86 Z " />
<path
   id="path3985"
   fill="black"
   stroke-width="0"
   d="M224.57,660.77 V657.7 H223.88 V657.23 C224.16,657.24,224.76,657.27,225.13,657.27 C225.52,657.27,226.11,657.24,226.39,657.23 V657.7 H225.7 V659.78 C225.7,660.86,226.57,661.35,227.18,661.35 C227.52,661.35,227.74,661.15,227.74,660.38 V657.7 H227.05 V657.23 C227.33,657.24,227.93,657.27,228.31,657.27 C228.7,657.27,229.28,657.24,229.56,657.23 V657.7 H228.87 V659.78 C228.87,660.86,229.74,661.35,230.36,661.35 C230.7,661.35,230.91,661.15,230.91,660.38 V657.7 H230.23 V657.23 C230.51,657.24,231.1,657.27,231.48,657.27 C231.87,657.27,232.46,657.24,232.73,657.23 V657.7 H232.05 V660.28 C232.05,661.3,231.54,661.71,230.52,661.71 C229.61,661.71,229.09,661.21,228.83,660.75 C228.63,661.68,227.72,661.71,227.34,661.71 C226.48,661.71,225.91,661.26,225.59,660.63 V661.71 L223.88,661.63 V661.16 C224.5,661.16,224.57,661.16,224.57,660.77 Z " />
<path
   id="path3987"
   fill="black"
   stroke-width="0"
   d="M237.12,663.22 L237.19,663.23 L237.27,663.26 L237.35,663.28 L237.42,663.3 L237.5,663.33 L237.57,663.36 L237.64,663.38 L237.71,663.42 L237.78,663.45 L237.85,663.48 L237.91,663.52 L237.98,663.55 L238.04,663.59 L238.1,663.63 L238.16,663.67 L238.21,663.71 L238.26,663.76 L238.31,663.8 L238.36,663.85 L238.41,663.89 L238.45,663.94 L238.49,663.99 L238.52,664.04 L238.56,664.09 L238.58,664.14 L238.61,664.2 L238.63,664.25 L238.65,664.3 L238.67,664.36 L238.68,664.42 L238.68,664.47 L238.68,664.53 C238.68,665.13,237.97,665.6,236.96,665.6 H234.83 C234.69,665.6,234.6,665.6,234.6,665.45 C234.6,665.35,234.69,665.35,234.83,665.35 C234.83,665.35,234.96,665.35,235.09,665.34 C235.24,665.32,235.25,665.31,235.25,665.24 C235.25,665.22,235.25,665.19,235.22,665.09 L234.3,661.39 C234.24,661.16,234.23,661.1,233.68,661.1 C233.57,661.1,233.48,661.1,233.48,660.96 C233.48,660.89,233.52,660.85,233.59,660.85 C233.72,660.85,233.88,660.87,234.02,660.87 C234.15,660.87,234.35,660.88,234.48,660.88 C234.62,660.88,234.78,660.87,234.92,660.87 C235.07,660.87,235.24,660.85,235.39,660.85 C235.43,660.85,235.54,660.85,235.54,661 C235.54,661.1,235.47,661.1,235.31,661.1 C235.2,661.1,235.17,661.1,235.04,661.11 C234.89,661.14,234.89,661.15,234.89,661.22 C234.89,661.23,234.89,661.27,234.92,661.37 L235.35,663.13 H236.3 L236.31,663.33 H235.41 L235.86,665.11 C235.9,665.31,235.92,665.33,236.07,665.35 H236.52 C237.17,665.35,237.97,665.35,237.97,664.63 C237.97,664.35,237.83,663.91,237.51,663.66 C237.22,663.44,236.79,663.33,236.31,663.33 L236.3,663.13 C236.9,663.13,237.16,662.83,237.16,662.51 C237.16,662.42,237.1,662.18,237.06,662.02 C236.98,661.7,236.95,661.59,236.95,661.48 C236.95,660.93,237.46,660.71,237.97,660.71 C238.61,660.71,238.89,661.39,238.89,661.52 C238.89,661.54,238.88,661.62,238.77,661.62 C238.68,661.62,238.67,661.57,238.65,661.5 C238.55,661.19,238.29,660.91,238,660.91 C237.82,660.91,237.69,660.98,237.69,661.36 C237.69,661.53,237.73,661.89,237.76,662.08 C237.79,662.27,237.79,662.34,237.79,662.41 C237.79,662.49,237.79,662.72,237.59,662.92 C237.46,663.07,237.27,663.16,237.12,663.22 Z " />
</g>  </g>
</svg>
