<?xml version="1.0" encoding="UTF-8" standalone="no"?>
<!-- Created with Inkscape (http://www.inkscape.org/) -->

<svg
   xmlns:dc="http://purl.org/dc/elements/1.1/"
   xmlns:cc="http://creativecommons.org/ns#"
   xmlns:rdf="http://www.w3.org/1999/02/22-rdf-syntax-ns#"
   xmlns:svg="http://www.w3.org/2000/svg"
   xmlns="http://www.w3.org/2000/svg"
   xmlns:sodipodi="http://sodipodi.sourceforge.net/DTD/sodipodi-0.dtd"
   xmlns:inkscape="http://www.inkscape.org/namespaces/inkscape"
   width="620"
   height="480"
   id="svg2"
   version="1.1"
   inkscape:version="0.48.3.1 r9886"
   sodipodi:docname="motivation.png">
  <defs
     id="defs4" />
  <sodipodi:namedview
     id="base"
     pagecolor="#ffffff"
     bordercolor="#666666"
     borderopacity="1.0"
     inkscape:pageopacity="0.0"
     inkscape:pageshadow="2"
     inkscape:zoom="1.4"
     inkscape:cx="257.5"
     inkscape:cy="203.83082"
     inkscape:document-units="px"
     inkscape:current-layer="layer1"
     showgrid="false"
     inkscape:window-width="1920"
     inkscape:window-height="1056"
     inkscape:window-x="0"
     inkscape:window-y="219"
     inkscape:window-maximized="1" />
  <metadata
     id="metadata7">
    <rdf:RDF>
      <cc:Work
         rdf:about="">
        <dc:format>image/svg+xml</dc:format>
        <dc:type
           rdf:resource="http://purl.org/dc/dcmitype/StillImage" />
        <dc:title></dc:title>
      </cc:Work>
    </rdf:RDF>
  </metadata>
  <g
     inkscape:label="Layer 1"
     inkscape:groupmode="layer"
     id="layer1"
     transform="translate(0,-572.36218)">
    <path
       sodipodi:type="arc"
       style="fill:#ffffff;fill-opacity:1;stroke:none;stroke-width:3.34887067;stroke-miterlimit:4;stroke-dasharray:none"
       id="path3781"
       sodipodi:cx="207.85715"
       sodipodi:cy="336.78571"
       sodipodi:rx="86.428574"
       sodipodi:ry="98.928574"
       d="m 294.28572,336.78571 c 0,54.63674 -38.69539,98.92857 -86.42857,98.92857 -47.73319,0 -86.42858,-44.29183 -86.42858,-98.92857 0,-54.63675 38.69539,-98.92858 86.42858,-98.92858 47.73318,0 86.42857,44.29183 86.42857,98.92858 z"
       transform="matrix(1.9334367,0,0,1.6602588,-86.521496,358.56788)" />
    <rect
       style="fill:none;fill-opacity:1;fill-rule:evenodd;stroke:#000000;stroke-width:4;stroke-linecap:butt;stroke-linejoin:round;stroke-miterlimit:4;stroke-opacity:1;stroke-dasharray:none;stroke-dashoffset:0"
       id="rect3763"
       width="623.57141"
       height="482.85715"
       x="-1.4285715"
       y="-0.71428621"
       transform="translate(0,572.36218)" />
    <path
       style="fill:none;stroke:#000000;stroke-width:5.40605736;stroke-linecap:butt;stroke-linejoin:miter;stroke-miterlimit:4;stroke-opacity:1;stroke-dasharray:none"
       d="m 588.57143,793.79075 0,229.28575 -334.0052,0"
       id="path3906"
       inkscape:connector-curvature="0" />
    <g
       id="g3857"
       transform="matrix(0.5072512,0.17691502,-0.19594922,0.49988379,355.27944,355.75187)">
      <rect
         ry="9.7847357"
         y="906.64789"
         x="284.28571"
         height="35.714287"
         width="62.14286"
         id="rect3783"
         style="fill:#0000ff;fill-opacity:1;fill-rule:evenodd;stroke:none" />
      <rect
         ry="3.522505"
         y="894.50507"
         x="279.64288"
         height="12.857144"
         width="25.000004"
         id="rect3783-1"
         style="fill:#000000;fill-opacity:1;fill-rule:evenodd;stroke:none" />
      <rect
         ry="3.522505"
         y="893.79077"
         x="326.64285"
         height="12.857144"
         width="25.000004"
         id="rect3783-1-1"
         style="fill:#000000;fill-opacity:1;fill-rule:evenodd;stroke:none" />
      <rect
         ry="3.522505"
         y="941.64789"
         x="326.92856"
         height="12.857144"
         width="25.000004"
         id="rect3783-1-1-2"
         style="fill:#000000;fill-opacity:1;fill-rule:evenodd;stroke:none" />
      <rect
         ry="3.522505"
         y="942.36218"
         x="279.64288"
         height="12.857144"
         width="25.000004"
         id="rect3783-1-1-2-2"
         style="fill:#000000;fill-opacity:1;fill-rule:evenodd;stroke:none" />
    </g>
    <path
       style="fill:none;stroke:#000000;stroke-width:6.34507704;stroke-linecap:butt;stroke-linejoin:miter;stroke-miterlimit:4;stroke-opacity:1;stroke-dasharray:none"
       d="m 166.28571,841.64789 95.85715,0 0,-125.71428"
       id="path3908"
       inkscape:connector-curvature="0" />
    <path
       style="fill:none;stroke:#000000;stroke-width:6.21141863;stroke-linecap:butt;stroke-linejoin:miter;stroke-miterlimit:4;stroke-opacity:1;stroke-dasharray:none"
       d="m 384.28571,713.07647 0,126.42857 84.97165,0 0,-52.14286"
       id="path3910"
       inkscape:connector-curvature="0" />
    <path
       style="fill:#b3b3b3;fill-opacity:1;fill-rule:evenodd;stroke:none"
       d="m 1.0714282,240.65273 0,-239.2857195 309.2857118,0 309.28572,0 0,120.3240095 0,120.32403 -5.87193,-4.42464 c -5.79906,-4.36971 -20.18446,-13.36626 -21.37254,-13.36626 -0.33698,0 -0.61268,-0.64285 -0.61268,-1.42857 0,-1.14505 -0.47619,-1.42857 -2.3994,-1.42857 -1.31967,0 -4.77503,-1.08829 -7.67857,-2.41844 -10.98663,-5.03307 -26.82958,-9.50065 -41.07595,-11.58307 -10.5667,-1.54455 -31.66105,-1.5565 -42.4175,-0.024 -8.66249,1.23415 -19.77127,3.75129 -26.56021,6.01828 l -4.06021,1.35581 -3.79693,-6.37755 c -15.27305,-25.65349 -39.63438,-48.21447 -66.65408,-61.72821 -5.10715,-2.55431 -9.39286,-4.9396 -9.52381,-5.30065 -0.13096,-0.36105 -0.93453,-0.65884 -1.78571,-0.66176 -0.8512,-0.003 -4.80772,-1.11462 -8.79228,-2.47044 -34.42885,-11.71506 -74.38737,-10.68231 -107.7878,2.78583 -3.47412,1.40089 -7.2184,2.54706 -8.32064,2.54706 -1.17397,0 -2.00405,0.3868 -2.00405,0.93385 0,0.51363 -2.56653,2.30136 -5.70341,3.97276 -23.76402,12.662 -45.84882,33.17857 -60.8858,56.56232 -10.55746,16.41771 -18.39862,34.96877 -22.702,53.70964 -1.11525,4.85681 -1.91137,6.96429 -2.63084,6.96429 -0.8261,0 -0.99576,1.10296 -0.8515,5.53571 0.0991,3.04464 -0.19331,10.59949 -0.64976,16.78854 -3.18438,43.1772 10.29196,86.40402 37.57721,120.53289 11.41474,14.27776 28.38394,29.00651 44.02287,38.21051 4.89993,2.88376 6.82323,4.40662 6.82323,5.40258 0,1.13566 0.50406,1.38691 2.78235,1.38691 1.53029,0 5.14637,1.00802 8.03572,2.24004 18.74915,7.99466 36.17511,11.85011 56.68193,12.54072 13.30936,0.44822 24.70329,-0.39324 36.00613,-2.65911 6.27924,-1.25879 16.89575,-4.06419 20.14061,-5.32212 0.86092,-0.33375 1.91134,0.85535 4.21442,4.77082 1.68723,2.86845 4.63013,7.38501 6.53979,10.03679 l 3.47211,4.82143 -195.3651,0 -195.3651018,0 0,-239.28571 z"
       id="path3938"
       inkscape:connector-curvature="0"
       transform="translate(0,572.36218)" />
    <path
       style="fill:#b3b3b3;fill-opacity:1;fill-rule:evenodd;stroke:none"
       d="m 168.21429,265.40936 c 0,-0.10362 1.26678,-4.77179 2.81508,-10.37371 8.73117,-31.59048 22.32318,-55.3284 44.29269,-77.35549 12.19467,-12.22663 22.58945,-20.02968 40.21365,-30.18719 l 3.39286,-1.95544 0,60.03011 0,60.03011 -45.35714,0 c -24.94643,0 -45.35714,-0.0848 -45.35714,-0.18839 z"
       id="path3940"
       inkscape:connector-curvature="0"
       transform="translate(0,572.36218)" />
    <path
       style="fill:#b3b3b3;fill-opacity:1;fill-rule:evenodd;stroke:none"
       d="m 387.5,202.72227 0,-60.73263 2.32143,1.18085 c 1.27678,0.64947 5.85714,3.11668 10.17857,5.48269 26.36687,14.43602 48.41798,35.21131 62.85714,59.22038 l 3.57143,5.93848 -0.19673,24.82143 -0.19673,24.82143 -39.26755,0 -39.26756,0 0,-60.73263 z"
       id="path3942"
       inkscape:connector-curvature="0"
       transform="translate(0,572.36218)" />
    <path
       style="fill:#b3b3b3;fill-opacity:1;fill-rule:evenodd;stroke:none"
       d="m 385.38252,469.88347 c -3.68496,-5.5 -6.93216,-10 -7.21599,-10 -0.28383,0 -2.55884,0.62116 -5.05557,1.38035 -5.48177,1.66688 -14.75974,3.83541 -22.03953,5.1513 -8.42897,1.5236 -39.72234,1.30232 -49.28572,-0.34852 -10.68174,-1.84389 -21.77713,-4.9188 -32.5,-9.00684 L 260,453.51962 l 165.89286,-0.0323 165.89285,-0.0324 0,-114.28572 c 0,-97.35206 0.14782,-114.28571 0.9976,-114.28571 0.84694,0 21.8689,13.67575 25.60955,16.66019 1.18145,0.94261 1.25,7.50442 1.25,119.66855 l 0,118.67126 -113.7802,0 -113.7802,0 -6.69994,-10 z"
       id="path3944"
       inkscape:connector-curvature="0"
       transform="translate(0,572.36218)" />
  </g>
</svg>
