<?xml version="1.0" encoding="UTF-8" standalone="no"?>
<!-- Created with Inkscape (http://www.inkscape.org/) -->

<svg
   xmlns:ns0="http://www.iki.fi/pav/software/textext/"
   xmlns:osb="http://www.openswatchbook.org/uri/2009/osb"
   xmlns:dc="http://purl.org/dc/elements/1.1/"
   xmlns:cc="http://creativecommons.org/ns#"
   xmlns:rdf="http://www.w3.org/1999/02/22-rdf-syntax-ns#"
   xmlns:svg="http://www.w3.org/2000/svg"
   xmlns="http://www.w3.org/2000/svg"
   xmlns:sodipodi="http://sodipodi.sourceforge.net/DTD/sodipodi-0.dtd"
   xmlns:inkscape="http://www.inkscape.org/namespaces/inkscape"
   inkscape:version="0.48.3.1 r9886"
   version="1.1"
   id="svg2"
   height="1052.3622047"
   width="744.09448819"
   sodipodi:docname="pyramid.eps">
  <sodipodi:namedview
     id="base"
     pagecolor="#ffffff"
     bordercolor="#666666"
     borderopacity="1.0"
     inkscape:pageopacity="0.0"
     inkscape:pageshadow="2"
     inkscape:zoom="0.66503165"
     inkscape:cx="424.55619"
     inkscape:cy="691.87514"
     inkscape:document-units="px"
     inkscape:current-layer="svg2"
     showgrid="false"
     inkscape:window-width="1920"
     inkscape:window-height="1056"
     inkscape:window-x="0"
     inkscape:window-y="24"
     inkscape:window-maximized="1">
    <inkscape:grid
       id="grid3790"
       type="xygrid" />
  </sodipodi:namedview>
  <defs
     id="defs4">
    <linearGradient
       osb:paint="solid"
       id="linearGradient5248">
      <stop
         id="stop5250"
         offset="0"
         style="stop-color:#000000;stop-opacity:1;" />
    </linearGradient>
    <linearGradient
       osb:paint="solid"
       id="linearGradient5242">
      <stop
         id="stop5244"
         offset="0"
         style="stop-color:#000000;stop-opacity:1;" />
    </linearGradient>
    <linearGradient
       osb:paint="solid"
       id="linearGradient3792">
      <stop
         id="stop3794"
         offset="0"
         style="stop-color:#ffffff;stop-opacity:1;" />
    </linearGradient>
  </defs>
  <metadata
     id="metadata7">
    <rdf:RDF>
      <cc:Work
         rdf:about="">
        <dc:format>image/svg+xml</dc:format>
        <dc:type
           rdf:resource="http://purl.org/dc/dcmitype/StillImage" />
        <dc:title></dc:title>
      </cc:Work>
    </rdf:RDF>
  </metadata>
  <g
     id="layer1"
     inkscape:groupmode="layer"
     inkscape:label="Layer 1">
    <g
       id="content"
       transform="matrix(10.500000,0,0,-10.500000,-2100.000000,7875.000000)"
       xml:space="preserve"
       stroke="black"
       stroke-linecap="butt"
       stroke-linejoin="miter"
       stroke-miterlimit="10.433"
       stroke-dasharray="none"
       stroke-dashoffset="0"
       stroke-opacity="1"
       fill="none"
       fill-rule="evenodd"
       fill-opacity="1"
       font-style="normal"
       font-variant="normal"
       font-weight="normal"
       font-stretch="normal"
       font-size-adjust="none"
       letter-spacing="normal"
       word-spacing="normal"
       text-anchor="start"
       ns0:text="$L_{0}$"
       ns0:preamble="/home/erik/.config/inkscape/extensions/anyname.ini">



</g>  </g>
  <path
     id="path5318"
     style="fill:none;stroke:none"
     d="m 50.255314,316.4473 0,365.4468 m 23,-365.4468 0,365.4468 m 23,-365.4468 0,365.4468 m 22.999996,-365.4468 0,365.4468 m 23,-365.4468 0,365.4468 m 23,-365.4468 0,365.4468 m 23,-365.4468 0,365.4468 m 23,-365.4468 0,365.4468 m 23,-365.4468 0,365.4468 m 23,-365.4468 0,365.4468 m 23,-365.4468 0,365.4468 m 23,-365.4468 0,365.4468 m 23,-365.4468 0,365.4468 m 23,-365.4468 0,365.4468 m 23,-365.4468 0,365.4468 m 23,-365.4468 0,365.4468 M 50.255314,316.4473 l 365.446806,0 m -365.446806,21 365.446806,0 m -365.446806,21 365.446806,0 m -365.446806,21 365.446806,0 m -365.446806,21 365.446806,0 m -365.446806,21 365.446806,0 m -365.446806,21 365.446806,0 m -365.446806,21 365.446806,0 m -365.446806,21 365.446806,0 m -365.446806,21 365.446806,0 m -365.446806,21 365.446806,0 m -365.446806,21 365.446806,0 m -365.446806,21 365.446806,0 m -365.446806,21 365.446806,0 m -365.446806,21 365.446806,0 m -365.446806,21 365.446806,0 m -365.446806,21 365.446806,0 m -365.446806,21 365.446806,0"
     inkscape:connector-curvature="0" />
  <g
     id="g3195">
    <path
       style="fill:#969696;stroke:#000000;stroke-width:1px;stroke-linecap:butt;stroke-linejoin:miter;stroke-opacity:1;fill-opacity:1"
       d="M386.584129805 266.718765971C386.584129805 266.718765971 429.023919402 266.718612913 429.023919402 266.718612913C429.023919402 266.718612913 410.395442735 288.946126327 410.395442735 288.946126327C410.395442735 288.946126327 452.634729254 289.121512469 452.634729254 289.121512469C452.634729254 289.121512469 433.052537681 311.147061229 433.052537681 311.147061229C433.052537681 311.147061229 475.556137368 310.751677137 475.556137368 310.751677137C475.556137368 310.751677137 456.407551759 333.13468185 456.407551759 333.13468185C456.407551759 333.13468185 496.041407441 332.544536284 496.041407441 332.544536284C496.041407441 332.544536284 477.635768042 353.156419363 477.635768042 353.156419363C477.635768042 353.156419363 140.610089309 354.030857082 140.610089309 354.030857082C140.610089309 354.030857082 159.936132827 331.534225263 159.936132827 331.534225263C159.936132827 331.534225263 340.361859567 304.725744844 340.361859567 304.725744844C340.361859567 304.725744844 386.584129805 266.718765971 386.584129805 266.718765971"
       id="path3191"
       inkscape:connector-curvature="0" />
    <path
       style="fill:#969696;stroke:#000000;stroke-width:1px;stroke-linecap:butt;stroke-linejoin:miter;stroke-opacity:1;fill-opacity:1"
       d="M401.921826141 200.533568432C401.921826141 200.533568432 535.211055147 200.90165706 535.211055147 200.90165706C535.211055147 200.90165706 554.369582511 179.236766705 554.369582511 179.236766705C554.369582511 179.236766705 420.797285026 178.569196179 420.797285026 178.569196179C420.797285026 178.569196179 401.921826141 200.533568432 401.921826141 200.533568432"
       id="path3193"
       inkscape:connector-curvature="0" />
    <path
       id="rect5278-3"
       d="M293.297186575 178.382328472C293.297186575 178.382328472 629.813854049 179.429665041 629.813854049 179.429665041C629.813854049 179.429665041 477.912041714 353.472610284 477.912041714 353.472610284C477.912041714 353.472610284 140.359106546 354.517565613 140.359106546 354.517565613C140.359106546 354.517565613 293.295902637 178.382327139 293.295902637 178.382327139"
       style="fill:none;stroke:#000000;stroke-width:2.49648237;stroke-miterlimit:4;stroke-opacity:1"
       inkscape:connector-curvature="0" />
    <path
       inkscape:connector-curvature="0"
       d="M292.773255402 177.885417991C292.773255402 177.885417991 138.977813784 355.012143403 138.977813784 355.012143403M335.775838956 178.020006549C335.775838956 178.020006549 182.112487519 354.877874714 182.112487519 354.877874714M378.647927274 178.154198336C378.647927274 178.154198336 225.116567882 354.743991478 225.116567882 354.743991478M421.390136952 178.287964772C421.390136952 178.287964772 267.990630203 354.610532174 267.990630203 354.610532174M464.00290012 178.421336902C464.00290012 178.421336902 310.735299223 354.477475591 310.735299223 354.477475591M506.48708953 178.554296387C506.48708953 178.554296387 353.351268359 354.344810411 353.351268359 354.344810411M548.843201975 178.686874285C548.843201975 178.686874285 395.838353811 354.212556005 395.838353811 354.212556005M591.071085528 178.819031304C591.071085528 178.819031304 438.198480855 354.080689869 438.198480855 354.080689869M292.773255402 177.885417991C292.773255402 177.885417991 631.170024178 178.94453048 631.170024178 178.94453048M273.393773172 200.204837039C273.393773172 200.204837039 611.923190781 200.996803388 611.923190781 200.996803388M254.025797371 222.51099624C254.025797371 222.51099624 592.68744404 223.036130319 592.68744404 223.036130319M234.669297619 244.803942024C234.669297619 244.803942024 573.463035028 245.062577361 573.463035028 245.062577361M215.324259568 267.083690881C215.324259568 267.083690881 554.249845782 267.076051448 554.249845782 267.076051448M195.990745604 289.350159679C195.990745604 289.350159679 535.047967344 289.07668789 535.047967344 289.07668789M176.668596619 311.603554169C176.668596619 311.603554169 515.857276127 311.0645028 515.857276127 311.0645028M157.357934373 333.843711522C157.357934373 333.843711522 496.677772247 333.039393363 496.677772247 333.039393363"
       style="fill:none;stroke:#000000;stroke-width:1.24824123pt;stroke-linecap:butt;stroke-linejoin:miter;stroke-opacity:1"
       id="path7897" />
    <path
       inkscape:connector-curvature="0"
       id="rect7928"
       d="M590.873302625 179.656839592C590.873302625 179.656839592 628.707890707 179.774128559 628.707890707 179.774128559C628.707890707 179.774128559 610.14530799 201.042594557 610.14530799 201.042594557C610.14530799 201.042594557 572.296196221 200.954148544 572.296196221 200.954148544C572.296196221 200.954148544 590.87636562 179.656882517 590.87636562 179.656882517"
       style="fill:#000000;fill-opacity:1;fill-rule:evenodd;stroke:none" />
    <path
       inkscape:connector-curvature="0"
       id="rect7928-7"
       d="M548.030670647 179.488342834C548.030670647 179.488342834 602.501121765 179.657307137 602.501121765 179.657307137C602.501121765 179.657307137 584.005594182 200.854004691 584.005594182 200.854004691C584.005594182 200.854004691 529.514549093 200.726280479 529.514549093 200.726280479C529.514549093 200.726280479 548.025030836 179.488287283 548.025030836 179.488287283"
       style="fill:#000000;fill-opacity:1;fill-rule:evenodd;stroke:none" />
    <path
       inkscape:connector-curvature="0"
       id="rect7928-7-3"
       d="M445.307295934 200.351962087C445.307295934 200.351962087 529.320228276 200.549238822 529.320228276 200.549238822C529.320228276 200.549238822 510.018542315 222.694567611 510.018542315 222.694567611C510.018542315 222.694567611 425.972637935 222.563634262 425.972637935 222.563634262C425.972637935 222.563634262 445.309415477 200.351973698 445.309415477 200.351973698"
       style="fill:#000000;fill-opacity:1;fill-rule:evenodd;stroke:none" />
    <path
       inkscape:connector-curvature="0"
       id="rect7928-7-8"
       d="M344.041388413 267.34021673C344.041388413 267.34021673 386.295387347 267.338879447 386.295387347 267.338879447C386.295387347 267.338879447 348.095199386 311.219031633 348.095199386 311.219031633C348.095199386 311.219031633 305.808733958 311.286027682 305.808733958 311.286027682C305.808733958 311.286027682 344.04145311 267.340176936 344.04145311 267.340176936"
       style="fill:#000000;fill-opacity:1;fill-rule:evenodd;stroke:none" />
    <path
       inkscape:connector-curvature="0"
       id="rect7928-7-67-8"
       d="M177.815922488 311.815857917C177.815922488 311.815857917 304.879316194 311.613009469 304.879316194 311.613009469C304.879316194 311.613009469 285.743014345 333.609166207 285.743014345 333.609166207C285.743014345 333.609166207 158.631062094 333.910782678 158.631062094 333.910782678C158.631062094 333.910782678 177.815959426 311.815907672 177.815959426 311.815907672"
       style="fill:#000000;fill-opacity:1;fill-rule:evenodd;stroke:none" />
    <path
       inkscape:connector-curvature="0"
       id="rect7928-7-67-8-6"
       d="M282.184884612 289.450213125C282.184884612 289.450213125 366.308483958 289.381932181 366.308483958 289.381932181C366.308483958 289.381932181 347.177021571 311.358310535 347.177021571 311.358310535C347.177021571 311.358310535 263.021107179 311.492065688 263.021107179 311.492065688C263.021107179 311.492065688 282.184904646 289.45021312 282.184904646 289.45021312"
       style="fill:#000000;fill-opacity:1;fill-rule:evenodd;stroke:none" />
  </g>
  <g
     id="g3392">
    <path
       inkscape:connector-curvature="0"
       id="path3388"
       d="M399.801198874 71.3318049922C399.801198874 71.3318049922 460.485537273 72.0746011297 460.485537273 72.0746011297C460.485537273 72.0746011297 433.815303237 102.598206822 433.815303237 102.598206822C433.815303237 102.598206822 491.527837044 102.225158729 491.527837044 102.225158729C491.527837044 102.225158729 465.171328741 132.132712599 465.171328741 132.132712599C465.171328741 132.132712599 332.515838397 132.132712599 332.515838397 132.132712599C332.515838397 132.132712599 399.801198874 71.3318049922 399.801198874 71.3318049922"
       style="fill:#969696;stroke:#000000;stroke-width:1px;stroke-linecap:butt;stroke-linejoin:miter;stroke-opacity:1;fill-opacity:1" />
    <path
       inkscape:connector-curvature="0"
       id="path3390"
       d="M428.345877234 41.7332834739C428.345877234 41.7332834739 368.682170328 41.7332834739 368.682170328 41.7332834739C368.682170328 41.7332834739 395.570916828 12.7695198178 395.570916828 12.7695198178C395.570916828 12.7695198178 460.378387194 12.7695198178 460.378387194 12.7695198178C460.378387194 12.7695198178 428.345877234 41.7332834739 428.345877234 41.7332834739"
       style="fill:#969696;stroke:#000000;stroke-width:1px;stroke-linecap:butt;stroke-linejoin:miter;stroke-opacity:1;fill-opacity:1" />
    <g
       id="g9138"
       transform="matrix(1.3982914,0,2.9474241,1.8256564,-2681.7444,990.18537)">
      <path
         inkscape:connector-curvature="0"
         style="fill:none;stroke:#000000;stroke-width:2;stroke-miterlimit:4;stroke-opacity:1"
         d="M3287.47954203 -535.372309779C3287.47954203 -535.372309779 3455.60086988 -535.372309779 3455.60086988 -535.372309779C3455.60086988 -535.372309779 3241.3181731 -469.979295077 3241.3181731 -469.979295077C3241.3181731 -469.979295077 3068.74576461 -469.979295077 3068.74576461 -469.979295077C3068.74576461 -469.979295077 3287.47954203 -535.372309779 3287.47954203 -535.372309779"
         id="rect5278-3-0" />
      <path
         id="path7920"
         style="fill:none;stroke:#000000;stroke-width:1pt;stroke-linecap:butt;stroke-linejoin:miter;stroke-opacity:1"
         d="M3287.60536872 -535.550519842C3287.60536872 -535.550519842 3067.63475249 -469.791486933 3067.63475249 -469.791486933M3330.12089472 -535.550519842C3330.12089472 -535.550519842 3111.28243676 -469.791486933 3111.28243676 -469.791486933M3372.63661893 -535.550519842C3372.63661893 -535.550519842 3154.93002107 -469.791486933 3154.93002107 -469.791486933M3415.15224404 -535.550519842C3415.15224404 -535.550519842 3198.5775054 -469.791486933 3198.5775054 -469.791486933M3287.60536872 -535.550519842C3287.60536872 -535.550519842 3456.65511099 -535.550519842 3456.65511099 -535.550519842M3233.36423687 -519.335436933C3233.36423687 -519.335436933 3403.52391257 -519.335436933 3403.52391257 -519.335436933M3178.40621495 -502.906031163C3178.40621495 -502.906031163 3349.69043731 -502.906031163 3349.69043731 -502.906031163M3122.7169577 -486.258016301C3122.7169577 -486.258016301 3295.14064374 -486.258016301 3295.14064374 -486.258016301"
         inkscape:connector-curvature="0" />
    </g>
    <path
       inkscape:connector-curvature="0"
       id="rect7928-8"
       d="M455.615794524 12.8342602093C455.615794524 12.8342602093 572.320665388 12.8342602093 572.320665388 12.8342602093C572.320665388 12.8342602093 546.258353001 41.9446536143 546.258353001 41.9446536143C546.258353001 41.9446536143 428.799966408 41.9446536143 428.799966408 41.9446536143C428.799966408 41.9446536143 455.615794524 12.8342602093 455.615794524 12.8342602093"
       style="fill:#000000;fill-opacity:1;fill-rule:evenodd;stroke:none" />
    <path
       inkscape:connector-curvature="0"
       id="rect7928-8-0"
       d="M252.124311378 102.288509597C252.124311378 102.288509597 372.657141708 102.288509597 372.657141708 102.288509597C372.657141708 102.288509597 345.234676979 132.053601532 345.234676979 132.053601532C345.234676979 132.053601532 223.921733103 132.053601532 223.921733103 132.053601532C223.921733103 132.053601532 252.124311378 102.288509597 252.124311378 102.288509597"
       style="fill:#000000;fill-opacity:1;fill-rule:evenodd;stroke:none" />
    <path
       inkscape:connector-curvature="0"
       id="rect7928-8-0-4"
       d="M340.8359178 72.0400697751C340.8359178 72.0400697751 400.460182553 72.0400697751 400.460182553 72.0400697751C400.460182553 72.0400697751 360.411512882 115.509389427 360.411512882 115.509389427C360.411512882 115.509389427 300.219898751 115.509389427 300.219898751 115.509389427C300.219898751 115.509389427 340.8359178 72.0400697751 340.8359178 72.0400697751"
       style="fill:#000000;fill-opacity:1;fill-rule:evenodd;stroke:none" />
  </g>
  <path
     inkscape:connector-curvature="0"
     id="path9660"
     d="M 13.953383,690.65387 237.06491,398.88568 720.7262,399.90052 500.65017,690.65387 z"
     style="fill:none;stroke:#000000;stroke-width:0.95304644px;stroke-linecap:butt;stroke-linejoin:miter;stroke-opacity:1" />
  <path
     style="fill:none;stroke:#000000;stroke-width:0.95304644px;stroke-linecap:butt;stroke-linejoin:miter;stroke-opacity:1"
     d="m 137.05096,355.79016 155.61723,-178.68349 340.5692,0.3588 -155.25946,177.96589 z"
     id="path9954"
     inkscape:connector-curvature="0" />
  <path
     inkscape:connector-curvature="0"
     id="path10542"
     d="m 220.87541,133.7572 113.20607,-122.542648 242.45697,0 L 465.48866,133.7572 z"
     style="fill:none;stroke:#000000;stroke-width:0.95304644px;stroke-linecap:butt;stroke-linejoin:miter;stroke-opacity:1" />
  <path
     inkscape:connector-curvature="0"
     id="path7387"
     d="M 13.953383,691.16129 224.41686,122.8476"
     style="fill:none;stroke:#000000;stroke-width:3.81218576;stroke-linecap:butt;stroke-linejoin:miter;stroke-miterlimit:4;stroke-opacity:1;stroke-dasharray:15.24874303, 15.24874303;stroke-dashoffset:0" />
  <path
     inkscape:connector-curvature="0"
     id="path7389"
     d="M 721.47076,397.41122 574.08152,4.1640092"
     style="fill:none;stroke:#000000;stroke-width:3.81218576;stroke-linecap:butt;stroke-linejoin:miter;stroke-miterlimit:4;stroke-opacity:1;stroke-dasharray:15.24874303, 15.24874303;stroke-dashoffset:0" />
  <path
     style="fill:#969696;fill-opacity:1;stroke:#000000;stroke-width:1px;stroke-linecap:butt;stroke-linejoin:miter;stroke-opacity:1"
     d="m 16.935141,689.19092 c 0.416889,-0.5452 47.297229,-61.27478 47.297229,-61.27478 0,0 83.96205,8.60646 83.96205,8.60646 0,0 32.13402,8.03664 32.13402,8.03664 0,0 45.46606,-12.08467 45.46606,-12.08467 0,0 53.45618,-31.8993 53.45618,-31.8993 0,0 31.31321,-23.73192 31.31321,-23.73192 0,0 46.80379,-13.38886 46.80379,-13.38886 0,0 29.85587,0.16291 29.85587,0.16291 0,0 -13.92413,18.02467 -13.92413,18.02467 0,0 30.41242,0.2951 30.41242,0.2951 0,0 -14.24364,18.16678 -14.24364,18.16678 0,0 30.29396,0.15541 30.29396,0.15541 0,0 -14.01973,18.17368 -14.01973,18.17368 0,0 30.39564,0.0158 30.39564,0.0158 0,0 -13.89868,18.31613 -13.89868,18.31613 0,0 30.17409,0.0117 30.17409,0.0117 0,0 -13.66024,18.59452 -13.66024,18.59452 0,0 30.1728,0.008 30.1728,0.008 0,0 -13.90559,18.05807 -13.90559,18.05807 0,0 30.28879,0.13956 30.28879,0.13956 0,0 -11.71214,15.75507 -11.71214,15.75507 0,0 -456.661959,-0.14065 -456.661959,-0.14065"
     id="path3484"
     inkscape:connector-curvature="0" />
  <path
     style="fill:#969696;fill-opacity:1;stroke:#000000;stroke-width:1px;stroke-linecap:butt;stroke-linejoin:miter;stroke-opacity:1"
     d="m 450.33419,401.06043 c 0,0 -12.93698,16.99462 -12.93698,16.99462 0,0 30.00992,0.46418 30.00992,0.46418 0,0 -14.28225,18.48461 -14.28225,18.48461 0,0 51.16243,5.90334 51.16243,5.90334 0,0 96.53205,-8.19865 96.53205,-8.19865 0,0 103.41822,-15.45533 103.41822,-15.45533 0,0 12.40193,-16.96332 12.40193,-16.96332 0,0 -209.23124,-1.3804 -209.23124,-1.3804 0,0 -57.07408,0.15095 -57.07408,0.15095"
     id="path4254"
     inkscape:connector-curvature="0" />
  <path
     style="fill:none;stroke:#000000;stroke-width:2.9273262;stroke-miterlimit:4;stroke-opacity:1"
     d="m 240.1842,400.22035 c 0,0 476.57346,1.99035 476.57346,1.99035 0,0 -217.26985,287.25963 -217.26985,287.25963 0,0 -482.526044,-0.008 -482.526044,-0.008 0,0 223.222244,-289.24162 223.222244,-289.24162"
     id="rect5278"
     inkscape:connector-curvature="0" />
  <path
     inkscape:connector-curvature="0"
     id="path5338"
     style="fill:none;stroke:#000000;stroke-width:1.75639582;stroke-linecap:butt;stroke-linejoin:miter;stroke-miterlimit:4;stroke-opacity:1;stroke-dasharray:none"
     d="m 239.51861,399.33768 c 0,0 -224.487134,290.86425 -224.487134,290.86425 M 269.84523,399.46472 c 0,0 -224.104369,290.73742 -224.104369,290.73742 M 300.14541,399.59165 c 0,0 -223.722175,290.61069 -223.722175,290.61069 M 330.4192,399.71847 c 0,0 -223.34058,290.48408 -223.34058,290.48408 M 360.66661,399.84518 c 0,0 -222.95956,290.35758 -222.95956,290.35758 M 390.88772,399.97177 c 0,0 -222.57916,290.2312 -222.57916,290.2312 m 252.7739,-290.10471 c 0,0 -222.19925,290.10491 -222.19925,290.10491 m 252.3678,-289.97853 c 0,0 -221.81998,289.97874 -221.81998,289.97874 M 481.39329,400.3509 c 0,0 -221.44131,289.85268 -221.44131,289.85268 M 511.50934,400.47705 c 0,0 -221.06312,289.72674 -221.06312,289.72674 M 541.59926,400.60311 c 0,0 -220.6856,289.60089 -220.6856,289.60089 M 571.66308,400.72904 c 0,0 -220.30863,289.47516 -220.30863,289.47516 m 250.3463,-289.34933 c 0,0 -219.9322,289.34954 -219.9322,289.34954 M 631.71244,400.98059 c 0,0 -219.55645,289.22402 -219.55645,289.22402 m 249.54204,-289.0984 c 0,0 -219.18116,289.0986 -219.18116,289.0986 M 691.6577,401.23171 c 0,0 -218.80656,288.97331 -218.80656,288.97331 M 239.51861,399.33768 c 0,0 479.22197,2.00748 479.22197,2.00748 m -493.21364,16.12129 c 0,0 479.59628,1.88364 479.59628,1.88364 m -493.60428,16.2663 c 0,0 479.97119,1.75954 479.97119,1.75954 m -493.99559,16.41164 c 0,0 480.34658,1.63512 480.34658,1.63512 m -494.38737,16.5573 c 0,0 480.72259,1.51043 480.72259,1.51043 m -494.77983,16.70329 c 0,0 481.09915,1.38544 481.09915,1.38544 m -495.17284,16.84961 c 0,0 481.47616,1.26016 481.47616,1.26016 m -495.56633,16.99625 c 0,0 481.8538,1.13458 481.8538,1.13458 M 127.12594,544.963 c 0,0 482.23199,1.00871 482.23199,1.00871 m -496.35524,17.29055 c 0,0 482.61074,0.88254 482.61074,0.88254 M 98.862858,581.58301 c 0,0 482.990032,0.75607 482.990032,0.75607 m -497.146483,17.5862 c 0,0 483.369953,0.62932 483.369953,0.62932 M 70.533331,618.2891 c 0,0 483.750359,0.50226 483.750359,0.50226 M 56.343587,636.67452 c 0,0 484.131303,0.3749 484.131303,0.3749 M 42.13715,655.08157 c 0,0 484.51288,0.24725 484.51288,0.24725 M 27.913982,673.51029 c 0,0 484.894928,0.11931 484.894928,0.11931" />
  <path
     style="fill:#000000;fill-opacity:1;stroke:none"
     d="m 179.0464,637.25418 c 0,0 29.55483,0.0226 29.55483,0.0226 0,0 -13.64656,17.79414 -13.64656,17.79414 0,0 -29.57741,-0.0153 -29.57741,-0.0153 0,0 13.66914,-17.80168 13.66914,-17.80168"
     id="rect5378"
     inkscape:connector-curvature="0" />
  <path
     style="fill:#000000;fill-opacity:1;stroke:none"
     d="m 223.48918,618.97124 c 0,0 29.55972,0.0304 29.55972,0.0304 0,0 -13.39113,17.48361 -13.39113,17.48361 0,0 -29.58192,-0.023 -29.58192,-0.023 0,0 13.4134,-17.49103 13.4134,-17.49103"
     id="rect5378-9"
     inkscape:connector-curvature="0" />
  <path
     style="fill:#000000;fill-opacity:1;stroke:none"
     d="m 148.46346,637.21085 c 0,0 32.66775,0.0251 32.66775,0.0251 0,0 -13.68543,17.82443 -13.68543,17.82443 0,0 -32.69281,-0.017 -32.69281,-0.017 0,0 13.71048,-17.83278 13.71048,-17.83278"
     id="rect5378-9-2"
     inkscape:connector-curvature="0" />
  <path
     style="fill:#000000;fill-opacity:1;stroke:none"
     d="m 97.397229,618.62134 c 0,0 64.131551,0.0663 64.131551,0.0663 0,0 -13.90283,18.08207 -13.90283,18.08207 0,0 -64.181487,-0.0496 -64.181487,-0.0496 0,0 13.952758,-18.0987 13.952758,-18.0987"
     id="rect5378-9-2-6"
     inkscape:connector-curvature="0" />
  <path
     style="fill:#000000;fill-opacity:1;stroke:none"
     d="m 101.66532,618.58688 c 0,0 29.30344,0.0303 29.30344,0.0303 0,0 -13.69124,17.78424 -13.69124,17.78424 0,0 -29.325883,-0.0228 -29.325883,-0.0228 0,0 13.713683,-17.7917 13.713683,-17.7917"
     id="rect5378-9-2-6-2"
     inkscape:connector-curvature="0" />
  <path
     style="fill:#000000;fill-opacity:1;stroke:none"
     d="m 72.639903,618.55685 c 0,0 29.327857,0.0303 29.327857,0.0303 0,0 -13.713435,17.79162 -13.713435,17.79162 0,0 -29.350334,-0.0229 -29.350334,-0.0229 0,0 13.735912,-17.7991 13.735912,-17.7991"
     id="rect5378-9-2-6-2-5"
     inkscape:connector-curvature="0" />
  <path
     style="fill:#000000;fill-opacity:1;stroke:none"
     d="m 269.05612,599.44055 c 0,0 29.50883,0.0388 29.50883,0.0388 0,0 -14.34076,18.74675 -14.34076,18.74675 0,0 -29.53262,-0.0308 -29.53262,-0.0308 0,0 14.36401,-18.7547 14.36401,-18.7547"
     id="rect5378-9-3"
     inkscape:connector-curvature="0" />
  <path
     style="fill:#000000;fill-opacity:1;stroke:none"
     d="m 282.30638,582.19721 c 0,0 29.48697,0.046 29.48697,0.046 0,0 -13.74823,17.97282 -13.74823,17.97282 0,0 -29.50968,-0.0384 -29.50968,-0.0384 0,0 13.77168,-17.98043 13.77168,-17.98043"
     id="rect5378-9-5"
     inkscape:connector-curvature="0" />
  <path
     style="fill:#000000;fill-opacity:1;stroke:none"
     d="m 296.25595,564.09752 c 0,0 29.46383,0.0537 29.46383,0.0537 0,0 -13.32155,17.4146 -13.32155,17.4146 0,0 -29.48603,-0.0464 -29.48603,-0.0464 0,0 13.34373,-17.42197 13.34373,-17.42197"
     id="rect5378-9-6"
     inkscape:connector-curvature="0" />
  <path
     style="fill:#000000;fill-opacity:1;stroke:none"
     d="m 340.071,545.94922 c 0,0 29.41557,0.0613 29.41557,0.0613 0,0 -15.89237,20.8016 -15.89237,20.8016 0,0 -29.44186,-0.0525 -29.44186,-0.0525 0,0 15.91885,-20.81037 15.91885,-20.81037"
     id="rect5378-9-1"
     inkscape:connector-curvature="0" />
  <path
     style="fill:#000000;fill-opacity:1;stroke:none"
     d="m 587.98336,419.37123 c 0,0 60.07637,0.23553 60.07637,0.23553 0,0 -13.04363,17.20063 -13.04363,17.20063 0,0 -60.12093,-0.22072 -60.12093,-0.22072 0,0 13.08472,-17.21545 13.08472,-17.21545"
     id="rect5378-9-17"
     inkscape:connector-curvature="0" />
  <path
     style="fill:#000000;fill-opacity:1;stroke:none"
     d="m 454.01313,436.9705 c 0,0 29.25175,0.10707 29.25175,0.10707 0,0 -13.16792,17.25795 -13.16792,17.25795 0,0 -29.27354,-0.0998 -29.27354,-0.0998 0,0 13.18983,-17.26518 13.18983,-17.26518"
     id="rect5378-9-4"
     inkscape:connector-curvature="0" />
  <path
     style="fill:#000000;fill-opacity:1;stroke:none"
     d="m 484.24473,436.78849 c 0,0 29.22606,0.10707 29.22606,0.10707 0,0 -13.59197,17.83575 -13.59197,17.83575 0,0 -29.24853,-0.0996 -29.24853,-0.0996 0,0 13.61433,-17.84322 13.61433,-17.84322"
     id="rect5378-9-43"
     inkscape:connector-curvature="0" />
  <path
     style="fill:#000000;fill-opacity:1;stroke:none"
     d="m 514.25191,437.13913 c 0,0 29.20089,0.10686 29.20089,0.10686 0,0 -13.28492,17.45585 -13.28492,17.45585 0,0 -29.22286,-0.0995 -29.22286,-0.0995 0,0 13.30695,-17.46316 13.30695,-17.46316"
     id="rect5378-9-0"
     inkscape:connector-curvature="0" />
  <path
     style="fill:#000000;fill-opacity:1;stroke:none"
     d="m 523.70051,436.9772 c 0,0 50.20797,0.18386 50.20797,0.18386 0,0 -13.3833,17.60761 -13.3833,17.60761 0,0 -50.24603,-0.17121 -50.24603,-0.17121 0,0 13.42204,-17.62029 13.42204,-17.62029"
     id="rect5378-9-68"
     inkscape:connector-curvature="0" />
  <path
     style="fill:#000000;fill-opacity:1;stroke:none"
     d="m 326.48251,564.15258 c 0,0 29.43827,0.0536 29.43827,0.0536 0,0 -13.29907,17.40706 -13.29907,17.40706 0,0 -29.46035,-0.0463 -29.46035,-0.0463 0,0 13.32121,-17.41441 13.32121,-17.41441"
     id="rect5378-9-60"
     inkscape:connector-curvature="0" />
  <path
     style="fill:#000000;fill-opacity:1;stroke:none"
     d="m 237.54233,600.34327 c 0,0 29.9838,0.039 29.9838,0.039 0,0 -20.34151,26.55782 -20.34151,26.55782 0,0 -30.01807,-0.0275 -30.01807,-0.0275 0,0 20.37574,-26.56925 20.37574,-26.56925"
     id="rect5378-9-80"
     inkscape:connector-curvature="0" />
  <path
     style="fill:#000000;fill-opacity:1;stroke:none"
     d="m 618.30007,419.46207 c 0,0 29.10208,0.11407 29.10208,0.11407 0,0 -13.04391,17.20075 -13.04391,17.20075 0,0 -29.12374,-0.1069 -29.12374,-0.1069 0,0 13.06237,-17.20795 13.06237,-17.20795"
     id="rect5378-9-17-8"
     inkscape:connector-curvature="0" />
  <path
     style="fill:#000000;fill-opacity:1;stroke:none"
     d="m 647.7405,419.5797 c 0,0 29.07733,0.11399 29.07733,0.11399 0,0 -13.02202,17.1935 -13.02202,17.1935 0,0 -29.09896,-0.10683 -29.09896,-0.10683 0,0 13.04375,-17.20068 13.04375,-17.20068"
     id="rect5378-9-17-7"
     inkscape:connector-curvature="0" />
  <path
     style="fill:#000000;fill-opacity:1;stroke:none"
     d="m 675.26838,419.66187 c 0,0 29.05427,0.11393 29.05427,0.11393 0,0 -12.99855,17.1867 -12.99855,17.1867 0,0 -29.07572,-0.10678 -29.07572,-0.10678 0,0 13.02273,-17.19386 13.02273,-17.19386"
     id="rect5378-9-17-2"
     inkscape:connector-curvature="0" />
  <path
     style="fill:#969696;fill-opacity:1;stroke:none"
     d="m 356.93135,564.13925 c 0,0 28.90816,0.0527 28.90816,0.0527 0,0 -13.32162,17.4586 -13.32162,17.4586 0,0 -28.92981,-0.0454 -28.92981,-0.0454 0,0 13.34353,-17.46585 13.34353,-17.46585"
     id="rect5378-9-11-3-8-7-58-79"
     inkscape:connector-curvature="0" />
  <path
     style="fill:#969696;fill-opacity:1;stroke:none"
     d="m 373.34307,582.59055 c 0,0 28.90558,0.045 28.90558,0.045 0,0 -13.31465,17.47154 -13.31465,17.47154 0,0 -28.92736,-0.0377 -28.92736,-0.0377 0,0 13.33574,-17.4788 13.33574,-17.4788"
     id="rect5378-9-11-3-8-7-58-58"
     inkscape:connector-curvature="0" />
  <path
     style="fill:#969696;fill-opacity:1;stroke:none"
     d="m 389.90546,600.73544 c 0,0 28.9028,0.0374 28.9028,0.0374 0,0 -13.30664,17.48418 -13.30664,17.48418 0,0 -28.92445,-0.0302 -28.92445,-0.0302 0,0 13.32856,-17.49145 13.32856,-17.49145"
     id="rect5378-9-11-3-8-7-58-160"
     inkscape:connector-curvature="0" />
  <path
     style="fill:#969696;fill-opacity:1;stroke:none"
     d="m 406.18226,619.15899 c 0,0 28.90038,0.0298 28.90038,0.0298 0,0 -13.29972,17.49714 -13.29972,17.49714 0,0 -28.92212,-0.0225 -28.92212,-0.0225 0,0 13.32164,-17.50442 13.32164,-17.50442"
     id="rect5378-9-11-3-8-7-58-49"
     inkscape:connector-curvature="0" />
  <path
     style="fill:#969696;fill-opacity:1;stroke:none"
     d="m 438.91724,655.82606 c 0,0 28.89536,0.0149 28.89536,0.0149 0,0 -13.28819,17.52285 -13.28819,17.52285 0,0 -28.91736,-0.007 -28.91736,-0.007 0,0 13.30679,-17.53015 13.30679,-17.53015"
     id="rect5378-9-11-3-8-7-58-10"
     inkscape:connector-curvature="0" />
  <path
     style="fill:#969696;fill-opacity:1;stroke:none"
     d="m 422.6035,637.48174 c 0,0 28.8978,0.0221 28.8978,0.0221 0,0 -13.29269,17.50997 -13.29269,17.50997 0,0 -28.91954,-0.0151 -28.91954,-0.0151 0,0 13.31461,-17.51725 13.31461,-17.51725"
     id="rect5378-9-11-3-8-7-58-8"
     inkscape:connector-curvature="0" />
  <path
     style="fill:#969696;fill-opacity:1;stroke:none"
     d="m 455.47616,674.09661 c 0,0 28.89289,0.007 28.89289,0.007 0,0 -11.05249,14.59312 -11.05249,14.59312 0,0 -28.91079,-8.3e-4 -28.91079,-8.3e-4 0,0 11.07214,-14.59921 11.07214,-14.59921"
     id="rect5378-9-11-3-8-1-5-0-2-1-1-7-8-7-1-7-1-7-1-3"
     inkscape:connector-curvature="0" />
  <path
     style="fill:none;stroke:#000000;stroke-width:1px;stroke-linecap:butt;stroke-linejoin:miter;stroke-opacity:1"
     d="m 65.950122,626.8283 c 0,0 82.154128,10.10234 82.154128,10.10234 0,0 12.4768,6.26175 12.4768,6.26175 0,0 20.6591,1.9112 21.33607,2.18346 0.67688,0.27224 27.09917,-8.28573 27.09917,-8.28573 0,0 48.56848,-24.3042 48.56848,-24.3042 0,0 39.6257,-23.33117 39.6257,-23.33117 0,0 14.98518,-14.43044 14.98518,-14.43044 0,0 44.91327,-11.47088 44.91327,-11.47088 0,0 29.68353,0.2189 29.68353,0.2189 0,0 -13.83807,18.30394 -13.83807,18.30394 0,0 30.49253,0.0718 30.49253,0.0718 0,0 -14.10934,18.26251 -14.10934,18.26251 0,0 30.43173,-0.0155 30.43173,-0.0155 0,0 -14.11563,18.44514 -14.11563,18.44514 0,0 30.38863,-0.11998 30.38863,-0.11998 0,0 -13.73712,18.24846 -13.73712,18.24846 0,0 30.22565,-0.0562 30.22565,-0.0562 0,0 -13.83627,18.39084 -13.83627,18.39084 0,0 30.11416,-0.0602 30.11416,-0.0602 0,0 -13.67095,18.3297 -13.67095,18.3297 0,0 30.34021,0.0716 30.34021,0.0716 0,0 -11.98379,15.823 -11.98379,15.823 0,0 -456.878365,-0.004 -456.878365,-0.004 0,0 49.334297,-62.63524 49.334297,-62.63524"
     id="path3482"
     inkscape:connector-curvature="0" />
  <path
     inkscape:connector-curvature="0"
     id="path7389-8"
     d="M 495.55797,691.0913 466.57999,129.56491"
     style="fill:none;stroke:#000000;stroke-width:3.81218576;stroke-linecap:butt;stroke-linejoin:miter;stroke-miterlimit:4;stroke-opacity:1;stroke-dasharray:15.24874303, 15.24874303;stroke-dashoffset:0" />
  <g
     ns0:preamble="/home/erik/.config/inkscape/extensions/anyname.ini"
     ns0:text="$m^{\\Delta}$"
     word-spacing="normal"
     letter-spacing="normal"
     font-size-adjust="none"
     font-stretch="normal"
     font-weight="normal"
     font-variant="normal"
     font-style="normal"
     stroke-miterlimit="10.433"
     xml:space="preserve"
     transform="matrix(5,0,0,-5,-487.50489,3858.4533)"
     id="g3658"
     style="font-style:normal;font-variant:normal;font-weight:normal;font-stretch:normal;letter-spacing:normal;word-spacing:normal;text-anchor:start;fill:none;stroke:#000000;stroke-linecap:butt;stroke-linejoin:miter;stroke-miterlimit:10.43299961;stroke-opacity:1;stroke-dasharray:none;stroke-dashoffset:0">


</g>  <g
     ns0:preamble="/home/erik/.config/inkscape/extensions/anyname.ini"
     ns0:text="$m^{\\Delta}$"
     word-spacing="normal"
     letter-spacing="normal"
     font-size-adjust="none"
     font-stretch="normal"
     font-weight="normal"
     font-variant="normal"
     font-style="normal"
     stroke-miterlimit="10.433"
     xml:space="preserve"
     transform="matrix(5,0,0,-5,-494.76089,3867.2877)"
     id="g3405"
     style="font-style:normal;font-variant:normal;font-weight:normal;font-stretch:normal;letter-spacing:normal;word-spacing:normal;text-anchor:start;fill:none;stroke:#000000;stroke-linecap:butt;stroke-linejoin:miter;stroke-miterlimit:10.43299961;stroke-opacity:1;stroke-dasharray:none;stroke-dashoffset:0">
<path
   id="path3407"
   d="m 224.31,657.82 0,-0.01 -0.01,-0.02 0,-0.01 0,-0.02 -0.01,-0.03 -0.01,-0.03 -0.01,-0.03 0,-0.04 -0.01,-0.03 -0.01,-0.03 0,-0.01 -0.01,-0.02 0,-0.01 0,-0.02 0,-0.01 -0.01,-0.01 0,-0.02 0,-0.01 0,-0.01 -0.01,-0.01 0,-0.01 0,-0.01 0,-0.01 0,0 0,-0.01 0,-0.01 c 0,-0.17 0.14,-0.26 0.29,-0.26 0.12,0 0.29,0.08 0.37,0.27 0,0.02 0.12,0.49 0.18,0.74 l 0.22,0.89 c 0.06,0.22 0.12,0.44 0.17,0.67 0.04,0.17 0.12,0.46 0.13,0.5 0.15,0.3 0.68,1.21 1.62,1.21 0.45,0 0.54,-0.37 0.54,-0.7 0,-0.25 -0.07,-0.53 -0.15,-0.82 l -0.28,-1.16 -0.2,-0.75 c -0.04,-0.2 -0.13,-0.54 -0.13,-0.59 0,-0.17 0.14,-0.26 0.29,-0.26 0.31,0 0.37,0.24 0.45,0.56 0.14,0.56 0.51,2.01 0.6,2.4 0.03,0.13 0.55,1.32 1.64,1.32 0.43,0 0.54,-0.34 0.54,-0.7 0,-0.56 -0.42,-1.7 -0.62,-2.22 -0.09,-0.24 -0.13,-0.35 -0.13,-0.55 0,-0.47 0.35,-0.81 0.82,-0.81 0.93,0 1.3,1.45 1.3,1.53 0,0.1 -0.09,0.1 -0.12,0.1 -0.1,0 -0.1,-0.04 -0.15,-0.18 -0.15,-0.53 -0.47,-1.24 -1.01,-1.24 -0.17,0 -0.24,0.1 -0.24,0.33 0,0.25 0.09,0.49 0.18,0.71 0.18,0.51 0.6,1.62 0.6,2.18 0,0.65 -0.39,1.07 -1.14,1.07 -0.75,0 -1.25,-0.44 -1.62,-0.97 -0.01,0.13 -0.04,0.47 -0.32,0.71 -0.25,0.21 -0.57,0.26 -0.82,0.26 -0.89,0 -1.38,-0.64 -1.55,-0.87 -0.05,0.57 -0.47,0.87 -0.92,0.87 -0.45,0 -0.64,-0.39 -0.73,-0.57 -0.18,-0.35 -0.31,-0.93 -0.31,-0.96 0,-0.1 0.1,-0.1 0.12,-0.1 0.1,0 0.11,0.01 0.17,0.22 0.17,0.71 0.37,1.19 0.73,1.19 0.16,0 0.3,-0.08 0.3,-0.46 0,-0.21 -0.03,-0.32 -0.16,-0.83 z"
   inkscape:connector-curvature="0"
   style="fill:#000000;stroke-width:0" />
<path
   id="path3409"
   d="m 235.67,665.65 -0.01,0.01 0,0.01 -0.01,0.01 -0.01,0.01 0,0.01 -0.01,0.01 0,0.01 -0.01,0.01 0,0 -0.01,0.01 0,0.01 -0.01,0 0,0.01 -0.01,0.01 0,0 -0.01,0.01 -0.01,0 0,0 -0.01,0.01 -0.01,0 0,0 -0.01,0.01 -0.01,0 -0.01,0 -0.01,0 0,0 -0.01,0.01 -0.01,0 -0.02,0 -0.01,0 -0.01,0 -0.01,0 c -0.09,0 -0.15,-0.02 -0.22,-0.13 l -0.01,-0.55 2.05,-3.71 h -4.1 l 2.05,3.71 0.01,0.55 -2.57,-4.66 c -0.05,-0.08 -0.05,-0.09 -0.05,-0.1 0,-0.07 0.06,-0.07 0.17,-0.07 h 5.34 c 0.11,0 0.17,0 0.17,0.07 0,0.01 0,0.02 -0.05,0.1 z"
   inkscape:connector-curvature="0"
   style="fill:#000000;stroke-width:0" />
</g>  <path
     style="fill:#ffffff;fill-opacity:1;fill-rule:evenodd;stroke:none"
     id="path3767"
     d="m 668.93238,224.57515 c 1.40562,5.01962 2.75438,10.0661 4.88595,14.83431 1.4602,3.30104 2.88271,6.59967 4.59664,9.77616 0.86865,2.28159 2.48023,4.12582 3.63693,6.24184 1.2147,1.87377 2.33962,3.83834 3.24766,5.88217 1.04948,2.26846 2.09978,4.55479 3.35075,6.72065 1.29475,2.33978 2.10393,4.93257 2.85225,7.49208 0.74728,2.77739 1.66587,5.44944 2.11364,8.30201 0.77373,3.14907 1.19691,6.36524 1.82668,9.54045 0.61356,3.0561 1.35617,6.074 2.10069,9.09964 0.38138,2.76815 1.26467,5.41382 1.87668,8.13049 0.54234,2.65254 0.48271,5.35803 1.05178,8.00286 0.49298,2.69055 1.05337,5.35565 1.66286,8.02262 0.39819,2.68899 1.03381,5.3194 1.90088,7.89532 1.06994,2.75992 1.51889,5.68971 2.24842,8.54549 0.11795,0.5047 0.2359,1.00941 0.35386,1.51412 0,0 -19.68042,10.59062 -19.68042,10.59062 l 0,0 c -0.1084,-0.48678 -0.2168,-0.97356 -0.32521,-1.46034 -0.72291,-2.79243 -1.1755,-5.64778 -2.1734,-8.36152 -0.97017,-2.63022 -1.64358,-5.35802 -2.01485,-8.13613 -0.58969,-2.67065 -1.27337,-5.30309 -1.68818,-8.00891 -0.62108,-2.65779 -0.69681,-5.32551 -1.05614,-8.02557 -0.55113,-2.71806 -1.5192,-5.32745 -1.82153,-8.09707 -0.7169,-3.05203 -1.54305,-6.06623 -2.12088,-9.15045 -0.73586,-3.19817 -0.96527,-6.50444 -1.89684,-9.66881 -0.37998,-2.7742 -1.27373,-5.34482 -1.99384,-8.03439 -0.66129,-2.39649 -1.45329,-4.80473 -2.6136,-7.00464 -1.27325,-2.24669 -2.3596,-4.60024 -3.47856,-6.92656 -0.85187,-1.99872 -1.99699,-3.87805 -3.15302,-5.71187 -1.14793,-2.12369 -2.78122,-3.97691 -3.60679,-6.2826 -1.70287,-3.24496 -3.13903,-6.59688 -4.56794,-9.97167 -2.14811,-4.83588 -3.45024,-9.95451 -5.06949,-14.98049 0,0 19.55502,-10.76981 19.55502,-10.76981 z"
     inkscape:connector-curvature="0" />
  <g
     style="font-style:normal;font-variant:normal;font-weight:normal;font-stretch:normal;letter-spacing:normal;word-spacing:normal;text-anchor:start;fill:none;stroke:#000000;stroke-linecap:butt;stroke-linejoin:miter;stroke-miterlimit:10.43299961;stroke-opacity:1;stroke-dasharray:none;stroke-dashoffset:0"
     ns0:preamble="/home/erik/.config/inkscape/extensions/anyname.ini"
     ns0:text="$\\pi_{1}\\left(m^{\\Delta}\\right)$"
     word-spacing="normal"
     letter-spacing="normal"
     font-size-adjust="none"
     font-stretch="normal"
     font-weight="normal"
     font-variant="normal"
     font-style="normal"
     stroke-miterlimit="10.433"
     xml:space="preserve"
     transform="matrix(5,0,0,-5,-542.9991,3582.3055)"
     id="g3640">
<path
   id="path3642"
   d="m 226.07,660.94 h 1.12 c -0.33,-1.47 -0.42,-1.9 -0.42,-2.56 0,-0.15 0,-0.42 0.08,-0.76 0.1,-0.44 0.21,-0.49 0.36,-0.49 0.2,0 0.41,0.17 0.41,0.37 0,0.06 0,0.08 -0.06,0.22 -0.29,0.72 -0.29,1.36 -0.29,1.64 0,0.53 0.07,1.06 0.18,1.58 h 1.14 c 0.12,0 0.48,0 0.48,0.34 0,0.24 -0.21,0.24 -0.39,0.24 h -3.34 c -0.22,0 -0.6,0 -1.03,-0.47 -0.35,-0.39 -0.61,-0.84 -0.61,-0.89 0,-0.01 0,-0.1 0.12,-0.1 0.08,0 0.1,0.04 0.16,0.11 0.49,0.77 1.06,0.77 1.26,0.77 h 0.57 c -0.32,-1.2 -0.86,-2.4 -1.27,-3.31 -0.08,-0.15 -0.08,-0.17 -0.08,-0.24 0,-0.18 0.16,-0.26 0.28,-0.26 0.3,0 0.38,0.27 0.5,0.64 0.14,0.46 0.14,0.48 0.27,0.97 z"
   inkscape:connector-curvature="0"
   style="fill:#000000;stroke-width:0" />
<path
   id="path3644"
   d="m 231.44,660.16 0,0.01 0,0.01 0,0.01 0,0.01 0,0 0,0.01 0,0.01 0,0.01 0,0 0,0.01 0,0.01 0,0 0,0.01 0,0 0,0.01 0,0 0,0.01 0,0 -0.01,0.01 0,0.01 0,0.01 0,0 -0.01,0.01 0,0.01 -0.01,0 0,0.01 -0.01,0 -0.01,0 0,0.01 -0.01,0 -0.01,0 -0.01,0 0,0 -0.01,0 -0.01,0 0,0.01 -0.01,0 0,0 -0.01,0 -0.01,0 0,0 -0.01,0 -0.01,0 0,0 -0.01,0 -0.01,0 -0.01,0 -0.01,0 -0.01,0 0,0 c -0.45,-0.44 -1.08,-0.45 -1.37,-0.45 v -0.25 c 0.17,0 0.63,0 1.01,0.2 v -3.55 c 0,-0.23 0,-0.32 -0.7,-0.32 h -0.26 v -0.25 c 0.12,0.01 0.98,0.03 1.24,0.03 0.21,0 1.09,-0.02 1.24,-0.03 v 0.25 h -0.26 c -0.7,0 -0.7,0.09 -0.7,0.32 z"
   inkscape:connector-curvature="0"
   style="fill:#000000;stroke-width:0" />
<path
   id="path3646"
   d="m 239.35,653.89 0,0 0,0.01 0,0 0,0.01 0,0 0,0 0,0 0,0.01 0,0 -0.01,0 0,0.01 0,0 0,0 0,0 0,0.01 0,0 -0.01,0 0,0.01 0,0 -0.01,0.01 0,0 0,0.01 -0.01,0 0,0.01 c -0.46,0.49 -1.13,1.29 -1.55,2.91 -0.23,0.9 -0.32,1.93 -0.32,2.85 0,2.61 0.63,4.44 1.82,5.73 0.09,0.09 0.09,0.11 0.09,0.13 0,0.1 -0.08,0.1 -0.12,0.1 -0.15,0 -0.69,-0.59 -0.82,-0.74 -1.01,-1.2 -1.66,-2.99 -1.66,-5.21 0,-1.41 0.25,-3.41 1.55,-5.08 0.1,-0.12 0.75,-0.88 0.93,-0.88 0.04,0 0.12,0 0.12,0.1 z"
   inkscape:connector-curvature="0"
   style="fill:#000000;stroke-width:0" />
<path
   id="path3648"
   d="m 240.68,657.82 0,-0.01 0,-0.02 -0.01,-0.01 0,-0.02 -0.01,-0.03 0,-0.03 -0.01,-0.03 -0.01,-0.04 -0.01,-0.03 0,-0.03 -0.01,-0.01 0,-0.02 0,-0.01 -0.01,-0.02 0,-0.01 0,-0.01 0,-0.02 -0.01,-0.01 0,-0.01 0,-0.01 0,-0.01 0,-0.01 -0.01,-0.01 0,0 0,-0.01 0,-0.01 c 0,-0.17 0.14,-0.26 0.29,-0.26 0.12,0 0.3,0.08 0.37,0.27 0.01,0.02 0.13,0.49 0.19,0.74 l 0.22,0.89 c 0.06,0.22 0.12,0.44 0.17,0.67 0.04,0.17 0.12,0.46 0.13,0.5 0.14,0.3 0.67,1.21 1.62,1.21 0.45,0 0.54,-0.37 0.54,-0.7 0,-0.25 -0.08,-0.53 -0.15,-0.82 l -0.28,-1.16 -0.2,-0.75 c -0.04,-0.2 -0.13,-0.54 -0.13,-0.59 0,-0.17 0.14,-0.26 0.29,-0.26 0.31,0 0.37,0.24 0.45,0.56 0.13,0.56 0.5,2.01 0.59,2.4 0.03,0.13 0.56,1.32 1.64,1.32 0.43,0 0.54,-0.34 0.54,-0.7 0,-0.56 -0.42,-1.7 -0.62,-2.22 -0.09,-0.24 -0.13,-0.35 -0.13,-0.55 0,-0.47 0.35,-0.81 0.82,-0.81 0.94,0 1.3,1.45 1.3,1.53 0,0.1 -0.09,0.1 -0.12,0.1 -0.1,0 -0.1,-0.04 -0.14,-0.18 -0.15,-0.53 -0.47,-1.24 -1.02,-1.24 -0.17,0 -0.24,0.1 -0.24,0.33 0,0.25 0.09,0.49 0.18,0.71 0.19,0.51 0.61,1.62 0.61,2.18 0,0.65 -0.4,1.07 -1.15,1.07 -0.74,0 -1.25,-0.44 -1.62,-0.97 -0.01,0.13 -0.04,0.47 -0.32,0.71 -0.24,0.21 -0.56,0.26 -0.81,0.26 -0.9,0 -1.38,-0.64 -1.56,-0.87 -0.04,0.57 -0.46,0.87 -0.91,0.87 -0.46,0 -0.65,-0.39 -0.74,-0.57 -0.17,-0.35 -0.3,-0.93 -0.3,-0.96 0,-0.1 0.1,-0.1 0.11,-0.1 0.1,0 0.11,0.01 0.17,0.22 0.17,0.71 0.37,1.19 0.73,1.19 0.16,0 0.31,-0.08 0.31,-0.46 0,-0.21 -0.03,-0.32 -0.16,-0.83 z"
   inkscape:connector-curvature="0"
   style="fill:#000000;stroke-width:0" />
<path
   id="path3650"
   d="m 252.04,665.65 0,0.01 -0.01,0.01 -0.01,0.01 0,0.01 -0.01,0.01 0,0.01 -0.01,0.01 0,0.01 -0.01,0 0,0.01 -0.01,0.01 0,0 -0.01,0.01 0,0.01 -0.01,0 -0.01,0.01 0,0 -0.01,0 0,0.01 -0.01,0 -0.01,0 -0.01,0.01 0,0 -0.01,0 -0.01,0 -0.01,0 -0.01,0.01 -0.01,0 -0.01,0 -0.01,0 -0.01,0 -0.02,0 c -0.08,0 -0.15,-0.02 -0.21,-0.13 l -0.02,-0.55 2.05,-3.71 h -4.09 l 2.04,3.71 0.02,0.55 -2.57,-4.66 c -0.05,-0.08 -0.05,-0.09 -0.05,-0.1 0,-0.07 0.06,-0.07 0.17,-0.07 h 5.34 c 0.11,0 0.16,0 0.16,0.07 0,0.01 0,0.02 -0.04,0.1 z"
   inkscape:connector-curvature="0"
   style="fill:#000000;stroke-width:0" />
<path
   id="path3652"
   d="m 258.63,659.74 0,0.27 -0.01,0.29 -0.02,0.29 -0.03,0.31 -0.04,0.31 -0.05,0.32 -0.06,0.32 -0.08,0.33 -0.04,0.17 -0.05,0.17 -0.05,0.17 -0.06,0.16 -0.06,0.17 -0.06,0.17 -0.07,0.17 -0.08,0.16 -0.08,0.17 -0.08,0.17 -0.09,0.16 -0.1,0.17 -0.1,0.16 -0.11,0.16 -0.11,0.16 -0.12,0.16 c -0.1,0.12 -0.75,0.87 -0.93,0.87 -0.05,0 -0.11,-0.02 -0.11,-0.1 0,-0.04 0.01,-0.07 0.05,-0.1 0.48,-0.51 1.13,-1.32 1.54,-2.9 0.23,-0.9 0.32,-1.92 0.32,-2.85 0,-1 -0.09,-2.02 -0.35,-2.99 -0.38,-1.39 -0.97,-2.18 -1.48,-2.74 -0.08,-0.09 -0.08,-0.11 -0.08,-0.13 0,-0.08 0.06,-0.1 0.11,-0.1 0.15,0 0.7,0.61 0.82,0.75 1.01,1.2 1.66,2.99 1.66,5.2 z"
   inkscape:connector-curvature="0"
   style="fill:#000000;stroke-width:0" />
</g>  <path
     style="fill:#ffffff;fill-opacity:1;fill-rule:evenodd;stroke:none"
     id="path3769"
     d="m 602.89375,41.033321 c 1.62818,4.66217 3.57399,9.168048 5.90858,13.514662 1.41903,2.416535 2.49131,4.962706 3.62067,7.514551 1.16754,2.40989 2.20654,4.870985 3.19777,7.359444 1.46107,2.862268 2.36817,5.895536 2.89841,9.051924 0.23966,3.030287 0.53234,6.022345 1.05061,9.019059 0.52163,2.835968 0.53072,5.718928 1.16501,8.532375 0.70577,2.691223 0.9608,5.458014 1.11559,8.226224 0.36995,2.3593 0.84004,4.70499 1.62244,6.9631 1.06641,2.05596 2.3824,3.95047 3.6674,5.86876 1.69153,1.88103 3.43396,3.70127 5.05274,5.64752 1.7967,2.21432 3.23849,4.45644 4.0671,7.19892 0.48838,1.90877 0.59863,3.8769 0.69977,5.83501 0,0 -19.87763,10.23569 -19.87763,10.23569 l 0,0 c -0.0605,-1.7953 -0.11311,-3.6006 -0.47372,-5.36701 -0.63993,-2.47588 -1.98873,-4.40331 -3.59073,-6.37551 -1.69425,-1.98387 -3.52853,-3.83965 -5.18895,-5.85023 -1.39495,-2.07263 -2.81329,-4.13158 -3.95723,-6.35967 -0.86949,-2.46025 -1.39266,-4.98465 -1.89511,-7.54654 -0.1124,-2.6408 -0.28264,-5.2908 -0.9454,-7.86154 -0.68742,-2.86181 -0.79333,-5.7525 -1.19856,-8.663449 -0.51479,-3.012714 -1.00896,-5.989301 -1.07048,-9.054294 -0.41473,-3.016029 -1.21251,-5.906263 -2.66216,-8.606082 -0.97395,-2.462476 -2.02972,-4.8803 -3.18804,-7.258994 -1.12015,-2.499769 -2.08736,-5.050481 -3.46422,-7.437962 -2.27349,-4.42897 -4.13982,-9.016011 -5.99641,-13.632324 0,0 19.44255,-10.953634 19.44255,-10.953634 z"
     inkscape:connector-curvature="0" />
  <g
     id="g3412"
     transform="matrix(5,0,0,-5,-598.0347,3392.8409)"
     xml:space="preserve"
     stroke-miterlimit="10.433"
     font-style="normal"
     font-variant="normal"
     font-weight="normal"
     font-stretch="normal"
     font-size-adjust="none"
     letter-spacing="normal"
     word-spacing="normal"
     ns0:text="$\\pi_{2}\\left(m^{\\Delta}\\right)$"
     ns0:preamble="/home/erik/.config/inkscape/extensions/anyname.ini"
     style="font-style:normal;font-variant:normal;font-weight:normal;font-stretch:normal;letter-spacing:normal;word-spacing:normal;text-anchor:start;fill:none;stroke:#000000;stroke-linecap:butt;stroke-linejoin:miter;stroke-miterlimit:10.43299961;stroke-opacity:1;stroke-dasharray:none;stroke-dashoffset:0">
<path
   d="m 226.07,660.94 h 1.12 c -0.33,-1.47 -0.42,-1.9 -0.42,-2.56 0,-0.15 0,-0.42 0.08,-0.76 0.1,-0.44 0.21,-0.49 0.36,-0.49 0.2,0 0.41,0.17 0.41,0.37 0,0.06 0,0.08 -0.06,0.22 -0.29,0.72 -0.29,1.36 -0.29,1.64 0,0.53 0.07,1.06 0.18,1.58 h 1.14 c 0.12,0 0.48,0 0.48,0.34 0,0.24 -0.21,0.24 -0.39,0.24 h -3.34 c -0.22,0 -0.6,0 -1.03,-0.47 -0.35,-0.39 -0.61,-0.84 -0.61,-0.89 0,-0.01 0,-0.1 0.12,-0.1 0.08,0 0.1,0.04 0.16,0.11 0.49,0.77 1.06,0.77 1.26,0.77 h 0.57 c -0.32,-1.2 -0.86,-2.4 -1.27,-3.31 -0.08,-0.15 -0.08,-0.17 -0.08,-0.24 0,-0.18 0.16,-0.26 0.28,-0.26 0.3,0 0.38,0.27 0.5,0.64 0.14,0.46 0.14,0.48 0.27,0.97 z"
   id="path3414"
   inkscape:connector-curvature="0"
   style="fill:#000000;stroke-width:0" />
<path
   d="m 232.63,657.01 h -0.24 c -0.02,-0.16 -0.09,-0.57 -0.18,-0.64 -0.06,-0.04 -0.59,-0.04 -0.69,-0.04 h -1.28 c 0.73,0.65 0.97,0.84 1.39,1.17 0.52,0.41 1,0.84 1,1.5 0,0.84 -0.74,1.36 -1.63,1.36 -0.87,0 -1.45,-0.61 -1.45,-1.25 0,-0.35 0.3,-0.39 0.37,-0.39 0.17,0 0.37,0.12 0.37,0.37 0,0.13 -0.05,0.37 -0.41,0.37 0.21,0.5 0.69,0.65 1.01,0.65 0.7,0 1.06,-0.54 1.06,-1.11 0,-0.6 -0.43,-1.08 -0.65,-1.33 l -1.68,-1.66 c -0.07,-0.06 -0.07,-0.07 -0.07,-0.27 h 2.87 z"
   id="path3416"
   inkscape:connector-curvature="0"
   style="fill:#000000;stroke-width:0" />
<path
   d="m 239.35,653.89 0,0 0,0.01 0,0 0,0.01 0,0 0,0 0,0 0,0.01 0,0 -0.01,0 0,0.01 0,0 0,0 0,0 0,0.01 0,0 -0.01,0 0,0.01 0,0 -0.01,0.01 0,0 0,0.01 -0.01,0 0,0.01 c -0.46,0.49 -1.13,1.29 -1.55,2.91 -0.23,0.9 -0.32,1.93 -0.32,2.85 0,2.61 0.63,4.44 1.82,5.73 0.09,0.09 0.09,0.11 0.09,0.13 0,0.1 -0.08,0.1 -0.12,0.1 -0.15,0 -0.69,-0.59 -0.82,-0.74 -1.01,-1.2 -1.66,-2.99 -1.66,-5.21 0,-1.41 0.25,-3.41 1.55,-5.08 0.1,-0.12 0.75,-0.88 0.93,-0.88 0.04,0 0.12,0 0.12,0.1 z"
   id="path3418"
   inkscape:connector-curvature="0"
   style="fill:#000000;stroke-width:0" />
<path
   d="m 240.68,657.82 0,-0.01 0,-0.02 -0.01,-0.01 0,-0.02 -0.01,-0.03 0,-0.03 -0.01,-0.03 -0.01,-0.04 -0.01,-0.03 0,-0.03 -0.01,-0.01 0,-0.02 0,-0.01 -0.01,-0.02 0,-0.01 0,-0.01 0,-0.02 -0.01,-0.01 0,-0.01 0,-0.01 0,-0.01 0,-0.01 -0.01,-0.01 0,0 0,-0.01 0,-0.01 c 0,-0.17 0.14,-0.26 0.29,-0.26 0.12,0 0.3,0.08 0.37,0.27 0.01,0.02 0.13,0.49 0.19,0.74 l 0.22,0.89 c 0.06,0.22 0.12,0.44 0.17,0.67 0.04,0.17 0.12,0.46 0.13,0.5 0.14,0.3 0.67,1.21 1.62,1.21 0.45,0 0.54,-0.37 0.54,-0.7 0,-0.25 -0.08,-0.53 -0.15,-0.82 l -0.28,-1.16 -0.2,-0.75 c -0.04,-0.2 -0.13,-0.54 -0.13,-0.59 0,-0.17 0.14,-0.26 0.29,-0.26 0.31,0 0.37,0.24 0.45,0.56 0.13,0.56 0.5,2.01 0.59,2.4 0.03,0.13 0.56,1.32 1.64,1.32 0.43,0 0.54,-0.34 0.54,-0.7 0,-0.56 -0.42,-1.7 -0.62,-2.22 -0.09,-0.24 -0.13,-0.35 -0.13,-0.55 0,-0.47 0.35,-0.81 0.82,-0.81 0.94,0 1.3,1.45 1.3,1.53 0,0.1 -0.09,0.1 -0.12,0.1 -0.1,0 -0.1,-0.04 -0.14,-0.18 -0.15,-0.53 -0.47,-1.24 -1.02,-1.24 -0.17,0 -0.24,0.1 -0.24,0.33 0,0.25 0.09,0.49 0.18,0.71 0.19,0.51 0.61,1.62 0.61,2.18 0,0.65 -0.4,1.07 -1.15,1.07 -0.74,0 -1.25,-0.44 -1.62,-0.97 -0.01,0.13 -0.04,0.47 -0.32,0.71 -0.24,0.21 -0.56,0.26 -0.81,0.26 -0.9,0 -1.38,-0.64 -1.56,-0.87 -0.04,0.57 -0.46,0.87 -0.91,0.87 -0.46,0 -0.65,-0.39 -0.74,-0.57 -0.17,-0.35 -0.3,-0.93 -0.3,-0.96 0,-0.1 0.1,-0.1 0.11,-0.1 0.1,0 0.11,0.01 0.17,0.22 0.17,0.71 0.37,1.19 0.73,1.19 0.16,0 0.31,-0.08 0.31,-0.46 0,-0.21 -0.03,-0.32 -0.16,-0.83 z"
   id="path3420"
   inkscape:connector-curvature="0"
   style="fill:#000000;stroke-width:0" />
<path
   d="m 252.04,665.65 0,0.01 -0.01,0.01 -0.01,0.01 0,0.01 -0.01,0.01 0,0.01 -0.01,0.01 0,0.01 -0.01,0 0,0.01 -0.01,0.01 0,0 -0.01,0.01 0,0.01 -0.01,0 -0.01,0.01 0,0 -0.01,0 0,0.01 -0.01,0 -0.01,0 -0.01,0.01 0,0 -0.01,0 -0.01,0 -0.01,0 -0.01,0.01 -0.01,0 -0.01,0 -0.01,0 -0.01,0 -0.02,0 c -0.08,0 -0.15,-0.02 -0.21,-0.13 l -0.02,-0.55 2.05,-3.71 h -4.09 l 2.04,3.71 0.02,0.55 -2.57,-4.66 c -0.05,-0.08 -0.05,-0.09 -0.05,-0.1 0,-0.07 0.06,-0.07 0.17,-0.07 h 5.34 c 0.11,0 0.16,0 0.16,0.07 0,0.01 0,0.02 -0.04,0.1 z"
   id="path3422"
   inkscape:connector-curvature="0"
   style="fill:#000000;stroke-width:0" />
<path
   d="m 258.63,659.74 0,0.27 -0.01,0.29 -0.02,0.29 -0.03,0.31 -0.04,0.31 -0.05,0.32 -0.06,0.32 -0.08,0.33 -0.04,0.17 -0.05,0.17 -0.05,0.17 -0.06,0.16 -0.06,0.17 -0.06,0.17 -0.07,0.17 -0.08,0.16 -0.08,0.17 -0.08,0.17 -0.09,0.16 -0.1,0.17 -0.1,0.16 -0.11,0.16 -0.11,0.16 -0.12,0.16 c -0.1,0.12 -0.75,0.87 -0.93,0.87 -0.05,0 -0.11,-0.02 -0.11,-0.1 0,-0.04 0.01,-0.07 0.05,-0.1 0.48,-0.51 1.13,-1.32 1.54,-2.9 0.23,-0.9 0.32,-1.92 0.32,-2.85 0,-1 -0.09,-2.02 -0.35,-2.99 -0.38,-1.39 -0.97,-2.18 -1.48,-2.74 -0.08,-0.09 -0.08,-0.11 -0.08,-0.13 0,-0.08 0.06,-0.1 0.11,-0.1 0.15,0 0.7,0.61 0.82,0.75 1.01,1.2 1.66,2.99 1.66,5.2 z"
   id="path3424"
   inkscape:connector-curvature="0"
   style="fill:#000000;stroke-width:0" />
</g></svg>
