<?xml version="1.0" encoding="UTF-8" standalone="no"?>
<!-- Created with Inkscape (http://www.inkscape.org/) -->

<svg
   xmlns:ns0="http://www.iki.fi/pav/software/textext/"
   xmlns:osb="http://www.openswatchbook.org/uri/2009/osb"
   xmlns:dc="http://purl.org/dc/elements/1.1/"
   xmlns:cc="http://creativecommons.org/ns#"
   xmlns:rdf="http://www.w3.org/1999/02/22-rdf-syntax-ns#"
   xmlns:svg="http://www.w3.org/2000/svg"
   xmlns="http://www.w3.org/2000/svg"
   xmlns:sodipodi="http://sodipodi.sourceforge.net/DTD/sodipodi-0.dtd"
   xmlns:inkscape="http://www.inkscape.org/namespaces/inkscape"
   inkscape:version="0.48.3.1 r9886"
   version="1.1"
   id="svg2"
   height="1052.3622047"
   width="744.09448819"
   sodipodi:docname="pyramid_decoding.eps">
  <sodipodi:namedview
     id="base"
     pagecolor="#ffffff"
     bordercolor="#666666"
     borderopacity="1.0"
     inkscape:pageopacity="0.0"
     inkscape:pageshadow="2"
     inkscape:zoom="0.66503165"
     inkscape:cx="131.63368"
     inkscape:cy="612.07421"
     inkscape:document-units="px"
     inkscape:current-layer="svg2"
     showgrid="false"
     inkscape:window-width="1920"
     inkscape:window-height="1056"
     inkscape:window-x="0"
     inkscape:window-y="24"
     inkscape:window-maximized="1">
    <inkscape:grid
       type="xygrid"
       id="grid3790" />
  </sodipodi:namedview>
  <defs
     id="defs4">
    <linearGradient
       id="linearGradient5248"
       osb:paint="solid">
      <stop
         style="stop-color:#000000;stop-opacity:1;"
         offset="0"
         id="stop5250" />
    </linearGradient>
    <linearGradient
       id="linearGradient5242"
       osb:paint="solid">
      <stop
         style="stop-color:#000000;stop-opacity:1;"
         offset="0"
         id="stop5244" />
    </linearGradient>
    <linearGradient
       id="linearGradient3792"
       osb:paint="solid">
      <stop
         style="stop-color:#ffffff;stop-opacity:1;"
         offset="0"
         id="stop3794" />
    </linearGradient>
  </defs>
  <metadata
     id="metadata7">
    <rdf:RDF>
      <cc:Work
         rdf:about="">
        <dc:format>image/svg+xml</dc:format>
        <dc:type
           rdf:resource="http://purl.org/dc/dcmitype/StillImage" />
        <dc:title></dc:title>
      </cc:Work>
    </rdf:RDF>
  </metadata>
  <g
     inkscape:label="Layer 1"
     inkscape:groupmode="layer"
     id="layer1">
    <g
       ns0:preamble="/home/erik/.config/inkscape/extensions/anyname.ini"
       ns0:text="$L_{0}$"
       text-anchor="start"
       word-spacing="normal"
       letter-spacing="normal"
       font-size-adjust="none"
       font-stretch="normal"
       font-weight="normal"
       font-variant="normal"
       font-style="normal"
       fill-opacity="1"
       fill-rule="evenodd"
       fill="none"
       stroke-opacity="1"
       stroke-dashoffset="0"
       stroke-dasharray="none"
       stroke-miterlimit="10.433"
       stroke-linejoin="miter"
       stroke-linecap="butt"
       stroke="black"
       xml:space="preserve"
       transform="matrix(10.500000,0,0,-10.500000,-2100.000000,7875.000000)"
       id="content">



</g>  </g>
  <path
     inkscape:connector-curvature="0"
     d="m 50.255314,316.4473 0,365.4468 m 23,-365.4468 0,365.4468 m 23,-365.4468 0,365.4468 m 22.999996,-365.4468 0,365.4468 m 23,-365.4468 0,365.4468 m 23,-365.4468 0,365.4468 m 23,-365.4468 0,365.4468 m 23,-365.4468 0,365.4468 m 23,-365.4468 0,365.4468 m 23,-365.4468 0,365.4468 m 23,-365.4468 0,365.4468 m 23,-365.4468 0,365.4468 m 23,-365.4468 0,365.4468 m 23,-365.4468 0,365.4468 m 23,-365.4468 0,365.4468 m 23,-365.4468 0,365.4468 M 50.255314,316.4473 l 365.446806,0 m -365.446806,21 365.446806,0 m -365.446806,21 365.446806,0 m -365.446806,21 365.446806,0 m -365.446806,21 365.446806,0 m -365.446806,21 365.446806,0 m -365.446806,21 365.446806,0 m -365.446806,21 365.446806,0 m -365.446806,21 365.446806,0 m -365.446806,21 365.446806,0 m -365.446806,21 365.446806,0 m -365.446806,21 365.446806,0 m -365.446806,21 365.446806,0 m -365.446806,21 365.446806,0 m -365.446806,21 365.446806,0 m -365.446806,21 365.446806,0 m -365.446806,21 365.446806,0 m -365.446806,21 365.446806,0"
     style="fill:none;stroke:none"
     id="path5318" />
  <g
     id="g3392">
    <path
       style="fill:#969696;stroke:#000000;stroke-width:1px;stroke-linecap:butt;stroke-linejoin:miter;stroke-opacity:1;fill-opacity:1"
       d="M399.801198874 71.3318049922C399.801198874 71.3318049922 460.485537273 72.0746011297 460.485537273 72.0746011297C460.485537273 72.0746011297 433.815303237 102.598206822 433.815303237 102.598206822C433.815303237 102.598206822 491.527837044 102.225158729 491.527837044 102.225158729C491.527837044 102.225158729 465.171328741 132.132712599 465.171328741 132.132712599C465.171328741 132.132712599 332.515838397 132.132712599 332.515838397 132.132712599C332.515838397 132.132712599 399.801198874 71.3318049922 399.801198874 71.3318049922"
       id="path3388"
       inkscape:connector-curvature="0" />
    <path
       style="fill:#969696;stroke:#000000;stroke-width:1px;stroke-linecap:butt;stroke-linejoin:miter;stroke-opacity:1;fill-opacity:1"
       d="M428.345877234 41.7332834739C428.345877234 41.7332834739 368.682170328 41.7332834739 368.682170328 41.7332834739C368.682170328 41.7332834739 395.570916828 12.7695198178 395.570916828 12.7695198178C395.570916828 12.7695198178 460.378387194 12.7695198178 460.378387194 12.7695198178C460.378387194 12.7695198178 428.345877234 41.7332834739 428.345877234 41.7332834739"
       id="path3390"
       inkscape:connector-curvature="0" />
    <g
       transform="matrix(1.3982914,0,2.9474241,1.8256564,-2681.7444,990.18537)"
       id="g9138">
      <path
         id="rect5278-3-0"
         d="M3287.47954203 -535.372309779C3287.47954203 -535.372309779 3455.60086988 -535.372309779 3455.60086988 -535.372309779C3455.60086988 -535.372309779 3241.3181731 -469.979295077 3241.3181731 -469.979295077C3241.3181731 -469.979295077 3068.74576461 -469.979295077 3068.74576461 -469.979295077C3068.74576461 -469.979295077 3287.47954203 -535.372309779 3287.47954203 -535.372309779"
         style="fill:none;stroke:#000000;stroke-width:2;stroke-miterlimit:4;stroke-opacity:1"
         inkscape:connector-curvature="0" />
      <path
         inkscape:connector-curvature="0"
         d="M3287.60536872 -535.550519842C3287.60536872 -535.550519842 3067.63475249 -469.791486933 3067.63475249 -469.791486933M3330.12089472 -535.550519842C3330.12089472 -535.550519842 3111.28243676 -469.791486933 3111.28243676 -469.791486933M3372.63661893 -535.550519842C3372.63661893 -535.550519842 3154.93002107 -469.791486933 3154.93002107 -469.791486933M3415.15224404 -535.550519842C3415.15224404 -535.550519842 3198.5775054 -469.791486933 3198.5775054 -469.791486933M3287.60536872 -535.550519842C3287.60536872 -535.550519842 3456.65511099 -535.550519842 3456.65511099 -535.550519842M3233.36423687 -519.335436933C3233.36423687 -519.335436933 3403.52391257 -519.335436933 3403.52391257 -519.335436933M3178.40621495 -502.906031163C3178.40621495 -502.906031163 3349.69043731 -502.906031163 3349.69043731 -502.906031163M3122.7169577 -486.258016301C3122.7169577 -486.258016301 3295.14064374 -486.258016301 3295.14064374 -486.258016301"
         style="fill:none;stroke:#000000;stroke-width:1pt;stroke-linecap:butt;stroke-linejoin:miter;stroke-opacity:1"
         id="path7920" />
    </g>
    <path
       style="fill:#000000;fill-opacity:1;fill-rule:evenodd;stroke:none"
       d="M455.615794524 12.8342602093C455.615794524 12.8342602093 572.320665388 12.8342602093 572.320665388 12.8342602093C572.320665388 12.8342602093 546.258353001 41.9446536143 546.258353001 41.9446536143C546.258353001 41.9446536143 428.799966408 41.9446536143 428.799966408 41.9446536143C428.799966408 41.9446536143 455.615794524 12.8342602093 455.615794524 12.8342602093"
       id="rect7928-8"
       inkscape:connector-curvature="0" />
    <path
       style="fill:#000000;fill-opacity:1;fill-rule:evenodd;stroke:none"
       d="M252.124311378 102.288509597C252.124311378 102.288509597 372.657141708 102.288509597 372.657141708 102.288509597C372.657141708 102.288509597 345.234676979 132.053601532 345.234676979 132.053601532C345.234676979 132.053601532 223.921733103 132.053601532 223.921733103 132.053601532C223.921733103 132.053601532 252.124311378 102.288509597 252.124311378 102.288509597"
       id="rect7928-8-0"
       inkscape:connector-curvature="0" />
    <path
       style="fill:#000000;fill-opacity:1;fill-rule:evenodd;stroke:none"
       d="M340.8359178 72.0400697751C340.8359178 72.0400697751 400.460182553 72.0400697751 400.460182553 72.0400697751C400.460182553 72.0400697751 360.411512882 115.509389427 360.411512882 115.509389427C360.411512882 115.509389427 300.219898751 115.509389427 300.219898751 115.509389427C300.219898751 115.509389427 340.8359178 72.0400697751 340.8359178 72.0400697751"
       id="rect7928-8-0-4"
       inkscape:connector-curvature="0" />
  </g>
  <path
     style="fill:none;stroke:#000000;stroke-width:0.95304644px;stroke-linecap:butt;stroke-linejoin:miter;stroke-opacity:1"
     d="M 13.953383,690.65387 237.06491,398.88568 720.7262,399.90052 500.65017,690.65387 z"
     id="path9660"
     inkscape:connector-curvature="0" />
  <path
     inkscape:connector-curvature="0"
     id="path9954"
     d="m 137.05096,355.79016 155.61723,-178.68349 340.5692,0.3588 -155.25946,177.96589 z"
     style="fill:none;stroke:#000000;stroke-width:0.95304644px;stroke-linecap:butt;stroke-linejoin:miter;stroke-opacity:1" />
  <path
     style="fill:none;stroke:#000000;stroke-width:0.95304644px;stroke-linecap:butt;stroke-linejoin:miter;stroke-opacity:1"
     d="m 220.87541,133.7572 113.20607,-122.542648 242.45697,0 L 465.48866,133.7572 z"
     id="path10542"
     inkscape:connector-curvature="0" />
  <path
     style="fill:none;stroke:#000000;stroke-width:3.81218576;stroke-linecap:butt;stroke-linejoin:miter;stroke-miterlimit:4;stroke-opacity:1;stroke-dasharray:15.24874303, 15.24874303;stroke-dashoffset:0"
     d="M 13.953383,691.16129 224.41686,122.8476"
     id="path7387"
     inkscape:connector-curvature="0" />
  <path
     style="fill:none;stroke:#000000;stroke-width:3.81218576;stroke-linecap:butt;stroke-linejoin:miter;stroke-miterlimit:4;stroke-opacity:1;stroke-dasharray:15.24874303, 15.24874303;stroke-dashoffset:0"
     d="M 721.47076,397.41122 574.08152,4.1640092"
     id="path7389"
     inkscape:connector-curvature="0" />
  <path
     style="fill:none;stroke:#000000;stroke-width:3.81218576;stroke-linecap:butt;stroke-linejoin:miter;stroke-miterlimit:4;stroke-opacity:1;stroke-dasharray:15.24874303, 15.24874303;stroke-dashoffset:0"
     d="M 495.55797,691.0913 466.57999,129.56491"
     id="path7389-8"
     inkscape:connector-curvature="0" />
  <g
     style="font-style:normal;font-variant:normal;font-weight:normal;font-stretch:normal;letter-spacing:normal;word-spacing:normal;text-anchor:start;fill:none;stroke:#000000;stroke-linecap:butt;stroke-linejoin:miter;stroke-miterlimit:10.43299961;stroke-opacity:1;stroke-dasharray:none;stroke-dashoffset:0"
     id="g3658"
     transform="matrix(5,0,0,-5,-487.50489,3858.4533)"
     xml:space="preserve"
     stroke-miterlimit="10.433"
     font-style="normal"
     font-variant="normal"
     font-weight="normal"
     font-stretch="normal"
     font-size-adjust="none"
     letter-spacing="normal"
     word-spacing="normal"
     ns0:text="$m^{\\Delta}$"
     ns0:preamble="/home/erik/.config/inkscape/extensions/anyname.ini">


</g>  <g
     id="g4567">
    <path
       style="fill:#969696;fill-opacity:1;stroke:#000000;stroke-width:1px;stroke-linecap:butt;stroke-linejoin:miter;stroke-opacity:1"
       d="M384.734352625 266.402779664C384.734352625 266.402779664 471.376754585 266.772317055 471.376754585 266.772317055C471.376754585 266.772317055 432.197827248 311.10726656 432.197827248 311.10726656C432.197827248 311.10726656 514.361971891 311.063874649 514.361971891 311.063874649C514.361971891 311.063874649 477.151264142 353.125704714 477.151264142 353.125704714C477.151264142 353.125704714 294.963415111 354.235854627 294.963415111 354.235854627C294.963415111 354.235854627 384.734352625 266.402779664 384.734352625 266.402779664"
       id="path4135"
       inkscape:connector-curvature="0" />
    <path
       style="fill:#969696;fill-opacity:1;fill-rule:evenodd;stroke:none"
       d="M296.301888636 353.456029781C296.508157319 353.219375368 316.47299474 333.657507076 340.670930005 309.982539433C364.871876328 286.30461834 384.710475195 266.888761479 384.753965377 266.838867966C384.853678517 266.724473435 450.371169297 266.940882442 462.020262308 267.093975051C462.020262308 267.093975051 470.676339669 267.207735001 470.676339669 267.207735001C470.676339669 267.207735001 468.003676378 270.095200981 468.003676378 270.095200981C466.533738618 271.683277505 457.699145902 281.649609186 448.372002314 292.241744759C448.372002314 292.241744759 431.415752376 311.497691876 431.415752376 311.497691876C431.415752376 311.497691876 472.580001938 311.475762819 472.580001938 311.475762819C472.580001938 311.475762819 513.704226294 311.453855085 513.704226294 311.453855085C513.704226294 311.453855085 511.174778435 314.175486879 511.174778435 314.175486879C509.783602261 315.672362023 501.527735788 324.971245397 492.829055651 334.838933818C481.27015871 347.951228967 476.936386968 352.778685763 476.722357478 352.780458293C472.492159571 352.815466861 300.859718909 353.877504752 298.845791086 353.881100833C295.962084086 353.886041576 295.931343221 353.881160762 296.301888636 353.456029781C296.301888636 353.456029781 296.301888636 353.456029781 296.301888636 353.456029781"
       id="path4137"
       inkscape:connector-curvature="0" />
    <path
       style="fill:#969696;fill-opacity:1;stroke:#000000;stroke-width:1px;stroke-linecap:butt;stroke-linejoin:miter;stroke-opacity:1"
       d="M430.104486475 222.378714028C430.104486475 222.378714028 341.181196109 222.332446326 341.181196109 222.332446326C341.181196109 222.332446326 379.012131196 178.615292266 379.012131196 178.615292266C379.012131196 178.615292266 482.604822374 179.093129705 482.604822374 179.093129705C482.604822374 179.093129705 430.104486475 222.378714028 430.104486475 222.378714028"
       id="path4139"
       inkscape:connector-curvature="0" />
    <path
       inkscape:connector-curvature="0"
       style="fill:none;stroke:#000000;stroke-width:4.27790976;stroke-miterlimit:4;stroke-opacity:1"
       d="M293.35327293 178.265965873C293.35327293 178.265965873 628.466601115 179.660764794 628.466601115 179.660764794C628.466601115 179.660764794 477.447004142 353.243742928 477.447004142 353.243742928C477.447004142 353.243742928 140.963567874 354.633751867 140.963567874 354.633751867C140.963567874 354.633751867 293.351979651 178.265964528 293.351979651 178.265964528"
       id="rect5278-3" />
    <path
       id="path7897"
       style="fill:none;stroke:#000000;stroke-width:2.13895493pt;stroke-linecap:butt;stroke-linejoin:miter;stroke-opacity:1"
       d="M293.860607189 177.768085371C293.860607189 177.768085371 138.550027023 355.13065713 138.550027023 355.13065713M336.830836668 177.947949211C336.830836668 177.947949211 181.700278773 354.951427778 181.700278773 354.951427778M379.627167462 178.127093551C379.627167462 178.127093551 224.676423808 354.772899119 224.676423808 354.772899119M422.250653558 178.30549089C422.250653558 178.30549089 267.479495955 354.595107992 267.479495955 354.595107992M464.702191716 178.483193683C464.702191716 178.483193683 310.110591948 354.418037072 310.110591948 354.418037072M506.983117429 178.660164693C506.983117429 178.660164693 352.570832736 354.241659233 352.570832736 354.241659233M549.094355601 178.83643631C549.094355601 178.83643631 394.86049571 354.066002258 394.86049571 354.066002258M591.036217861 179.011990252C591.036217861 179.011990252 436.981942737 353.89103287 436.981942737 353.89103287M293.860607189 177.768085371C293.860607189 177.768085371 630.824881408 179.178534623 630.824881408 179.178534623M274.27699843 200.132299701C274.27699843 200.132299701 611.422108128 201.186706141 611.422108128 201.186706141M254.708835431 222.478882161C254.708835431 222.478882161 592.034170067 223.177806451 592.034170067 223.177806451M235.156063469 244.807879646C235.156063469 244.807879646 572.661335893 245.151905297 572.661335893 245.151905297M215.61865975 267.119334169C215.61865975 267.119334169 553.303440565 267.108570114 553.303440565 267.108570114M196.096671979 289.412825465C196.096671979 289.412825465 533.960609343 289.048632981 533.960609343 289.048632981M176.589956066 311.689599363C176.589956066 311.689599363 514.632674716 310.972136211 514.632674716 310.972136211M157.09859392 333.948457504C157.09859392 333.948457504 495.319655214 332.878263874 495.319655214 332.878263874"
       inkscape:connector-curvature="0" />
    <path
       style="fill:#000000;fill-opacity:1;fill-rule:evenodd;stroke:none"
       d="M176.008247168 311.116707521C176.008247168 311.116707521 262.306021663 311.071260538 262.306021663 311.071260538C262.306021663 311.071260538 225.22674907 353.627997194 225.22674907 353.627997194C225.22674907 353.627997194 138.907448612 353.716736232 138.907448612 353.716736232C138.907448612 353.716736232 176.008247168 311.116707521 176.008247168 311.116707521"
       id="rect3293" />
    <path
       style="fill:#000000;fill-opacity:1;fill-rule:evenodd;stroke:none"
       d="M262.035189227 311.382109098C262.035189227 311.382109098 348.157839249 311.336438788 348.157839249 311.336438788C348.157839249 311.336438788 311.100178882 353.849859849 311.100178882 353.849859849C311.100178882 353.849859849 224.956013928 353.938734085 224.956013928 353.938734085C224.956013928 353.938734085 262.035189227 311.382109098 262.035189227 311.382109098"
       id="rect3293-6" />
    <path
       style="fill:#000000;fill-opacity:1;fill-rule:evenodd;stroke:none"
       d="M301.204567509 266.808192494C301.204567509 266.808192494 387.30398543 266.807791451 387.30398543 266.807791451C387.30398543 266.807791451 347.97575193 311.925991815 347.97575193 311.925991815C347.97575193 311.925991815 261.853485583 311.97226118 261.853485583 311.97226118C261.853485583 311.97226118 301.204567509 266.808192494 301.204567509 266.808192494"
       id="rect3293-6-8" />
    <path
       style="fill:#000000;fill-opacity:1;fill-rule:evenodd;stroke:none"
       d="M548.100451206 178.790600535C548.100451206 178.790600535 629.68352338 178.875185014 629.68352338 178.875185014C629.68352338 178.875185014 591.013282653 223.201402268 591.013282653 223.201402268C591.013282653 223.201402268 509.408795377 223.159656506 509.408795377 223.159656506C509.408795377 223.159656506 548.100451206 178.790600535 548.100451206 178.790600535"
       id="rect3293-6-8-0" />
    <path
       style="fill:#000000;fill-opacity:1;fill-rule:evenodd;stroke:none"
       d="M465.45134878 177.963880998C465.45134878 177.963880998 549.262286741 178.051509456 549.262286741 178.051509456C549.262286741 178.051509456 510.570514663 222.420582806 510.570514663 222.420582806C510.570514663 222.420582806 426.737608169 222.376963684 426.737608169 222.376963684C426.737608169 222.376963684 465.45134878 177.963880998 465.45134878 177.963880998"
       id="rect3293-6-8-0-3" />
  </g>
  <g
     transform="matrix(1.010829,0,0.03119885,1,-21.21322,0)"
     id="g4711">
    <path
       style="fill:#969696;fill-opacity:1;stroke:#000000;stroke-width:1px;stroke-linecap:butt;stroke-linejoin:miter;stroke-opacity:1"
       d="m 253.29429,689.88551 c 0,0 245.17577,-1.16949 245.17577,-1.16949 0,0 53.11741,-70.17065 53.11741,-70.17065 0,0 -116.27288,-0.0604 -116.27288,-0.0604 0,0 56.65174,-72.98706 56.65174,-72.98706 0,0 -131.20211,-0.52671 -131.20211,-0.52671 0,0 -107.46993,144.91434 -107.46993,144.91434"
       id="path4260"
       inkscape:connector-curvature="0" />
    <path
       style="fill:#969696;fill-opacity:1;stroke:#000000;stroke-width:1px;stroke-linecap:butt;stroke-linejoin:miter;stroke-opacity:1"
       d="m 435.67647,472.50502 c 0,0 -128.05871,-0.3957 -128.05871,-0.3957 0,0 55.5417,-70.83103 55.5417,-70.83103 0,0 133.12681,0.8592 133.12681,0.8592 0,0 -60.6098,70.36753 -60.6098,70.36753"
       id="path4262"
       inkscape:connector-curvature="0" />
    <path
       style="fill:none;stroke:#000000;stroke-width:3.48253179;stroke-miterlimit:4;stroke-opacity:1"
       d="m 244.34796,400.54271 c 0,0 471.34589,2.95668 471.34589,2.95668 0,0 -217.96791,285.65353 -217.96791,285.65353 0,0 -480.237787,-0.0132 -480.237787,-0.0132 0,0 226.859637,-288.59665 226.859637,-288.59665"
       id="rect5278"
       inkscape:connector-curvature="0" />
    <path
       inkscape:connector-curvature="0"
       id="path5338"
       style="fill:none;stroke:#000000;stroke-width:2.08951926;stroke-linecap:butt;stroke-linejoin:miter;stroke-miterlimit:4;stroke-opacity:1;stroke-dasharray:none"
       d="m 243.70044,399.66332 c 0,0 -228.152873,290.21779 -228.152873,290.21779 M 273.78932,399.85264 c 0,0 -227.577904,290.02885 -227.577904,290.02885 M 303.83905,400.0417 c 0,0 -227.004229,289.84016 -227.004229,289.84016 M 333.84971,400.23053 c 0,0 -226.43188,289.65171 -226.43188,289.65171 M 363.82137,400.4191 c 0,0 -225.86084,289.46352 -225.86084,289.46352 m 255.7936,-289.2752 c 0,0 -225.29113,289.27558 -225.29113,289.27558 M 423.64797,400.79551 c 0,0 -224.72261,289.08786 -224.72261,289.08786 M 453.50312,400.98336 c 0,0 -224.15546,288.90039 -224.15546,288.90039 m 253.97187,-288.7128 c 0,0 -223.58962,288.71316 -223.58962,288.71316 M 513.09727,401.3583 c 0,0 -223.02496,288.5262 -223.02496,288.5262 M 542.83652,401.54543 c 0,0 -222.46168,288.33944 -222.46168,288.33944 M 572.53731,401.73229 c 0,0 -221.89965,288.15295 -221.89965,288.15295 M 602.19965,401.91892 c 0,0 -221.33886,287.9667 -221.33886,287.9667 M 631.82375,402.10531 c 0,0 -220.77946,287.78067 -220.77946,287.78067 M 661.40953,402.29146 c 0,0 -220.22121,287.59489 -220.22121,287.59489 M 690.95721,402.47737 c 0,0 -219.66435,287.40935 -219.66435,287.40935 M 243.70044,399.66332 c 0,0 473.95644,2.98204 473.95644,2.98204 M 229.5427,417.67242 c 0,0 474.51252,2.79976 474.51252,2.79976 m -488.69506,15.2409 c 0,0 475.06987,2.61688 475.06987,2.61688 m -489.27732,15.45545 c 0,0 475.62838,2.43333 475.62838,2.43333 m -489.86077,15.67072 c 0,0 476.18819,2.24915 476.18819,2.24915 m -490.4456,15.88673 c 0,0 476.74923,2.06431 476.74923,2.06431 m -491.03171,16.10347 c 0,0 477.3114,1.87883 477.3114,1.87883 m -491.61902,16.32092 c 0,0 477.87489,1.6927 477.87489,1.6927 m -492.20774,16.53916 c 0,0 478.43962,1.50589 478.43962,1.50589 m -492.79774,16.75809 c 0,0 479.00559,1.31845 479.00559,1.31845 m -493.38906,16.9778 c 0,0 479.57281,1.13032 479.57281,1.13032 M 86.58947,599.51353 c 0,0 480.14135,0.94155 480.14135,0.94155 M 72.155105,617.87451 c 0,0 480.711085,0.7521 480.711085,0.7521 M 57.695183,636.26799 c 0,0 481.282057,0.56199 481.282057,0.56199 M 43.209662,654.69405 c 0,0 481.854348,0.37122 481.854348,0.37122 M 28.698437,673.1528 c 0,0 482.427843,0.17976 482.427843,0.17976" />
    <path
       inkscape:connector-curvature="0"
       id="rect4186"
       d="m 73.179574,617.51493 c 0,0 120.186366,0.0631 120.186366,0.0631 0,0 -54.254,71.13292 -54.254,71.13292 0,0 -120.370076,-0.002 -120.370076,-0.002 0,0 54.43771,-71.19438 54.43771,-71.19438"
       style="fill:#000000;fill-opacity:1;fill-rule:evenodd;stroke:none" />
    <path
       inkscape:connector-curvature="0"
       id="rect4186-8"
       d="m 192.03523,617.67032 c 0,0 122.52119,0.0643 122.52119,0.0643 0,0 -54.06905,71.07113 -54.06905,71.07113 0,0 -122.70823,-0.002 -122.70823,-0.002 0,0 54.25609,-71.13378 54.25609,-71.13378"
       style="fill:#000000;fill-opacity:1;fill-rule:evenodd;stroke:none" />
    <path
       inkscape:connector-curvature="0"
       id="rect4186-1"
       d="m 250.05361,545.25422 c 0,0 120.80458,0.12633 120.80458,0.12633 0,0 -55.12896,72.46627 -55.12896,72.46627 0,0 -120.99281,-0.0634 -120.99281,-0.0634 0,0 55.31719,-72.52921 55.31719,-72.52921"
       style="fill:#000000;fill-opacity:1;fill-rule:evenodd;stroke:none" />
    <path
       inkscape:connector-curvature="0"
       id="rect4186-1-4"
       d="m 482.20077,401.52627 c 0,0 234.68851,0.48884 234.68851,0.48884 0,0 -54.50834,72.01026 -54.50834,72.01026 0,0 -235.05248,-0.36731 -235.05248,-0.36731 0,0 54.87231,-72.13179 54.87231,-72.13179"
       style="fill:#000000;fill-opacity:1;fill-rule:evenodd;stroke:none" />
  </g>
  <g
     style="font-style:normal;font-variant:normal;font-weight:normal;font-stretch:normal;letter-spacing:normal;word-spacing:normal;text-anchor:start;fill:none;stroke:#000000;stroke-linecap:butt;stroke-linejoin:miter;stroke-miterlimit:10.43299961;stroke-opacity:1;stroke-dasharray:none;stroke-dashoffset:0"
     ns0:preamble="/home/erik/.config/inkscape/extensions/anyname.ini"
     ns0:text="$\\phi_{2}\\left(\\pi_{2}\\left(m^{\\Delta}\\right)\\right)$"
     word-spacing="normal"
     letter-spacing="normal"
     font-size-adjust="none"
     font-stretch="normal"
     font-weight="normal"
     font-variant="normal"
     font-style="normal"
     stroke-miterlimit="10.433"
     xml:space="preserve"
     transform="matrix(5,0,0,-5,-510.8208,3877.0284)"
     id="g4898">
<path
   id="path4900"
   d="m 227.78,663.89 0,0 0,0 0,0 0,0.01 0,0 0,0 0,0 0,0 0,0.01 0,0 0,0 0,0.01 0.01,0 0,0.01 0,0.01 0,0 0,0.01 0,0 0,0.01 0.01,0.02 0,0 0,0.01 0,0 0,0.01 0,0 0.01,0.01 0,0 0,0.01 0,0 0,0 0,0 0,0 0,0 0,0.01 0,0 0,0 0,0 0,0 0,0 c 0,0.01 0,0.1 -0.12,0.1 -0.1,0 -0.11,-0.03 -0.15,-0.2 l -0.58,-2.29 c -1.58,-0.05 -3.04,-1.37 -3.04,-2.73 0,-0.94 0.7,-1.73 1.91,-1.79 l 0.05,0.21 c -0.6,0.03 -1.31,0.38 -1.31,1.38 0,1.19 0.85,2.58 2.33,2.71 l -1.02,-4.09 -0.05,-0.21 c -0.08,-0.31 -0.15,-0.63 -0.23,-0.94 -0.12,-0.46 -0.22,-0.84 -0.22,-0.87 0,-0.1 0.07,-0.11 0.12,-0.11 0.05,0 0.07,0.01 0.1,0.04 0.02,0.02 0.08,0.26 0.11,0.4 l 0.38,1.48 0.05,0.21 1.02,4.09 c 0.76,-0.04 1.33,-0.5 1.33,-1.37 0,-1.18 -0.86,-2.6 -2.35,-2.72 l -0.05,-0.21 c 1.6,0.04 3.04,1.39 3.04,2.72 0,0.78 -0.52,1.7 -1.91,1.8 z"
   inkscape:connector-curvature="0"
   style="fill:#000000;stroke-width:0" />
<path
   id="path4902"
   d="m 232.88,657.01 h -0.23 c -0.02,-0.16 -0.09,-0.57 -0.18,-0.64 -0.06,-0.04 -0.59,-0.04 -0.69,-0.04 h -1.28 c 0.73,0.65 0.97,0.84 1.39,1.17 0.51,0.41 0.99,0.84 0.99,1.5 0,0.84 -0.73,1.36 -1.62,1.36 -0.87,0 -1.45,-0.61 -1.45,-1.25 0,-0.35 0.3,-0.39 0.37,-0.39 0.16,0 0.36,0.12 0.36,0.37 0,0.13 -0.04,0.37 -0.41,0.37 0.22,0.5 0.69,0.65 1.02,0.65 0.7,0 1.06,-0.54 1.06,-1.11 0,-0.6 -0.43,-1.08 -0.66,-1.33 l -1.67,-1.66 c -0.07,-0.06 -0.07,-0.07 -0.07,-0.27 h 2.87 z"
   inkscape:connector-curvature="0"
   style="fill:#000000;stroke-width:0" />
<path
   id="path4904"
   d="m 239.61,653.89 0,0 0,0.01 0,0 0,0.01 0,0 0,0 -0.01,0 0,0.01 0,0 0,0 0,0.01 0,0 0,0 0,0 0,0.01 -0.01,0 0,0 0,0.01 0,0 -0.01,0.01 0,0 -0.01,0.01 0,0 0,0.01 c -0.46,0.49 -1.14,1.29 -1.56,2.91 -0.22,0.9 -0.31,1.93 -0.31,2.85 0,2.61 0.62,4.44 1.82,5.73 0.09,0.09 0.09,0.11 0.09,0.13 0,0.1 -0.08,0.1 -0.12,0.1 -0.15,0 -0.69,-0.59 -0.82,-0.74 -1.01,-1.2 -1.66,-2.99 -1.66,-5.21 0,-1.41 0.25,-3.41 1.55,-5.08 0.1,-0.12 0.75,-0.88 0.93,-0.88 0.04,0 0.12,0 0.12,0.1 z"
   inkscape:connector-curvature="0"
   style="fill:#000000;stroke-width:0" />
<path
   id="path4906"
   d="m 242.7,660.94 h 1.12 c -0.32,-1.47 -0.41,-1.9 -0.41,-2.56 0,-0.15 0,-0.42 0.08,-0.76 0.1,-0.44 0.21,-0.49 0.36,-0.49 0.19,0 0.4,0.17 0.4,0.37 0,0.06 0,0.08 -0.06,0.22 -0.29,0.72 -0.29,1.36 -0.29,1.64 0,0.53 0.07,1.06 0.18,1.58 h 1.14 c 0.13,0 0.49,0 0.49,0.34 0,0.24 -0.21,0.24 -0.4,0.24 h -3.34 c -0.21,0 -0.59,0 -1.03,-0.47 -0.35,-0.39 -0.61,-0.84 -0.61,-0.89 0,-0.01 0,-0.1 0.12,-0.1 0.08,0 0.1,0.04 0.16,0.11 0.49,0.77 1.07,0.77 1.27,0.77 h 0.56 c -0.32,-1.2 -0.85,-2.4 -1.27,-3.31 -0.08,-0.15 -0.08,-0.17 -0.08,-0.24 0,-0.18 0.16,-0.26 0.29,-0.26 0.3,0 0.38,0.27 0.5,0.64 0.13,0.46 0.13,0.48 0.26,0.97 z"
   inkscape:connector-curvature="0"
   style="fill:#000000;stroke-width:0" />
<path
   id="path4908"
   d="m 249.26,657.01 h -0.24 c -0.02,-0.16 -0.09,-0.57 -0.18,-0.64 -0.05,-0.04 -0.59,-0.04 -0.69,-0.04 h -1.28 c 0.73,0.65 0.98,0.84 1.39,1.17 0.52,0.41 1,0.84 1,1.5 0,0.84 -0.74,1.36 -1.63,1.36 -0.86,0 -1.45,-0.61 -1.45,-1.25 0,-0.35 0.3,-0.39 0.37,-0.39 0.17,0 0.37,0.12 0.37,0.37 0,0.13 -0.05,0.37 -0.41,0.37 0.22,0.5 0.69,0.65 1.02,0.65 0.69,0 1.05,-0.54 1.05,-1.11 0,-0.6 -0.43,-1.08 -0.65,-1.33 l -1.68,-1.66 c -0.07,-0.06 -0.07,-0.07 -0.07,-0.27 h 2.87 z"
   inkscape:connector-curvature="0"
   style="fill:#000000;stroke-width:0" />
<path
   id="path4910"
   d="m 255.98,653.89 0,0 0,0.01 0,0 0,0.01 0,0 0,0 0,0 0,0.01 0,0 0,0 0,0.01 -0.01,0 0,0 0,0 0,0.01 0,0 0,0 -0.01,0.01 0,0 0,0.01 -0.01,0 0,0.01 0,0 -0.01,0.01 c -0.45,0.49 -1.13,1.29 -1.55,2.91 -0.23,0.9 -0.32,1.93 -0.32,2.85 0,2.61 0.63,4.44 1.82,5.73 0.09,0.09 0.09,0.11 0.09,0.13 0,0.1 -0.08,0.1 -0.12,0.1 -0.15,0 -0.68,-0.59 -0.81,-0.74 -1.02,-1.2 -1.67,-2.99 -1.67,-5.21 0,-1.41 0.25,-3.41 1.56,-5.08 0.1,-0.12 0.74,-0.88 0.92,-0.88 0.04,0 0.12,0 0.12,0.1 z"
   inkscape:connector-curvature="0"
   style="fill:#000000;stroke-width:0" />
<path
   id="path4912"
   d="m 257.32,657.82 -0.01,-0.01 0,-0.02 0,-0.01 -0.01,-0.02 0,-0.03 -0.01,-0.03 -0.01,-0.03 -0.01,-0.04 0,-0.03 -0.01,-0.03 0,-0.01 -0.01,-0.02 0,-0.01 0,-0.02 -0.01,-0.01 0,-0.01 0,-0.02 -0.01,-0.01 0,-0.01 0,-0.01 0,-0.01 0,-0.01 0,-0.01 0,0 0,-0.01 0,-0.01 c 0,-0.17 0.13,-0.26 0.28,-0.26 0.12,0 0.3,0.08 0.37,0.27 0.01,0.02 0.13,0.49 0.19,0.74 l 0.22,0.89 c 0.06,0.22 0.12,0.44 0.17,0.67 0.04,0.17 0.12,0.46 0.13,0.5 0.15,0.3 0.68,1.21 1.62,1.21 0.45,0 0.54,-0.37 0.54,-0.7 0,-0.25 -0.07,-0.53 -0.15,-0.82 l -0.28,-1.16 -0.2,-0.75 c -0.04,-0.2 -0.13,-0.54 -0.13,-0.59 0,-0.17 0.14,-0.26 0.29,-0.26 0.31,0 0.37,0.24 0.45,0.56 0.14,0.56 0.5,2.01 0.59,2.4 0.03,0.13 0.56,1.32 1.65,1.32 0.42,0 0.53,-0.34 0.53,-0.7 0,-0.56 -0.42,-1.7 -0.61,-2.22 -0.09,-0.24 -0.13,-0.35 -0.13,-0.55 0,-0.47 0.35,-0.81 0.81,-0.81 0.94,0 1.31,1.45 1.31,1.53 0,0.1 -0.09,0.1 -0.12,0.1 -0.1,0 -0.1,-0.04 -0.15,-0.18 -0.15,-0.53 -0.47,-1.24 -1.02,-1.24 -0.17,0 -0.24,0.1 -0.24,0.33 0,0.25 0.09,0.49 0.18,0.71 0.19,0.51 0.61,1.62 0.61,2.18 0,0.65 -0.4,1.07 -1.14,1.07 -0.75,0 -1.26,-0.44 -1.63,-0.97 -0.01,0.13 -0.04,0.47 -0.31,0.71 -0.25,0.21 -0.57,0.26 -0.82,0.26 -0.9,0 -1.38,-0.64 -1.55,-0.87 -0.05,0.57 -0.47,0.87 -0.92,0.87 -0.45,0 -0.65,-0.39 -0.73,-0.57 -0.18,-0.35 -0.31,-0.93 -0.31,-0.96 0,-0.1 0.1,-0.1 0.12,-0.1 0.1,0 0.11,0.01 0.17,0.22 0.16,0.71 0.36,1.19 0.72,1.19 0.16,0 0.31,-0.08 0.31,-0.46 0,-0.21 -0.03,-0.32 -0.16,-0.83 z"
   inkscape:connector-curvature="0"
   style="fill:#000000;stroke-width:0" />
<path
   id="path4914"
   d="m 268.67,665.65 0,0.01 -0.01,0.01 0,0.01 -0.01,0.01 0,0.01 -0.01,0.01 -0.01,0.01 0,0.01 -0.01,0 0,0.01 -0.01,0.01 0,0 -0.01,0.01 0,0.01 -0.01,0 0,0.01 -0.01,0 -0.01,0 0,0.01 -0.01,0 -0.01,0 0,0.01 -0.01,0 -0.01,0 -0.01,0 -0.01,0 -0.01,0.01 -0.01,0 -0.01,0 -0.01,0 -0.01,0 -0.01,0 c -0.09,0 -0.16,-0.02 -0.22,-0.13 l -0.01,-0.55 2.04,-3.71 h -4.09 l 2.05,3.71 0.01,0.55 -2.57,-4.66 c -0.05,-0.08 -0.05,-0.09 -0.05,-0.1 0,-0.07 0.06,-0.07 0.17,-0.07 h 5.34 c 0.11,0 0.17,0 0.17,0.07 0,0.01 0,0.02 -0.05,0.1 z"
   inkscape:connector-curvature="0"
   style="fill:#000000;stroke-width:0" />
<path
   id="path4916"
   d="m 275.26,659.74 0,0.27 -0.01,0.29 -0.02,0.29 -0.03,0.31 -0.03,0.31 -0.05,0.32 -0.07,0.32 -0.07,0.33 -0.05,0.17 -0.05,0.17 -0.05,0.17 -0.05,0.16 -0.06,0.17 -0.07,0.17 -0.07,0.17 -0.08,0.16 -0.08,0.17 -0.08,0.17 -0.09,0.16 -0.1,0.17 -0.1,0.16 -0.11,0.16 -0.11,0.16 -0.12,0.16 c -0.1,0.12 -0.74,0.87 -0.92,0.87 -0.05,0 -0.12,-0.02 -0.12,-0.1 0,-0.04 0.02,-0.07 0.06,-0.1 0.47,-0.51 1.12,-1.32 1.53,-2.9 0.23,-0.9 0.32,-1.92 0.32,-2.85 0,-1 -0.09,-2.02 -0.35,-2.99 -0.38,-1.39 -0.96,-2.18 -1.47,-2.74 -0.09,-0.09 -0.09,-0.11 -0.09,-0.13 0,-0.08 0.07,-0.1 0.12,-0.1 0.15,0 0.69,0.61 0.81,0.75 1.02,1.2 1.66,2.99 1.66,5.2 z"
   inkscape:connector-curvature="0"
   style="fill:#000000;stroke-width:0" />
<path
   id="path4918"
   d="m 279.83,659.74 0,0.27 -0.01,0.29 -0.02,0.29 -0.03,0.31 -0.04,0.31 -0.05,0.32 -0.06,0.32 -0.08,0.33 -0.04,0.17 -0.05,0.17 -0.05,0.17 -0.06,0.16 -0.06,0.17 -0.06,0.17 -0.07,0.17 -0.08,0.16 -0.08,0.17 -0.08,0.17 -0.1,0.16 -0.09,0.17 -0.1,0.16 -0.11,0.16 -0.11,0.16 -0.12,0.16 c -0.1,0.12 -0.75,0.87 -0.93,0.87 -0.05,0 -0.12,-0.02 -0.12,-0.1 0,-0.04 0.02,-0.07 0.06,-0.1 0.48,-0.51 1.13,-1.32 1.54,-2.9 0.22,-0.9 0.31,-1.92 0.31,-2.85 0,-1 -0.09,-2.02 -0.34,-2.99 -0.38,-1.39 -0.97,-2.18 -1.48,-2.74 -0.09,-0.09 -0.09,-0.11 -0.09,-0.13 0,-0.08 0.07,-0.1 0.12,-0.1 0.15,0 0.7,0.61 0.82,0.75 1.01,1.2 1.66,2.99 1.66,5.2 z"
   inkscape:connector-curvature="0"
   style="fill:#000000;stroke-width:0" />
</g>  <path
     style="fill:#ffffff;fill-opacity:1;fill-rule:evenodd;stroke:none"
     id="path5454"
     d="m 660.13939,232.60158 c 3.95609,0.99501 8.00827,1.85557 11.30764,4.3611 1.85453,1.86791 3.15715,4.1687 4.89809,6.12411 2.40198,2.29414 4.18998,5.10948 5.57115,8.109 1.22746,2.97253 1.49522,6.17197 1.64773,9.34772 0.46353,2.45585 0.7537,4.96854 1.34404,7.39775 0.86458,2.51846 1.26051,5.13422 1.49467,7.77514 0.26098,2.93099 0.0697,5.88029 0.32591,8.80836 0.34638,3.02633 1.05499,5.97109 1.76419,8.92559 0.97596,3.03556 2.37221,5.92799 3.60459,8.87014 1.33688,3.03175 2.83472,5.98639 4.25758,8.97744 1.16352,2.9979 3.42742,5.26913 4.96422,8.05143 1.30173,2.145 2.83226,4.08251 3.77602,6.42164 1.26768,2.22004 1.87366,4.64216 2.23645,7.14835 0.25393,1.4055 0.58055,2.7959 0.87262,4.19375 0,0 -19.66788,10.52894 -19.66788,10.52894 l 0,0 c -0.29291,-1.44904 -0.6115,-2.89117 -0.97049,-4.32556 -0.27178,-2.35413 -0.77876,-4.59833 -2.00214,-6.66399 -0.83916,-2.26802 -2.45111,-4.07607 -3.59536,-6.19277 -1.52221,-2.82844 -3.84651,-5.13489 -4.99884,-8.1812 -1.42146,-3.03057 -2.95601,-6.00632 -4.31456,-9.06691 -1.26154,-3.0614 -2.70232,-6.05651 -3.79099,-9.18107 -0.70149,-3.03828 -1.51614,-6.03444 -1.8851,-9.14093 -0.44118,-2.93928 -0.16293,-5.91795 -0.38545,-8.88052 -0.17681,-2.51411 -0.47227,-5.01799 -1.33068,-7.4058 -0.72874,-2.56063 -0.88994,-5.26617 -1.5329,-7.85603 -0.0864,-2.90182 -0.19964,-5.84754 -1.22939,-8.59833 -1.24951,-2.83393 -2.99592,-5.39532 -5.26983,-7.51509 -1.60969,-1.84512 -2.84554,-3.97967 -4.59794,-5.70346 -3.17931,-2.07063 -7.00894,-2.84751 -10.70797,-3.43809 0,0 18.21462,-12.89071 18.21462,-12.89071 z"
     inkscape:connector-curvature="0" />
  <g
     id="g5102"
     transform="matrix(5,0,0,-5,-554.14538,3584.4814)"
     xml:space="preserve"
     stroke-miterlimit="10.433"
     font-style="normal"
     font-variant="normal"
     font-weight="normal"
     font-stretch="normal"
     font-size-adjust="none"
     letter-spacing="normal"
     word-spacing="normal"
     ns0:text="$\\phi_{1}\\left(\\pi_{2}\\left(m^{\\Delta}\\right)\\right)$"
     ns0:preamble="/home/erik/.config/inkscape/extensions/anyname.ini"
     style="font-style:normal;font-variant:normal;font-weight:normal;font-stretch:normal;letter-spacing:normal;word-spacing:normal;text-anchor:start;fill:none;stroke:#000000;stroke-linecap:butt;stroke-linejoin:miter;stroke-miterlimit:10.43299961;stroke-opacity:1;stroke-dasharray:none;stroke-dashoffset:0">
<path
   d="m 227.78,663.89 0,0 0,0 0,0 0,0.01 0,0 0,0 0,0 0,0 0,0.01 0,0 0,0 0,0.01 0.01,0 0,0.01 0,0.01 0,0 0,0.01 0,0 0,0.01 0.01,0.02 0,0 0,0.01 0,0 0,0.01 0,0 0.01,0.01 0,0 0,0.01 0,0 0,0 0,0 0,0 0,0 0,0.01 0,0 0,0 0,0 0,0 0,0 c 0,0.01 0,0.1 -0.12,0.1 -0.1,0 -0.11,-0.03 -0.15,-0.2 l -0.58,-2.29 c -1.58,-0.05 -3.04,-1.37 -3.04,-2.73 0,-0.94 0.7,-1.73 1.91,-1.79 l 0.05,0.21 c -0.6,0.03 -1.31,0.38 -1.31,1.38 0,1.19 0.85,2.58 2.33,2.71 l -1.02,-4.09 -0.05,-0.21 c -0.08,-0.31 -0.15,-0.63 -0.23,-0.94 -0.12,-0.46 -0.22,-0.84 -0.22,-0.87 0,-0.1 0.07,-0.11 0.12,-0.11 0.05,0 0.07,0.01 0.1,0.04 0.02,0.02 0.08,0.26 0.11,0.4 l 0.38,1.48 0.05,0.21 1.02,4.09 c 0.76,-0.04 1.33,-0.5 1.33,-1.37 0,-1.18 -0.86,-2.6 -2.35,-2.72 l -0.05,-0.21 c 1.6,0.04 3.04,1.39 3.04,2.72 0,0.78 -0.52,1.7 -1.91,1.8 z"
   id="path5104"
   inkscape:connector-curvature="0"
   style="fill:#000000;stroke-width:0" />
<path
   d="m 231.7,660.16 0,0.01 0,0.01 0,0.01 0,0.01 0,0 0,0.01 0,0.01 0,0.01 0,0 0,0.01 0,0.01 0,0 0,0.01 0,0 0,0.01 0,0 -0.01,0.01 0,0 0,0.01 0,0.01 0,0.01 -0.01,0 0,0.01 -0.01,0.01 0,0 -0.01,0.01 0,0 -0.01,0 -0.01,0.01 0,0 -0.01,0 -0.01,0 -0.01,0 0,0 -0.01,0 0,0.01 -0.01,0 -0.01,0 0,0 -0.01,0 -0.01,0 0,0 -0.01,0 -0.01,0 -0.01,0 0,0 -0.01,0 -0.01,0 -0.01,0 -0.01,0 c -0.44,-0.44 -1.08,-0.45 -1.36,-0.45 v -0.25 c 0.16,0 0.62,0 1.01,0.2 v -3.55 c 0,-0.23 0,-0.32 -0.7,-0.32 h -0.26 v -0.25 c 0.12,0.01 0.98,0.03 1.24,0.03 0.21,0 1.09,-0.02 1.24,-0.03 v 0.25 h -0.26 c -0.7,0 -0.7,0.09 -0.7,0.32 z"
   id="path5106"
   inkscape:connector-curvature="0"
   style="fill:#000000;stroke-width:0" />
<path
   d="m 239.61,653.89 0,0 0,0.01 0,0 0,0.01 0,0 0,0 -0.01,0 0,0.01 0,0 0,0 0,0.01 0,0 0,0 0,0 0,0.01 -0.01,0 0,0 0,0.01 0,0 -0.01,0.01 0,0 -0.01,0.01 0,0 0,0.01 c -0.46,0.49 -1.14,1.29 -1.56,2.91 -0.22,0.9 -0.31,1.93 -0.31,2.85 0,2.61 0.62,4.44 1.82,5.73 0.09,0.09 0.09,0.11 0.09,0.13 0,0.1 -0.08,0.1 -0.12,0.1 -0.15,0 -0.69,-0.59 -0.82,-0.74 -1.01,-1.2 -1.66,-2.99 -1.66,-5.21 0,-1.41 0.25,-3.41 1.55,-5.08 0.1,-0.12 0.75,-0.88 0.93,-0.88 0.04,0 0.12,0 0.12,0.1 z"
   id="path5108"
   inkscape:connector-curvature="0"
   style="fill:#000000;stroke-width:0" />
<path
   d="m 242.7,660.94 h 1.12 c -0.32,-1.47 -0.41,-1.9 -0.41,-2.56 0,-0.15 0,-0.42 0.08,-0.76 0.1,-0.44 0.21,-0.49 0.36,-0.49 0.19,0 0.4,0.17 0.4,0.37 0,0.06 0,0.08 -0.06,0.22 -0.29,0.72 -0.29,1.36 -0.29,1.64 0,0.53 0.07,1.06 0.18,1.58 h 1.14 c 0.13,0 0.49,0 0.49,0.34 0,0.24 -0.21,0.24 -0.4,0.24 h -3.34 c -0.21,0 -0.59,0 -1.03,-0.47 -0.35,-0.39 -0.61,-0.84 -0.61,-0.89 0,-0.01 0,-0.1 0.12,-0.1 0.08,0 0.1,0.04 0.16,0.11 0.49,0.77 1.07,0.77 1.27,0.77 h 0.56 c -0.32,-1.2 -0.85,-2.4 -1.27,-3.31 -0.08,-0.15 -0.08,-0.17 -0.08,-0.24 0,-0.18 0.16,-0.26 0.29,-0.26 0.3,0 0.38,0.27 0.5,0.64 0.13,0.46 0.13,0.48 0.26,0.97 z"
   id="path5110"
   inkscape:connector-curvature="0"
   style="fill:#000000;stroke-width:0" />
<path
   d="m 249.26,657.01 h -0.24 c -0.02,-0.16 -0.09,-0.57 -0.18,-0.64 -0.05,-0.04 -0.59,-0.04 -0.69,-0.04 h -1.28 c 0.73,0.65 0.98,0.84 1.39,1.17 0.52,0.41 1,0.84 1,1.5 0,0.84 -0.74,1.36 -1.63,1.36 -0.86,0 -1.45,-0.61 -1.45,-1.25 0,-0.35 0.3,-0.39 0.37,-0.39 0.17,0 0.37,0.12 0.37,0.37 0,0.13 -0.05,0.37 -0.41,0.37 0.22,0.5 0.69,0.65 1.02,0.65 0.69,0 1.05,-0.54 1.05,-1.11 0,-0.6 -0.43,-1.08 -0.65,-1.33 l -1.68,-1.66 c -0.07,-0.06 -0.07,-0.07 -0.07,-0.27 h 2.87 z"
   id="path5112"
   inkscape:connector-curvature="0"
   style="fill:#000000;stroke-width:0" />
<path
   d="m 255.98,653.89 0,0 0,0.01 0,0 0,0.01 0,0 0,0 0,0 0,0.01 0,0 0,0 0,0.01 -0.01,0 0,0 0,0 0,0.01 0,0 0,0 -0.01,0.01 0,0 0,0.01 -0.01,0 0,0.01 0,0 -0.01,0.01 c -0.45,0.49 -1.13,1.29 -1.55,2.91 -0.23,0.9 -0.32,1.93 -0.32,2.85 0,2.61 0.63,4.44 1.82,5.73 0.09,0.09 0.09,0.11 0.09,0.13 0,0.1 -0.08,0.1 -0.12,0.1 -0.15,0 -0.68,-0.59 -0.81,-0.74 -1.02,-1.2 -1.67,-2.99 -1.67,-5.21 0,-1.41 0.25,-3.41 1.56,-5.08 0.1,-0.12 0.74,-0.88 0.92,-0.88 0.04,0 0.12,0 0.12,0.1 z"
   id="path5114"
   inkscape:connector-curvature="0"
   style="fill:#000000;stroke-width:0" />
<path
   d="m 257.32,657.82 -0.01,-0.01 0,-0.02 0,-0.01 -0.01,-0.02 0,-0.03 -0.01,-0.03 -0.01,-0.03 -0.01,-0.04 0,-0.03 -0.01,-0.03 0,-0.01 -0.01,-0.02 0,-0.01 0,-0.02 -0.01,-0.01 0,-0.01 0,-0.02 -0.01,-0.01 0,-0.01 0,-0.01 0,-0.01 0,-0.01 0,-0.01 0,0 0,-0.01 0,-0.01 c 0,-0.17 0.13,-0.26 0.28,-0.26 0.12,0 0.3,0.08 0.37,0.27 0.01,0.02 0.13,0.49 0.19,0.74 l 0.22,0.89 c 0.06,0.22 0.12,0.44 0.17,0.67 0.04,0.17 0.12,0.46 0.13,0.5 0.15,0.3 0.68,1.21 1.62,1.21 0.45,0 0.54,-0.37 0.54,-0.7 0,-0.25 -0.07,-0.53 -0.15,-0.82 l -0.28,-1.16 -0.2,-0.75 c -0.04,-0.2 -0.13,-0.54 -0.13,-0.59 0,-0.17 0.14,-0.26 0.29,-0.26 0.31,0 0.37,0.24 0.45,0.56 0.14,0.56 0.5,2.01 0.59,2.4 0.03,0.13 0.56,1.32 1.65,1.32 0.42,0 0.53,-0.34 0.53,-0.7 0,-0.56 -0.42,-1.7 -0.61,-2.22 -0.09,-0.24 -0.13,-0.35 -0.13,-0.55 0,-0.47 0.35,-0.81 0.81,-0.81 0.94,0 1.31,1.45 1.31,1.53 0,0.1 -0.09,0.1 -0.12,0.1 -0.1,0 -0.1,-0.04 -0.15,-0.18 -0.15,-0.53 -0.47,-1.24 -1.02,-1.24 -0.17,0 -0.24,0.1 -0.24,0.33 0,0.25 0.09,0.49 0.18,0.71 0.19,0.51 0.61,1.62 0.61,2.18 0,0.65 -0.4,1.07 -1.14,1.07 -0.75,0 -1.26,-0.44 -1.63,-0.97 -0.01,0.13 -0.04,0.47 -0.31,0.71 -0.25,0.21 -0.57,0.26 -0.82,0.26 -0.9,0 -1.38,-0.64 -1.55,-0.87 -0.05,0.57 -0.47,0.87 -0.92,0.87 -0.45,0 -0.65,-0.39 -0.73,-0.57 -0.18,-0.35 -0.31,-0.93 -0.31,-0.96 0,-0.1 0.1,-0.1 0.12,-0.1 0.1,0 0.11,0.01 0.17,0.22 0.16,0.71 0.36,1.19 0.72,1.19 0.16,0 0.31,-0.08 0.31,-0.46 0,-0.21 -0.03,-0.32 -0.16,-0.83 z"
   id="path5116"
   inkscape:connector-curvature="0"
   style="fill:#000000;stroke-width:0" />
<path
   d="m 268.67,665.65 0,0.01 -0.01,0.01 0,0.01 -0.01,0.01 0,0.01 -0.01,0.01 -0.01,0.01 0,0.01 -0.01,0 0,0.01 -0.01,0.01 0,0 -0.01,0.01 0,0.01 -0.01,0 0,0.01 -0.01,0 -0.01,0 0,0.01 -0.01,0 -0.01,0 0,0.01 -0.01,0 -0.01,0 -0.01,0 -0.01,0 -0.01,0.01 -0.01,0 -0.01,0 -0.01,0 -0.01,0 -0.01,0 c -0.09,0 -0.16,-0.02 -0.22,-0.13 l -0.01,-0.55 2.04,-3.71 h -4.09 l 2.05,3.71 0.01,0.55 -2.57,-4.66 c -0.05,-0.08 -0.05,-0.09 -0.05,-0.1 0,-0.07 0.06,-0.07 0.17,-0.07 h 5.34 c 0.11,0 0.17,0 0.17,0.07 0,0.01 0,0.02 -0.05,0.1 z"
   id="path5118"
   inkscape:connector-curvature="0"
   style="fill:#000000;stroke-width:0" />
<path
   d="m 275.26,659.74 0,0.27 -0.01,0.29 -0.02,0.29 -0.03,0.31 -0.03,0.31 -0.05,0.32 -0.07,0.32 -0.07,0.33 -0.05,0.17 -0.05,0.17 -0.05,0.17 -0.05,0.16 -0.06,0.17 -0.07,0.17 -0.07,0.17 -0.08,0.16 -0.08,0.17 -0.08,0.17 -0.09,0.16 -0.1,0.17 -0.1,0.16 -0.11,0.16 -0.11,0.16 -0.12,0.16 c -0.1,0.12 -0.74,0.87 -0.92,0.87 -0.05,0 -0.12,-0.02 -0.12,-0.1 0,-0.04 0.02,-0.07 0.06,-0.1 0.47,-0.51 1.12,-1.32 1.53,-2.9 0.23,-0.9 0.32,-1.92 0.32,-2.85 0,-1 -0.09,-2.02 -0.35,-2.99 -0.38,-1.39 -0.96,-2.18 -1.47,-2.74 -0.09,-0.09 -0.09,-0.11 -0.09,-0.13 0,-0.08 0.07,-0.1 0.12,-0.1 0.15,0 0.69,0.61 0.81,0.75 1.02,1.2 1.66,2.99 1.66,5.2 z"
   id="path5120"
   inkscape:connector-curvature="0"
   style="fill:#000000;stroke-width:0" />
<path
   d="m 279.83,659.74 0,0.27 -0.01,0.29 -0.02,0.29 -0.03,0.31 -0.04,0.31 -0.05,0.32 -0.06,0.32 -0.08,0.33 -0.04,0.17 -0.05,0.17 -0.05,0.17 -0.06,0.16 -0.06,0.17 -0.06,0.17 -0.07,0.17 -0.08,0.16 -0.08,0.17 -0.08,0.17 -0.1,0.16 -0.09,0.17 -0.1,0.16 -0.11,0.16 -0.11,0.16 -0.12,0.16 c -0.1,0.12 -0.75,0.87 -0.93,0.87 -0.05,0 -0.12,-0.02 -0.12,-0.1 0,-0.04 0.02,-0.07 0.06,-0.1 0.48,-0.51 1.13,-1.32 1.54,-2.9 0.22,-0.9 0.31,-1.92 0.31,-2.85 0,-1 -0.09,-2.02 -0.34,-2.99 -0.38,-1.39 -0.97,-2.18 -1.48,-2.74 -0.09,-0.09 -0.09,-0.11 -0.09,-0.13 0,-0.08 0.07,-0.1 0.12,-0.1 0.15,0 0.7,0.61 0.82,0.75 1.01,1.2 1.66,2.99 1.66,5.2 z"
   id="path5122"
   inkscape:connector-curvature="0"
   style="fill:#000000;stroke-width:0" />
</g>  <path
     style="fill:#ffffff;fill-opacity:1;fill-rule:evenodd;stroke:none"
     id="path5456"
     d="m 595.40276,23.684838 c 3.48734,4.686995 6.35473,9.789735 9.02681,14.97276 2.27229,4.480512 4.42708,9.008211 6.37497,13.639254 1.53515,3.577176 3.12491,7.12748 4.59617,10.73339 1.05562,2.773708 2.29901,5.417348 2.95388,8.325769 0.86035,2.970945 1.42827,6.009602 2.11862,9.021613 0.64063,3.333426 1.34306,6.65697 2.30338,9.91492 0.89741,3.044007 1.73707,6.107057 2.54302,9.177465 1.06818,2.972961 1.83196,6.008991 2.26628,9.135181 0.57579,2.39699 1.06934,4.80926 1.89112,7.13543 0.62379,2.12169 1.19165,4.2501 1.98321,6.31831 0,0 -19.47926,10.87277 -19.47926,10.87277 l 0,0 c -0.85214,-2.07171 -1.5018,-4.20138 -2.06798,-6.36613 -0.8864,-2.48081 -1.42408,-5.03124 -2.0712,-7.58562 -0.34481,-3.05147 -1.0137,-6.02287 -2.13001,-8.8933 -0.75712,-3.05014 -1.64729,-6.06519 -2.4795,-9.09415 -1.0371,-3.286427 -1.72786,-6.674451 -2.35712,-10.058984 -0.71066,-3.018658 -1.30783,-6.061724 -2.20506,-9.032859 -0.53362,-2.813451 -1.74095,-5.334894 -2.70358,-8.014404 -1.42953,-3.619421 -2.98804,-7.177791 -4.55892,-10.736477 -1.83953,-4.616061 -3.87915,-9.137382 -6.13082,-13.568439 -2.54221,-5.058731 -5.34548,-10.066255 -9.01173,-14.406233 0,0 19.13772,-11.490266 19.13772,-11.490266 z"
     inkscape:connector-curvature="0" />
  <g
     style="font-style:normal;font-variant:normal;font-weight:normal;font-stretch:normal;letter-spacing:normal;word-spacing:normal;text-anchor:start;fill:none;stroke:#000000;stroke-linecap:butt;stroke-linejoin:miter;stroke-miterlimit:10.43299961;stroke-opacity:1;stroke-dasharray:none;stroke-dashoffset:0"
     ns0:preamble="/home/erik/.config/inkscape/extensions/anyname.ini"
     ns0:text="$\\pi_{2}\\left(m^{\\Delta}\\right)$"
     word-spacing="normal"
     letter-spacing="normal"
     font-size-adjust="none"
     font-stretch="normal"
     font-weight="normal"
     font-variant="normal"
     font-style="normal"
     stroke-miterlimit="10.433"
     xml:space="preserve"
     transform="matrix(5,0,0,-5,-587.22649,3376.9724)"
     id="g5328">
<path
   id="path5330"
   d="m 226.07,660.94 h 1.12 c -0.33,-1.47 -0.42,-1.9 -0.42,-2.56 0,-0.15 0,-0.42 0.08,-0.76 0.1,-0.44 0.21,-0.49 0.36,-0.49 0.2,0 0.41,0.17 0.41,0.37 0,0.06 0,0.08 -0.06,0.22 -0.29,0.72 -0.29,1.36 -0.29,1.64 0,0.53 0.07,1.06 0.18,1.58 h 1.14 c 0.12,0 0.48,0 0.48,0.34 0,0.24 -0.21,0.24 -0.39,0.24 h -3.34 c -0.22,0 -0.6,0 -1.03,-0.47 -0.35,-0.39 -0.61,-0.84 -0.61,-0.89 0,-0.01 0,-0.1 0.12,-0.1 0.08,0 0.1,0.04 0.16,0.11 0.49,0.77 1.06,0.77 1.26,0.77 h 0.57 c -0.32,-1.2 -0.86,-2.4 -1.27,-3.31 -0.08,-0.15 -0.08,-0.17 -0.08,-0.24 0,-0.18 0.16,-0.26 0.28,-0.26 0.3,0 0.38,0.27 0.5,0.64 0.14,0.46 0.14,0.48 0.27,0.97 z"
   inkscape:connector-curvature="0"
   style="fill:#000000;stroke-width:0" />
<path
   id="path5332"
   d="m 232.63,657.01 h -0.24 c -0.02,-0.16 -0.09,-0.57 -0.18,-0.64 -0.06,-0.04 -0.59,-0.04 -0.69,-0.04 h -1.28 c 0.73,0.65 0.97,0.84 1.39,1.17 0.52,0.41 1,0.84 1,1.5 0,0.84 -0.74,1.36 -1.63,1.36 -0.87,0 -1.45,-0.61 -1.45,-1.25 0,-0.35 0.3,-0.39 0.37,-0.39 0.17,0 0.37,0.12 0.37,0.37 0,0.13 -0.05,0.37 -0.41,0.37 0.21,0.5 0.69,0.65 1.01,0.65 0.7,0 1.06,-0.54 1.06,-1.11 0,-0.6 -0.43,-1.08 -0.65,-1.33 l -1.68,-1.66 c -0.07,-0.06 -0.07,-0.07 -0.07,-0.27 h 2.87 z"
   inkscape:connector-curvature="0"
   style="fill:#000000;stroke-width:0" />
<path
   id="path5334"
   d="m 239.35,653.89 0,0 0,0.01 0,0 0,0.01 0,0 0,0 0,0 0,0.01 0,0 -0.01,0 0,0.01 0,0 0,0 0,0 0,0.01 0,0 -0.01,0 0,0.01 0,0 -0.01,0.01 0,0 0,0.01 -0.01,0 0,0.01 c -0.46,0.49 -1.13,1.29 -1.55,2.91 -0.23,0.9 -0.32,1.93 -0.32,2.85 0,2.61 0.63,4.44 1.82,5.73 0.09,0.09 0.09,0.11 0.09,0.13 0,0.1 -0.08,0.1 -0.12,0.1 -0.15,0 -0.69,-0.59 -0.82,-0.74 -1.01,-1.2 -1.66,-2.99 -1.66,-5.21 0,-1.41 0.25,-3.41 1.55,-5.08 0.1,-0.12 0.75,-0.88 0.93,-0.88 0.04,0 0.12,0 0.12,0.1 z"
   inkscape:connector-curvature="0"
   style="fill:#000000;stroke-width:0" />
<path
   id="path5336"
   d="m 240.68,657.82 0,-0.01 0,-0.02 -0.01,-0.01 0,-0.02 -0.01,-0.03 0,-0.03 -0.01,-0.03 -0.01,-0.04 -0.01,-0.03 0,-0.03 -0.01,-0.01 0,-0.02 0,-0.01 -0.01,-0.02 0,-0.01 0,-0.01 0,-0.02 -0.01,-0.01 0,-0.01 0,-0.01 0,-0.01 0,-0.01 -0.01,-0.01 0,0 0,-0.01 0,-0.01 c 0,-0.17 0.14,-0.26 0.29,-0.26 0.12,0 0.3,0.08 0.37,0.27 0.01,0.02 0.13,0.49 0.19,0.74 l 0.22,0.89 c 0.06,0.22 0.12,0.44 0.17,0.67 0.04,0.17 0.12,0.46 0.13,0.5 0.14,0.3 0.67,1.21 1.62,1.21 0.45,0 0.54,-0.37 0.54,-0.7 0,-0.25 -0.08,-0.53 -0.15,-0.82 l -0.28,-1.16 -0.2,-0.75 c -0.04,-0.2 -0.13,-0.54 -0.13,-0.59 0,-0.17 0.14,-0.26 0.29,-0.26 0.31,0 0.37,0.24 0.45,0.56 0.13,0.56 0.5,2.01 0.59,2.4 0.03,0.13 0.56,1.32 1.64,1.32 0.43,0 0.54,-0.34 0.54,-0.7 0,-0.56 -0.42,-1.7 -0.62,-2.22 -0.09,-0.24 -0.13,-0.35 -0.13,-0.55 0,-0.47 0.35,-0.81 0.82,-0.81 0.94,0 1.3,1.45 1.3,1.53 0,0.1 -0.09,0.1 -0.12,0.1 -0.1,0 -0.1,-0.04 -0.14,-0.18 -0.15,-0.53 -0.47,-1.24 -1.02,-1.24 -0.17,0 -0.24,0.1 -0.24,0.33 0,0.25 0.09,0.49 0.18,0.71 0.19,0.51 0.61,1.62 0.61,2.18 0,0.65 -0.4,1.07 -1.15,1.07 -0.74,0 -1.25,-0.44 -1.62,-0.97 -0.01,0.13 -0.04,0.47 -0.32,0.71 -0.24,0.21 -0.56,0.26 -0.81,0.26 -0.9,0 -1.38,-0.64 -1.56,-0.87 -0.04,0.57 -0.46,0.87 -0.91,0.87 -0.46,0 -0.65,-0.39 -0.74,-0.57 -0.17,-0.35 -0.3,-0.93 -0.3,-0.96 0,-0.1 0.1,-0.1 0.11,-0.1 0.1,0 0.11,0.01 0.17,0.22 0.17,0.71 0.37,1.19 0.73,1.19 0.16,0 0.31,-0.08 0.31,-0.46 0,-0.21 -0.03,-0.32 -0.16,-0.83 z"
   inkscape:connector-curvature="0"
   style="fill:#000000;stroke-width:0" />
<path
   id="path5339"
   d="m 252.04,665.65 0,0.01 -0.01,0.01 -0.01,0.01 0,0.01 -0.01,0.01 0,0.01 -0.01,0.01 0,0.01 -0.01,0 0,0.01 -0.01,0.01 0,0 -0.01,0.01 0,0.01 -0.01,0 -0.01,0.01 0,0 -0.01,0 0,0.01 -0.01,0 -0.01,0 -0.01,0.01 0,0 -0.01,0 -0.01,0 -0.01,0 -0.01,0.01 -0.01,0 -0.01,0 -0.01,0 -0.01,0 -0.02,0 c -0.08,0 -0.15,-0.02 -0.21,-0.13 l -0.02,-0.55 2.05,-3.71 h -4.09 l 2.04,3.71 0.02,0.55 -2.57,-4.66 c -0.05,-0.08 -0.05,-0.09 -0.05,-0.1 0,-0.07 0.06,-0.07 0.17,-0.07 h 5.34 c 0.11,0 0.16,0 0.16,0.07 0,0.01 0,0.02 -0.04,0.1 z"
   inkscape:connector-curvature="0"
   style="fill:#000000;stroke-width:0" />
<path
   id="path5341"
   d="m 258.63,659.74 0,0.27 -0.01,0.29 -0.02,0.29 -0.03,0.31 -0.04,0.31 -0.05,0.32 -0.06,0.32 -0.08,0.33 -0.04,0.17 -0.05,0.17 -0.05,0.17 -0.06,0.16 -0.06,0.17 -0.06,0.17 -0.07,0.17 -0.08,0.16 -0.08,0.17 -0.08,0.17 -0.09,0.16 -0.1,0.17 -0.1,0.16 -0.11,0.16 -0.11,0.16 -0.12,0.16 c -0.1,0.12 -0.75,0.87 -0.93,0.87 -0.05,0 -0.11,-0.02 -0.11,-0.1 0,-0.04 0.01,-0.07 0.05,-0.1 0.48,-0.51 1.13,-1.32 1.54,-2.9 0.23,-0.9 0.32,-1.92 0.32,-2.85 0,-1 -0.09,-2.02 -0.35,-2.99 -0.38,-1.39 -0.97,-2.18 -1.48,-2.74 -0.08,-0.09 -0.08,-0.11 -0.08,-0.13 0,-0.08 0.06,-0.1 0.11,-0.1 0.15,0 0.7,0.61 0.82,0.75 1.01,1.2 1.66,2.99 1.66,5.2 z"
   inkscape:connector-curvature="0"
   style="fill:#000000;stroke-width:0" />
</g></svg>
