<?xml version="1.0" encoding="UTF-8" standalone="no"?>
<!-- Created with Inkscape (http://www.inkscape.org/) -->

<svg
   xmlns:ns0="http://www.iki.fi/pav/software/textext/"
   xmlns:osb="http://www.openswatchbook.org/uri/2009/osb"
   xmlns:dc="http://purl.org/dc/elements/1.1/"
   xmlns:cc="http://creativecommons.org/ns#"
   xmlns:rdf="http://www.w3.org/1999/02/22-rdf-syntax-ns#"
   xmlns:svg="http://www.w3.org/2000/svg"
   xmlns="http://www.w3.org/2000/svg"
   xmlns:sodipodi="http://sodipodi.sourceforge.net/DTD/sodipodi-0.dtd"
   xmlns:inkscape="http://www.inkscape.org/namespaces/inkscape"
   inkscape:version="0.48.3.1 r9886"
   version="1.1"
   id="svg2"
   height="600.35999"
   width="744.09448"
   sodipodi:docname="pyramid.pdf">
  <sodipodi:namedview
     id="base"
     pagecolor="#ffffff"
     bordercolor="#666666"
     borderopacity="1.0"
     inkscape:pageopacity="0.0"
     inkscape:pageshadow="2"
     inkscape:zoom="0.66503165"
     inkscape:cx="424.55619"
     inkscape:cy="691.87514"
     inkscape:document-units="px"
     inkscape:current-layer="svg2"
     showgrid="false"
     inkscape:window-width="1920"
     inkscape:window-height="1056"
     inkscape:window-x="1920"
     inkscape:window-y="24"
     inkscape:window-maximized="1">
    <inkscape:grid
       snapvisiblegridlinesonly="true"
       enabled="true"
       visible="true"
       empspacing="5"
       type="xygrid"
       id="grid3790" />
  </sodipodi:namedview>
  <defs
     id="defs4">
    <linearGradient
       id="linearGradient5248"
       osb:paint="solid">
      <stop
         style="stop-color:#000000;stop-opacity:1;"
         offset="0"
         id="stop5250" />
    </linearGradient>
    <linearGradient
       id="linearGradient5242"
       osb:paint="solid">
      <stop
         style="stop-color:#000000;stop-opacity:1;"
         offset="0"
         id="stop5244" />
    </linearGradient>
    <linearGradient
       id="linearGradient3792"
       osb:paint="solid">
      <stop
         style="stop-color:#ffffff;stop-opacity:1;"
         offset="0"
         id="stop3794" />
    </linearGradient>
  </defs>
  <metadata
     id="metadata7">
    <rdf:RDF>
      <cc:Work
         rdf:about="">
        <dc:format>image/svg+xml</dc:format>
        <dc:type
           rdf:resource="http://purl.org/dc/dcmitype/StillImage" />
        <dc:title></dc:title>
      </cc:Work>
    </rdf:RDF>
  </metadata>
  <g
     transform="translate(0,-452.00218)"
     inkscape:label="Layer 1"
     inkscape:groupmode="layer"
     id="layer1">
    <g
       style="font-style:normal;font-variant:normal;font-weight:normal;font-stretch:normal;letter-spacing:normal;word-spacing:normal;text-anchor:start;fill:none;stroke:#000000;stroke-linecap:butt;stroke-linejoin:miter;stroke-miterlimit:10.43299961;stroke-opacity:1;stroke-dasharray:none;stroke-dashoffset:0"
       ns0:preamble="/home/erik/.config/inkscape/extensions/anyname.ini"
       ns0:text="$L_{0}$"
       word-spacing="normal"
       letter-spacing="normal"
       font-size-adjust="none"
       font-stretch="normal"
       font-weight="normal"
       font-variant="normal"
       font-style="normal"
       stroke-miterlimit="10.433"
       xml:space="preserve"
       transform="matrix(10.5,0,0,-10.5,-2100,7875)"
       id="content">



</g>  </g>
  <g
     style="font-style:normal;font-variant:normal;font-weight:normal;font-stretch:normal;letter-spacing:normal;word-spacing:normal;text-anchor:start;fill:none;stroke:#000000;stroke-linecap:butt;stroke-linejoin:miter;stroke-miterlimit:10.43299961;stroke-opacity:1;stroke-dasharray:none;stroke-dashoffset:0"
     id="g3658"
     transform="matrix(5,0,0,-5,-487.50489,3406.4511)"
     xml:space="preserve"
     stroke-miterlimit="10.433"
     font-style="normal"
     font-variant="normal"
     font-weight="normal"
     font-stretch="normal"
     font-size-adjust="none"
     letter-spacing="normal"
     word-spacing="normal"
     ns0:text="$m^{\\Delta}$"
     ns0:preamble="/home/erik/.config/inkscape/extensions/anyname.ini">


</g>  <path
     inkscape:connector-curvature="0"
     d="m 127.59869,270.69046 0,318.5141 m 19.77379,-318.5141 0,318.5141 m 19.77378,-318.5141 0,318.5141 m 19.77378,-318.5141 0,318.5141 m 19.77379,-318.5141 0,318.5141 m 19.77378,-318.5141 0,318.5141 m 19.77379,-318.5141 0,318.5141 m 19.77378,-318.5141 0,318.5141 m 19.77379,-318.5141 0,318.5141 m 19.77378,-318.5141 0,318.5141 m 19.77379,-318.5141 0,318.5141 m 19.77378,-318.5141 0,318.5141 m 19.77379,-318.5141 0,318.5141 m 19.77378,-318.5141 0,318.5141 m 19.77379,-318.5141 0,318.5141 m 19.77378,-318.5141 0,318.5141 m -296.60677,-318.5141 314.18551,0 m -314.18551,18.30306 314.18551,0 m -314.18551,18.30307 314.18551,0 m -314.18551,18.30306 314.18551,0 m -314.18551,18.30307 314.18551,0 m -314.18551,18.30306 314.18551,0 m -314.18551,18.30306 314.18551,0 m -314.18551,18.30307 314.18551,0 m -314.18551,18.30306 314.18551,0 m -314.18551,18.30306 314.18551,0 m -314.18551,18.30307 314.18551,0 m -314.18551,18.30306 314.18551,0 m -314.18551,18.30306 314.18551,0 m -314.18551,18.30307 314.18551,0 m -314.18551,18.30306 314.18551,0 m -314.18551,18.30307 314.18551,0 m -314.18551,18.30306 314.18551,0 m -314.18551,18.30306 314.18551,0"
     style="fill:none;stroke:none"
     id="path5318" />
  <g
     id="g3195"
     transform="matrix(0.85972978,0,0,0.87157446,84.392707,-5.11692)">
    <path
       inkscape:connector-curvature="0"
       id="path3191"
       d="m 386.58413,266.71877 c 0,0 42.43979,-1.6e-4 42.43979,-1.6e-4 0,0 -18.62848,22.22752 -18.62848,22.22752 0,0 42.23929,0.17538 42.23929,0.17538 0,0 -19.58219,22.02555 -19.58219,22.02555 0,0 42.5036,-0.39538 42.5036,-0.39538 0,0 -19.14859,22.383 -19.14859,22.383 0,0 39.63386,-0.59014 39.63386,-0.59014 0,0 -18.40564,20.61188 -18.40564,20.61188 0,0 -337.02568,0.87444 -337.02568,0.87444 0,0 19.32604,-22.49663 19.32604,-22.49663 0,0 180.42573,-26.80849 180.42573,-26.80849 0,0 46.22227,-38.00697 46.22227,-38.00697"
       style="fill:#969696;fill-opacity:1;stroke:#000000;stroke-width:1px;stroke-linecap:butt;stroke-linejoin:miter;stroke-opacity:1" />
    <path
       inkscape:connector-curvature="0"
       id="path3193"
       d="m 401.92183,200.53357 c 0,0 133.28923,0.36809 133.28923,0.36809 0,0 19.15852,-21.66489 19.15852,-21.66489 0,0 -133.57229,-0.66757 -133.57229,-0.66757 0,0 -18.87546,21.96437 -18.87546,21.96437"
       style="fill:#969696;fill-opacity:1;stroke:#000000;stroke-width:1px;stroke-linecap:butt;stroke-linejoin:miter;stroke-opacity:1" />
    <path
       inkscape:connector-curvature="0"
       style="fill:none;stroke:#000000;stroke-width:2.49648237;stroke-miterlimit:4;stroke-opacity:1"
       d="m 293.29719,178.38233 c 0,0 336.51666,1.04734 336.51666,1.04734 0,0 -151.90181,174.04294 -151.90181,174.04294 0,0 -337.55293,1.04496 -337.55293,1.04496 0,0 152.93679,-176.13524 152.93679,-176.13524"
       id="rect5278-3" />
    <path
       id="path7897"
       style="fill:none;stroke:#000000;stroke-width:1.24824123pt;stroke-linecap:butt;stroke-linejoin:miter;stroke-opacity:1"
       d="m 292.77326,177.88542 c 0,0 -153.79545,177.12672 -153.79545,177.12672 M 335.77584,178.02001 c 0,0 -153.66335,176.85786 -153.66335,176.85786 M 378.64793,178.1542 c 0,0 -153.53136,176.58979 -153.53136,176.58979 M 421.39014,178.28796 c 0,0 -153.39951,176.32257 -153.39951,176.32257 M 464.0029,178.42134 c 0,0 -153.2676,176.05614 -153.2676,176.05614 M 506.48709,178.5543 c 0,0 -153.13582,175.79051 -153.13582,175.79051 M 548.8432,178.68687 c 0,0 -153.00485,175.52569 -153.00485,175.52569 M 591.07109,178.81903 c 0,0 -152.87261,175.26166 -152.87261,175.26166 M 292.77326,177.88542 c 0,0 338.39676,1.05911 338.39676,1.05911 m -357.77625,21.26031 c 0,0 338.52942,0.79196 338.52942,0.79196 M 254.0258,222.511 c 0,0 338.66164,0.52513 338.66164,0.52513 M 234.6693,244.80394 c 0,0 338.79374,0.25864 338.79374,0.25864 m -358.13878,22.02111 c 0,0 338.92559,-0.008 338.92559,-0.008 m -358.2591,22.27411 c 0,0 339.05722,-0.27347 339.05722,-0.27347 M 176.6686,311.60355 c 0,0 339.18868,-0.53905 339.18868,-0.53905 m -358.49935,22.77921 c 0,0 339.31984,-0.80432 339.31984,-0.80432"
       inkscape:connector-curvature="0" />
    <path
       style="fill:#000000;fill-opacity:1;fill-rule:evenodd;stroke:none"
       d="m 590.8733,179.65684 c 0,0 37.83459,0.11729 37.83459,0.11729 0,0 -18.56258,21.26846 -18.56258,21.26846 0,0 -37.84911,-0.0884 -37.84911,-0.0884 0,0 18.58017,-21.29727 18.58017,-21.29727"
       id="rect7928"
       inkscape:connector-curvature="0" />
    <path
       style="fill:#000000;fill-opacity:1;fill-rule:evenodd;stroke:none"
       d="m 548.03067,179.48834 c 0,0 54.47045,0.16897 54.47045,0.16897 0,0 -18.49553,21.19669 -18.49553,21.19669 0,0 -54.49104,-0.12772 -54.49104,-0.12772 0,0 18.51048,-21.23799 18.51048,-21.23799"
       id="rect7928-7"
       inkscape:connector-curvature="0" />
    <path
       style="fill:#000000;fill-opacity:1;fill-rule:evenodd;stroke:none"
       d="m 445.3073,200.35196 c 0,0 84.01293,0.19728 84.01293,0.19728 0,0 -19.30169,22.14533 -19.30169,22.14533 0,0 -84.0459,-0.13094 -84.0459,-0.13094 0,0 19.33678,-22.21166 19.33678,-22.21166"
       id="rect7928-7-3"
       inkscape:connector-curvature="0" />
    <path
       style="fill:#000000;fill-opacity:1;fill-rule:evenodd;stroke:none"
       d="m 344.04139,267.34022 c 0,0 42.254,-10e-4 42.254,-10e-4 0,0 -38.20019,43.88015 -38.20019,43.88015 0,0 -42.28647,0.067 -42.28647,0.067 0,0 38.23272,-43.94585 38.23272,-43.94585"
       id="rect7928-7-8"
       inkscape:connector-curvature="0" />
    <path
       style="fill:#000000;fill-opacity:1;fill-rule:evenodd;stroke:none"
       d="m 177.81592,311.81586 c 0,0 127.0634,-0.20285 127.0634,-0.20285 0,0 -19.13631,21.99616 -19.13631,21.99616 0,0 -127.11195,0.30161 -127.11195,0.30161 0,0 19.1849,-22.09487 19.1849,-22.09487"
       id="rect7928-7-67-8"
       inkscape:connector-curvature="0" />
    <path
       style="fill:#000000;fill-opacity:1;fill-rule:evenodd;stroke:none"
       d="m 282.18488,289.45021 c 0,0 84.1236,-0.0683 84.1236,-0.0683 0,0 -19.13146,21.97638 -19.13146,21.97638 0,0 -84.15591,0.13376 -84.15591,0.13376 0,0 19.16379,-22.04186 19.16379,-22.04186"
       id="rect7928-7-67-8-6"
       inkscape:connector-curvature="0" />
  </g>
  <g
     id="g3392"
     transform="matrix(0.85972978,0,0,0.87157446,84.392707,-5.11692)">
    <path
       style="fill:#969696;fill-opacity:1;stroke:#000000;stroke-width:1px;stroke-linecap:butt;stroke-linejoin:miter;stroke-opacity:1"
       d="m 399.8012,71.331805 c 0,0 60.68434,0.742796 60.68434,0.742796 0,0 -26.67024,30.523609 -26.67024,30.523609 0,0 57.71254,-0.37305 57.71254,-0.37305 0,0 -26.35651,29.90755 -26.35651,29.90755 0,0 -132.65549,0 -132.65549,0 0,0 67.28536,-60.800905 67.28536,-60.800905"
       id="path3388"
       inkscape:connector-curvature="0" />
    <path
       style="fill:#969696;fill-opacity:1;stroke:#000000;stroke-width:1px;stroke-linecap:butt;stroke-linejoin:miter;stroke-opacity:1"
       d="m 428.34588,41.733283 c 0,0 -59.66371,0 -59.66371,0 0,0 26.88875,-28.963763 26.88875,-28.963763 0,0 64.80747,0 64.80747,0 0,0 -32.03251,28.963763 -32.03251,28.963763"
       id="path3390"
       inkscape:connector-curvature="0" />
    <g
       transform="matrix(1.3982914,0,2.9474241,1.8256564,-2681.7444,990.18537)"
       id="g9138">
      <path
         id="rect5278-3-0"
         d="m 3287.4795,-535.37231 c 0,0 168.1214,0 168.1214,0 0,0 -214.2827,65.39301 -214.2827,65.39301 0,0 -172.5724,0 -172.5724,0 0,0 218.7337,-65.39301 218.7337,-65.39301"
         style="fill:none;stroke:#000000;stroke-width:2;stroke-miterlimit:4;stroke-opacity:1"
         inkscape:connector-curvature="0" />
      <path
         inkscape:connector-curvature="0"
         d="m 3287.6054,-535.55052 c 0,0 -219.9706,65.75903 -219.9706,65.75903 m 262.4861,-65.75903 c 0,0 -218.8385,65.75903 -218.8385,65.75903 m 261.3542,-65.75903 c 0,0 -217.7066,65.75903 -217.7066,65.75903 m 260.2222,-65.75903 c 0,0 -216.5747,65.75903 -216.5747,65.75903 m 89.0279,-65.75903 c 0,0 169.0497,0 169.0497,0 m -223.2909,16.21508 c 0,0 170.1597,0 170.1597,0 m -225.1177,16.42941 c 0,0 171.2842,0 171.2842,0 m -226.9734,16.64801 c 0,0 172.4236,0 172.4236,0"
         style="fill:none;stroke:#000000;stroke-width:1pt;stroke-linecap:butt;stroke-linejoin:miter;stroke-opacity:1"
         id="path7920" />
    </g>
    <path
       style="fill:#000000;fill-opacity:1;fill-rule:evenodd;stroke:none"
       d="m 455.61579,12.83426 c 0,0 116.70488,0 116.70488,0 0,0 -26.06232,29.110394 -26.06232,29.110394 0,0 -117.45838,0 -117.45838,0 0,0 26.81582,-29.110394 26.81582,-29.110394"
       id="rect7928-8"
       inkscape:connector-curvature="0" />
    <path
       style="fill:#000000;fill-opacity:1;fill-rule:evenodd;stroke:none"
       d="m 252.12431,102.28851 c 0,0 120.53283,0 120.53283,0 0,0 -27.42246,29.76509 -27.42246,29.76509 0,0 -121.31295,0 -121.31295,0 0,0 28.20258,-29.76509 28.20258,-29.76509"
       id="rect7928-8-0"
       inkscape:connector-curvature="0" />
    <path
       style="fill:#000000;fill-opacity:1;fill-rule:evenodd;stroke:none"
       d="m 340.83592,72.04007 c 0,0 59.62426,0 59.62426,0 0,0 -40.04867,43.46932 -40.04867,43.46932 0,0 -60.19161,0 -60.19161,0 0,0 40.61602,-43.46932 40.61602,-43.46932"
       id="rect7928-8-0-4"
       inkscape:connector-curvature="0" />
  </g>
  <path
     style="fill:none;stroke:#000000;stroke-width:0.82498735px;stroke-linecap:butt;stroke-linejoin:miter;stroke-opacity:1"
     d="M 96.388846,596.83935 288.20447,342.54165 704.02248,343.42616 514.81656,596.83935 z"
     id="path9660"
     inkscape:connector-curvature="0" />
  <path
     inkscape:connector-curvature="0"
     id="path9954"
     d="M 202.21949,304.98069 336.00826,149.24473 628.80574,149.55745 495.32456,304.66797 z"
     style="fill:none;stroke:#000000;stroke-width:0.82498735px;stroke-linecap:butt;stroke-linejoin:miter;stroke-opacity:1" />
  <path
     style="fill:none;stroke:#000000;stroke-width:0.82498735px;stroke-linecap:butt;stroke-linejoin:miter;stroke-opacity:1"
     d="M 274.28587,111.46244 371.6125,4.657397 l 208.44748,0 -95.47281,106.805043 z"
     id="path10542"
     inkscape:connector-curvature="0" />
  <path
     style="fill:none;stroke:#000000;stroke-width:3.29994941;stroke-linecap:butt;stroke-linejoin:miter;stroke-miterlimit:4;stroke-opacity:1;stroke-dasharray:13.19979781, 13.19979781;stroke-dashoffset:0"
     d="M 96.388846,597.2816 277.33056,101.95391"
     id="path7387"
     inkscape:connector-curvature="0" />
  <path
     style="fill:none;stroke:#000000;stroke-width:3.29994941;stroke-linecap:butt;stroke-linejoin:miter;stroke-miterlimit:4;stroke-opacity:1;stroke-dasharray:13.19979781, 13.19979781;stroke-dashoffset:0"
     d="M 704.6626,341.25655 577.94768,-1.487676"
     id="path7389"
     inkscape:connector-curvature="0" />
  <path
     inkscape:connector-curvature="0"
     id="path3484"
     d="m 98.952352,595.56428 c 0.358412,-0.47518 40.662828,-53.40553 40.662828,-53.40553 0,0 72.18468,7.50117 72.18468,7.50117 0,0 27.62657,7.00453 27.62657,7.00453 0,0 39.08853,-10.53269 39.08853,-10.53269 0,0 45.95787,-27.80262 45.95787,-27.80262 0,0 26.9209,-20.68413 26.9209,-20.68413 0,0 40.23861,-11.66939 40.23861,-11.66939 0,0 25.66798,0.14199 25.66798,0.14199 0,0 -11.97099,15.70984 -11.97099,15.70984 0,0 26.14646,0.2572 26.14646,0.2572 0,0 -12.24568,15.8337 -12.24568,15.8337 0,0 26.04462,0.13545 26.04462,0.13545 0,0 -12.05318,15.83972 -12.05318,15.83972 0,0 26.13204,0.0138 26.13204,0.0138 0,0 -11.94911,15.96387 -11.94911,15.96387 0,0 25.94156,0.0102 25.94156,0.0102 0,0 -11.74411,16.20651 -11.74411,16.20651 0,0 25.94045,0.007 25.94045,0.007 0,0 -11.95505,15.73895 -11.95505,15.73895 0,0 26.04018,0.12164 26.04018,0.12164 0,0 -10.06928,13.73172 -10.06928,13.73172 0,0 -392.605878,-0.12259 -392.605878,-0.12259"
     style="fill:#969696;fill-opacity:1;stroke:#000000;stroke-width:0.86563188px;stroke-linecap:butt;stroke-linejoin:miter;stroke-opacity:1" />
  <path
     inkscape:connector-curvature="0"
     id="path4254"
     d="m 471.55842,344.4371 c 0,0 -11.12231,14.81208 -11.12231,14.81208 0,0 25.80042,0.40457 25.80042,0.40457 0,0 -12.27887,16.11071 -12.27887,16.11071 0,0 43.98586,5.1452 43.98586,5.1452 0,0 82.99148,-7.14573 82.99148,-7.14573 0,0 88.91172,-13.47047 88.91172,-13.47047 0,0 10.66231,-14.7848 10.66231,-14.7848 0,0 -179.88233,-1.20312 -179.88233,-1.20312 0,0 -49.06828,0.13156 -49.06828,0.13156"
     style="fill:#969696;fill-opacity:1;stroke:#000000;stroke-width:0.86563188px;stroke-linecap:butt;stroke-linejoin:miter;stroke-opacity:1" />
  <path
     inkscape:connector-curvature="0"
     id="rect5278"
     d="m 290.88621,343.70491 c 0,0 409.7244,1.73474 409.7244,1.73474 0,0 -186.79336,250.36816 -186.79336,250.36816 0,0 -414.842008,-0.007 -414.842008,-0.007 0,0 191.910808,-252.0956 191.910808,-252.0956"
     style="fill:none;stroke:#000000;stroke-width:2.53398681;stroke-miterlimit:4;stroke-opacity:1" />
  <path
     d="m 290.31398,342.9356 c 0,0 -192.998266,253.50985 -192.998266,253.50985 M 316.38668,343.04632 c 0,0 -192.6692,253.39931 -192.6692,253.39931 M 342.43665,343.15695 c 0,0 -192.34062,253.28886 -192.34062,253.28886 m 218.3679,-253.17832 c 0,0 -192.01255,253.1785 -192.01255,253.1785 M 394.46853,343.37792 c 0,0 -191.68498,253.06825 -191.68498,253.06825 M 420.45052,343.48826 c 0,0 -191.35794,252.9581 -191.35794,252.9581 M 446.40983,343.5985 c 0,0 -191.03131,252.84803 -191.03131,252.84803 M 472.34663,343.70865 c 0,0 -190.70524,252.73806 -190.70524,252.73806 M 498.26085,343.8187 c 0,0 -190.37969,252.62819 -190.37969,252.62819 M 524.15252,343.92864 c 0,0 -190.05455,252.51843 -190.05455,252.51843 M 550.02172,344.03852 c 0,0 -189.72999,252.40873 -189.72999,252.40873 M 575.86848,344.14827 c 0,0 -189.40589,252.29916 -189.40589,252.29916 M 601.69276,344.25794 c 0,0 -189.08227,252.18967 -189.08227,252.18967 M 627.4947,344.36752 c 0,0 -188.75922,252.08027 -188.75922,252.08027 M 653.2742,344.477 c 0,0 -188.43657,251.97096 -188.43657,251.97096 m 214.1938,-251.86157 c 0,0 -188.11452,251.86175 -188.11452,251.86175 M 290.31398,342.9356 c 0,0 412.0014,1.74967 412.0014,1.74967 m -424.03045,14.0509 c 0,0 412.3232,1.64173 412.3232,1.64173 m -424.3663,14.1773 c 0,0 412.64553,1.53357 412.64553,1.53357 m -424.70272,14.30396 c 0,0 412.96826,1.42513 412.96826,1.42513 m -425.03954,14.43092 c 0,0 413.29152,1.31645 413.29152,1.31645 m -425.37695,14.55816 c 0,0 413.61526,1.20752 413.61526,1.20752 M 217.92836,438.0166 c 0,0 413.93939,1.09832 413.93939,1.09832 m -426.05313,14.8135 c 0,0 414.26406,0.98887 414.26406,0.98887 m -426.39202,14.94162 c 0,0 414.5892,0.87916 414.5892,0.87916 m -426.73138,15.07001 c 0,0 414.91483,0.7692 414.91483,0.7692 m -427.07126,15.19869 c 0,0 415.24091,0.65898 415.24091,0.65898 m -427.41164,15.32768 c 0,0 415.56755,0.5485 415.56755,0.5485 m -427.75256,15.45693 c 0,0 415.89459,0.43776 415.89459,0.43776 m -428.09394,15.58651 c 0,0 416.2221,0.32675 416.2221,0.32675 m -428.43579,15.71636 c 0,0 416.55015,0.2155 416.55015,0.2155 m -428.77824,15.8465 c 0,0 416.87861,0.10399 416.87861,0.10399"
     style="fill:none;stroke:#000000;stroke-width:1.52039218;stroke-linecap:butt;stroke-linejoin:miter;stroke-miterlimit:4;stroke-opacity:1;stroke-dasharray:none"
     id="path5338"
     inkscape:connector-curvature="0" />
  <path
     inkscape:connector-curvature="0"
     id="rect5378"
     d="m 238.32423,550.29754 c 0,0 25.40916,0.0197 25.40916,0.0197 0,0 -11.73235,15.50892 -11.73235,15.50892 0,0 -25.42858,-0.0133 -25.42858,-0.0133 0,0 11.75177,-15.51549 11.75177,-15.51549"
     style="fill:#000000;fill-opacity:1;stroke:none" />
  <path
     inkscape:connector-curvature="0"
     id="rect5378-9"
     d="m 276.53301,534.3626 c 0,0 25.41337,0.0265 25.41337,0.0265 0,0 -11.51276,15.23826 -11.51276,15.23826 0,0 -25.43245,-0.02 -25.43245,-0.02 0,0 11.5319,-15.24474 11.5319,-15.24474"
     style="fill:#000000;fill-opacity:1;stroke:none" />
  <path
     inkscape:connector-curvature="0"
     id="rect5378-9-2"
     d="m 212.03116,550.25978 c 0,0 28.08544,0.0219 28.08544,0.0219 0,0 -11.76577,15.53531 -11.76577,15.53531 0,0 -28.10699,-0.0148 -28.10699,-0.0148 0,0 11.78731,-15.5426 11.78731,-15.5426"
     style="fill:#000000;fill-opacity:1;stroke:none" />
  <path
     inkscape:connector-curvature="0"
     id="rect5378-9-2-6"
     d="m 168.128,534.05764 c 0,0 55.13581,0.0578 55.13581,0.0578 0,0 -11.95268,15.75987 -11.95268,15.75987 0,0 -55.17874,-0.0432 -55.17874,-0.0432 0,0 11.9956,-15.77436 11.9956,-15.77436"
     style="fill:#000000;fill-opacity:1;stroke:none" />
  <path
     inkscape:connector-curvature="0"
     id="rect5378-9-2-6-2"
     d="m 171.79741,534.0276 c 0,0 25.19304,0.0264 25.19304,0.0264 0,0 -11.77077,15.50029 -11.77077,15.50029 0,0 -25.21234,-0.0199 -25.21234,-0.0199 0,0 11.79007,-15.50679 11.79007,-15.50679"
     style="fill:#000000;fill-opacity:1;stroke:none" />
  <path
     inkscape:connector-curvature="0"
     id="rect5378-9-2-6-2-5"
     d="m 146.84339,534.00143 c 0,0 25.21403,0.0264 25.21403,0.0264 0,0 -11.78985,15.50672 -11.78985,15.50672 0,0 -25.23335,-0.02 -25.23335,-0.02 0,0 11.80917,-15.51324 11.80917,-15.51324"
     style="fill:#000000;fill-opacity:1;stroke:none" />
  <path
     inkscape:connector-curvature="0"
     id="rect5378-9-3"
     d="m 315.70826,517.34015 c 0,0 25.36962,0.0338 25.36962,0.0338 0,0 -12.32918,16.33919 -12.32918,16.33919 0,0 -25.39007,-0.0268 -25.39007,-0.0268 0,0 12.34917,-16.34612 12.34917,-16.34612"
     style="fill:#000000;fill-opacity:1;stroke:none" />
  <path
     inkscape:connector-curvature="0"
     id="rect5378-9-5"
     d="m 327.0999,502.31129 c 0,0 25.35083,0.0401 25.35083,0.0401 0,0 -11.81976,15.66465 -11.81976,15.66465 0,0 -25.37035,-0.0335 -25.37035,-0.0335 0,0 11.83992,-15.67128 11.83992,-15.67128"
     style="fill:#000000;fill-opacity:1;stroke:none" />
  <path
     inkscape:connector-curvature="0"
     id="rect5378-9-6"
     d="m 339.09277,486.53607 c 0,0 25.33093,0.0468 25.33093,0.0468 0,0 -11.45294,15.17812 -11.45294,15.17812 0,0 -25.35001,-0.0404 -25.35001,-0.0404 0,0 11.472,-15.18454 11.472,-15.18454"
     style="fill:#000000;fill-opacity:1;stroke:none" />
  <path
     inkscape:connector-curvature="0"
     id="rect5378-9-1"
     d="m 376.76187,470.71847 c 0,0 25.28944,0.0534 25.28944,0.0534 0,0 -13.66314,18.13014 -13.66314,18.13014 0,0 -25.31205,-0.0457 -25.31205,-0.0457 0,0 13.68591,-18.13779 13.68591,-18.13779"
     style="fill:#000000;fill-opacity:1;stroke:none" />
  <path
     inkscape:connector-curvature="0"
     id="rect5378-9-17"
     d="m 589.89951,360.39633 c 0,0 51.64944,0.20528 51.64944,0.20528 0,0 -11.214,14.99163 -11.214,14.99163 0,0 -51.68775,-0.19237 -51.68775,-0.19237 0,0 11.24932,-15.00455 11.24932,-15.00455"
     style="fill:#000000;fill-opacity:1;stroke:none" />
  <path
     inkscape:connector-curvature="0"
     id="rect5378-9-4"
     d="m 474.72131,375.7354 c 0,0 25.1486,0.0933 25.1486,0.0933 0,0 -11.32085,15.04159 -11.32085,15.04159 0,0 -25.16734,-0.087 -25.16734,-0.087 0,0 11.33969,-15.04789 11.33969,-15.04789"
     style="fill:#000000;fill-opacity:1;stroke:none" />
  <path
     inkscape:connector-curvature="0"
     id="rect5378-9-43"
     d="m 500.71232,375.57677 c 0,0 25.12651,0.0933 25.12651,0.0933 0,0 -11.68542,15.54518 -11.68542,15.54518 0,0 -25.14583,-0.0868 -25.14583,-0.0868 0,0 11.70464,-15.55169 11.70464,-15.55169"
     style="fill:#000000;fill-opacity:1;stroke:none" />
  <path
     inkscape:connector-curvature="0"
     id="rect5378-9-0"
     d="m 526.51038,375.88238 c 0,0 25.10488,0.0931 25.10488,0.0931 0,0 -11.42144,15.21408 -11.42144,15.21408 0,0 -25.12377,-0.0867 -25.12377,-0.0867 0,0 11.44039,-15.22045 11.44039,-15.22045"
     style="fill:#000000;fill-opacity:1;stroke:none" />
  <path
     inkscape:connector-curvature="0"
     id="rect5378-9-68"
     d="m 534.63363,375.74124 c 0,0 43.16528,0.16025 43.16528,0.16025 0,0 -11.50602,15.34634 -11.50602,15.34634 0,0 -43.19801,-0.14922 -43.19801,-0.14922 0,0 11.53933,-15.35739 11.53933,-15.35739"
     style="fill:#000000;fill-opacity:1;stroke:none" />
  <path
     inkscape:connector-curvature="0"
     id="rect5378-9-60"
     d="m 365.07944,486.58406 c 0,0 25.30896,0.0467 25.30896,0.0467 0,0 -11.43361,15.17155 -11.43361,15.17155 0,0 -25.32794,-0.0403 -25.32794,-0.0403 0,0 11.45264,-15.17796 11.45264,-15.17796"
     style="fill:#000000;fill-opacity:1;stroke:none" />
  <path
     inkscape:connector-curvature="0"
     id="rect5378-9-80"
     d="m 288.61492,518.12694 c 0,0 25.77796,0.034 25.77796,0.034 0,0 -17.4882,23.14712 -17.4882,23.14712 0,0 -25.80743,-0.024 -25.80743,-0.024 0,0 17.51763,-23.15708 17.51763,-23.15708"
     style="fill:#000000;fill-opacity:1;stroke:none" />
  <path
     inkscape:connector-curvature="0"
     id="rect5378-9-17-8"
     d="m 615.96369,360.4755 c 0,0 25.01992,0.0994 25.01992,0.0994 0,0 -11.21424,14.99174 -11.21424,14.99174 0,0 -25.03854,-0.0932 -25.03854,-0.0932 0,0 11.23011,-14.99801 11.23011,-14.99801"
     style="fill:#000000;fill-opacity:1;stroke:none" />
  <path
     inkscape:connector-curvature="0"
     id="rect5378-9-17-7"
     d="m 641.2745,360.57803 c 0,0 24.99865,0.0994 24.99865,0.0994 0,0 -11.19542,14.98541 -11.19542,14.98541 0,0 -25.01724,-0.0931 -25.01724,-0.0931 0,0 11.2141,-14.99167 11.2141,-14.99167"
     style="fill:#000000;fill-opacity:1;stroke:none" />
  <path
     inkscape:connector-curvature="0"
     id="rect5378-9-17-2"
     d="m 664.94104,360.64964 c 0,0 24.97882,0.0993 24.97882,0.0993 0,0 -11.17524,14.97949 -11.17524,14.97949 0,0 -24.99726,-0.0931 -24.99726,-0.0931 0,0 11.19603,-14.98572 11.19603,-14.98572"
     style="fill:#000000;fill-opacity:1;stroke:none" />
  <path
     inkscape:connector-curvature="0"
     id="rect5378-9-11-3-8-7-58-79"
     d="m 391.25721,486.57244 c 0,0 24.85321,0.0459 24.85321,0.0459 0,0 -11.45299,15.21647 -11.45299,15.21647 0,0 -24.87182,-0.0396 -24.87182,-0.0396 0,0 11.47183,-15.22279 11.47183,-15.22279"
     style="fill:#969696;fill-opacity:1;stroke:none" />
  <path
     inkscape:connector-curvature="0"
     id="rect5378-9-11-3-8-7-58-58"
     d="m 405.36686,502.65412 c 0,0 24.85099,0.0392 24.85099,0.0392 0,0 -11.447,15.22775 -11.447,15.22775 0,0 -24.86972,-0.0329 -24.86972,-0.0329 0,0 11.46514,-15.23408 11.46514,-15.23408"
     style="fill:#969696;fill-opacity:1;stroke:none" />
  <path
     inkscape:connector-curvature="0"
     id="rect5378-9-11-3-8-7-58-160"
     d="m 419.60604,518.46874 c 0,0 24.8486,0.0326 24.8486,0.0326 0,0 -11.44012,15.23876 -11.44012,15.23876 0,0 -24.86721,-0.0263 -24.86721,-0.0263 0,0 11.45896,-15.2451 11.45896,-15.2451"
     style="fill:#969696;fill-opacity:1;stroke:none" />
  <path
     inkscape:connector-curvature="0"
     id="rect5378-9-11-3-8-7-58-49"
     d="m 433.59969,534.52624 c 0,0 24.84652,0.026 24.84652,0.026 0,0 -11.43417,15.25006 -11.43417,15.25006 0,0 -24.86521,-0.0196 -24.86521,-0.0196 0,0 11.45301,-15.2564 11.45301,-15.2564"
     style="fill:#969696;fill-opacity:1;stroke:none" />
  <path
     inkscape:connector-curvature="0"
     id="rect5378-9-11-3-8-7-58-10"
     d="m 461.74293,566.48432 c 0,0 24.8422,0.013 24.8422,0.013 0,0 -11.42426,15.27247 -11.42426,15.27247 0,0 -24.86111,-0.006 -24.86111,-0.006 0,0 11.44024,-15.27883 11.44024,-15.27883"
     style="fill:#969696;fill-opacity:1;stroke:none" />
  <path
     inkscape:connector-curvature="0"
     id="rect5378-9-11-3-8-7-58-8"
     d="m 447.71752,550.49588 c 0,0 24.8443,0.0193 24.8443,0.0193 0,0 -11.42813,15.26124 -11.42813,15.26124 0,0 -24.86298,-0.0132 -24.86298,-0.0132 0,0 11.44696,-15.26758 11.44696,-15.26758"
     style="fill:#969696;fill-opacity:1;stroke:none" />
  <path
     inkscape:connector-curvature="0"
     id="rect5378-9-11-3-8-1-5-0-2-1-1-7-8-7-1-7-1-7-1-3"
     d="m 475.97912,582.40846 c 0,0 24.84008,0.006 24.84008,0.006 0,0 -9.50216,12.71899 -9.50216,12.71899 0,0 -24.85546,-7.3e-4 -24.85546,-7.3e-4 0,0 9.51905,-12.7243 9.51905,-12.7243"
     style="fill:#969696;fill-opacity:1;stroke:none" />
  <path
     inkscape:connector-curvature="0"
     id="path3482"
     d="m 141.09199,541.21061 c 0,0 70.63035,8.80494 70.63035,8.80494 0,0 10.72667,5.45759 10.72667,5.45759 0,0 17.76125,1.66575 18.34326,1.90304 0.58193,0.23728 23.29796,-7.22163 23.29796,-7.22163 0,0 41.75577,-21.18292 41.75577,-21.18292 0,0 34.06739,-20.33485 34.06739,-20.33485 0,0 12.88321,-12.5772 12.88321,-12.5772 0,0 38.61328,-9.99773 38.61328,-9.99773 0,0 25.51981,0.19079 25.51981,0.19079 0,0 -11.897,15.95325 -11.897,15.95325 0,0 26.21534,0.0626 26.21534,0.0626 0,0 -12.13022,15.91713 -12.13022,15.91713 0,0 26.16306,-0.0135 26.16306,-0.0135 0,0 -12.13563,16.07632 -12.13563,16.07632 0,0 26.12601,-0.10457 26.12601,-0.10457 0,0 -11.81021,15.90489 -11.81021,15.90489 0,0 25.98589,-0.049 25.98589,-0.049 0,0 -11.89545,16.02899 -11.89545,16.02899 0,0 25.89004,-0.0525 25.89004,-0.0525 0,0 -11.75332,15.9757 -11.75332,15.9757 0,0 26.08438,0.0624 26.08438,0.0624 0,0 -10.30282,13.79092 -10.30282,13.79092 0,0 -392.791933,-0.003 -392.791933,-0.003 0,0 42.414163,-54.59127 42.414163,-54.59127"
     style="fill:none;stroke:#000000;stroke-width:0.86563188px;stroke-linecap:butt;stroke-linejoin:miter;stroke-opacity:1" />
  <path
     style="fill:none;stroke:#000000;stroke-width:3.29994941;stroke-linecap:butt;stroke-linejoin:miter;stroke-miterlimit:4;stroke-opacity:1;stroke-dasharray:13.19979781, 13.19979781;stroke-dashoffset:0"
     d="M 510.43865,597.2206 485.52542,107.80854"
     id="path7389-8"
     inkscape:connector-curvature="0" />
  <path
     inkscape:connector-curvature="0"
     d="m 659.49379,190.61704 c 1.20845,4.37497 2.36802,8.77336 4.2006,12.92921 1.25538,2.8771 2.47835,5.7521 3.95187,8.52065 0.7468,1.98857 2.13232,3.59596 3.12677,5.44023 1.04432,1.63313 2.01144,3.3454 2.79211,5.12675 0.90227,1.97713 1.80525,3.96983 2.88074,5.85754 1.11314,2.0393 1.80881,4.2991 2.45217,6.52991 0.64246,2.4207 1.43219,4.74959 1.81716,7.23582 0.66519,2.74465 1.02902,5.54778 1.57045,8.31521 0.52749,2.66362 1.16594,5.29394 1.80602,7.93101 0.32789,2.41265 1.08728,4.71855 1.61344,7.08633 0.46627,2.31189 0.415,4.66992 0.90425,6.97509 0.42383,2.34501 0.90561,4.66785 1.42961,6.99231 0.34233,2.34366 0.88879,4.63625 1.63424,6.88136 0.91986,2.40548 1.30584,4.95901 1.93303,7.44803 0.10141,0.43988 0.20281,0.87978 0.30423,1.31967 0,0 -16.91984,9.23051 -16.91984,9.23051 l 0,0 c -0.0932,-0.42426 -0.18639,-0.84853 -0.2796,-1.27279 -0.6215,-2.43381 -1.01061,-4.92246 -1.86853,-7.28769 -0.83409,-2.29243 -1.41304,-4.66991 -1.73223,-7.09124 -0.50697,-2.32767 -1.09475,-4.62204 -1.45138,-6.98036 -0.53396,-2.31647 -0.59907,-4.64158 -0.90799,-6.99489 -0.47383,-2.36899 -1.30611,-4.64326 -1.56603,-7.05719 -0.61634,-2.66008 -1.3266,-5.28718 -1.82338,-7.9753 -0.63264,-2.78745 -0.82987,-5.66911 -1.63077,-8.42709 -0.32668,-2.41792 -1.09507,-4.65841 -1.71417,-7.00257 -0.56853,-2.08872 -1.24943,-4.18768 -2.24698,-6.10507 -1.09466,-1.95815 -2.02862,-4.00945 -2.99063,-6.03701 -0.73237,-1.74203 -1.71687,-3.38001 -2.71074,-4.97832 -0.98691,-1.85095 -2.3911,-3.46617 -3.10087,-5.47575 -1.464,-2.82823 -2.69871,-5.74967 -3.92719,-8.69106 -1.84679,-4.21482 -2.96627,-8.67609 -4.35839,-13.05661 0,0 16.81203,-9.38669 16.81203,-9.38669 z"
     id="path3767"
     style="fill:#ffffff;fill-opacity:1;fill-rule:evenodd;stroke:none" />
  <path
     inkscape:connector-curvature="0"
     d="m 602.71841,30.646675 c 1.3998,4.063428 3.07267,7.990636 5.07979,11.779034 1.21998,2.10619 2.14185,4.325368 3.11279,6.549491 1.00377,2.100398 1.89703,4.245426 2.74922,6.414303 1.25613,2.49468 2.03599,5.138399 2.49185,7.889421 0.20604,2.64113 0.45767,5.24893 0.90324,7.86079 0.44846,2.47175 0.45628,4.98447 1.0016,7.4366 0.60677,2.3456 0.82602,4.75706 0.9591,7.16976 0.31806,2.05631 0.72221,4.10075 1.39486,6.06886 0.91683,1.79193 2.04822,3.44313 3.15297,5.11506 1.45426,1.63946 2.95228,3.225936 4.344,4.922236 1.54467,1.92994 2.78422,3.88412 3.4966,6.27439 0.41988,1.66364 0.51466,3.37901 0.60162,5.08565 0,0 -17.08939,8.92117 -17.08939,8.92117 l 0,0 c -0.052,-1.56474 -0.0973,-3.1382 -0.40728,-4.67775 -0.55016,-2.15792 -1.70977,-3.83782 -3.08705,-5.55674 -1.4566,-1.72909 -3.03359,-3.34654 -4.4611,-5.09891 -1.19928,-1.80645 -2.41867,-3.60098 -3.40215,-5.54292 -0.74752,-2.144286 -1.19731,-4.344496 -1.62928,-6.577366 -0.0966,-2.30166 -0.24299,-4.61133 -0.81279,-6.85192 -0.59099,-2.49428 -0.68205,-5.01373 -1.03044,-7.55084 -0.44258,-2.62581 -0.86743,-5.22012 -0.92032,-7.89149 -0.35655,-2.6287 -1.04243,-5.14775 -2.28874,-7.50084 -0.83733,-2.14624 -1.74501,-4.25355 -2.74085,-6.326759 -0.96303,-2.178734 -1.79457,-4.40187 -2.97829,-6.482737 -1.95459,-3.860177 -3.55913,-7.858125 -5.1553,-11.881586 0,0 16.71534,-9.546907 16.71534,-9.546907 z"
     id="path3769"
     style="fill:#ffffff;fill-opacity:1;fill-rule:evenodd;stroke:none" />
  <g
     style="font-style:normal;font-variant:normal;font-weight:normal;font-stretch:normal;letter-spacing:normal;word-spacing:normal;text-anchor:start;fill:none;stroke:#000000;stroke-linecap:butt;stroke-linejoin:miter;stroke-miterlimit:10.43299961;stroke-opacity:1;stroke-dasharray:none;stroke-dashoffset:0"
     id="g4276"
     transform="matrix(5,0,0,-5,-1102.2507,3717.0894)"
     xml:space="preserve"
     stroke-miterlimit="10.433"
     font-style="normal"
     font-variant="normal"
     font-weight="normal"
     font-stretch="normal"
     font-size-adjust="none"
     letter-spacing="normal"
     word-spacing="normal"
     ns0:text="$n=0$"
     ns0:preamble="/home/erik/.config/inkscape/extensions/anyname.ini">
<path
   style="fill:#000000;stroke-width:0"
   inkscape:connector-curvature="0"
   d="m 224.31,657.82 0,-0.01 -0.01,-0.02 0,-0.01 0,-0.02 -0.01,-0.03 -0.01,-0.03 -0.01,-0.03 0,-0.04 -0.01,-0.03 -0.01,-0.03 0,-0.01 -0.01,-0.02 0,-0.01 0,-0.02 0,-0.01 -0.01,-0.01 0,-0.02 0,-0.01 0,-0.01 -0.01,-0.01 0,-0.01 0,-0.01 0,-0.01 0,0 0,-0.01 0,-0.01 c 0,-0.17 0.14,-0.26 0.29,-0.26 0.12,0 0.29,0.08 0.37,0.27 0,0.02 0.12,0.49 0.18,0.74 l 0.22,0.89 c 0.06,0.22 0.12,0.44 0.17,0.67 0.04,0.17 0.12,0.46 0.13,0.5 0.15,0.3 0.68,1.21 1.62,1.21 0.45,0 0.54,-0.37 0.54,-0.7 0,-0.61 -0.49,-1.89 -0.65,-2.31 -0.09,-0.23 -0.1,-0.35 -0.1,-0.46 0,-0.47 0.35,-0.81 0.82,-0.81 0.93,0 1.3,1.45 1.3,1.53 0,0.1 -0.09,0.1 -0.12,0.1 -0.1,0 -0.1,-0.04 -0.15,-0.18 -0.19,-0.68 -0.52,-1.24 -1.01,-1.24 -0.17,0 -0.24,0.1 -0.24,0.33 0,0.25 0.09,0.49 0.18,0.71 0.19,0.52 0.61,1.62 0.61,2.18 0,0.67 -0.43,1.07 -1.15,1.07 -0.89,0 -1.38,-0.64 -1.55,-0.87 -0.05,0.56 -0.46,0.87 -0.92,0.87 -0.45,0 -0.64,-0.39 -0.74,-0.57 -0.16,-0.34 -0.3,-0.92 -0.3,-0.96 0,-0.1 0.1,-0.1 0.12,-0.1 0.1,0 0.11,0.01 0.17,0.22 0.17,0.71 0.37,1.19 0.73,1.19 0.19,0 0.3,-0.13 0.3,-0.46 0,-0.21 -0.03,-0.32 -0.16,-0.83 z"
   id="path4278" />
<path
   style="fill:#000000;stroke-width:0"
   inkscape:connector-curvature="0"
   d="m 239.01,660.48 0.03,0 0.03,0 0.03,0 0.02,0.01 0.01,0 0.01,0 0.02,0 0.01,0 0.02,0 0.01,0.01 0.01,0 0.02,0 0.01,0.01 0.01,0 0.01,0.01 0.01,0 0.01,0.01 0.01,0.01 0.01,0.01 0.01,0.01 0.01,0.01 0,0 0.01,0.01 0,0 0,0.01 0.01,0.01 0,0 0,0.01 0,0.01 0.01,0 0,0.01 0,0.01 0,0.01 0,0.01 0,0 0,0.01 0,0.01 c 0,0.2 -0.19,0.2 -0.33,0.2 h -5.96 c -0.13,0 -0.32,0 -0.32,-0.2 0,-0.2 0.19,-0.2 0.33,-0.2 z"
   id="path4280" />
<path
   style="fill:#000000;stroke-width:0"
   inkscape:connector-curvature="0"
   d="m 239.02,658.56 0.02,0 0.01,0 0.03,0 0.03,0 0.01,0 0.01,0 0.02,0 0.01,0 0.02,0 0.01,0.01 0.01,0 0.02,0 0.01,0.01 0.01,0 0.01,0.01 0.01,0 0.01,0.01 0.01,0 0.01,0.01 0.01,0.01 0.01,0.01 0.01,0 0,0.01 0,0.01 0.01,0 0,0.01 0,0 0.01,0.01 0,0.01 0,0 0,0.01 0.01,0.01 0,0 0,0.01 0,0.01 0,0.01 0,0.01 0,0.01 0,0.01 c 0,0.19 -0.19,0.19 -0.34,0.19 h -5.94 c -0.14,0 -0.33,0 -0.33,-0.19 0,-0.2 0.19,-0.2 0.32,-0.2 z"
   id="path4282" />
<path
   style="fill:#000000;stroke-width:0"
   inkscape:connector-curvature="0"
   d="m 247.27,660.41 0,0.15 0,0.15 0,0.15 -0.01,0.15 -0.01,0.15 -0.01,0.14 -0.02,0.15 -0.01,0.15 -0.03,0.14 -0.03,0.15 -0.03,0.14 -0.03,0.15 -0.05,0.14 -0.05,0.14 -0.05,0.14 -0.03,0.07 -0.03,0.07 c -0.46,0.95 -1.28,1.11 -1.7,1.11 -0.59,0 -1.32,-0.26 -1.73,-1.18 -0.32,-0.69 -0.36,-1.46 -0.36,-2.26 0,-0.74 0.03,-1.63 0.44,-2.39 0.43,-0.8 1.16,-1 1.65,-1 v 0.21 c -0.39,0 -0.98,0.25 -1.16,1.21 -0.11,0.59 -0.11,1.51 -0.11,2.09 0,0.64 0,1.29 0.08,1.83 0.19,1.18 0.94,1.27 1.19,1.27 0.32,0 0.98,-0.18 1.17,-1.16 0.1,-0.56 0.1,-1.31 0.1,-1.94 0,-0.74 0,-1.42 -0.11,-2.05 -0.15,-0.95 -0.72,-1.25 -1.16,-1.25 h 0 v -0.21 c 0.53,0 1.29,0.2 1.73,1.15 0.31,0.68 0.36,1.46 0.36,2.24 z"
   id="path4284" />
</g>  <g
     style="font-style:normal;font-variant:normal;font-weight:normal;font-stretch:normal;letter-spacing:normal;word-spacing:normal;text-anchor:start;fill:none;stroke:#000000;stroke-linecap:butt;stroke-linejoin:miter;stroke-miterlimit:10.43299961;stroke-opacity:1;stroke-dasharray:none;stroke-dashoffset:0"
     ns0:preamble="/home/erik/.config/inkscape/extensions/anyname.ini"
     ns0:text="$n=1$"
     word-spacing="normal"
     letter-spacing="normal"
     font-size-adjust="none"
     font-stretch="normal"
     font-weight="normal"
     font-variant="normal"
     font-style="normal"
     stroke-miterlimit="10.433"
     xml:space="preserve"
     transform="matrix(5,0,0,-5,-1105.2979,3525.5761)"
     id="g4508">
<path
   id="path4510"
   d="m 224.31,657.82 0,-0.01 -0.01,-0.02 0,-0.01 0,-0.02 -0.01,-0.03 -0.01,-0.03 -0.01,-0.03 0,-0.04 -0.01,-0.03 -0.01,-0.03 0,-0.01 -0.01,-0.02 0,-0.01 0,-0.02 0,-0.01 -0.01,-0.01 0,-0.02 0,-0.01 0,-0.01 -0.01,-0.01 0,-0.01 0,-0.01 0,-0.01 0,0 0,-0.01 0,-0.01 c 0,-0.17 0.14,-0.26 0.29,-0.26 0.12,0 0.29,0.08 0.37,0.27 0,0.02 0.12,0.49 0.18,0.74 l 0.22,0.89 c 0.06,0.22 0.12,0.44 0.17,0.67 0.04,0.17 0.12,0.46 0.13,0.5 0.15,0.3 0.68,1.21 1.62,1.21 0.45,0 0.54,-0.37 0.54,-0.7 0,-0.61 -0.49,-1.89 -0.65,-2.31 -0.09,-0.23 -0.1,-0.35 -0.1,-0.46 0,-0.47 0.35,-0.81 0.82,-0.81 0.93,0 1.3,1.45 1.3,1.53 0,0.1 -0.09,0.1 -0.12,0.1 -0.1,0 -0.1,-0.04 -0.15,-0.18 -0.19,-0.68 -0.52,-1.24 -1.01,-1.24 -0.17,0 -0.24,0.1 -0.24,0.33 0,0.25 0.09,0.49 0.18,0.71 0.19,0.52 0.61,1.62 0.61,2.18 0,0.67 -0.43,1.07 -1.15,1.07 -0.89,0 -1.38,-0.64 -1.55,-0.87 -0.05,0.56 -0.46,0.87 -0.92,0.87 -0.45,0 -0.64,-0.39 -0.74,-0.57 -0.16,-0.34 -0.3,-0.92 -0.3,-0.96 0,-0.1 0.1,-0.1 0.12,-0.1 0.1,0 0.11,0.01 0.17,0.22 0.17,0.71 0.37,1.19 0.73,1.19 0.19,0 0.3,-0.13 0.3,-0.46 0,-0.21 -0.03,-0.32 -0.16,-0.83 z"
   inkscape:connector-curvature="0"
   style="fill:#000000;stroke-width:0" />
<path
   id="path4512"
   d="m 239.01,660.48 0.03,0 0.03,0 0.03,0 0.02,0.01 0.01,0 0.01,0 0.02,0 0.01,0 0.02,0 0.01,0.01 0.01,0 0.02,0 0.01,0.01 0.01,0 0.01,0.01 0.01,0 0.01,0.01 0.01,0.01 0.01,0.01 0.01,0.01 0.01,0.01 0,0 0.01,0.01 0,0 0,0.01 0.01,0.01 0,0 0,0.01 0,0.01 0.01,0 0,0.01 0,0.01 0,0.01 0,0.01 0,0 0,0.01 0,0.01 c 0,0.2 -0.19,0.2 -0.33,0.2 h -5.96 c -0.13,0 -0.32,0 -0.32,-0.2 0,-0.2 0.19,-0.2 0.33,-0.2 z"
   inkscape:connector-curvature="0"
   style="fill:#000000;stroke-width:0" />
<path
   id="path4514"
   d="m 239.02,658.56 0.02,0 0.01,0 0.03,0 0.03,0 0.01,0 0.01,0 0.02,0 0.01,0 0.02,0 0.01,0.01 0.01,0 0.02,0 0.01,0.01 0.01,0 0.01,0.01 0.01,0 0.01,0.01 0.01,0 0.01,0.01 0.01,0.01 0.01,0.01 0.01,0 0,0.01 0,0.01 0.01,0 0,0.01 0,0 0.01,0.01 0,0.01 0,0 0,0.01 0.01,0.01 0,0 0,0.01 0,0.01 0,0.01 0,0.01 0,0.01 0,0.01 c 0,0.19 -0.19,0.19 -0.34,0.19 h -5.94 c -0.14,0 -0.33,0 -0.33,-0.19 0,-0.2 0.19,-0.2 0.32,-0.2 z"
   inkscape:connector-curvature="0"
   style="fill:#000000;stroke-width:0" />
<path
   id="path4516"
   d="m 245.62,663.59 0,0.01 0,0.01 0,0.02 0,0.01 0,0 0,0.01 0,0.01 0,0.01 0,0.01 0,0.01 0,0.01 0,0.01 0,0 0,0.01 0,0.01 0,0 0,0.01 0,0.01 0,0.01 -0.01,0.01 0,0.01 0,0.01 -0.01,0.01 0,0 -0.01,0.01 0,0.01 -0.01,0 0,0.01 -0.01,0 -0.01,0.01 -0.01,0 0,0 -0.01,0 0,0 -0.01,0 0,0 -0.01,0.01 -0.01,0 0,0 -0.01,0 -0.01,0 0,0 -0.01,0 -0.01,0 -0.01,0 -0.01,0 -0.01,0 -0.01,0 -0.01,0 -0.01,0 -0.01,0 -0.01,0 c -0.61,-0.63 -1.49,-0.63 -1.81,-0.63 v -0.31 c 0.2,0 0.79,0 1.31,0.25 v -5.14 c 0,-0.36 -0.03,-0.48 -0.93,-0.48 h -0.32 v -0.31 c 0.35,0.04 1.22,0.04 1.61,0.04 0.4,0 1.27,0 1.62,-0.04 v 0.31 h -0.32 c -0.9,0 -0.93,0.11 -0.93,0.48 z"
   inkscape:connector-curvature="0"
   style="fill:#000000;stroke-width:0" />
</g>  <g
     id="g4750"
     transform="matrix(5,0,0,-5,-1104.809,3338.9271)"
     xml:space="preserve"
     stroke-miterlimit="10.433"
     font-style="normal"
     font-variant="normal"
     font-weight="normal"
     font-stretch="normal"
     font-size-adjust="none"
     letter-spacing="normal"
     word-spacing="normal"
     ns0:text="$n=2$"
     ns0:preamble="/home/erik/.config/inkscape/extensions/anyname.ini"
     style="font-style:normal;font-variant:normal;font-weight:normal;font-stretch:normal;letter-spacing:normal;word-spacing:normal;text-anchor:start;fill:none;stroke:#000000;stroke-linecap:butt;stroke-linejoin:miter;stroke-miterlimit:10.43299961;stroke-opacity:1;stroke-dasharray:none;stroke-dashoffset:0">
<path
   style="fill:#000000;stroke-width:0"
   inkscape:connector-curvature="0"
   d="m 224.31,657.82 0,-0.01 -0.01,-0.02 0,-0.01 0,-0.02 -0.01,-0.03 -0.01,-0.03 -0.01,-0.03 0,-0.04 -0.01,-0.03 -0.01,-0.03 0,-0.01 -0.01,-0.02 0,-0.01 0,-0.02 0,-0.01 -0.01,-0.01 0,-0.02 0,-0.01 0,-0.01 -0.01,-0.01 0,-0.01 0,-0.01 0,-0.01 0,0 0,-0.01 0,-0.01 c 0,-0.17 0.14,-0.26 0.29,-0.26 0.12,0 0.29,0.08 0.37,0.27 0,0.02 0.12,0.49 0.18,0.74 l 0.22,0.89 c 0.06,0.22 0.12,0.44 0.17,0.67 0.04,0.17 0.12,0.46 0.13,0.5 0.15,0.3 0.68,1.21 1.62,1.21 0.45,0 0.54,-0.37 0.54,-0.7 0,-0.61 -0.49,-1.89 -0.65,-2.31 -0.09,-0.23 -0.1,-0.35 -0.1,-0.46 0,-0.47 0.35,-0.81 0.82,-0.81 0.93,0 1.3,1.45 1.3,1.53 0,0.1 -0.09,0.1 -0.12,0.1 -0.1,0 -0.1,-0.04 -0.15,-0.18 -0.19,-0.68 -0.52,-1.24 -1.01,-1.24 -0.17,0 -0.24,0.1 -0.24,0.33 0,0.25 0.09,0.49 0.18,0.71 0.19,0.52 0.61,1.62 0.61,2.18 0,0.67 -0.43,1.07 -1.15,1.07 -0.89,0 -1.38,-0.64 -1.55,-0.87 -0.05,0.56 -0.46,0.87 -0.92,0.87 -0.45,0 -0.64,-0.39 -0.74,-0.57 -0.16,-0.34 -0.3,-0.92 -0.3,-0.96 0,-0.1 0.1,-0.1 0.12,-0.1 0.1,0 0.11,0.01 0.17,0.22 0.17,0.71 0.37,1.19 0.73,1.19 0.19,0 0.3,-0.13 0.3,-0.46 0,-0.21 -0.03,-0.32 -0.16,-0.83 z"
   id="path4752" />
<path
   style="fill:#000000;stroke-width:0"
   inkscape:connector-curvature="0"
   d="m 239.01,660.48 0.03,0 0.03,0 0.03,0 0.02,0.01 0.01,0 0.01,0 0.02,0 0.01,0 0.02,0 0.01,0.01 0.01,0 0.02,0 0.01,0.01 0.01,0 0.01,0.01 0.01,0 0.01,0.01 0.01,0.01 0.01,0.01 0.01,0.01 0.01,0.01 0,0 0.01,0.01 0,0 0,0.01 0.01,0.01 0,0 0,0.01 0,0.01 0.01,0 0,0.01 0,0.01 0,0.01 0,0.01 0,0 0,0.01 0,0.01 c 0,0.2 -0.19,0.2 -0.33,0.2 h -5.96 c -0.13,0 -0.32,0 -0.32,-0.2 0,-0.2 0.19,-0.2 0.33,-0.2 z"
   id="path4754" />
<path
   style="fill:#000000;stroke-width:0"
   inkscape:connector-curvature="0"
   d="m 239.02,658.56 0.02,0 0.01,0 0.03,0 0.03,0 0.01,0 0.01,0 0.02,0 0.01,0 0.02,0 0.01,0.01 0.01,0 0.02,0 0.01,0.01 0.01,0 0.01,0.01 0.01,0 0.01,0.01 0.01,0 0.01,0.01 0.01,0.01 0.01,0.01 0.01,0 0,0.01 0,0.01 0.01,0 0,0.01 0,0 0.01,0.01 0,0.01 0,0 0,0.01 0.01,0.01 0,0 0,0.01 0,0.01 0,0.01 0,0.01 0,0.01 0,0.01 c 0,0.19 -0.19,0.19 -0.34,0.19 h -5.94 c -0.14,0 -0.33,0 -0.33,-0.19 0,-0.2 0.19,-0.2 0.32,-0.2 z"
   id="path4756" />
<path
   style="fill:#000000;stroke-width:0"
   inkscape:connector-curvature="0"
   d="m 243.96,658 1.06,1.02 c 1.55,1.37 2.14,1.91 2.14,2.9 0,1.14 -0.89,1.93 -2.11,1.93 -1.12,0 -1.85,-0.91 -1.85,-1.8 0,-0.55 0.49,-0.55 0.52,-0.55 0.17,0 0.52,0.12 0.52,0.52 0,0.26 -0.18,0.52 -0.53,0.52 -0.08,0 -0.1,0 -0.13,-0.01 0.23,0.64 0.77,1.01 1.35,1.01 0.9,0 1.33,-0.8 1.33,-1.62 0,-0.79 -0.5,-1.58 -1.05,-2.19 l -1.91,-2.13 c -0.1,-0.11 -0.1,-0.13 -0.1,-0.37 h 3.69 l 0.27,1.73 h -0.24 c -0.05,-0.3 -0.12,-0.73 -0.22,-0.88 C 246.63,658 245.97,658 245.75,658 z"
   id="path4758" />
</g>  <g
     style="font-style:normal;font-variant:normal;font-weight:normal;font-stretch:normal;letter-spacing:normal;word-spacing:normal;text-anchor:start;fill:none;stroke:#000000;stroke-linecap:butt;stroke-linejoin:miter;stroke-miterlimit:10.43299961;stroke-opacity:1;stroke-dasharray:none;stroke-dashoffset:0"
     ns0:preamble="/home/erik/.config/inkscape/extensions/anyname.ini"
     ns0:text="$\\mathbf{m}^{K}$"
     text-anchor="start"
     word-spacing="normal"
     letter-spacing="normal"
     font-size-adjust="none"
     font-stretch="normal"
     font-weight="normal"
     font-variant="normal"
     font-style="normal"
     fill-opacity="1"
     fill-rule="evenodd"
     fill="none"
     stroke-opacity="1"
     stroke-dashoffset="0"
     stroke-dasharray="none"
     stroke-miterlimit="10.433"
     stroke-linejoin="miter"
     stroke-linecap="butt"
     stroke="black"
     xml:space="preserve"
     transform="matrix(4.2986489,0,0,-4.3578723,-327.43478,3363.5566)"
     id="g3188">
<path
   id="path3190"
   fill="black"
   stroke-width="0"
   d="M224.57,660.77 V657.7 H223.88 V657.23 C224.16,657.24,224.76,657.27,225.13,657.27 C225.52,657.27,226.11,657.24,226.39,657.23 V657.7 H225.7 V659.78 C225.7,660.86,226.57,661.35,227.18,661.35 C227.52,661.35,227.74,661.15,227.74,660.38 V657.7 H227.05 V657.23 C227.33,657.24,227.93,657.27,228.31,657.27 C228.7,657.27,229.28,657.24,229.56,657.23 V657.7 H228.87 V659.78 C228.87,660.86,229.74,661.35,230.36,661.35 C230.7,661.35,230.91,661.15,230.91,660.38 V657.7 H230.23 V657.23 C230.51,657.24,231.1,657.27,231.48,657.27 C231.87,657.27,232.46,657.24,232.73,657.23 V657.7 H232.05 V660.28 C232.05,661.3,231.54,661.71,230.52,661.71 C229.61,661.71,229.09,661.21,228.83,660.75 C228.63,661.67,227.72,661.71,227.34,661.71 C226.48,661.71,225.91,661.26,225.59,660.63 V661.71 L223.88,661.63 V661.16 C224.5,661.16,224.57,661.16,224.57,660.77 Z " />
<path
   id="path3192"
   fill="black"
   stroke-width="0"
   d="M236.96,663.65 L236.96,663.65 L236.96,663.66 L236.96,663.66 L236.95,663.67 L236.95,663.67 L236.95,663.67 L236.95,663.68 L236.95,663.68 L236.94,663.69 L236.94,663.69 L236.94,663.69 L236.94,663.7 L236.94,663.7 L236.94,663.7 L236.93,663.7 L236.93,663.71 L236.93,663.71 L236.93,663.71 L236.93,663.71 L236.93,663.72 L236.93,663.72 L236.93,663.72 L236.93,663.72 L236.92,663.72 L236.92,663.72 L236.92,663.72 L236.92,663.73 L236.92,663.73 L236.92,663.73 L236.92,663.73 L236.92,663.73 L236.92,663.73 C236.92,663.74,236.93,663.75,237.09,663.86 L237.79,664.36 C238.71,665,239.14,665.31,239.64,665.35 C239.71,665.36,239.8,665.36,239.8,665.5 C239.8,665.56,239.75,665.59,239.71,665.59 C239.56,665.59,239.38,665.57,239.23,665.57 C239.04,665.57,238.57,665.6,238.38,665.6 C238.34,665.6,238.24,665.6,238.24,665.45 C238.24,665.44,238.24,665.36,238.34,665.35 C238.43,665.34,238.52,665.33,238.52,665.25 C238.52,665.13,238.3,664.97,238.21,664.91 L235.31,662.87 L235.86,665.06 C235.92,665.29,235.93,665.35,236.47,665.35 C236.58,665.35,236.68,665.35,236.68,665.5 C236.68,665.56,236.64,665.6,236.57,665.6 C236.37,665.6,235.86,665.57,235.65,665.57 C235.54,665.57,235.29,665.57,235.17,665.58 C235.04,665.59,234.87,665.6,234.74,665.6 C234.69,665.6,234.59,665.6,234.59,665.45 C234.59,665.35,234.66,665.35,234.82,665.35 C234.93,665.35,234.96,665.35,235.08,665.34 C235.22,665.32,235.24,665.31,235.24,665.24 C235.24,665.22,235.24,665.19,235.21,665.09 L234.28,661.39 C234.23,661.16,234.21,661.1,233.67,661.1 C233.54,661.1,233.46,661.1,233.46,660.95 C233.46,660.94,233.46,660.85,233.57,660.85 C233.77,660.85,234.27,660.88,234.48,660.88 C234.6,660.88,234.84,660.88,234.96,660.87 C235.1,660.86,235.27,660.85,235.4,660.85 C235.45,660.85,235.55,660.85,235.55,661 C235.55,661.1,235.47,661.1,235.33,661.1 C235.32,661.1,235.19,661.1,235.06,661.11 C234.9,661.13,234.9,661.15,234.9,661.22 C234.9,661.28,234.97,661.53,235.23,662.55 L236.39,663.37 L237.4,661.41 C237.44,661.32,237.44,661.32,237.44,661.28 C237.44,661.12,237.25,661.1,237.12,661.1 C237.04,661.1,236.94,661.1,236.94,660.95 C236.94,660.94,236.95,660.85,237.06,660.85 C237.26,660.85,237.76,660.88,237.95,660.88 C238.16,660.88,238.44,660.85,238.63,660.85 C238.73,660.85,238.77,660.9,238.77,661 C238.77,661.1,238.68,661.1,238.61,661.1 C238.49,661.1,238.27,661.11,238.15,661.33 Z " />
</g>  <g
     id="g3399"
     transform="matrix(4.2986489,0,0,-4.3578723,-383.24574,3126.3031)"
     xml:space="preserve"
     stroke="black"
     stroke-linecap="butt"
     stroke-linejoin="miter"
     stroke-miterlimit="10.433"
     stroke-dasharray="none"
     stroke-dashoffset="0"
     stroke-opacity="1"
     fill="none"
     fill-rule="evenodd"
     fill-opacity="1"
     font-style="normal"
     font-variant="normal"
     font-weight="normal"
     font-stretch="normal"
     font-size-adjust="none"
     letter-spacing="normal"
     word-spacing="normal"
     text-anchor="start"
     ns0:text="$C_{1}\\left(\\mathbf{m}^{K}\\right)$"
     ns0:preamble="/home/erik/.config/inkscape/extensions/anyname.ini"
     style="font-style:normal;font-variant:normal;font-weight:normal;font-stretch:normal;letter-spacing:normal;word-spacing:normal;text-anchor:start;fill:none;stroke:#000000;stroke-linecap:butt;stroke-linejoin:miter;stroke-miterlimit:10.43299961;stroke-opacity:1;stroke-dasharray:none;stroke-dashoffset:0">
<path
   d="M230.99,664.14 L230.99,664.14 L230.99,664.15 L230.99,664.15 L230.99,664.15 L230.99,664.16 L230.99,664.16 L230.99,664.16 L230.99,664.17 L230.99,664.17 L230.99,664.18 L230.98,664.18 L230.98,664.18 L230.98,664.19 L230.98,664.19 L230.97,664.2 L230.97,664.2 L230.97,664.2 L230.97,664.21 L230.96,664.21 L230.96,664.21 L230.95,664.22 L230.95,664.22 L230.94,664.22 L230.94,664.23 L230.93,664.23 L230.93,664.23 L230.93,664.23 L230.92,664.23 L230.92,664.23 L230.92,664.23 L230.91,664.23 L230.91,664.24 L230.91,664.24 L230.9,664.24 L230.9,664.24 L230.9,664.24 L230.89,664.24 L230.89,664.24 L230.88,664.24 C230.85,664.24,230.84,664.23,230.74,664.12 L230.04,663.35 C229.95,663.49,229.49,664.24,228.39,664.24 C226.17,664.24,223.93,662.04,223.93,659.74 C223.93,658.1,225.1,657.02,226.63,657.02 C227.49,657.02,228.25,657.41,228.77,657.87 C229.7,658.68,229.87,659.59,229.87,659.62 C229.87,659.72,229.77,659.72,229.75,659.72 C229.69,659.72,229.64,659.7,229.62,659.62 C229.53,659.33,229.3,658.63,228.62,658.05 C227.93,657.49,227.3,657.32,226.79,657.32 C225.89,657.32,224.84,657.84,224.84,659.39 C224.84,659.96,225.04,661.57,226.04,662.73 C226.65,663.43,227.58,663.93,228.47,663.93 C229.48,663.93,230.07,663.16,230.07,662.01 C230.07,661.62,230.04,661.61,230.04,661.51 C230.04,661.41,230.15,661.41,230.19,661.41 C230.32,661.41,230.32,661.43,230.37,661.61 Z "
   stroke-width="0"
   fill="black"
   id="path3401" />
<path
   d="M232.89,660.16 L232.89,660.17 L232.89,660.18 L232.89,660.19 L232.89,660.2 L232.89,660.2 L232.89,660.21 L232.89,660.22 L232.89,660.23 L232.88,660.23 L232.88,660.24 L232.88,660.25 L232.88,660.25 L232.88,660.26 L232.88,660.26 L232.88,660.27 L232.88,660.27 L232.88,660.28 L232.88,660.28 L232.88,660.29 L232.87,660.3 L232.87,660.31 L232.87,660.31 L232.86,660.32 L232.86,660.33 L232.85,660.33 L232.85,660.34 L232.84,660.34 L232.84,660.34 L232.83,660.35 L232.82,660.35 L232.81,660.35 L232.8,660.35 L232.8,660.35 L232.79,660.35 L232.79,660.35 L232.78,660.36 L232.77,660.36 L232.77,660.36 L232.76,660.36 L232.76,660.36 L232.75,660.36 L232.74,660.36 L232.73,660.36 L232.73,660.36 L232.72,660.36 L232.71,660.36 L232.7,660.36 L232.69,660.36 L232.69,660.36 L232.68,660.36 C232.23,659.92,231.6,659.91,231.31,659.91 V659.66 C231.48,659.66,231.94,659.66,232.32,659.86 V656.31 C232.32,656.08,232.32,655.99,231.63,655.99 H231.36 V655.74 C231.49,655.75,232.34,655.77,232.6,655.77 C232.82,655.77,233.69,655.75,233.85,655.74 V655.99 H233.58 C232.89,655.99,232.89,656.08,232.89,656.31 Z "
   stroke-width="0"
   fill="black"
   id="path3403" />
<path
   d="M240.79,653.89 L240.79,653.89 L240.79,653.9 L240.79,653.9 L240.79,653.91 L240.79,653.91 L240.79,653.91 L240.79,653.91 L240.79,653.92 L240.79,653.92 L240.79,653.92 L240.78,653.93 L240.78,653.93 L240.78,653.93 L240.78,653.93 L240.78,653.94 L240.78,653.94 L240.78,653.94 L240.77,653.95 L240.77,653.95 L240.77,653.96 L240.76,653.96 L240.76,653.97 L240.75,653.97 L240.75,653.98 C240.29,654.47,239.62,655.27,239.2,656.89 C238.97,657.79,238.88,658.82,238.88,659.74 C238.88,662.35,239.51,664.18,240.7,665.47 C240.79,665.56,240.79,665.58,240.79,665.6 C240.79,665.7,240.71,665.7,240.67,665.7 C240.52,665.7,239.99,665.11,239.86,664.96 C238.84,663.76,238.19,661.97,238.19,659.75 C238.19,658.34,238.44,656.34,239.75,654.67 C239.85,654.55,240.49,653.79,240.67,653.79 C240.71,653.79,240.79,653.79,240.79,653.89 Z "
   stroke-width="0"
   fill="black"
   id="path3405" />
<path
   d="M242.38,660.77 V657.7 H241.7 V657.23 C241.98,657.24,242.57,657.27,242.95,657.27 C243.34,657.27,243.93,657.24,244.2,657.23 V657.7 H243.52 V659.78 C243.52,660.86,244.38,661.35,245,661.35 C245.34,661.35,245.56,661.15,245.56,660.38 V657.7 H244.87 V657.23 C245.15,657.24,245.75,657.27,246.12,657.27 C246.51,657.27,247.1,657.24,247.38,657.23 V657.7 H246.69 V659.78 C246.69,660.86,247.56,661.35,248.17,661.35 C248.51,661.35,248.73,661.15,248.73,660.38 V657.7 H248.04 V657.23 C248.32,657.24,248.92,657.27,249.3,657.27 C249.69,657.27,250.27,657.24,250.55,657.23 V657.7 H249.87 V660.28 C249.87,661.3,249.36,661.71,248.33,661.71 C247.43,661.71,246.91,661.21,246.65,660.75 C246.45,661.67,245.54,661.71,245.16,661.71 C244.29,661.71,243.73,661.26,243.41,660.63 V661.71 L241.7,661.63 V661.16 C242.31,661.16,242.38,661.16,242.38,660.77 Z "
   stroke-width="0"
   fill="black"
   id="path3407" />
<path
   d="M254.78,663.65 L254.78,663.65 L254.77,663.66 L254.77,663.66 L254.77,663.67 L254.77,663.67 L254.77,663.67 L254.76,663.68 L254.76,663.68 L254.76,663.69 L254.76,663.69 L254.76,663.69 L254.75,663.7 L254.75,663.7 L254.75,663.7 L254.75,663.7 L254.75,663.71 L254.75,663.71 L254.75,663.71 L254.74,663.71 L254.74,663.72 L254.74,663.72 L254.74,663.72 L254.74,663.72 L254.74,663.72 L254.74,663.72 L254.74,663.72 L254.74,663.73 L254.74,663.73 L254.74,663.73 L254.74,663.73 L254.74,663.73 L254.74,663.73 C254.74,663.74,254.74,663.75,254.9,663.86 L255.61,664.36 C256.53,665,256.96,665.31,257.45,665.35 C257.53,665.36,257.61,665.36,257.61,665.5 C257.61,665.56,257.57,665.59,257.52,665.59 C257.38,665.59,257.2,665.57,257.04,665.57 C256.86,665.57,256.39,665.6,256.2,665.6 C256.16,665.6,256.05,665.6,256.05,665.45 C256.05,665.44,256.05,665.36,256.16,665.35 C256.24,665.34,256.33,665.33,256.33,665.25 C256.33,665.13,256.12,664.97,256.03,664.91 L253.12,662.87 L253.67,665.06 C253.74,665.29,253.74,665.35,254.29,665.35 C254.4,665.35,254.49,665.35,254.49,665.5 C254.49,665.56,254.45,665.6,254.38,665.6 C254.18,665.6,253.67,665.57,253.47,665.57 C253.35,665.57,253.11,665.57,252.99,665.58 C252.85,665.59,252.68,665.6,252.55,665.6 C252.51,665.6,252.4,665.6,252.4,665.45 C252.4,665.35,252.48,665.35,252.63,665.35 C252.75,665.35,252.77,665.35,252.9,665.34 C253.04,665.32,253.05,665.31,253.05,665.24 C253.05,665.22,253.05,665.19,253.02,665.09 L252.1,661.39 C252.04,661.16,252.03,661.1,251.49,661.1 C251.36,661.1,251.28,661.1,251.28,660.95 C251.28,660.94,251.28,660.85,251.39,660.85 C251.59,660.85,252.09,660.88,252.29,660.88 C252.41,660.88,252.66,660.88,252.77,660.87 C252.91,660.86,253.09,660.85,253.22,660.85 C253.26,660.85,253.37,660.85,253.37,661 C253.37,661.1,253.28,661.1,253.14,661.1 C253.14,661.1,253,661.1,252.88,661.11 C252.72,661.13,252.72,661.15,252.72,661.22 C252.72,661.28,252.79,661.53,253.05,662.55 L254.2,663.37 L255.21,661.41 C255.26,661.32,255.26,661.32,255.26,661.28 C255.26,661.12,255.07,661.1,254.94,661.1 C254.86,661.1,254.76,661.1,254.76,660.95 C254.76,660.94,254.77,660.85,254.88,660.85 C255.07,660.85,255.57,660.88,255.77,660.88 C255.98,660.88,256.26,660.85,256.45,660.85 C256.54,660.85,256.59,660.9,256.59,661 C256.59,661.1,256.5,661.1,256.43,661.1 C256.3,661.1,256.09,661.11,255.97,661.33 Z "
   stroke-width="0"
   fill="black"
   id="path3409" />
<path
   d="M261.51,659.74 L261.51,660.01 L261.5,660.3 L261.48,660.59 L261.45,660.9 L261.41,661.21 L261.36,661.53 L261.3,661.85 L261.22,662.18 L261.18,662.35 L261.13,662.52 L261.08,662.69 L261.02,662.85 L260.96,663.02 L260.9,663.19 L260.83,663.36 L260.75,663.52 L260.67,663.69 L260.59,663.86 L260.5,664.02 L260.4,664.19 L260.3,664.35 L260.19,664.51 L260.08,664.67 L259.96,664.83 C259.86,664.95,259.21,665.7,259.03,665.7 C258.98,665.7,258.92,665.68,258.92,665.6 C258.92,665.56,258.93,665.53,258.97,665.5 C259.45,664.99,260.1,664.18,260.51,662.6 C260.73,661.7,260.83,660.68,260.83,659.75 C260.83,658.75,260.73,657.73,260.48,656.76 C260.1,655.37,259.51,654.58,259,654.02 C258.92,653.93,258.92,653.91,258.92,653.89 C258.92,653.81,258.98,653.79,259.03,653.79 C259.18,653.79,259.73,654.4,259.85,654.54 C260.86,655.74,261.51,657.53,261.51,659.74 Z "
   stroke-width="0"
   fill="black"
   id="path3411" />
</g>  <g
     style="font-style:normal;font-variant:normal;font-weight:normal;font-stretch:normal;letter-spacing:normal;word-spacing:normal;text-anchor:start;fill:none;stroke:#000000;stroke-linecap:butt;stroke-linejoin:miter;stroke-miterlimit:10.43299961;stroke-opacity:1;stroke-dasharray:none;stroke-dashoffset:0"
     ns0:preamble="/home/erik/.config/inkscape/extensions/anyname.ini"
     ns0:text="$C_{2}\\left(\\mathbf{m}^{K}\\right)$"
     text-anchor="start"
     word-spacing="normal"
     letter-spacing="normal"
     font-size-adjust="none"
     font-stretch="normal"
     font-weight="normal"
     font-variant="normal"
     font-style="normal"
     fill-opacity="1"
     fill-rule="evenodd"
     fill="none"
     stroke-opacity="1"
     stroke-dashoffset="0"
     stroke-dasharray="none"
     stroke-miterlimit="10.433"
     stroke-linejoin="miter"
     stroke-linecap="butt"
     stroke="black"
     xml:space="preserve"
     transform="matrix(4.2986489,0,0,-4.3578723,-411.24448,2953.5003)"
     id="g3618">
<path
   id="path3620"
   fill="black"
   stroke-width="0"
   d="M230.99,664.14 L230.99,664.14 L230.99,664.15 L230.99,664.15 L230.99,664.15 L230.99,664.16 L230.99,664.16 L230.99,664.16 L230.99,664.17 L230.99,664.17 L230.99,664.18 L230.98,664.18 L230.98,664.18 L230.98,664.19 L230.98,664.19 L230.97,664.2 L230.97,664.2 L230.97,664.2 L230.97,664.21 L230.96,664.21 L230.96,664.21 L230.95,664.22 L230.95,664.22 L230.94,664.22 L230.94,664.23 L230.93,664.23 L230.93,664.23 L230.93,664.23 L230.92,664.23 L230.92,664.23 L230.92,664.23 L230.91,664.23 L230.91,664.24 L230.91,664.24 L230.9,664.24 L230.9,664.24 L230.9,664.24 L230.89,664.24 L230.89,664.24 L230.88,664.24 C230.85,664.24,230.84,664.23,230.74,664.12 L230.04,663.35 C229.95,663.49,229.49,664.24,228.39,664.24 C226.17,664.24,223.93,662.04,223.93,659.74 C223.93,658.1,225.1,657.02,226.63,657.02 C227.49,657.02,228.25,657.41,228.77,657.87 C229.7,658.68,229.87,659.59,229.87,659.62 C229.87,659.72,229.77,659.72,229.75,659.72 C229.69,659.72,229.64,659.7,229.62,659.62 C229.53,659.33,229.3,658.63,228.62,658.05 C227.93,657.49,227.3,657.32,226.79,657.32 C225.89,657.32,224.84,657.84,224.84,659.39 C224.84,659.96,225.04,661.57,226.04,662.73 C226.65,663.43,227.58,663.93,228.47,663.93 C229.48,663.93,230.07,663.16,230.07,662.01 C230.07,661.62,230.04,661.61,230.04,661.51 C230.04,661.41,230.15,661.41,230.19,661.41 C230.32,661.41,230.32,661.43,230.37,661.61 Z " />
<path
   id="path3622"
   fill="black"
   stroke-width="0"
   d="M234.07,657.01 H233.83 C233.81,656.85,233.74,656.44,233.65,656.37 C233.6,656.33,233.06,656.33,232.96,656.33 H231.68 C232.41,656.98,232.66,657.17,233.07,657.5 C233.59,657.91,234.07,658.34,234.07,659 C234.07,659.84,233.33,660.36,232.44,660.36 C231.58,660.36,230.99,659.75,230.99,659.11 C230.99,658.76,231.29,658.72,231.36,658.72 C231.53,658.72,231.73,658.84,231.73,659.09 C231.73,659.22,231.68,659.46,231.32,659.46 C231.54,659.96,232.01,660.11,232.34,660.11 C233.03,660.11,233.39,659.57,233.39,659 C233.39,658.4,232.96,657.92,232.74,657.67 L231.06,656.01 C230.99,655.95,230.99,655.94,230.99,655.74 H233.86 Z " />
<path
   id="path3624"
   fill="black"
   stroke-width="0"
   d="M240.79,653.89 L240.79,653.89 L240.79,653.9 L240.79,653.9 L240.79,653.91 L240.79,653.91 L240.79,653.91 L240.79,653.91 L240.79,653.92 L240.79,653.92 L240.79,653.92 L240.78,653.93 L240.78,653.93 L240.78,653.93 L240.78,653.93 L240.78,653.94 L240.78,653.94 L240.78,653.94 L240.77,653.95 L240.77,653.95 L240.77,653.96 L240.76,653.96 L240.76,653.97 L240.75,653.97 L240.75,653.98 C240.29,654.47,239.62,655.27,239.2,656.89 C238.97,657.79,238.88,658.82,238.88,659.74 C238.88,662.35,239.51,664.18,240.7,665.47 C240.79,665.56,240.79,665.58,240.79,665.6 C240.79,665.7,240.71,665.7,240.67,665.7 C240.52,665.7,239.99,665.11,239.86,664.96 C238.84,663.76,238.19,661.97,238.19,659.75 C238.19,658.34,238.44,656.34,239.75,654.67 C239.85,654.55,240.49,653.79,240.67,653.79 C240.71,653.79,240.79,653.79,240.79,653.89 Z " />
<path
   id="path3626"
   fill="black"
   stroke-width="0"
   d="M242.38,660.77 V657.7 H241.7 V657.23 C241.98,657.24,242.57,657.27,242.95,657.27 C243.34,657.27,243.93,657.24,244.2,657.23 V657.7 H243.52 V659.78 C243.52,660.86,244.38,661.35,245,661.35 C245.34,661.35,245.56,661.15,245.56,660.38 V657.7 H244.87 V657.23 C245.15,657.24,245.75,657.27,246.12,657.27 C246.51,657.27,247.1,657.24,247.38,657.23 V657.7 H246.69 V659.78 C246.69,660.86,247.56,661.35,248.17,661.35 C248.51,661.35,248.73,661.15,248.73,660.38 V657.7 H248.04 V657.23 C248.32,657.24,248.92,657.27,249.3,657.27 C249.69,657.27,250.27,657.24,250.55,657.23 V657.7 H249.87 V660.28 C249.87,661.3,249.36,661.71,248.33,661.71 C247.43,661.71,246.91,661.21,246.65,660.75 C246.45,661.67,245.54,661.71,245.16,661.71 C244.29,661.71,243.73,661.26,243.41,660.63 V661.71 L241.7,661.63 V661.16 C242.31,661.16,242.38,661.16,242.38,660.77 Z " />
<path
   id="path3628"
   fill="black"
   stroke-width="0"
   d="M254.78,663.65 L254.78,663.65 L254.77,663.66 L254.77,663.66 L254.77,663.67 L254.77,663.67 L254.77,663.67 L254.76,663.68 L254.76,663.68 L254.76,663.69 L254.76,663.69 L254.76,663.69 L254.75,663.7 L254.75,663.7 L254.75,663.7 L254.75,663.7 L254.75,663.71 L254.75,663.71 L254.75,663.71 L254.74,663.71 L254.74,663.72 L254.74,663.72 L254.74,663.72 L254.74,663.72 L254.74,663.72 L254.74,663.72 L254.74,663.72 L254.74,663.73 L254.74,663.73 L254.74,663.73 L254.74,663.73 L254.74,663.73 L254.74,663.73 C254.74,663.74,254.74,663.75,254.9,663.86 L255.61,664.36 C256.53,665,256.96,665.31,257.45,665.35 C257.53,665.36,257.61,665.36,257.61,665.5 C257.61,665.56,257.57,665.59,257.52,665.59 C257.38,665.59,257.2,665.57,257.04,665.57 C256.86,665.57,256.39,665.6,256.2,665.6 C256.16,665.6,256.05,665.6,256.05,665.45 C256.05,665.44,256.05,665.36,256.16,665.35 C256.24,665.34,256.33,665.33,256.33,665.25 C256.33,665.13,256.12,664.97,256.03,664.91 L253.12,662.87 L253.67,665.06 C253.74,665.29,253.74,665.35,254.29,665.35 C254.4,665.35,254.49,665.35,254.49,665.5 C254.49,665.56,254.45,665.6,254.38,665.6 C254.18,665.6,253.67,665.57,253.47,665.57 C253.35,665.57,253.11,665.57,252.99,665.58 C252.85,665.59,252.68,665.6,252.55,665.6 C252.51,665.6,252.4,665.6,252.4,665.45 C252.4,665.35,252.48,665.35,252.63,665.35 C252.75,665.35,252.77,665.35,252.9,665.34 C253.04,665.32,253.05,665.31,253.05,665.24 C253.05,665.22,253.05,665.19,253.02,665.09 L252.1,661.39 C252.04,661.16,252.03,661.1,251.49,661.1 C251.36,661.1,251.28,661.1,251.28,660.95 C251.28,660.94,251.28,660.85,251.39,660.85 C251.59,660.85,252.09,660.88,252.29,660.88 C252.41,660.88,252.66,660.88,252.77,660.87 C252.91,660.86,253.09,660.85,253.22,660.85 C253.26,660.85,253.37,660.85,253.37,661 C253.37,661.1,253.28,661.1,253.14,661.1 C253.14,661.1,253,661.1,252.88,661.11 C252.72,661.13,252.72,661.15,252.72,661.22 C252.72,661.28,252.79,661.53,253.05,662.55 L254.2,663.37 L255.21,661.41 C255.26,661.32,255.26,661.32,255.26,661.28 C255.26,661.12,255.07,661.1,254.94,661.1 C254.86,661.1,254.76,661.1,254.76,660.95 C254.76,660.94,254.77,660.85,254.88,660.85 C255.07,660.85,255.57,660.88,255.77,660.88 C255.98,660.88,256.26,660.85,256.45,660.85 C256.54,660.85,256.59,660.9,256.59,661 C256.59,661.1,256.5,661.1,256.43,661.1 C256.3,661.1,256.09,661.11,255.97,661.33 Z " />
<path
   id="path3630"
   fill="black"
   stroke-width="0"
   d="M261.51,659.74 L261.51,660.01 L261.5,660.3 L261.48,660.59 L261.45,660.9 L261.41,661.21 L261.36,661.53 L261.3,661.85 L261.22,662.18 L261.18,662.35 L261.13,662.52 L261.08,662.69 L261.02,662.85 L260.96,663.02 L260.9,663.19 L260.83,663.36 L260.75,663.52 L260.67,663.69 L260.59,663.86 L260.5,664.02 L260.4,664.19 L260.3,664.35 L260.19,664.51 L260.08,664.67 L259.96,664.83 C259.86,664.95,259.21,665.7,259.03,665.7 C258.98,665.7,258.92,665.68,258.92,665.6 C258.92,665.56,258.93,665.53,258.97,665.5 C259.45,664.99,260.1,664.18,260.51,662.6 C260.73,661.7,260.83,660.68,260.83,659.75 C260.83,658.75,260.73,657.73,260.48,656.76 C260.1,655.37,259.51,654.58,259,654.02 C258.92,653.93,258.92,653.91,258.92,653.89 C258.92,653.81,258.98,653.79,259.03,653.79 C259.18,653.79,259.73,654.4,259.85,654.54 C260.86,655.74,261.51,657.53,261.51,659.74 Z " />
</g></svg>
